<mxfile host="Electron" modified="2024-02-13T11:04:38.472Z" agent="Mozilla/5.0 (X11; Linux x86_64) AppleWebKit/537.36 (KHTML, like Gecko) draw.io/23.0.2 Chrome/120.0.6099.109 Electron/28.1.0 Safari/537.36" etag="l_zeMIHu3yCF_NGm4Tt0" version="23.0.2" type="device">
  <diagram name="Page-1" id="sY3dihIyeRsOJ5ECpwZk">
    <mxGraphModel dx="1195" dy="725" grid="1" gridSize="10" guides="1" tooltips="1" connect="1" arrows="1" fold="1" page="1" pageScale="1" pageWidth="850" pageHeight="1100" math="0" shadow="0">
      <root>
        <mxCell id="0" />
        <mxCell id="1" parent="0" />
        <mxCell id="6Ph3FFAFWkGROpy7kaW0-6" value="" style="shape=cylinder3;whiteSpace=wrap;html=1;boundedLbl=1;backgroundOutline=1;size=15;" vertex="1" parent="1">
          <mxGeometry x="620" y="260" width="230" height="407" as="geometry" />
        </mxCell>
        <mxCell id="6Ph3FFAFWkGROpy7kaW0-1" value="" style="shape=image;verticalLabelPosition=bottom;labelBackgroundColor=default;verticalAlign=top;aspect=fixed;imageAspect=0;image=data:image/svg+xml,PHN2ZyB4bWxuczp4bGluaz0iaHR0cDovL3d3dy53My5vcmcvMTk5OS94bGluayIgeG1sbnM9Imh0dHA6Ly93d3cudzMub3JnLzIwMDAvc3ZnIiB4bWw6c3BhY2U9InByZXNlcnZlIiB2aWV3Qm94PSIwIDAgNTI3LjY2OSA1MjcuNjY5IiBoZWlnaHQ9IjgwMHB4IiB3aWR0aD0iODAwcHgiIGlkPSJDYXBhXzEiIHZlcnNpb249IjEuMSIgZmlsbD0iIzAwMDAwMCI+JiN4YTs8Zz4mI3hhOwk8Zz4mI3hhOwkJPGNpcmNsZSByPSIyMS43MTMiIGN5PSIyMDYuMjQ2IiBjeD0iMTI0LjU1NiIvPiYjeGE7CQk8cGF0aCBkPSJNMzg4LjE5NSwzNjYuMjI5YzEyLjUyOSwwLDIyLjY4OCwxMC4xNTgsMjIuNjg4LDIyLjY4OHMtMTAuMTU5LDIyLjY4OS0yMi42ODgsMjIuNjg5cy0yMi43LTEwLjE2LTIyLjctMjIuNjg5JiMxMDsmIzk7JiM5OyYjOTtTMzc1LjY2NiwzNjYuMjI5LDM4OC4xOTUsMzY2LjIyOXoiLz4mI3hhOwkJPHBhdGggZD0iTTI3MS4zMTksMjkxLjZjMTIuNTQxLDAsMjIuNywxMC4xNTgsMjIuNywyMi42ODhjMCwxMi41NDEtMTAuMTU5LDIyLjctMjIuNywyMi43Yy0xMi41MzUsMC0yMi42OTQtMTAuMTU5LTIyLjY5NC0yMi43JiMxMDsmIzk7JiM5OyYjOTtDMjQ4LjYyNSwzMDEuNzU4LDI1OC43ODQsMjkxLjYsMjcxLjMxOSwyOTEuNnoiLz4mI3hhOwkJPHBhdGggZD0iTTM2NC4zMTUsMzE0LjMxMmM4LjM5NiwwLDE1LjE5Miw2Ljc5NiwxNS4xOTIsMTUuMTkyYzAsOC4zOTUtNi43OTYsMTUuMTkxLTE1LjE5MiwxNS4xOTEmIzEwOyYjOTsmIzk7JiM5O2MtOC4zOTYsMC0xNS4yMDMtNi43OTctMTUuMjAzLTE1LjE5MUMzNDkuMTEyLDMyMS4xMDcsMzU1LjkyLDMxNC4zMTIsMzY0LjMxNSwzMTQuMzEyeiIvPiYjeGE7CQk8cGF0aCBkPSJNMjg2LjUyMywzNTguNTIxYzguMzk2LDAsMTUuMTkyLDYuODA3LDE1LjE5MiwxNS4yMDNjMCw4LjM4NS02Ljc5NiwxNS4xOTEtMTUuMTkyLDE1LjE5MXMtMTUuMjA0LTYuODA3LTE1LjIwNC0xNS4xOTEmIzEwOyYjOTsmIzk7JiM5O0MyNzEuMzE5LDM2NS4zMjgsMjc4LjEyNywzNTguNTIxLDI4Ni41MjMsMzU4LjUyMXoiLz4mI3hhOwkJPHBhdGggZD0iTTE2OS45NzksMTQ3LjI5NGM4LjM5NiwwLDE1LjE5OCw2LjgwOCwxNS4xOTgsMTUuMTk4YzAsOC4zOTYtNi44MDIsMTUuMTk4LTE1LjE5OCwxNS4xOTgmIzEwOyYjOTsmIzk7JiM5O2MtOC4zOSwwLTE1LjE5OC02LjgwMi0xNS4xOTgtMTUuMTk4QzE1NC43ODIsMTU0LjEwMiwxNjEuNTksMTQ3LjI5NCwxNjkuOTc5LDE0Ny4yOTR6Ii8+JiN4YTsJCTxwYXRoIGQ9Ik0xMzUuNDAzLDkxLjMxNGM2LjM2NCwwLDExLjUyNSw1LjE2MSwxMS41MjUsMTEuNTI1YzAsNi4zNjQtNS4xNjEsMTEuNTI1LTExLjUyNSwxMS41MjUmIzEwOyYjOTsmIzk7JiM5O2MtNi4zNywwLTExLjUzMS01LjE2MS0xMS41MzEtMTEuNTI1QzEyMy44NzMsOTYuNDc1LDEyOS4wMzQsOTEuMzE0LDEzNS40MDMsOTEuMzE0eiIvPiYjeGE7CQk8cGF0aCBkPSJNMjExLjgwNywyMzkuNjc3YzYuMzcsMCwxMS41MzEsNS4xNjEsMTEuNTMxLDExLjUzMWMwLDYuMzY0LTUuMTYxLDExLjUyNS0xMS41MzEsMTEuNTI1JiMxMDsmIzk7JiM5OyYjOTtjLTYuMzY0LDAtMTEuNTI1LTUuMTYxLTExLjUyNS0xMS41MjVDMjAwLjI4MSwyNDQuODM4LDIwNS40NDMsMjM5LjY3NywyMTEuODA3LDIzOS42Nzd6Ii8+JiN4YTsJCTxwYXRoIGQ9Ik0xODcuMDIyLDg1LjgwMmM5LjQxMiwwLDE3LjAzNyw3LjYyNSwxNy4wMzcsMTcuMDM3YzAsOS40MTItNy42MjUsMTcuMDM3LTE3LjAzNywxNy4wMzcmIzEwOyYjOTsmIzk7JiM5O2MtOS40MTIsMC0xNy4wNDMtNy42MjUtMTcuMDQzLTE3LjAzN0MxNjkuOTc5LDkzLjQyNywxNzcuNjEsODUuODAyLDE4Ny4wMjIsODUuODAyeiIvPiYjeGE7CQk8cGF0aCBkPSJNMTU4LjQ1NCwyNjguNjQyYzYuMzY0LDAsMTEuNTI1LDUuMTU2LDExLjUyNSwxMS41MjVjMCw2LjM2NC01LjE2MSwxMS41MjUtMTEuNTI1LDExLjUyNXMtMTEuNTI1LTUuMTYxLTExLjUyNS0xMS41MjUmIzEwOyYjOTsmIzk7JiM5O0MxNDYuOTI5LDI3My43OTgsMTUyLjA5LDI2OC42NDIsMTU4LjQ1NCwyNjguNjQyeiIvPiYjeGE7CQk8Y2lyY2xlIHI9IjguODYzIiBjeT0iMzQxLjAxNyIgY3g9IjIxNC40NzUiLz4mI3hhOwkJPHBhdGggZD0iTTQxOS43NDcsMzM1Ljg0NGM0Ljg5MywwLDguODYzLDMuOTcxLDguODYzLDguODUyYzAsNC45MDQtMy45NzEsOC44NjMtOC44NjMsOC44NjNzLTguODYzLTMuOTU5LTguODYzLTguODYzJiMxMDsmIzk7JiM5OyYjOTtDNDEwLjg4NCwzMzkuODE0LDQxNC44NTQsMzM1Ljg0NCw0MTkuNzQ3LDMzNS44NDR6Ii8+JiN4YTsJCTxwYXRoIGQ9Ik01MjcuNjY3LDI5NC4wNTJjMC4yNTctMTIuODY4LTE5LjY4OC0xMi44MzMtMTkuOTM0LDBjLTAuMTQsNi45NzItMC44MTYsMTQuOTU4LTQuMzkxLDIxLjA1NCYjMTA7JiM5OyYjOTsmIzk7Yy0xLjg1NiwzLjE3Ni0xMC4yMDUsNS41MjMtMTMuNDE2LDYuOTQ3Yy0yLjAyMSwwLjg4OS00LjExMSwxLjYwMS02LjE3OCwyLjM5NWMtMS40OTQtMy4zMDUtMy4xOTktNi41MzktNS4wMzMtOS42OTEmIzEwOyYjOTsmIzk7JiM5O2M4LjkzNC01LjY2NCwxOC43NzctMTIuNDQ5LDIzLjIxNS0yMS4yNTNjNS4yMy0xMC4zNywzLjI4MS0yNC4yNzcsMC45NjktMzUuMTk1Yy0yLjY2Mi0xMi41NzYtMjEuODgzLTcuMjQ2LTE5LjIyMSw1LjI5NSYjMTA7JiM5OyYjOTsmIzk7YzEuMzA5LDYuMjMsMy4yMzQsMTUuNTAxLDAuMjU4LDIxLjM5OGMtMi42NjMsNS4yNjYtMTAuNTIxLDkuOTQ5LTE2LjgzOSwxMy42NzRjLTQuMjM5LTQuODQ2LTguOTMzLTkuMjYtMTQuMDEzLTEzLjE2JiMxMDsmIzk7JiM5OyYjOTtjNi4xODktNS4yMiwxMi4xNjgtMTAuOTc3LDE1Ljk2My0xNy43MTRjNS44MzgtMTAuMzY5LDIuMDktMjUuODc2LTEuMjk3LTM2LjQ5MWMtMy45MTEtMTIuMTk3LTIzLjE2Ny02Ljk3MS0xOS4yMzEsNS4yOTUmIzEwOyYjOTsmIzk7JiM5O2MxLjk1LDYuMDcyLDUuNzY5LDE2Ljc5OCwyLjQyOSwyMi43MjljLTMuMjcsNS43OTgtOS44OTEsMTAuOTY1LTE1LjgyMiwxNS40NmMtMy41MDQtMS41MTgtNy4xMzUtMi43MjctMTAuODYtMy43MTkmIzEwOyYjOTsmIzk7JiM5O2MzLjQ5MS00Ljg4Nyw2LjU0LTEwLjAzMSw4LjM5Ni0xNS41MTljMy43NDgtMTEuMDg3LTMuNDU3LTI2LjAwNS04LjY0Mi0zNS41NTFjLTYuMTQyLTExLjI5OC0yMy4zNDItMS4yNDQtMTcuMjEyLDEwLjA2JiMxMDsmIzk7JiM5OyYjOTtjMi45NTQsNS40NDcsNy42MjUsMTMuODQzLDYuNjQ1LDIwLjE5NmMtMC45MzUsNS45OS03LjM1NiwxMi45ODUtMTIuNDEzLDE4LjQ1Yy0xLjIzNywwLjA1OC0yLjQ0LDAtMy42ODksMC4xMjgmIzEwOyYjOTsmIzk7JiM5O2MtNi4zNTMsMC42Ni0xMy4xODQsMC42MDEtMjAuMjM2LDAuMDk5YzYuNDU3LTYuMDc4LDEyLjg0NC0xMy4wNzIsMTQuODk5LTIwLjQ5OWMzLjA0OC0xMS4wNTgtMC4yMS0yMy40ODMtNC4zNjctMzMuODc1JiMxMDsmIzk7JiM5OyYjOTtjLTQuNzI5LTExLjc3Ni0yNC4wMDgtNi42NDQtMTkuMjIxLDUuMzAyYzIuMjE5LDUuNTIzLDcuMzIxLDE2Ljc3NCw0LjU4OSwyMi41NDhjLTMuNzI1LDcuODgyLTEyLjcyOCwxNC44NzYtMTkuMDgsMjAuNzA5JiMxMDsmIzk7JiM5OyYjOTtjLTAuNywwLjY0OC0xLjAyNywxLjM2Ni0xLjQ5NCwyLjA0OWMtNi41MDQtMS40NzItMTMuMTEzLTMuMjE3LTE5Ljg4Ny01LjQ0MmM3LjEtNC40MDIsMTQuMTQyLTkuNjE2LDE3LjU2Mi0xNS45MTYmIzEwOyYjOTsmIzk7JiM5O2M2LjAxNC0xMSw0LjgxMS0yNC43NjcsMi42ODYtMzYuNzEzYy0yLjI1NC0xMi42MzUtMjEuNDUtNy4yNjktMTkuMjIxLDUuMzAxYzAuNzk1LDQuNDM4LDMuMTE4LDE2LjQ1My0wLjEwNCwyMC42MjImIzEwOyYjOTsmIzk7JiM5O2MtNS40Myw3LjAyNC0xNS4zMiwxMS45OTktMjIuODQxLDE2LjQ3MWMtMC41ODQsMC4zNDUtMC44ODcsMC44MjMtMS4zNDMsMS4yNDRjLTYuMzUzLTIuNzc5LTEyLjcyOC01LjcxNi0xOS4xMjctOS4wNTYmIzEwOyYjOTsmIzk7JiM5O2MtMC41NDktMC4yODYtMS4wMTYtMC41ODQtMS41NTMtMC44ODFjNy4yMjgtMi4zMDEsMTQuMjIzLTUuMjYxLDE5LjQ1NC05Ljk5NmM4LjYyOS03LjgsMTAuODcxLTIyLjcxMiwxMi4xMDktMzMuNyYjMTA7JiM5OyYjOTsmIzk7YzEuNDQ3LTEyLjcxLTE4LjI5OS0xMi42LTE5Ljg5OC0wLjE0YzAuMTA1LTAuNjgzLDAuMjEtMS41NDItMC4wNDcsMC4xNGMtMC4zMTQsMi4xNjYtMC43NDcsNC4zMDktMS4yMTQsNi40MzQmIzEwOyYjOTsmIzk7JiM5O2MtMC45MzUsNC4zMzItMi4wMzIsOS43NTYtNS4wNTcsMTMuMTc4Yy0zLjA0OCwzLjQzMy0xMS4yMzMsNC43NTgtMTUuNDI1LDYuMDc4Yy0zLjcwMiwxLjE1Ni03LjQ1NiwyLjIwNy0xMS4yMSwzLjE1MyYjMTA7JiM5OyYjOTsmIzk7Yy0wLjA5MywwLjAyMy0wLjE0LDAuMDgyLTAuMjQsMC4xMjNjLTkuNjc0LTguNzA1LTE1LjY3Ni0xOC4yNTEtMTguOTg2LTI4Ljc3MmM5Ljk2LDIuMDIxLDIwLjQzNSwzLjYwMywzMC4yNjEsMS45MDQmIzEwOyYjOTsmIzk7JiM5O2MxMS4zNTEtMS45NzQsMjAuOTk2LTE1LjY3NywyNi43ODctMjQuNjIyYzcuMDA3LTEwLjgyNS0xMC4yNTItMjAuODA5LTE3LjItMTAuMDU0Yy0zLjQ5MSw1LjM4OS04LjYxNywxMy4xOTUtMTQuODcxLDE1LjQ0OSYjMTA7JiM5OyYjOTsmIzk7Yy03LjAxOCwyLjUxMS0xOS44MjItMS44OTItMjYuOTg2LTMuNDQ1Yy0wLjQ5LTAuMTExLTAuODg4LDAuMDIzLTEuMzU0LTAuMDEyYy0wLjE4Ny01LjY1NywwLjEyMy0xMS41ODksMC43NTMtMTcuNzYxJiMxMDsmIzk7JiM5OyYjOTtjMTEuMjE2LDEuNTgyLDIzLjM0MywzLjI0LDM0LjI0OSwwLjQ3OWMxMS4zNTEtMi44OSwxOS45NTYtMTYuNTQ2LDI1LjE4OC0yNi4xNTFjNi4xNDMtMTEuMjg2LTExLjA3LTIxLjM1Mi0xNy4yMTItMTAuMDU0JiMxMDsmIzk7JiM5OyYjOTtjLTIuNTgxLDQuNzM1LTguNDU0LDE2LjYyMi0xNC4zOTgsMTcuMjk5Yy01LjYyOCwwLjY0OC0xMS40OSwwLjA2NC0xNy4xMTMtMC4zNjhjLTIuMTYtMC4xNjktNC4zMTQtMC40MDktNi40OC0wLjYzNiYjMTA7JiM5OyYjOTsmIzk7Yy0wLjIxLTAuMDIzLTAuOTQtMC4xMTctMS43MjktMC4yMWMwLjkwNS04Ljk3OSwwLjg1OC0xNy42NzMtMC4wNzYtMjUuOTg3YzExLjEyMy0yLjA0MywyNS4xNDctNC4yMjEsMzMuODk5LTExLjQ1NSYjMTA7JiM5OyYjOTsmIzk7YzguNzExLTcuMTk5LDEyLjQyNC0yMC40NywxNC4zMDQtMzEuMjE5YzIuMjE5LTEyLjU2NC0xNy4wMDEtMTcuOTM2LTE5LjIyLTUuMjk1Yy0xLjI1LDcuMDQxLTIuOTQ5LDE2LjE2Ny04LjA0NSwyMS40NzQmIzEwOyYjOTsmIzk7JiM5O2MtMi44MDksMi45MzEtMTEuMjc0LDMuODAxLTE1LjA5OSw0Ljc4MmMtMy4yNjQsMC44MjMtNi41OCwxLjUwNi05Ljg3OSwyLjE2NmMtMi40ODctOC4wNjMtNS45MDgtMTUuNTgzLTEwLjIxMS0yMi40NDMmIzEwOyYjOTsmIzk7JiM5O2M4LjQ2Ni00LjIyMSwxNy40NDYtOS4zNjUsMjIuMjM5LTE2LjUyOWM2LjMyOS05LjQ0Nyw2LjQ1OC0yMi45MjIsNS4zOTUtMzMuODg3Yy0xLjIzMi0xMi42NzUtMjEuMTc2LTEyLjc5Mi0xOS45MzMsMCYjMTA7JiM5OyYjOTsmIzk7YzAuNjg0LDYuOTcxLDEuNDk1LDE2LjA1LTEuNzU3LDIyLjQ2N2MtMS45MzgsMy44My05Ljc1Nyw2LjkwMS0xMy4yODMsOC45MzNjLTEuODEsMS4wMzktMy42NzIsMS45NS01LjUxOCwyLjkzMSYjMTA7JiM5OyYjOTsmIzk7Yy0xMC42MzgtMTAuNDUxLTIzLjk5Ni0xOC4yOC0zOS43MTktMjIuNjEyYy03LjMwNC0yLjAwOS0xNS4xMTYtMy4wMjQtMjMuMTk3LTMuMDI0Yy00MC4wOTMsMC04NS43MjIsMjYuMTYzLTkyLjczOSw2OS45NCYjMTA7JiM5OyYjOTsmIzk7Yy0wLjM2MiwyLjM0MS0wLjU5LDQuNTc3LTAuOTM1LDYuODg5Yy01LjQzLDIuMDMyLTExLjc5NCwzLjgxMy0xNS42NDIsMi4wMzJjLTcuOTI5LTMuNjk2LTE0Ljk1OC0xMi42MTctMjAuODY3LTE4LjkyOSYjMTA7JiM5OyYjOTsmIzk7Yy04Ljc3NS05LjQyMy0yMi44MzQsNC43LTE0LjA4MywxNC4wODNjNy41NTUsOC4xMjIsMTcuODM3LDIwLjgzMiwyOC45MzYsMjMuODIxYzYuMTA3LDEuNjQ2LDEyLjU4OCwxLjI5MSwxOC45MjksMC4wMTImIzEwOyYjOTsmIzk7JiM5O2MtMC44NjQsNy45NC0xLjQ5NCwxNS43LTEuOTI3LDIzLjMwOGMtNS42NjksMi4zNTMtMTYuMzMsNy4wNzYtMjEuODU5LDQuNTA3Yy03LjkyMy0zLjY5Ni0xNC45NTgtMTIuNjA1LTIwLjg1LTE4LjkyOSYjMTA7JiM5OyYjOTsmIzk7Yy04Ljc4MS05LjQyMy0yMi44NCw0LjcwNi0xNC4xLDE0LjA5NGM3LjU1NSw4LjEyMiwxNy44NDIsMjAuODMyLDI4LjkzNiwyMy44MzNjOC44MjgsMi4zODIsMTguNDE1LDAuNzMsMjcuMTktMi4xNTQmIzEwOyYjOTsmIzk7JiM5O2MtMC4wMzUsMTAuMTUzLDAuMzk2LDE5Ljk1NiwxLjE4NSwyOS41MTRjLTUuNTEyLDIuMjQ4LTE2LjY5Myw3LjM1MS0yMi4zNzQsNC43MjRjLTcuOTIzLTMuNjk2LTE0Ljk1OC0xMi42MDUtMjAuODUtMTguOTI5JiMxMDsmIzk7JiM5OyYjOTtjLTguNzctOS40MzUtMjIuODI4LDQuNjg4LTE0LjA4OCwxNC4wNzFjNy41NTUsOC4xMSwxNy44NDIsMjAuODMyLDI4LjkzNiwyMy44MjFjMTAuMDQ4LDIuNzAzLDIxLjA0OCwwLjE5MywzMC43NTgtMy40NDUmIzEwOyYjOTsmIzk7JiM5O2MxLjMxMyw4LjYxMiwyLjg5LDE3LjA1NSw0Ljk3NCwyNS4xN2MtMC4zNSwwLjIwNS0wLjY4MywwLjIxNi0xLjAyOCwwLjQ2N2MtNC45MTYsMy41NjItMTQuMzg2LDExLjA3LTIwLjc2Miw5LjgzOCYjMTA7JiM5OyYjOTsmIzk7Yy04LjUwMS0xLjYzNS0xNy41MzktOC43NjQtMjQuNzAzLTEzLjQ2M2MtMTAuNzcxLTcuMDc3LTIwLjc0NCwxMC4xODgtMTAuMDU0LDE3LjIwNmM5LjM1OSw2LjE2LDIwLjIzLDEzLjcwOSwzMS4zNzYsMTUuODU3JiMxMDsmIzk7JiM5OyYjOTtjMTAuNjE1LDIuMDMyLDIyLjIzOS00LjAwNSwzMS4xNzItMTAuMTAxYzIuNTgxLDcuMzYyLDUuNjA1LDE0LjQ1Niw4Ljg4LDIxLjQyN2MtMC40OSwwLjUwMi0xLjAzOSwwLjg2NC0xLjQ1NCwxLjUwNiYjMTA7JiM5OyYjOTsmIzk7Yy0zLjQ5Miw1LjQ1My05LjgwOSwxNS4zMDktMTYuODYyLDE1LjQ4M2MtOS4zNzcsMC4yNDYtMTkuMDc0LTEuODc5LTI4LjIxOC0zLjgxOGMtMTIuNTQ3LTIuNjM5LTE3Ljg3NywxNi41ODItNS4zMDEsMTkuMjIxJiMxMDsmIzk7JiM5OyYjOTtjMTIuMDEsMi41MzQsMjYuMDY5LDYuMDg0LDM4LjMyNCw0LjExMWM5LjY4Ni0xLjU1NCwxNy42NzMtOS4xMzMsMjMuODQ1LTE3LjE4OWM1LjMwNyw4Ljg3NSwxMS4yNSwxNy40NDUsMTcuODY2LDI1LjY3OCYjMTA7JiM5OyYjOTsmIzk7Yy0wLjUwMiwwLjUxNC0xLjA2OCwwLjg3Ni0xLjQ5NCwxLjU0MWMtMy40OTIsNS40NTQtOS44MDksMTUuMzEtMTYuODYyLDE1LjQ4NGMtOS4zODgsMC4yNTctMTkuMDg2LTEuODgtMjguMjE4LTMuODE4JiMxMDsmIzk7JiM5OyYjOTtjLTEyLjUzNS0yLjYzOS0xNy44NzcsMTYuNTctNS4zMDEsMTkuMjIxYzEyLjAxLDIuNTIxLDI2LjA2OSw2LjA5NiwzOC4zMjQsNC4xMWMxMS4zNS0xLjgyMSwyMC4zNTMtMTEuOTExLDI2Ljg1Ny0yMS4zMjImIzEwOyYjOTsmIzk7JiM5O2M3LjgzLDguMjU1LDE2LjMzNiwxNi4yMzEsMjUuNjM3LDIzLjg5MmMtMC40NzksMC40OS0xLjAwNCwwLjgyOC0xLjQyNSwxLjQ3MWMtMy40OTEsNS40NDEtOS44MDMsMTUuMjg1LTE2Ljg1NSwxNS40ODQmIzEwOyYjOTsmIzk7JiM5O2MtOS4zODksMC4yNDQtMTkuMDg2LTEuODkzLTI4LjIyNC0zLjgxOGMtMTIuNTQyLTIuNjUxLTE3Ljg3MiwxNi41NjktNS4yOTYsMTkuMjMyYzEyLjAwNCwyLjUyMSwyNi4wNjksNi4wODMsMzguMzI0LDQuMTA5JiMxMDsmIzk7JiM5OyYjOTtjMTIuNjI5LTIuMDIsMjIuMzM4LTE0LjI3LDI4LjkzNi0yNC40NzVjOS45Niw3LjI1MSwyMC40NTgsMTQuMDcsMzEuMzc2LDIwLjQzNWMtMC4wNDcsMC4xNC0wLjE1OCwwLjIxLTAuMjA0LDAuMzUxJiMxMDsmIzk7JiM5OyYjOTtjLTEuNzgxLDUuMTg1LTUuNDU0LDE2LjEzOC0xMC44ODMsMTguMzFjLTkuMDAzLDMuNjItMjAuODI2LDMuMTUzLTMwLjQxOSwzLjQzM2MtMTIuODI4LDAuMzg2LTEyLjg2MiwyMC4zMTgsMCwxOS45MzQmIzEwOyYjOTsmIzk7JiM5O2MxMS45NTgtMC4zNjIsMjkuMTQsMC40OSwzOS43MjYtNS43ODFjOS41NzUtNS42OTcsMTUuMjkxLTE2LjI3NywxOS4yNS0yNi42MjNjOC42NDcsNC40ODQsMTcuNDY5LDguNjg4LDI2LjQyNSwxMi41NDEmIzEwOyYjOTsmIzk7JiM5O2MwLjA1OSw2LjM1My0wLjE5MywxNi40NjUtNC43MzUsMTkuNjg4Yy03Ljc5NCw1LjQ4OC0xNy4yMTgsOS4yNzEtMjYuMDYzLDEyLjc0Yy0xMS44MjksNC42NTgtNi42ODUsMjMuOTQ5LDUuMjk2LDE5LjIzMiYjMTA7JiM5OyYjOTsmIzk7YzEyLjA3NC00Ljc0MSwyNS41NDktOS43MTYsMzUuNDE3LTE4LjM0NmM2LjUwNC01LjcwOSw4Ljg4Ni0xNS45OTcsOS42NTEtMjUuNDc5YzExLjU5Niw0LjMzMiwyMy4yODQsOC4xODYsMzQuOTM4LDExLjM2MSYjMTA7JiM5OyYjOTsmIzk7YzAuMDEyLDAuMDk0LTAuMDEyLDAuMTUyLDAsMC4yMzNjMS4yMjYsNi40MTEsMy4yMTEsMTcuNTYyLTEuNzc1LDIyLjU2MWMtNi42NzksNi42NzktMTUuMzQ0LDExLjgwNi0yMy4zNzIsMTYuNzIyJiMxMDsmIzk7JiM5OyYjOTtjLTEwLjk0Miw2LjcwMi0wLjkzNCwyMy45NDksMTAuMDYsMTcuMjEyYzEwLjEwMS02LjIsMjUuNjQzLTE0LjA2LDMxLjUyNy0yNC43NDRjNC40ODQtOC4xMzksNS4xMjctMTcuNzE0LDQuMjM5LTI3LjAwOSYjMTA7JiM5OyYjOTsmIzk7YzExLjU0OSwyLjQ3NiwyMi45OCw0LjM2NywzNC4xMzIsNS41MTJjMy4wMTQsNS45MzIsNi44NDQsMTQuNTg0LDMuODY1LDIwLjA4NGMtNC40NjEsOC4yNDQtMTEuMDkzLDE1LjYwMi0xNy4zMDUsMjIuNTg0JiMxMDsmIzk7JiM5OyYjOTtjLTguNTE0LDkuNTc1LDUuNTM0LDIzLjcxNywxNC4xMDUsMTQuMTA1YzguNzIzLTkuODIsMTguNTktMjAuNTUxLDIzLjI0OS0zMi45NzZjMi40OTktNi42NDUsMC45NDYtMTQuODU0LTEuNzYzLTIyLjQ2NyYjMTA7JiM5OyYjOTsmIzk7YzEuNjcsMC4wNDYsMy4zNzQsMC4xNCw1LjAzMiwwLjE0YzYuOTk1LDAsMTMuODE0LTAuNDIsMjAuNDU4LTEuMDI3YzQuMTU3LDUuOTU1LDguOTIyLDEzLjkyLDYuMjM2LDIwLjIyNSYjMTA7JiM5OyYjOTsmIzk7Yy0zLjY3OSw4LjY2NC04Ljk2OSwxNi44NjEtMTQuMTMsMjQuNzIxYy03LjEsMTAuNzc3LDEwLjE3MSwyMC43NSwxNy4yMTIsMTAuMDU0YzYuNjkxLTEwLjE1OSwxNC44My0yMS43NDMsMTcuMzg4LTMzLjc5NCYjMTA7JiM5OyYjOTsmIzk7YzEuNzE2LTguMDkyLTEuMzU0LTE2LjkyLTUuNTk0LTI0LjY2MmM0NS4xNDQtMTEuNDQzLDc0LjMzNy00Ni4wODksNzQuMzM3LTkwLjY2YzAtNi4zOTktMC44NDEtMTIuOTAzLTIuMzI0LTE5LjM3MyYjMTA7JiM5OyYjOTsmIzk7YzkuOTk2LTMuNDY4LDIxLjE3MS03LjY3MiwyNy44NzMtMTUuMDUxQzUyNS45ODUsMzE5LjY5NCw1MjcuNDMzLDMwNS4yOTcsNTI3LjY2NywyOTQuMDUyeiBNMzk3LjM3NCw0MzQuMTQyJiMxMDsmIzk7JiM5OyYjOTtjLTYuNjMzLDAuNy0xMy41OTMsMS4wNC0yMC42OTIsMS4wNGMtNzIuNDU2LDAtMTUzLjAzNC0zNS42OTctMjAwLjc0Ny03MS4wNTZDOTUuNDk3LDMwNC41MDIsNjguMjg0LDIyMy45NDIsODcuNjY3LDEwMi45NjcmIzEwOyYjOTsmIzk7JiM5O2M1LjA5MS0zMS43NjgsMzkuNzA4LTUwLjc1NCw3MC4yNS01MC43NTRjNi4wNDksMCwxMS44MTIsMC43NDIsMTcuMTYsMi4yMTNjNDUuMDU2LDEyLjM5NSw1NC44MjQsNTUuNjI0LDQ5LjUwNSw4OC44NzUmIzEwOyYjOTsmIzk7JiM5O2MtNi41OCw0MS4wMzktNS4xNzksODcuMjE2LDU1LjA4NywxMTguNjA0YzQyLjc3MywyMi4yOTIsODUuOTQ0LDMzLjEzOSwxMjAuMDc2LDI5LjU4OWMzOC40NjQtNC4wNjMsNzAuMDg2LDM3LjM2Nyw3MC4wODYsNzEuMzI0JiMxMDsmIzk7JiM5OyYjOTtDNDY5LjgxOCw0MDkuODg5LDQzMC43ODIsNDMwLjY2MiwzOTcuMzc0LDQzNC4xNDJ6Ii8+JiN4YTsJPC9nPiYjeGE7PC9nPiYjeGE7PC9zdmc+;" vertex="1" parent="1">
          <mxGeometry x="140" y="160" width="120" height="120" as="geometry" />
        </mxCell>
        <mxCell id="6Ph3FFAFWkGROpy7kaW0-2" value="" style="shape=flexArrow;endArrow=classic;html=1;rounded=0;" edge="1" parent="1">
          <mxGeometry width="50" height="50" relative="1" as="geometry">
            <mxPoint x="280" y="250" as="sourcePoint" />
            <mxPoint x="301.4" y="290" as="targetPoint" />
          </mxGeometry>
        </mxCell>
        <mxCell id="6Ph3FFAFWkGROpy7kaW0-3" value="" style="shape=image;verticalLabelPosition=bottom;labelBackgroundColor=default;verticalAlign=top;aspect=fixed;imageAspect=0;image=data:image/png,iVBORw0KGgoAAAANSUhEUgAAAT4AAADpCAIAAAAyFsxEAAAAA3NCSVQICAjb4U/gAAAAEHRFWHRTb2Z0d2FyZQBTaHV0dGVyY4LQCQAAFklJREFUeNrtnXtMVNe+x3+btOqMOT4o1R5ERk21Ch71Io6xVSOVWKud9hyt7UQSAQcfOUZCxag4JJUGUJqO6RDRQBCReIRai97rI9OEO2PwCWhC7YEqnrQjitUyQ5W2Q+09mXX/GM4wDgPymJm99ub7CTHMGtz7t397ffdv/dZjL4ExRgAAqRECFwAA6QIAIF0AAKQLAKQLAIB0AQCQLgCQLgAA0gUAQLoAAEgXAEgXAADpAgAgXQAgXQAApAsAgHQBgHQBAJAuAADSBQBAugBAugAASBcAAOkCAOkCACBdAACkCwCkCwCAdAEAkC4AANIFANIFAEC6AABIFwBIFwAA6QIABs0LcIEgCF4ljDHYAxB1AQABeMTjiQ4Aoi4AALmuSLml6M0Q3uwBiLqcwps2uLKnxWZLMRguNTS4Pp6vrU0xGH7p6EC1QdSFWiRgD0DUBQAg6gYmveQh4vFmT6nJVGoyoZ5AukBiJC1fvjA62pXrVl68CIdAusgtkesC5LoAIOoi14U9gPdKi5rhKRVOvMGbPQDSBQAg1wXBJcVggBOQ66LBjAYzQNQFAFF3aIJxXSC9piJqCeh7O55QW9Bg5jDd7f5SKNgDIF0gh7wCPkCDGQCAqAsCTXs7rV9PI0eSINCUKVRWBpeIDnqYu3JLrhogfNmzdClZrVRVRdHRdOgQJSbS06e0YQOqDRrMkArH9pw7R++8Q0eP0rp1nSVz5lBLC7W2otqgwSw+GNrtkRs3iIjmzesqiY0lm40eP0a1gXTFJzMzUxCEzMxM2OON0/n8EgDpiiUSp9PJGHM6naILRkx7LBbqPpg8dy4R0dWrXSU1NRQaSmPGoPJAuuKLJDc3l4hyc3NFFLDI9mRm0ptvuvLsZ8o1Gpo+nbZvp8uXqb2dPvmEGhvpk08gHkiXC9F6EnwBi2+PIFBOzjMfPbl8mVasoPh4Gj2aSkqoqIi2bIF4IF2ORBt8AYtvj89GsqvcTWgoHTtGHR3EGFmtGBaCdDkVbXAEzIU97kZyd3oqB5Bu0MjPzx+ASHoSTH5+vkzs8Woke1JQgBnLvMNkjdlsVqlUOp3Oj8fU6XQqlcpsNkvXHrPZzIh8/CQmsro6BqSAbKXb2tqq0WjUanVDQ4PfD97Q0KBWqzUaTWtrq+Ts0ev1RPSxl2gLCiAGSFd89Hq9QqEoLy8P6FnKy8sVCkVGRoaE7HmmwYUwK2XklutWVFQolUqn0+lwOLRabUDPpdVqHQ5HSEiIUqmsqKjg3B6LxeK5dj8vL48Yo9JSio1F2ohcV0wG0IgNaOOcK3tcjWQXgQ7+AA3mIHUdBaJLjCt7XIrVaDSXL19GjYd0eboGIqPRyIkxRqORK3tcur137x7qusyQw3pd3pbawj8AUzIAAJAuAJAuAADSBQBAugBAugAASBcAAOkCAOnCBQBAugAASBcAAOkCAOkCACBdAACkCwCkCwCAdAEAkC4AANIFANIFAEC6AABIFwBIF4DB0N5O69fTyJEkCDRlCpWVwSUD5gW4AASPpUvJaqWqKoqOpkOHKDGRnj6lDRvgmAGAV6gPgXvMiX/OnaN33qGjR2ndus6SOXOopYVaW3GP0GAGHHPjBhHRvHldJbGxZLPR48fwzVCUrmvjyfz8fNzLXuDCP07n80vA0JGua+ukmzdvTpo0yWKx4I76dBEX/pk7l4jo6tWukpoaCg2lMWNwjwZe9aW4ux8/++ti/2Hf6PXM6zZNn87GjmWXLrEnT1hWFiNiBw7g1sh/k86+PG7Ky8sVCkVGRgZurZj+cYm2+1nsdpaQwEaMYERMpWJFRbgjA0YaDWZXQuslYJ9otVqHwxESEqJUKisqKtCqCrZ/MjNJEMjpJMYoN9f729BQOnaMOjqIMbJaMSwk51zXJVrPX/oyzpGdnd3c3Hz8+PH58+c3NjbiNgfBP/n5+UIvogVDJNf1irE+k9u+YDabVSqVTqdD+ypw/untIAUFTLL9KWgwD7aR3Pdg2524uDir1Tpr1ixBEDCA5Hf/2Gy2d999d9euXefPny8uLn7mu+vXKSqKamsJs2VkH3U97QmEbTqdTqVSmc1mPLD94h+9Xq9QKMrLy318l5jIZsxgdXUSuvympqajR49u2rRp5syZkhh5IU5EGxz1YgDJL/7ppZvaaDQSESso4P9i29razp49q9frlyxZMmzYsPDw8NWrVxsMhmvXrhmNRv6TLBJXsV5N4gApFgNI/vJPL9qWRLfCtWvXDAbD6tWrw8PDhw0btmTJkoyMjLNnz7a1tXn9pUqlamhogHR7k65P9Qbh7L2194Av//TUom5tbdVoNGq1msO6brfbKysr09LSYmJiiGjmzJmbNm06evRoU1PTc/ve1Go1pNvv2BsceK5zPODpHyIyGo2SeALeunWrsLAwISEhIiJi+PDhy5Yty87Orq6u7u9xNBoNz092ElGx3dUrChhAGph/uMo7qqurs7Ozly1bNnz48IiIiISEhMLCwlu3bg3yyaVQKCDd3uJt0BrJvdDZvwL64B/eevuIKCYmJi0trbKy0m63+/HIGRkZer2ezzsi5iLsfk2QCo49DIOQz/NPSkpKVVXVkSNH4uLieLDqzp07S5YsaWlpCdDxlUplc3NzWFgYJkL6GFKGKiSk3lmzZlmtVk50S0RNTU3Tpk0L3PFLSkrWr1+POcxA8hN4UlNTuTLp9u3br732WuCOr9VqHz16xOFScEgXSJtAR10iOnLkSHJyMqQLgJSiLhFFRUXFx8fzNgceHTPPJHLwhuT8M2HChAsXLkydOnWoXT6iLl+02GwpBsOlhgbXx/O1tSkGwy8dHfBMTzx48CAIuiUio9GYkpIC6QLgB+7cuRMeHh6cc6WmplZVVfHz5gZIF0iYIPRRecJVfxU2LuGRUpOp1GSCH55LEPqoPImLixs/fnxFRYVWq4V0gQ+Sli9fGB3tynUrL16EQziJukRUUlISGRnJg3TRYAaIuv0gLCwsLS0tMzMT0gVASlGXiHJzc/fv32+z2SBdIH8CNOgVtJGh7s1m0Sc2Q7p8MSEsrDg93ZXoEtEKtbo4Pf1PCgUPtvE2G+Pnn38eNmyYKKfmYWIzpAukis1mE3EtnugDRZAuv6QYDDK7olKTKcVgSDEY/NJt3tbWFhoaKta1iD6xGYNDIHj4d9BL3KhLRMXFxYIgiLUKElEXSBW73f7SSy+JaMDUqVPr6+vRYAbdHurbt8MJ3EbdDz74QK/Xz549G9IFQDK57r59+1555ZWkpCQRLx8rVD18gfW6kmLz5s3Tpk3btm1bkM/79ddfZ2dnXxR7giq6qYCEG8yvv/56kE/6008/rV69+tdffxX98iFdLmlvp7Q0+uILcjho8mTas4fWrZO6Pd3HuorT0wdjlCjdVFOmTPn+++95qCOQLpcsXUpWK1VVUXQ0HTpEiYn09Clt2AB7vKJukLupFi1a9NVXX40bN46HOoJuKv44d46uXyeDgRYsoFGjaOdOmj2bdu+GPV4EuZsqNTV15cqVb731FifVBNKljo6OVatWubdiEJ8bN4iI5s3rKomNJZuNHj+Wkz07PvxwMP9dEIRgRt3S0tKHDx/u2rWLn3o7pKVrt9u3bNmiVCpPnTrl6lvm4oWdTufzSyRoz1+f7VKaFhExYIvu3r1LRH/88cfWrVuD0NP7zTff5OTknDhxgqvaO0Sl29zcnJSUFBYWdvDgwb1797r3K7t58+akSZOCtyLEYqHu0X7uXCKiq1e7SmpqKDSUxowRx1l+suclP9lvsVhiY2Ndvy9evDgtLW3ixIk5OTltbW0BcsCcOXPu3LnDXSUeajvWfffdd++//7778uvr6/u+cbvfN59mRJ0/XkyfzsaOZZcusSdPWFYWI2IHDojpNX/Y03T/vu6zz9w/g9nvNysry7P23rp1Ky0tzbWVbmVlZeB2k8UmneJQV1f39ttv9/GxFfDNY92i9aleu50lJLARIxgRU6lYUZHIvvOHPW3t7W7d3r53r/8Puq49uPV6vc87WFlZ6dpiNy0tbZCb63Ku26Ei3QsXLixevNhTtEeOHOlvdfHjVtM+dEvEzGap+rfPxg8s5HZ/jLrvo9nXee12e3Z2dkRERExMTGFhoSx1K3/pnj9/3p0XuXn06NEAGmkNDQ1+biT3HnilhVrN+rCFdH/TtJ6Slz42naqrqxMSEohoANtb859Lyla6X375ZffEfuvWrQONlGaVSqXT6fzcSHb/FBRI3uMZGUyt9qN0dTqdSqXyGVf721mTkZHRLwFLog9IhtItLS312SFnMpkGeWSj0UhERqNxAMr3rdjERFZXJx/Xm829+6ePenuunwfW3dVHAUul71ZWg0MHDx4UBMHnUizG2ODnwaSmprL+DyBlZma++eabe7xKCwqIMSotpW7teQkTF8cGN8BmsVgmTZp08+ZN1uc9uJvu3+/jwXNzcxljTqdTEISeXqQspdVj8njcf/rppz1doGvY1r/0fQDpGVfLL8z20z95eXlElJeXN8g+Bc+oO7BxJp8RWFpykHzUzcrKEgRhx44dPr+tr68PxOS1qKiompqatWvXRkZG7u5hNq/FYvGcXJmXlyfDMNtP/0RGRrr/9WqYREZGrl27tqamJioqKggWdo/AklutLW3pCoKwZ8+eXhoUAX3/iFardTgcISEhSqWyoqKieyPZ9btrbKmnh4uM6e6f7tKtqKhQKpVOp9PhcAR/Ix9PATOpvWVB2tI1m80+y13DtsGxITs7u7m5+fjx4/Pnz3dtvioIQk5OjkajuXz5MmOMh62lRMTTPw6Hwy3dxsbG+fPnHz9+vLm5OTc3dzCn6Hu625OAiaioqEhicYtJ/JUumZmZOTk5XsO2oqyotFgsycnJd+/e1Wg0Bw8ejBjE9HpZ4vYPYywlJaWqqurIkSNxcXEDOJTfV+27Uhs0mIP9UHf/7hq2FWsldFxcnNVqNRqNZ86cgW578Y8gCLNmzbJarQPTLZBJ1HU/NU0mEyfLoPF6ukD7J0BRt7q6etGiRVJxo0xecAOpDDUmjR+vGj9+0p//rBo/PvLllwd5tLy8vJ07dy5evFhCFQnvpgLSY5Axtjvdx6uQ6wIgAdzSvX37NqQLQEAIxC7bbumePHkS0gVyq98yxj0i0NPcZkgXAN4J3Duu/Au6qYAkKTWZSk2mQBz55MmTGzduhHSBPOu36Ph3l21PNm3aBOkC2dZvgFwXAC5wrSV2cerUKUgXAGngOStj1apVaDAD4GcmhIV5zqZaoVavUKv9K11JgInyAfAplh9I0D/379+fOHGi+yP/SxFQySBd+KfLMM+PnN9E5Lryp/sSOSADIF0AfMP5UgRIFwDfcL4UAdIFwDecL0WAdOXP4e3b4YS+4DkrwwXPSxEgXQA66T60y3ObGcMYAfApZ4MfsKePXLly5Y033vAq5FYgiLoA9Bh1kesCIAHc78pITEwkonnz5hUWFnKb7kK6AHSSmpq6Zs0a1xbNrt0Aq6urw8PD586dm5OTw9swL6QbpOyupKQE9vDMokWLwsPDT5w44fr4448/rlq16tixY7///vvnn39us9ni4+MnTpz40UcfXeRk5TMDfqWnHdk//PBDtVpttVphD2+17tGjRyNHjjSZTO6Surq6UaNGdf/LW7duZWdnx8TEDB8+PCEhobKyUkSzIV2/YTabVSqVTqdjjOl0OpVKZTabvf4gLCzMazvmoWkPP5hMppEjRz569Mhdcvr06RkzZvT+v+x2e2Fh4bJly4iIaTSsvBzSlSQ+d2TvaWf3jIyMl19+2UtFQ9AeHti7d+/ChQs9SwoKCuLj4/t3lPJyptGwnjT85AlLTmZKJSNikyezo0chXV7Q6/UKhaK8h+dueXm5QqHIyMjwLPzhhx/UarVWq4U9IrJmzRrX1pCepiYmJg78iG4NexIby8LC2JUr7MkTtm8fI2JFRZCuyPiUQd+rb3FxMREdPnwY9gSfV1991bV/upvExET/m3r2LCN6JtLOns3CwiBd0eip8TmARqNfuotkYE9Qs0Si+vp6z5L4+PiCggL/nykrixGxxsauEp2OEbGff4Z0RcBnl89gumoG2V0kJ3uCI1yvghkzZpw+fTog5/r4Y2/pJif7S7oY1+0HFotlkDuyu3Z2nzVrliAI+fn57sLW1lan0zlu3DiLxdL3o+Xn58vMniCMaNOzc5JHjx5dVlb23nvvBeR0c+cSEV292lVSU0OhoTRmDMZ1g9odpVarAxq9+95dFIiBFt7sCUK8JaIHDx4E9qTTp7OxY9mlS+zJk87284EDyHWDh1qtDkR3i8+c0NVd1N8cVZb2BFS3LDhxy25nCQlsxAhGxFQqf3UvQ7qd/OZwZObnz9dq/2vVKm16eu2333o9mwOauQ2yZ1j29gRJyVIDuS4R0YaPP6779tt/fPrppWPHpk+enLx79/2HDz1zioBmblqt1uFwhISEKJXKiooKn39TUVGhVCqdTqfD4dBqtQH1Bm/2BCHjlSQIuXX//OdrK1b8Dwc9ov2aBTUE7ekrvU9gErHO+/XUkC4rPXXqtRUrGv/1L07see7c4yFuz/MJ2AQmrqSLBjO9+OKLROTkpgXlOWDDw0ALb/Y8h3Pn6Pp1MhhowQIaNYp27qTZs2n3bh5MS/nsM6zXHRT79+/33KJi+uTJRPT9vXu8Lft2/wt7+sGNG0RE8+Z1lcTGks1Gjx+LbtpfX3/9jOcYL6TbnyfyuQkTJjQ1NTGPGBsTFaX+y18OffHFD/fvP25vzzt8ePbf/vagtRXtEUnidD6/RCTeWbDgv69c8VtfGxsab4S8c+fOxo0biaioqGjq1Kle3z757be9hYX/e+3a//373zOmTElPTo6NjuagHxRvcuw/Z87Qu+/S4cO0fn1nSXQ0PXxIdrvc6vRQ6IjatGlTeHj42bNnXR8LCgokceG8GSmZ2hKwCUwY1w0emZkkCMK0adNaWlpWrlx5/fr1qKio2tpahrdPy5jLl2nFCoqPp9GjqaSEiopoyxZxLWqx2VIMhksNDa6P52trUwyGXzo6kOv2JFpyOokxtm3bNiJKSkpat25dWVlZaWmpz/4qIBNCQ+nYMeroIMbIaqUNG2R5lfKU7n9ES7m5REQHD5IgCGq1urGxMTY2tqf+KgAkxAuyvCq3Hq9fp3XrSK3u2n7C3V914cKF7v1VAASOUpOp1GSCdJ9PUhLV1lJZGcXGdpZs3rz5zJkzRUVFK1eu5N9+nV9H8OVnj/Qq5PLlC6OjXblu5aBf5izVBnN9PQkCvf1258eCAhIEam9/ps2sVlNjY6duvfqrUI0Acl0xMZmorKzHNvPf/+4W7TP9VVKhOD0d9gB5SpeINmygn37y/ZWHaDv7qwCAdLlg+nT64w9KTPTxlURFG4gBQDnZI1EmhIUVp6cv/M8UvRVqdXF6+p8UisEcU9rdVFlZtGMHmUzUfSNFDPoARF1+USjItTNbbS1uJRhaSH5wSK2mbdto/35Z3RX/DgDKzx5A8hjX3bePvvqK7t6Vz13x7wCg/OwBEpbunDld2eyLL5LVilsJkOsCACBdAEAgELB0BgBEXQAApAsAgHQBgHQBAJAuAADSBQDSBQBAugAASBcAQET/D655ogYmuO4cAAAAAElFTkSuQmCC;" vertex="1" parent="1">
          <mxGeometry x="623.77" y="310" width="222.46" height="163" as="geometry" />
        </mxCell>
        <mxCell id="6Ph3FFAFWkGROpy7kaW0-5" value="" style="shape=image;verticalLabelPosition=bottom;labelBackgroundColor=default;verticalAlign=top;aspect=fixed;imageAspect=0;image=data:image/png,iVBORw0KGgoAAAANSUhEUgAAA10AAAIZCAIAAADSp8LGAAAAA3NCSVQICAjb4U/gAAAAEHRFWHRTb2Z0d2FyZQBTaHV0dGVyY4LQCQAAIABJREFUeNrs3X1cU3X/P/A3jDMnR3RkLmpoLHXqxS5zoM4brKTrK1rZDXYVlVpGmSZRhmmol6ahaBfEJUKgyWWJvyKvJIsssSvsUjRHwdRGyrwZKfNmCJvgQdxh7PfHYI77GwElXs+HDx/j3O3sfT7nnPd57+xzXGw2GwEAAABAj+eKEAAAAAAA8kIAAAAAQF4IAAAAAMgLAQAAAAB5IQAAAAAgLwQAAAAA5IUAAAAAgLwQAAAAAJAXAgAAAADyQgAAAABoJTeEAACgO7uYOGVEyujvDq0dLyI6Hv1o4ujdCRR2X/hx5V/FRFRprrz7uZgtczwTp0xIESllIqo0m+/+e0LCqyPMGcsXfHxcJBZVXjbfPSsh4TkZogmAvBAAALqzPhNGFEZF/bozarTIMcxr2rKdHwYSERUmPvryd/o5L5DbiAWbd4Z6EVX+vGhSbNasKH2S5pF/7w71Iqo8nv6fi2aSiRFMAOSFAADQjVXdPWNt4M7wWM2OZY7E8OL3a2YUJVZe1l9wmxC6NkpGlTemr7xgdhOL3LwemSULm/uKfnLghEmBj8waIUIkAXo83F8IAND9eT8f+/ffl8dpHNmf17RlO3fs3B0/w7OPcsY4MRFR1fHEuTNmPDPj0Ze/G7F2eaAbyZ5L2J0eEzpefOGHiEefSTxehTgC9HSoFwIA/Bl4zYoKfj4s0Y1Eo52GKhYsED8S9cMLCf9HN75HtqvSpEQfnxD5/Ihxj4SOk5kDlx8yLxhxJwIJ0KOhXggA8OcgC10bfOGH43UHioPffvR4dGO1QLcRfl5Zix5/dMYzL8x4fNHx6YtmICkE6PFcbDYbogAAAAAAqBcCAAAAAPJCAAAAAKiF351Aj5CYmHj58mXEAQCgZ1q5ciWC0Cl5YdKhLxE16HYO6I/8pD5AvXEhBADQ4wwU3CE55Is4zJ/wdMfnhQDd111TFAgCAECPYvpFT2UIQ2vh/kIAAAAAQF4IAAAAALXa/D3y9bOliBp0O1WlHKGrTgCAHqm6woLshYhoQsuToF4IAAAAAETtqBf2GnQHogbdr6HfwZKLC+IAANADuboLkb20NlYIAQAAAAAgLwQAAACAGui/EHqQS3u1CAIAQI8j6IUYdFZe2JrOsgFuN9WaSyM8vBEHAICeCdlLK7nY0HkHAAAAAOD+QgAAAABAXggAAAAAyAsBAAAAAHkhAAAAACAvBAAAAADkhQAAAACAvBAAAAAAkBcCAAAAAPJCAAAAAEBeCAAAAADICwEAAAAAeSEAAAAAIC8EAAAAAOSFAAAAAIC8EAAAAABujlu758zMzDx8+HBTY2fOnDl48GAiWrVqVQeubnV1dWsWeP369XXr1rX7Xe6///4nn3yy3sAyk6mvp6fjz9zc3G+//bb55axcubLekDVr1lRVVTkPP3z4cGZmZvPzHjp06Icffmi4wM8//1yn0zU1465du44ePdrUiqWkpBQVFbU1MkOGDHnhhRfsr+ttiGnTpo0dO7be9J988skff/zRmiU7VjsyMlIkErV++sTExMuXLzc12dSpU1UqVaMrDADtPjBib7oNvfTSS/feey8RJWzcWFJaioCMHDnyqaeeaqrFWquqVr//fvOnKpVKNXXq1IbDd+/e/euvv7ZvrR555JExY8bYX2/ZssVgMLS48t9//31OTk4rl+84OSYlJRmNxhbTkoZcbDZb+z7beKXy7qvXhve/s+Eo7eVi12FDdu3ebbVaGYZ58MEHO2ozHz9+/L333ps3b17zk0W8s2jzru2s7M52vAVvrhAUccbzl5wHFhYWDr7vPsP5815eXvYhTz/99JEjRwYOHNjUck6dOvX2228vXLjQMWTv3r3PPvush4dHeHj4okWL7AOfeOKJ33//3dvb23neEydOrF27ds6cOfY/p0+ffuLEibKysg0bNoSEhNgHms3mu+66S6lU9u7d2zHjb7/99sknnzz22GNENMDL+477Hupzh3e9Ffvj2PfrV4a/FbFQNPJugYhpfWSs1yxmtf7ihYv9+/e/evWq2NPzzsnD7KMq/ih50HdsRvrXztOfO3fO5957F4wa3UcobH7JMblqk9nMsuzOnTvnzp07cuTI5qc/evTo3r17R48effTo0fHjx48ZM8bVtZHKd2lpKcMw9r03OTl57VtvDyEXHCsB2uFKdbXBw/1iSQkRbdy48Z/vLB6Cr5tuJ2eqrY++/FJicjIRuYtE/jZXxqVHH+7KqqvPsr2NplIi+vLLL//x2rynhg53nuDTgt+TPv3k8ccfJ6IBnp7P+Azp16tXnXyj5PJlsceBX35puPD7ho4Q3DGy7wBZm/cj42lPl/O/qA/ak4S//OUvY8eOZZj6J+KrV69euHDBUbuZNGnS5cuXHelHM44dO7Z79+5x48bl5+ePHj16zJgxAoHAeYJ9+/a1uJB21gu//PJL25XyTx4LbnRs2on8A2yfmsTTxeWhhx7qqC3t4+MTHR3dYl7oJhD0GXqXJHBE+96lJC0vISEhLCzMMSQ9Pb2X05bLzc3NysoKDw93aXrHq6qqqjdk7dq1Dz74YHFxsWPI4cOHDx065PxGNWlWRYXj9aFDh3Jycl5//fWMjAznaWJjY/39/YOCguplQvYX8fHxEh//CTPjG1mxcgMRiXr3HvDAMEbs3qbI9HJlYmJjotdGE5Eb43bXFIVj1P51mTk5Oc4lw9gPPggbrXp/3KQWFxt/NNcRoocfftjX17f56c+ePWt/sW7dugkTJkyaNKmp1Nz5UsxbJHrI5kYA0C67yLZx48Y33niDiAb1Ej1EDGJy+xhjq479+OPFkZH33ntvL4aZ6NLL3aWnJ+5fu9o2bNjw5ptvEtHwe6Tvjp3gPHZwP8/YNWvteSHbu/f8+/0G9e1XbwmBGV/u2rWr3veHW7dudesjffDFpHas0jntD5aT2+yv169fP2HChMmTJzec7NKlS1lZWfbX33///blz5xx1ouY5Usl169aNHz++fVW5drab2DVrFgxXdP1m9vHxEYvFycnJnfouItXAqPVrnYekf/aZiLlR9IqOjh49erRLW67G9u7de+bMGaVS6Zy825fT/IzR0dH+/v71BprN5piYmGbmjV4fOzhgfodHxmOCLDb2w5KSkoaj2Ak+769bc6P1nzu38aOPFvzVr/UL37lzZ1lZWYtJocPRo0e/++678ePH45QA0AX8rletW/0+4nB7Yl1cJ/ZmP1gbjVA4+F+vWvd+ky3278NGlF+89M033zSzhAXDFbFr1tQbuGZdB5xeT506lZqaOm7cuBanXLt2rZ+fX5sWnp+fv2vXrgkTJrRv3dqTF9qLhU8Mkd+aY5OfX3R05zZ9VjbA7a4+CQkJju2nO3VKyNSUmuzFwrZGvOGmtRcLm28W9mKh4w65G3l5bKxSqezfv3+jc8XHx3sOHHXXfWM7PDLC/n0k44bExMY0HDXggWH79+933APx4Qf/DPMf68WybQqRUqls/fTr1q0bM2aMmxtKgABdYZCAuavatnHjRoTi9jTOVbhpy8etvKW7J/AWMPfYXDZs2NBs2re2mSXMGDr82uWSXbt2OYZs3brV1d3Le8Tkm1y39evXjxs3zvk2sEbZi4X3339/mxZuPzk2/Hq6E/PCW1UstOv6kuFXX301ffCNJPhmioXOAzu1WDikE4qFdvaSYWljNzU7Sobnzp2L/ygxrC3Fwq+//rpNxcKTJ0+iWAjQ1ZflzRZg4NZCybCtLbYdJcM162IHB8y7ybXq1GLhmTNnbqZY2J688NYWC2u2dNeWDHf+v8+mD/SxD7/9i4UZGRmdVCy0s5cMN8Q3cgXmKBnai4V3taVYGBMT06Zi4fbt21EsBOhigwTMXVbb/v37EYrbk71k2O6fk/75DBQw99hcdu/e3Wza19qSYW2xMPAm16pTi4WfffbZzRQL25MXxq5Zu2C4763d0l1ZMiwoKDh79o/AQTV54e1fLEz/enfnFQvtPCbINm5MsFEjhx52gs/SlcvjExPaVCysslrLy8tbXyy0WCwHDhxAsRDglhRgftizB3G4PdlLhlarFaFwbrHffvVVU2PtJcOqquYi5igZdkix8FoF1/piYZvKJfaT408//XSTJ8c2l1tMFy4+MelvLU5mNpuys7Orq6s7a0v7+a1atUqhaPzrbIPhfAfsYLIBV9x1oaGhY++6m4hsNttnn322d+/et99+u5VL0Ov12dnZy5Ytq1csVKvV//vf/5y7sGlo3759Bw4ccJ7GZrMVFBTs2bNn+PDhTRULL1++zN5xX/PFQhvRqVOnbubAIezfR/xXb7O2ke4PBzwwLPf97+eM9GtTsdCjb982tf7q6urRo0e3pljIcVx2djYRnT59GsdHgJs3SMAILdeJcUOnT7enca7CXyzX8WNxh4EC5o5qy6mmu7ldMFwRqT7QzBJmDB0ercl5+umnr1UxN18sPHNaN3r06BaLhVeuXDGZTH/729/atPCqqip/f39hS33DNa8d9xf2vAJ1R3/i1hT5XVxcXLpn71M4WQAAwJ8xDegR+U+b80LPu+/++lRBi5OJxZ4BAQETJ07spPXWaDQrV64MaIJUes/NvwWnL3arqE5JSckxXrAnas8///yUKVN+/vnnVi5BJpMFBASsWbMmLy+vzvXcuHEPPvhgM0+LIaKHHnooICBArVY7Z4rDhg3717/+deLEiUZ7iiGiO++8kyvVXzrzS/N525AhQ+r1ddkmlpKr5t+KXFwbyQCL9xf4TVBtPZZ3qYJr/QLLy8o0Gk0bWq2r66+//tqwh8iGWJa1Nwn703cA4CadtfIWNwGu/25bh6stAgG6HL/hnJUvdaUhdzb5nIvEE1qhsFczS9h58sRdgwZ++eWXvd2qio5n3eT63DdY/uuvv167dq35yfr16yeXy48cOdKmhbu5ueXm5losli7NCyOWLU08kX9rN3NhYaHJZGqxd+ubdO3wueXvLh02bNigQffuO1toH/juu+/+8ssvbbqrd8qUKffdd1+9vCcyMrLFp+hERkbm5uY2SLjFixYtambepx5/5HT2R50amfJD+jfeCHNp7MzAHSpcuyrqjQULEo/ltaEpCwQeHh75+a1tV0KhcNKkSa1P0AGgo+T1cvu/xp4MBrcDzlZ98Bp3M5f9f8oW+1jtA+Ua+k/BcQ+vu9zcmotY4gltxLJlRLTs3YjT2Uk3uT693dlZs2Y1XxiyW7p0ab2iUmtOjg899NBNnhzbnBc+/fTTLv36tqZk2Hk0Gk1kZGTn7l36Yqvx6oIFC4hoxgvPZ5yryQtHjx4dGBjY1qA33Lrjxo2bMGFC8y1jwoQJY8eOdS4Z1qTmEREajaapkuHjjz9eeu5I8yXDm2EpuWo8fOrN8DcbjireX/DAAw+MHTs2YvHijbk5l7g2lAwXLVrUppLhzJkzf/nll9aUDAGgo5y18pcELg888ABCcXs6XG157dVXXVxQzq1RZOXPu9geffTRZnO+pc0sYefJE73v7G9/5MmcOXOqKy7dfMlwyZIlhw8fbrFkOG3atEGDBrW1ZPjCCy/88ssvPM93XV5It7pk2DXFwsrD5/7x7jL766eeeuqb0zrHqNu/ZBi5pAOuaZpSfkgfEfH2HXfc0UgyfajQHrSBAwe+8frrib+14ULniSee6Nu3b+tLhkOHDn300UdRMgTo4tLLu//4B+Jwe7IXCxd3ctGke8lttsXai4X2R+E1mzguc/zZISXDIUOGdF7JUCaTPfnkk4cOHerSvPDWlgy7plhYVVsstG9C+ZAh12uz79u/ZBgeHl5yTnPpTE6HR8ZeLFwUsajhKEexsGYN214yXLp0aZtKhkuWLEHJEKDLnLXyl1xd7M9HhtuQvVh47733IhR29mKh/fnITed8rS0W2t2SkuHRo0fbtHB79ardJcN23p16q0qGXVQsVN8oFtoFP//8dacQR0ZGtrtk6NxBTOeVDJcuiTid3fH9O9qLhY32kuMoFtq1o2Q4Y8aMNpUM77//fpQMAbpMXi+3d1egWHibQrGwoRaKhbpWFQvfXlo/cVz2bgecXju1ZOjr63szJcN2Pi7i6aefjl2z5qU9GcPvaCRF0BYbXYcNtb+22Ww//fRTR23m48ePv/feey1OVmW1Xj15yVbVni76LOYKt/Oco1hYkxcGB7+z6EaRzN/fPzAwcPv27QMHDmwmhW24dZ999lkPDw/HEHvJcPv27d7e3nWuy8+edby2lwy3b99eVlZWJzWPiPjnP/9ZXV3t3A2SwWCwvwgPD49au/7A/3uT9ZTWWw2D/hjRQ5XXrhXvLxCI2tDJlfWaxawuXJReE4cqvurSXm3NIemPkoecioU1a7h4sc+991ZbrX2YFvpSstTW/JYuXTp37tzi4uLmpzeZTI5LrvHjx/M87+rayBVOaWmpc5/vRZWVP+FXlADtYq6uPu/h7igWnr1e+RNZEJbbx5nqKkex8DrPH7RZmZ59l2FZdfW5Pr0dxcIT5w3rcurkSZ8W/J706Sc1p7Br15KO5vXrVedXyb+XFPe+s/9TDX6zMmfOnPfXfvDTp/P7DpC1da2uGE97ulxxnL/+8pe/WK3Whn3xchx39epV++tp06YNHDgwLS3Ny8urxeU7HlH77rvvjh49uqqqqt6PkFauXNniQlza/cCczMzMZlLdmTNn2nsGWbVqVQdu6erq6tYs8Pr16+vWrWv3u9x///3OdeOaRmYy9fX0vHEhkpv77bffNr+chhsgKirKarU6Dz98+HBmZmbz8x46dOiHH35ouMDPPvvs5MmTTc24a9euporPK1euTElJKSoqasclzgsvvGB/XW9DTJs2rV5eSESffPJJKx/i7ljtyMhIkUjU+ukTExMvN91h6dSpUx0PEuzYpgjQ0zgfGLE33YZeeukle16YsHFjSWOPsO9pRo4c6cjqGrbYaqt11erVzZ+qVCrV1MZ+fb979+4Wv+tryiOPPDJmzBj7648//vj8+fMtrvz333+fk9PaG8McJ8ekpCSj0dhiWtKReSEAAAAA/Jm0+XvkVatWtf4OMAAAAAC4HezYsaPj88L8/PzWLPd2Fh4evnTp0tZ8VQ8d69VXX42JienXrx9C0cVmzZq1ZcuWXr16IRRdyWazhYSEfPHFFwhFF6uoqHj99dc/+eQThKKLlZSULF++PCkpCaHoYgaDISYmJi4u7uYXhaflAAAAAADyQgAAAABAXggAAAAAyAsBAAAAoD70UwMAAAAARKgXAgAAAICdW3dcafPPKTE7NJyV6O7A+eHBcrZmuPGb5Uu+NbMiImKkj0VGTmG1X8SmHDQRkefY2eEzlWJOlx6fcuCyhTxVoW+GKG48kY6MB5Pj0ws4EsoeCQ9/WEoNpqw/QU/E1Y8nNRV5iX1DZccsThuwKOFFOSHyXRP5hw3x8+O1IlZIRCLVvOhZisqmIm/WfBq/7ZiJBJLAVxdNH8og8m2JPJcVPTe1yJMVEAkkgWErggcTX5gZ/1FGEc94BsyPmCFnudZGni/MjN+0p8hC7IiQ8FdUEkLk2xD5gNPR0d8aeCIiC2f2npW4ItC13ZFvsFMg8s20eak+Mykly0QML/R+bN68iZKGLRmRb4NKfUZCcqbBQlZW8Wz4vImO+DWI/CBD1qb4jNMWEnlPfT08aCDT+si3ak1s3U7VmZ3vbzhw2WazWfI+WrD2v1cdY86kLY7JttyY8sKemHXfFFXZbJYz295etrPIVvTlslVfF9lsNtN/1y7+pODGlFcPb3gnKe+qzXatYNu7a380NZiywQQ9UYN4Nhl5e1B/TVr1zltvfVJgsyHyXRV5y4GYdz4/U3VjQJOR125ZvO5Hk81mO7tz2T92FtkQ+TZF3rTn/VV7LjtPeumb95Z9fspiqyr65sMteVdbH3nTnvcXb9NZbLarhzcu3vCrBZFvY+Rr6T9f9eEBk+0mIt9gp0Dkm4n81eyYBR/lWWw2m+nHtW9sKahqEE9Evi2uZm9YlVZgsdlsxm+WvbGloKrJyJuy1r71Ud5Vm81y6vNla/eYbG2IfGvWpBt+jyyQBS8PD+hPxJtMHOt5h9Axhq8kRuSUDnsFRSyZLhUQcWZO4ClhzdrjpPCXEpHY34/VaQ2OKQu1+kFKBUskkisHG7W64vpT1p+A74lXM/XjSU1GnogqtWnfM0FPDBMSESHyXRX5SouFEQpvPCe9ycgbtDrxaJWYiAaqFHxBQbkZkW9L5DnuGsMInb/F0GhIFTiYIYF0+sJQJdvqyF8u0JoUqvsYItbPX6rX6gmRb1PkazdA9lc6xVMBYmp/5BvsFITINxN51kPMcBxHRJUc7+HJ8g1aMiLfFuzE8BXPyhkizmym/hKxoMnImy6aJcPlLBHj4yczagvK2xD5P+33yERk3Bu9/HMdO27eSuWNkyJXwem/jV7+mZHrq5jxWmiAFxFx6qQlyT+T4sUVAR6mtDJWYq+Je4jFFUUmK0kFRES82UwenvYFeXoKzaUXTHWnLC6tO4GZIxL3zK8YbsTTKQANIs/rv0rnHo7wE6WmE5HVZELkuybyAo4rz9u2Sm00k/fk0HmPMk1F3mS2sEPsh3zWkzWbS00WRL71kbdauAqj9qPlGRc5Vj499JVAWbHRJLBkbVitvWjxHDt73uOtjvxFMydi7ecApi9LZlP9nQKRbz7y9kidy8qiwAif5o42LUbeJKo7gZnIgxD5JiM/csaMH5cvXrhTyJEyLErKZdeL5408BpFvJas2dXHsnnJZyJLIG98FN4i8RCox5mrMkwPYwjxdCed92dz6yNOdLa9Fd/3diWRK5OYt62dUpiX9aHYMlI6bPuPZ+VGxcZEPmNO2ZpmJiFjV/ISt8aHizPj0ovoLEbb67YQENZc0N+J5jpqM/LmMtIsBs8ezzE3HE5FvW+TdFVOfmD57yfq4qFDJz0nppxD5zom8wFP5+PTpL66Mi1k5gzJSvjWQ1cJf4GQvrohaGSr79aYiD22LPBER6bLU4okqFi25CyPP/bwtg5n1QVxcwpqpxu1pumrE7aYJFLNit25+R67+KE1nbTLy7MRZMzyyoiOXx+wjqRfDCDp4LbphXsgbtbl6jogEkoDxMoPuRslUogwKGC4mIslYpdRoMBbr1CfNRERi5aQR5oI/+nj25cz2NLLcbPbwdNRpGbGYzCb7tzUmk0U8YFC9Ke+8o+4E/Xvk5XtJ3Xjq+aYin5+rNRRlRkcuWbJVXXQwKfbH64h810TeKJIFPKySiohYuWo4FZ3v1VTkPe8UcmauJq6cWHyHJyLflsiLFZMDlV4MCcTKsTKzwUhiT/Hdw4aJiUQyxQgyXurT2sjfIxZXmsxWIiK+zExiz/o7BSLffOSJyKpX50v8fBn7SbTdka8/Qc+s0rY68gadXjzST0xEA5TDGH0BXz+ejkUi8q3BnVZri4mI2KGT/IQFBaXUZJsXSAJeWbE+OiryxWFC3tNT0obI/0nzQjJmf5qSZSAiXndcL/aSkJUzGsw8ceqk1an5PBFx+Vqjl1TK5aV9nKGrJOIN2lOM990DFL6Ul2MgImOOmhuhlBDxJQYjRzRYITOo8ziiSq36tLefXFx/yvoT9MjjRXm9eDJNRX7UkysSYtevj16/fo7Ke+L8iCnDG0SeNxuMnBWRb2/kOaOhhKeGbf5c+uq4LKOViDdoT5O39z1NRV7qqzD/qjYTUaFGK1IoPBD5tkSe16auSlaXExGv0xrEg6Q0QDnsWl5eMZHVUHCaJI0cbZqI/B3DFHfq1Cd5Ii4vxzhspIwQ+TZFnojKdXqBTMbWnkTbG/kGOwUi31zkJRJP42k9T0ScvqhCImnYkhH5NuWFJzKTv9RwRFRSUMBJvD2oyTZ/Mm31JjVHZM7JKhisVIgaRL7m1NxI5FuzJt2yX2tzbmr8drXRSow0aH7YdDmfuXqVMSRmlqwwI35TZhHPkPuwGa/PC5Byup3xSf8z8MRI7L+3r9Slb0g5YLQI75wUGh4sZ0m7JSxj8PrIyazx5+T4HQWcKzvsifB5D0iowZT1J+iR7bZ+PM1NRb52Dk3ykmOB61+UN4inIW1xEvt21HQvQuTbE/mfY+fmBm4OU/Kn60XerN4ak6bhiEjyYGj4DAXbZOQ5zfbYbbkmEnlPfS08yIdB5NsUecO++Phv9BYi4aCp8+YHyUTE5afF/ltt4mt792h95M9lxX+UobeQ58jZ4S8qxYTIty3ydDp14efSqOWBNZlh+yPfYAJEvpnIk72fGiHDk72fmgbxROTbgtdnJiRn6C1ErPLZ8NCJEmoq8owxKyE246yF+vrNfnOWUkz141l7apYL2hPYP8fzTrjsz7Nkz01vTzdfJ9PSymaE+PfM/f9WRt6wO63ggZBAD8SwfUcQTdo3bMiM9pSSEHlEHpEHRP5PHfmbSIr+JM87sXKsr6p9n5+jYarhSAq7PvK85R6FHw4W7VbGDBsrI0QekUfkEXlEHpHvuKSI8HxkAAAAALDD85EBAAAAgKj79msN0L3s3Pn9008/MmHCtPj47xANAABn7777yH//+/133303bdo0ROPWQr0QAAAAAJAXAgAAAADyQgAAAABAXggAAAAAyAsBAAAAAHkhAAAAACAvBAAAAADkhQAAAACAvBAAAAAAkBcCAAAAAPJCAAAAAEBeCAAAAADICwEAAACgPdwQAoAusGPHf4jo3Llzmzdvbt8S5s6dS0QnTpzYv39/M5NduHDBZDK5ubnJ5fKGY69evdqnTx8iys3N9ff3dwx3/Hn58uU777zTefi9995bb4jzjM7KyspOnjxpH5ubm0tE9aYsLy/X6XT1BlZVVR09erThMr28vC5evIiW05Ua3WrdYrV79eqlUCi6+H1///33a9euOcKVm5s7bNgw+/5FRMePH/fy8vL09GxmtZ1DXVFRcfz48YbBP3Xq1JUrV+oNz83N/etf/yoUComI47gTJ0449t8//vhQhWiCAAAgAElEQVTDMfGJEyc4jnNeQzc3t/vvv7+p1WhqZ6y3qnq9vrS0tKl2UllZmZ+fX2+s41O8+uqrH3/8ccO59PrT2AGRFwL0IHnqw0RkM5v5Q2r7kG2//xby3HMnTpxozey9evVyvP7P7l0u3n2amrK69Fr1OdP16uri4mKRSOQ86syZM/fcc4994O+//+48Kj8/3/Gif//+Xl5eNee2gtNcbwUZrzumLDGc07uZGn/ryqqKM8X2sdcumkI8Bzk+rJ3FYjle9Ee9uWw225EjR+oNPHny5FtvvXXo8y9E16+j8XSZC1VV97i55f2W371Wu7DaKnMV5P2a1/VvbWbd+etVtY32xMjrVXztqON/6C8M7efm7t7UvDqNxvlPnudPnTrVcLLS0lIXFxd7yu5w7Ngx5xkLCgocyeWFCxccoy5fvtyrVy/HvOfOnRs4cGC9RTn2fSKqrq7+/TftyNpPdGNVdcedB1aVmYVWW729+8b6VFUV6E/VW0jVFdPlsrKPc3NfffXVCxcunD9/vt5cRmMxdkDkhQA9jrSPx0u+9xOR1Va97fffiIhhmJEjR7Zw2issvHr1qvOQ/uOGNDVx8Xe/OV7Xu2Q/c+YMEd11112VlZVENHjwYLFYTERXr17Nz88XiURyudx+knDMeLzgtMTH/w5pTSXmxMFPiai31NN9YP+Gb11ecKHiTLF93Qxf5RKR/cM6HC2+9H3RH/XWiuf5I0eOOA+srKw8efJkzUdgeqPZdJnzVeXdMeb661f7uQiGuAm7+H1/4687N/KdJ09Mkg4aLK4pEGb8oSei4RNfbHTeK8ZTukOpo0aNEggE9iEajYYaK9YePHjQuSrpyAv/8pe/9O7d2578FRQU2Cc4ffr0hQsXHBP/73//s9lsjj/PnTtXr7DKcVx+fr7jUGBPN+vtthU8/6Xu+IR7vOWeNXt90tFf/yi/Wm8yh69Onmi4kHjNL2fLyhx/siw7fPjwG0et4mKdDvvf7QL3FwIAAAAA8kIAAAAAqIXvkQG6gtVqrTfERlRc3Npbaq5evWq/Ce/s2bNWa1UzU1ZXV5OtRsNR165duzFZvblqXzivaoNlUBVf1czXdQ3ftN3hOnfuXHV1Na5doWUd1Ora9c62Ort03X2q2lbd/qXdko/Q8GO0b1WbGGsjOnLkiMlkcnV1beTABbcHHHMBAAAAAHkhQFdx3F3u4EI0YMCAVs7ep0+fUaNGjRo1Si6XCwTNlfldXV3JpUbDUfYb1WsmqzdX7QvnVW2wDHJjmnv3hm/a7nANHDiwYVEBoNFmd+ve2aXOLl13n3J1cW3/0m7JR2j4Mdq3qk2MdSEaNWpUo333YGdHXggAAAAAyAsBAAAA4PaD350AdB3D1fJP8o86D+F5vl43s41y7teaiEoOn2rN2zW65EuXLtlfnD5d5wEDlZWVjs5ynWc0FuYaC+ss55rBdM3QSNfW1ZVVjnWzWauJqN6HLbNYGq6V/Qb2poKQy19Ds+li3THmV2zWW7Xazo38gOHsAcNZ57H2Lj+b4tyjO8/zje4IFRUVDfu1Jqeu6Z1nrKiocF5IZWWlc7/WRHT9+vWGi3IcCuw//qi329odOl906HxRzTGkgmtqMiKqrKpqOLb4Guf8UxSO41pz3APkhQB/Wn6qcaf+OO4iFjMTVPYhoRNU1K5njv390SebGXvhwgXTXY0/B8/f39/xHLyGb23/s95T74joXkl5nefgXRvof3/Tz8FzO2kfm1uVe6zBWwjLy0d4uDd8Dp6Li0ujKzPhuWfRcrqSLTfX1g2fg2fLzRXeoufgia9dY2rDNbSX23Wn5+CN8Ozr5dXb07NXU7Oz15T1noPHMEwrn4NHRM7PwXPMePnyZXd396aeg0dEDZ+D53woqKqqcnV1ZRq8l7yXm/NAN73eUlrKNNFOrJWVw1hRvbFup07deeVKkL8/Ed1999133313vbnM5p/Ky03YB5EXAvQUzzzz9x07tg4cOND+mON2Gz58uPNzAgAAupdGj4Fnzuw6fRrPPLkt4P5CAAAAAEBeCAAAAADICwEAAAAAeSEAAAAAIC8EAAAAAOSFAAAAAIC8EAAAAACQFwIAAAAA8kIAAAAAQF4IAAAAAMgLAQAAAAB5IQAAAAAgLwQAAACA9nCx2WyIAgAAAACgXggAAAAAyAsBAAAAAHkhAAAAACAvBAAAAADkhQAAAACAvBAAAAAAkBcCAAAAAPJCAAAAAEBeCAAAAADICwEAAAAAeSEAAAAAIC8EAAAAAOSFAAAAAIC8EAAAAACQFwIAAAAA8kIAAAAAQF4IAAAAAMgLAQAAAAB5IQAAAAAgLwQAAAAA5IUAAAAAgLwQAAAAAJAXAgAAAADyQgAAAABAXggAAAAAyAsBAAAAoKsIvM7//kHqf07d+cgkmfB2Wzn99rDXoj7ZVTRoxnhvbCoAAACAToV6IQAAAAAgLwQAAACAWm4tjC/XZW5Py/i1wFhB4nsUgc+HhvhL7GP4wqyUj9MPFJqEYlnAs6GynOXJObz8xc1Rj4rtY7d9nqE+bjRbhdIRATPmzA6QMkS8Oual2Bxe/uL6UNeM5G/URWVCzxFBoWEhSjEREXG6jC0pGblFHOM5bPKsIGuddTF+syRsu54Gh8RFB0ux6QAAAAA6VLP1Ql6fvnZVyj6tRTop+FGVp1mT/mF06gmeiKhSk/LP5KyTRhLLlCM8dZ/Hput4IhIyRER0MTN6VXKmxuw5dmrwAzIuPzM+KkXDERFjn8CYnRz7vVnqq5AIOOOx9Pit2RwRkTk7KTr1oN4skChGK9hjKSkHOWwhAAAAgK7RXL2Q+zU94zRPHgGhS+epRDRdTmEx2Xu+VgcPD6DcrAPFRIxi9nsrggYQFaYtiUx3zKj9dqeWI2bkrMiwQDHxfsKFy7/P2vljsPJxCQmERLy5RBoRG67yIPOPqxds0nLH8nTWAKVZvUfDEbEB86PCx7JUqUtZvDzTaX08x4ZGSjlipRJsNwAAAICO1ly90KDTc0Tk5S3hzOYSMy/xlgqI1+XprGTU63ki8lEqBxAR0UCV8h6n+U6biUgyUGIpMZtLOPEgKUOkz9c6qn/syEl+HkREYh+5REBk4Tie6KzewBMxcj9flohIJFeNFDuvD+MlV/orlcMlDLYbAAAAQEdrtl5YwRERnUxbMj/txtAKs7GcmEoLEVEflrUPFHjWviKyWjiOiMiwe3XYbqfFmcxmR4bHsjW5nbC2cxwr8ZWchYiELCuqTR9ZlsiMjQQAAABwi/NC1p0l4sgnKPxZP9ZpsJQlTiQkIrrKcUQsEVlNXHnteAFrzxElD4TOGi+50SmiSCImMjb9doyIERLx9tqhgIiIK8P9hQAAAABdpLnvkWVyGUtE5bzYV6n0VyrlYgvHWRiWZUgySMoQ0TmNpoSIiM6p1Rcd80nkg8VExFWyCn+l0l+pkBBXaSFWzDa/Lt4yqYCI1+Ud44iIKrXqY3WKhfxFnSZXozlh5LHdAAAAADpaTb1Qu31J2JdOgwWs6rX1s0YHB/nkpRdmxa7gAkawxmMHNAZeMm1F3Egp4x+oEmuyzdptK5ZrR7DGfAPvceMrX8VjMxQHU7Q5ScvXaxX9Od1Btb5SHBAep/Rpdl0GTAocma7TcNlJy7ncYaTXGogl4qi2txpTTko0+qkBAAAA6Bw19UK+3Ggsdvp30WiyEDGykH+snPWAnC3Jy9x7QGeRBTwbGTVbwRARqwp9Z5bKR0yleq2OV8ycF2j/AYqAISLyCopYPi9opIQ7lpX5Y55pgHJ6eNT88WxLKyMOnB8RrJSyFoNWU0D+oeF/kxARWXkUCAEAAAA6m4vNZmvPfLzZcNZoMpNklFwiIKrUJIdHZ5nFQcs3h45EVAEAAAC6H7d2zmcp2Lk+NttM4uEBqsGs+US22kzM4KmBvggpAAAAQLfU3nohEX8ua9v2TLWuyFzJMx7SYf5TQ54PknsgpAAAAAA9LC8EAAAAgD8TV4QAAAAAAJAXAgAAAADyQgAAAABAXggAAAAAyAsBAAAAAHkhAAAAACAvBAAAAADkhQAAAADQgrY9B6+srMxkMlVUVFitVsSuMwgEAnd3d09Pz759+7ZvCdhG2NCADYRg/rkD0tl6WutFE3UORRued1JUVHT16tWSkhKDwVBRUeHq6urq6kpELi4uOIvcDPsmqK6urq6udnd3l0ql/fv379Onj7e3d1sXVVRUVFlZeccdd3h4eLi5uWHT3LZbvKqqqry8vLS0VCQSYUNjAyGYPSeYNx+QztbTWi+aaL1QtDYvLCoqunLlyq+//ioUChmGcXNzEwgELrVwIrnJLWFntVqrqqp4nrdYLKNHj+7Xr1+bGmhRUZHVar3nnnsYhkFUu8seeP78eYFAgA2NDYRg9qhgtjsgXZAU9szWiybq0KrvkcvKyjiOO3LkSN++fUUiUa9evRiGEQgEqBd2VHMkourqaqvVyvP89evXr127duTIkdGjR5eVlbWyrF1WVnbt2jWJRCIQCBDSbsHFxUUgEIjFYqPRiA2NDYRg9qhgti8gna0nt1400bblhSaT6cqVKx4eHizLsizbq1cvoVCIvLAz8kKLxXL9+nWhUOjm5nblyhWRSNTK1mkymdzc3BiGweboXkcie/XdZDJhQ2MDIZg9KpjtCEhn6+GtF020DXlhRUVFaWlpnz59PDw8+vTp48gL8T1yR+WFju+R7XmhPbalpaUeHh6tXEhFRQXDMK6urtgc3esw5OrqarVaKysrsaGxgRDMHhXMdgSks/Xw1osm2oa80P77Gnd39z59+rAsKxKJnO8vxPGuo1JDq9VqrxTaY26xWFr/yyar1YrfH3TTI5F902NDYwMhmD0tmG0NSGdD60UTpdb3U9OrVy/7nYX2/93c3OwJMg5/HZgXVldX2+9RqKqqsscZkQEAAIAu09p+rRmGYRjGXs2yEwgE9lsMBbcKnUl9++3UglYM7CDXTx3IOy8QCATVh2JfjtpT3qqZqs+pD5/hBQKBIC/ptX98c7HhFI4YOmJr/9H3bfjjJk3CnIVf6OsN5PZFv7Aq00yk3jBnyU4DEXEnstTniIjIkL5kdqz65i+GO2o5QERkVP+oNd8m61Kizco1tmM+7sfVL0RlmjviMzoa8J9QCzsOrz+YravsgbvAjQ+uSZq78HM9DgrQ1aya+DnP1Pfc3OTvU8OeazD8hdhs+35akrl67pywuGyuM1ettfXCennMbVEsdHEhcqn/uxc3+cw168i9M1aNP5m14+CogLGDGBcXImrd57f+cTD9J8mIAHlvGhu6UeHq3nAe+2LsJcN6eXb3aueqVxIUApaI1/03LVs5STWQIen0FYkWFr/LvK1cVGd8x0keUohvg+3CHctI100P9Jf8iT/jbXxm0md/mSUZHiAX4YMDdC2BMnzrjnAismqS5ydR2OZ5I2tHTZtFRHQ6deEKY8i2CJXTQczw0wHLwyHKwwfU5oBA8a3OC51zwXblXBUnv960aa/WVCn09J3y2qtPDfUg/vzBrZt35JcSEfUb9cxrsyZKXU9uXbiJf8hX/8MR2Wsb5g437Pt0065jxSQQug+e8vKrjw51b3BeKdixPvVgYfFV4eDH5r71lG+vk9uXJdBrG+b4NrZ8hi/8LmHTHl0FkUUwQBkcNndU/vq3dstWxDxzLxERFWx981/8nGUDvlhTOPZJVpdbVHzxCvPXF5a8Otac/v7Gw2b+t0UrDGH/8CIiLic1au9hvYn3VIQsXBgoJao4+d2mf+/RVZCQxL5Phs6ZfK9p74cf7j3PMe8tMrwU7Xvwja+kq6ODpXT+4NbNO3LOX7WIpAEhYXMmSJxzRDtHt+FdehF9LislOT2v1EJWofcDoeEzlWIi7lha7JasImIlskkKR+GhRJ2yIVVdwnhKhgUM5u3D1FvC0r2j5lFS/M9my7GFy4vCowK0qyP1wVsjVAJOuzM5NUvPCYhEssAX5wX7sty+6LkHZbOlerXebCyxyIIXRTwsJSLjzynJn6uLeCJXid+z4fMekOAY0nGJWHb8+2m6UmH0IuPsf0wt+EcSH6jQZ2pk8xPmyXUZm1MydSaLldjBU0NfD1Z4kCZhzk6PEEWpWmc0Gjlp0BuLpg9lqFid8lGaxshTNTE+gaGvByvM6Uve1yuDSHfUZDKbWf/QRS8qxUS8ITtlU5q2hIhIrAyZ/2KA1FWXEl77plNVBRkao1W/sHT6osjpUqfVVG+YkyGeLjmyxzB20frnpLrdySnfFXAkJLEi+NXQQB/nUrpZ83nStv16zkokVsx4fX7QAPWNz7gyPKBSnbol7YCBF7oy0gdmz39WKW6iAd8mWv7svCFrU3zaMY4VS/yC5PpP9YGbIwMupi1cZQzZEq4SEFl1KeHx9HpCqNOZo8FuRZkxMXsMnHDFwqKXPwgdXpS5JTlDxxERc7dq9vxZyv7E/bh6bo58BmXvsUycbPn2ZEDiimliIqJKdeyCNMnSuFmDu0GLb3Dk4Zw/uB8Rcbq09fHZp82cSD79jUXBQxmqNGRtTUo/ZiRXITskKHTudDnrHI2gqJXTcVSCLr+e0WUdItU7gcMq92zbbwx8vLPaYGszD5fGtCEr/OXfH/7EzlyXkrI5+ina+2FaPm8t/Cr+30XKxTHxGzZ8sFBZ+O+E7wxEDCMwagqlYQkb5o6ik//5YHuxanFs0ob4Vc+K9n6YeqTB8dukOcnOfH9DUvLqKZavtu4qdIpgY8s3Z2//Dzf5vaQN8Unx7wRQ3i+F7qrJI00H95+0z5R/8AiNmejbS8hw2nx6csnS1TFrnhEf3rH3D/IJDgv2YZSzYlb/fSgR0R8ag29YTGLKxpekuv/szrdSRd6/P9xNU5YmbYjfsCzQtCP+i0KrZMqCmb4in2ffi5nj5ziTGb5K3G4Yuzh+c0ryGwpdSsLuix0Q4Y5g3PNxil4RkZi0eXN0MLMvaecxIqsubUsm80TU5vi4lc8wunx79ZpXb09RS2bFJcatXxLE5Rc4bxfZjPBgH8bvxbioZ+U3js0/J8dmscFrEhLiE6KeYvZsSNFUklBAdFzLPbBoxer1ca8MK/giQ2slKs9O3ayRvBK3OWlz3IuSvK2pnVsx72nYgPBXVKxXUGRMeEA/Rigw5um9w5MS5ilJ/01SWlngioTNmxNXTirbmfKdnohIQPojRYq5K1ZEJ0SMN6Z/reaJdN+marxC4xITEpLWzx6kV2vN5EpUnqcTzVqxOiouepbkcFKahierfueGlCJlZFxiQkJshJ8+Jf5bA5HTmwbPCn9YIp4YHlc3KSQioYD0R4x+yzevf07O5abEfEtB/9ickJiw4m+mtA1peqcvRnlNWtI+4YzozZs3Jy7y1W/7NMvs/BnFhvSNyVqf+XFJCQkfzPfOTUrab26+Ad9yLX52876UlNPyRXEJcdHzpMeyCqzClm85aWS3kgSFzVaIZCGr40L9Sft57M7KoBXxCQmJ60OlefGbs8xExDB0XMM9un7zyuemPTisYH+Wwb47a7K1YlWAT3e4DmrkyOP8wRki3nisQPLiBwmbN0eMNOy0t/AvolONqsi4zQmJUSGizJhtGr5ONJAUwi3AH8tSewZO8mLkgZP4/2XpO+3GqrZVpNqdqejyNEK/yaM8iATiiW/Exs7yZYo1mvOyyYFShohEPpPHSQ2/5dtv8ZGPmywVEFkL1XlXFUFTpCIiEo/6vzHCYzm6BoFQTJoiZYgY6cTxPkad7sZNQo0uX8SKRYacHw+evFjB3DNl7puP+gjclZNUlsP78nkia37OERoz0ZchIpJNtJfx3KUyMWc2NfhId42d4icmIveh8gGVJjNPul80wjGPTfYiIpJMDPKtOJJT1Fgsio9ozvtMfEjKEDFDn1n9r3eneHVYnG+OZPo/Nkc9I2OIqL9C4cUZSzi6qNWVyFXjJETESAMD5AwRkVWv1fGK8X4sEYlkgeO9Wzwr6XK17OhAlZiISDw20I+0eaeJiEjqpxrMEBHjLZVUmsw8kUdAeEJc6EiWiNiRfjKr0VSOA0InGjY+UCogIpI988EnS4IkAiJGqhzhaS6u2Zk8R05SsERE3lKJxWQyEbFiltNlZ2n0Zp5VPhcROl5MROQ6TDVRQkTE+qnkfMGJIirWaAyywL/Z90FZ4ARp0bGae/4cb9r0lyzEDg8I6E9EpMvRCMdOD7TvWQFTFVxezd2rRETEKOclxocHiImIkY8cJiwxGp2PEsV5eYWywMfkLBGx8qAAiS5Hy7e9AXepFj47X3Bc7+kfKGeJBJLAKSq2Nctsfrey6jXHOMXkSRIBEbGKySqxTlNQSUIi6q8M8GWJSDw+QHHxwIFCIuK0h7WSgEmy7vAdfZNHHieeyqmBXgwRM0wuJZPJZNWrcznFtKn2U49yikp4TF1grRMNgK6/xlH/qJVNVomJaGBAAJuddaKzrmfd2j+nW8vzVlVV2dNcrox3H1D7HTDj7s4QlXMVApatHcZ6sHSV44jIlWXd7UdpcwVXofk4fP4nNdNYeLmZJ6pzMGLF/WoO6aw7S5XcjdJSo8sXTXltKf9Vxr5NqzaZRPKA4DkzJ0mZv04cK0jY9xsvZ3KOMGMWDiEqJRIwwhvnCoul4WcTCWsODwKGiKia58p444kP5//imEcYUEY0oOGFu6nClWVrf2rMeLh3alNqMcV0fhCi8df01O+1RZUkFFhMBpIRUQXHCVm25i4clnUX2hsoV8mybG3k2RYPlJyp3MLe7ZiMZVnOaN9UIqZmqKuQiMhKZDVr92zLUOs5gZCsnJFnFTggdOhWrpuCOHY34s8d2PZ5ls7Ek4AsJSaqudmFYUS1e4LAvvVJ+nhkhGhn5pexaXEWiXLqrFeCFUQkYMU125IRihi+kqdyjqu3D3IcV/dNbyhMX/5+hqGayCMgIi6UiGH7srVHD4sxJ2ZuTu1FMy8MKHPeoXR7tqdln+JISMQZLRRYZ7FlZq66IC1y7s6aBIinQZypzQ24izdQ85/dwlVY2EG169zf01PQit/MtLBbcSaOZfsyN3ZQC2e2n3Q82Jr7gz1UgSNTU/+nCxlgzNZKA56T3rat3SmeTR95nKLdoIWbOY7L27Rg7tbasFuG1Y8GQBcryc46Ziw4NveFTTWHMuF/82b7qjrjmtbtZmZe1XdAM2NXlhU7HeaYirKKmr8qzQazUOrh6W4t5CqIPIiIuHKO+tQ7PIvdPcQBs5LmjmrmTSxcBU/EEBFXwddZQhPLZwZOfOb1ic8Qbz7yxfoNm/b5rp5yh+/kccL3D+Ro3I8w4xb6tHO3Z9i+rPThJTHP+9QZXNHwwt3TnS8016wYX3HRaBFLxZ15+/OVN95palS/jf90anaZyUl5siVREb4skSE9cnEBEYlY1lLEVRKxRMRx5RbyIiKWFXIcVxN5c1mLX/Synh5C7sZkZo7zFLNEjf0QkjucEp/FzFsdp+pPVJ61el4mDgit8UpiSVOjtizo34q8Qb9zY4o+ICrqKRlDpPs0LLqZMq1ArJgWqphGxOkzE6LjP5NvfozIypk5IjER8RzHMXcw5CFmrfo6+2AzKdjA6ZGxgbw9vxSQpv6eFRk3U1annfxY80L7RUx62Yz164IkDPE58XO3111sXzHLKGbERAY4v7FV18YG3AFG/vPZpkYde+eLZo8q9T47r/6RLI5LYLPJ1MjXSRzPE9OG3Yr1ZDlTWU1AqIzjhKzjoCSsncbvAVXKvw+oB5kLBk0K9bqVrf29995r3dgmjjwtELN9xZNmb56nrDOUrxMNgC5l2J9VND7yk/nKmv26PCs6IutAuSrQo+Pfq4t+2SD3U1ryMnNKiazmnI8jo77W8V6jxt6j35dl4ImosnDvQYOP36g6P68R+Kj8Wc0P+4w8EfHGA1vj/pPfIMvi8w9kG61EVuPBX/SSYfIbS2h0+Se/WrF2x8kKImLEgyQsQ7yViMhn0kTJse1b89wnTvRpofDFNXkK8R3jy/3ybU4pERH/x97NG3cX8vYA83VmGjBKeY8++4dCnoj/49t1yzYdvE16yKjgOPKUSFkiMudkqS8SV8mTl1zeV6c+aCQivjAz2/4VjECqkJP25zwzEXHarJ+L+JYCJfdXWn7dozYTEZkPZ+UJFH5N3LHOc5yF9fYWExGn/S67iCxcJY4JHUvIWBq2Y46rEEq8JAwRb8jac4SzVHJNfEthzk5YHr/PSETEekslLFXzRETVBer9Bp6IStRqHasY4U1efiqpPuu/9n1QvyfbIButrP8TOgHDV3A8EQkYViwWi8Vij/oXwIqxCi4nQ11C9kaYvCFDzzu1l3Kelcg8GSJOv2efzsJzFufPOMBPNVC3Z6+eJyKrWfN5fGqOuTUN+DbR2GdnZHKZ8ZhazxNZjVmZmppNKfb0tBqNxURE3BG1lrO0vFsJiIjnKogEMqWS1ew7YLQSEafdpzb7qhQNChHMyAAVqVN3aL0DVOJu0tYbP/I4Pnjjlz0ylT+btzer5tSzPyX2Cy1ucoZbyarL2m/yG+e0U3qoVDJdVraxM97NrWs+lPuYl8PObdy6LHSTRegpnxz20iiG6LHwl4s3f7DoRyJiBox5LSxIQlToPNfQ4IXPfLppzVs7iIgGKJ8Mldf9ztVCJFEOLd66YtH5Uo58Hgt71IfoZO1YaSPLF0wO9knY9M58joiEA3z//vIUe8Vz4EMB0q+202MT72nmQ0h8x/ikfxbx5pnXVv+lsUt7v5ffvvjvf783//8RWRjpxL/P9WGImKFj/2re+t6bupBlk2+s2Mzi5Lh5e64SI1XNem2K1+3R8gYGBk9UpywO2yMWe48PCX2qIPrLVanSD2bMDYzfsmTO16xEFhjg75lVTUSs6rlQzYaUhXNTxQPkU1UK9qjzV+0ShUqWvn1h2Ol56x+vvWwfHxp+Pjl1WViqgIiVT397llJEjZ6MxeODp2bHrwo74HmHRBkcElxTH0QAACAASURBVKKMSd2QLHsN93l3nCFKP0F89Hz9jHdDnc6FiqlPK2K2Lgz70lMiCwyZHaiP37bqG+mMxjaRatqkvC2r5+6wEAnZQar5c5VUqSdGIbfuXLVYZzST9wPzQ0cyRNLpb4YaN0Uv/C8RMZKx88KnSojq9BXnPdJPsjd+bsTUiA9mKZoo1TP+oYsupqSsmJtKZBF6T3pmnowhzrHbPRactTFmgYb1lCimPzdr0ofJyXHyFa/VfsalUcFvzDNuiV+wlyciT3lQ6ONiImq2Ad9GGv3s9HBoiDY+ekE2O0CqClTJ7B1AigOCp6mT1y5USySSoQqlVNvybrUyWDXSlLIirOC5FZHPRYRsSl4dnk5E7KCAiNcCWGqwhzKKSeOFmXtlIWO7S1rY+JGHSO744FMbzSafXhSyNWl1eBoR0QC/4FeHNRIN6OCCWPqSms4rGqvInMjSsoGqgd3vYyUmJi5YsOAmF8IfyzpQ6Te/zrUaqxonT/0+2zAtuMNv6XBp8sYjJ1qttqKiwtPTs1+/fr1797Y/HJlhmBa/R669v/D2V3Hww4h9f41e/n+38njneETytWvXrly5YjKZ3N3dFYpW3V+n1Wp79eo1aNCgek9JcXFxaf575NY0AOg8169fP3v27PXr129mQ7u4uDT/PXKnb2VD+pLl+uAtjR/TsYFcXFya/x65/RvoXNrC94yzN4cruyTyxt3Ll5+aHvemir2lwWzxe+Tuclhra0A6W6MBz8nJac28Y8eOvcnkhyu3sB6Ntixek7AgS5kYMZHpFvu7w6VLl2bOnLlgwYInn3yyGx303AiIKo588VWhcubrYoQCoJ3wNJquwmuSF26xhKwOD+jP6bLUZtn0LvppcEl22nfcpLdU+EVuj1JWVtbiNH379nU6FDj1UTo/Yd6IRjqDbKQP1LKMms5uqw1ZW5LStWaqtpBYMf21+fLcVTf6xH1WUr+/Uh+GLqYvWaFXPcUW5BYZL5iFI2dFvqYSE5lzU+O3H9CX8YxEOeO1+UE+jfdM2Xm+/PJL+//IC7sXw+6oqPQL0qDX3x6Fvu8B4LbHKENCx8enRM7ZRoxQqpr3WmAXXNHqPl8S/V9OHhwxfyi2ALTQQoUCo1rvvTIpVCog3afRqcagqLjpUpFZk7Q8Zpt34nyl/ttUjde8uJUKhjjN58lqrVkxyHHZszNVr1gRHyITkPlgSoq6IPDZ8OC8hbpH4iImMrwmOWmfcPYHmwPEvO7Txas+zVKtDBILGIbTamn9iuUSKs+ODk/bE6QK8chK+kgrfzduxVChYXf08g075TEh/BeNrEwnFSEvXbq0a9cux4tulBoiL5Q+ujzpUezIADe1GwWv34YodBmxcuaKhJld+pby59ZvfQ6Rh9aq6aPU3hnkTKfOIGPUBValp5jlsrOzNKxKIVM+F6EkIkNtUtnXky3RZu3XTh2tkE4MjSAiMjpdFM1LjOcZEdX0V5prNFpJTEQkCwio0+Uwd1atlahCh7JEJJ0amfAQsaRPbWxlFJ1TbrcXCx2vkRcCAABAj3Sjj9LGO4NUNNoHqt3wkBWvZ6TvTV21rYjumTTj5VlBzp1XNNVfaZ0uh3lLTcdYYkc3wyxLZG2iZ8pOyAsdxULnP7tLaoi8EAAAADpD451BEjXWB2oNRuIfPM8/mKxm3a6Y6I8y5B/c6Ky+hf5KnbAeLJWZzfa+d62c8SLPejW1Mh3PuVjoGNJd8kJXNFuoYdWlLAhLyW/FwA7CnciyP9CM3x/9woqM1nXjyOsPZusqiYjUG+Ys2WnAdgMA6DzSVvDwaKJ75cY7g2yiD1QiIjJ8H718q8ZsJRKIpfdImOra8wXHNd1faWN5oa/fsOIDe45xRLzxx/gl6zMM1EU9U9YrFjYzsB00CXMWfqHv1C2OeiE0SyCfvW49dcqz+njdf9OylZNUA9ty169Vn/1llmR4gFxEqlcSFAL8MhIAoBONGDHiZmZvrDNIpvE+UO1paMB0v02py+cnWQQk9Bg29ZXpMgFLtX3iRj0WLG3YX+mLjb1x/6Dw+cb4LQvnlPPMAEXwmyFyAVFjPVN2uIbFQsfwblEy7Kq8kDfs+zhhx28VbL8Bo6bIC1P1k5OWTBRVnPxu07/36CpISGLfJ0PnTL6XoYtfRa4qHPskq8stKr54hfnrC0teHSsmMh/ZsemzfYWVQiEzYNTf584ZJyHiC79L2LRHV0FkEQxQBofNnYTej28WdyIt+tNsfTEnHDx93sJghUi37d14ej0h1JeMOanJn6uNViISy6eFzp8mY4jX745P/q6AI7IIJH5Ph89TaqPDM2Qr40J8iIjoRErYh3zoCkna6vqdCJh23uh6YOXdRMSpP12957DebBErnl8U8bCUiNPtTk75roAjIYkVwa+GBvqYMmNi9hg44YqFRS9/oMgOS/eOWj9DSobslE1pagPHi6QBz4eHTqzTDLhjabFbsoqIlQwOVAkzs8QRcc/JGu2tQJMwZ6dHiKJUrTMajZw06I1F04cyja0G00gnCx7dZxvzhqxN8WnHOFYs8QuS6z/VB26ODBA19jGb6v1Bk5a0PUtfKRQKJcpn5oWOl1DDlvAAdsb2KlGnbEhVFxPrpZg+kkvVyNevni5prMVy+6LnHpTNlurVerOxxCILbmrHYYiv3/dHkA/TI4LZeGtvrA030drpojp1S9oBAy90ZaQPzJ7/rFKM1t5CNUE2K27zjT9F0sD5UXUfW07M4KDw6KC6w2p/u+ahCF60PrjuONnjUVtrn5IQGT/dMTwgUWV/EbVtuuPdQ+Jq7h8Uj521YuysOgtqbGU6nK+vr6+vb6OjcnJynDp65HRfJSft1ZorGbHv1PmvBcs9Gj3POp3FZJMUVkfTzk7ZlKYtISISK0PmvxggZRo/i3HH0uI/zTZUkqWa8Z44O3ymsoUeDGyt8Ntvv6nVap1Od+nSpbKyssrKSp5vVd/vVbUuf//e829+fLysqur6+R9iX33++X8eul71/9k797im6v+Pv9122GBcxsUBDhBUQGlYqEAkeCFILfFXGGaoaZBXyryUeSmVLtrFMq1E+3rJu2lgiSkJggqKXIRkCLIhIGzAJrALG7ucs53fHwMEHIiahfJ5PnzUOJfP+Zz3+/05n9f53I4i9/v5C79JFRIEQdSmfTH//V/KtQRR98fa6Lkb/6wlCIKQXvxi7rIjtwiiIfWLmLgduQ0EQagr/1gbs/YPIUE0pG6cs/GMhCAIQl19Zse3f5RriScaHMc1Go1CoRCLxXw+Pycnh8fjkb2Dx+Px+XyNRtNl+319dPdQomz3kuh5m04JdSSpE576JHrZwQqSKNu9JG53MUlKUuLnLTtQqiRJkqxL2RQTd4BPktLz8XPiUxpIkiR1wpSE705VEMqr382L+6WsNVf/i4v7H08nObUuel78GTFJkqQic9O8ZUcrSZIUn1obvSVLR5Kk7uKm6DmrdudLSZJUZm2ZPz+BR5DK/G3zF205X0eSJClO3zR/2YEKgiSVmZvmrDNe8er381b9JiRJYeLq+fGnhTqS1PGPrpq37lQd2fmm5m1KE5MkqSw9sGpO9LJjFSRJlv0SN2/jKaGaJElpwY64+TsKdCRZsGNe9LLdPCVJkmTFkWXzvsnUkaazUbY3Lm4nT0eSJKksOLJl9xUp+bBoNBo+n/+Ijn4AL5Ok9K/46GW7y5QkSYjPfzc/OnrL1e6sbdJx0vObYuIS8qUkSeqqT62LWXeqzmQkkE8H/7qDlFe/nzf/h6tKkiSlVxOWRUdtTJF2E7G6i5uio9cllutIktQVJPRQcHQ52+Z9eNToFGnW7i3HjNH7dBqzoz1NRrvpGDb9mBImrp236mCZkiRJZdmBD+dvuij9B6P9QQ3yuOmuHuk//CMh2kuUOdvmv5dQoCBJQpr5zfz5O3k6k/UsUbb7vdZaTCc8FT8vatmxCpKoOPrhvHVJQh1JkuqKxLXzViUJSdO1mDDxw3lbspQkSZLqslPfJ5wX3idjDz++sDdC526P4c1K29ETPS0AqOyJYQHGllt+XqGZ/9SJTgAA7LGTnmn5O1fY+m4w9oVOE85beLk37Ca8MooFAJjrxIlDq3Kuy4DBZDFEuecvC+pbsEEvLXj/FXcqelN7YN3f5XjuuMkcDADjhAR5SPj89jF/quKCsoEhocOZAABOoSEjpAUFImAwWQxhTloWv16FcSYtWh7hQWWOGheou5pejAPoi3MKITDY+O2erosIdMUpcPJoFgAwvbzYGqkMB35uoVlARKgxPIInc1UFxsGIXblTUCDyCJ7AwQAwz5mfb18zueN3BeuL+c1eIc+zAYA5PCJ0aGtndM41FXdKh9UKinLK9AAAtiNDuEwAABcOWyeVSsF0NpgspoqflV5YKcOZfm+ujA1iPTlexstKK21Hh3oxAajs0Jda1yju3tr3rP5QlFNsHxox2lgYQ0OHVeYUykxFAip8D+UgvaiYD9ygQCYAsAIjgtlYjxELnFGBQzEAwFw4PRSc9rU/RM3AGhu78g0u9vQas4M9TUe76Rg2+Zi6U1BQ5RE61YsJAEyvScFsfm4xjqId8U/Av1ZoNjrUzwqAygp+f+vWuVydyXq2vpjf6BX4PBsAME5osBcGAHCnsFDkERrGwQCA4RH6AkdYVGwM4ntqMSbLFiqz03NuyXCGV8T7i0Lv9+G8f6cfGVe14BZubYPU7FksqgwAVylwyc3vFue1btbpzIIVABZdJpzrdADKZhVee/rzuHNt6WGsITJgBCxci59MztgVv0vK8AqOfHt2CAdDsfZIMFmsVhMymUzQqNrH5KqaZWDNapM/GJPJxFtUwAhc/Ame+Ed6wvoEGcM7+PXYt8ZxsJHBgZTt6UW4N5ZTaBa40hOgycQiAl1hYK3jPChmAAB6XKXQSXK3LGj7AhOOmwUrAO798qJCpqIymW1rkmNdPqPUouqwl8W2NwOA7pZOYAKGMdpySTVrDV1T2eDcu8jCE9OPrFO16JhubVayt7VtLYymrM00vfoDLkqOX5zSlp6Z7RCp6UhA5emhhnKoNEzbto9HsOzYPUTsAxSckfeu/dEfxuaajPZuYhhMPaYUMpWh7NiaBYmtqh0HN5WUMQlFO+If0EUKHZPNvFupYiAxWc+2qFRm7bUYk2lhBgDQrFJRmcw2VcW0Yhon5oCJWowV+u56+CP5rx+TtitY3LCZsTMC2dT/XhdiTAbgqpbWv+QymR4AMKY1k/PiR1ui3Ts3/5g439KKiblHxn/6SpdBHJjr2BlLxs4AXPb3r19t25XxzKcv2aFoe7RIVeEAGACoVDgwme1VB9OKdXfOP+AqhcoY0Jhr8Mx3g2cCLis8tnlrQvozn0+y54YGmX16KafAohB7fuXDvkkbw2PN1tkenSvNew60ZjF1lbIWACsAwFX1EpzFYbV/uobBZOqFqtYVqmQSmQ4GQndLJxT2Phv3LrKwkPuEuNiMyQBdu+CXSaX67m/TVGFkWjEx98jPv4i4pzDeGwmoQD1U5JvpVMo2/zQZmwBMRyz+ABF779ofM/tBK5fJaO8mhu8Um0jAmsXEuNO3rAnuoqJRtCMevaRbm6kUbcGpkYlkGMtkPctgMnVClca4VaVq1oETgBWLqa9UtVZ8xsUamd2+6ll5hM5eGjob8PqshE07D7pxV47t6bXw31mnBnP3dJcU5VbhAHpJxrm/jZZ4xv8ZVd7p3CYAAPz2uZ9/+LOqm1GLFr4Bz9RnnbvRAgDQLDi54+eMWgDByfWbjgtaAABjubGZGODoC62P/HpdfClTogfQSzJzK9nDvdr7R5kjR3nfyUy/qQIAXJSezmf7PccBQdLHnx/jq+66QGcAAPAYH8wuOrDnGjMk2ON+bSPdrhLADeCqcpNzGgEA8Kq/dm5LrmyVd3dfMQAABo4axanMPFeJA+BVyZvXJGR2XPDGycODUZmTKwMA1c2UzFvGt6gHWK3AVDZ6WmSh7z+MPLw8JEU5lTiAXpL+V6GqB2ubgjkykFuf9dcNFQBAMz/px53pIuguEhAPDNXD2x0vzi1UAYCsMOWKEP8HIrbbtT+e+qrXZLSbjmGTDBwV6MpPOVeJA4BeVnh0+8FcGYp2xD+C12g/XX5KTiOAXpaza1X8Sb6ZyXrWycvLmp9zWWIs0VnGWsxpVCCnMj1NhAOApjIlS+QxppvZJJrCPeu+Ta7BAQCz93Bhgu5+Sulfmo/MDo1548aPXy29zBw4KGCCv3vBHQDARsWsqN+7d+PiwwA6jDM2akG3M+RYExcuubNr/5rFGh0A0z1k9sJBADAx0v3HXR8uVgGA2cBnomJeGogi7ZFEIQB7lJdkz8fLRY0q8IhYOtUDgN+60zjnf9dH7+oBgMWd/cH0oQAQOt19e8IHC1QAgLG5b8RONrrANTR4UNJBiAjuaRwDm9u+9ICpmVvY6NgP6vfsWb/gIIDOzCVkxiIPDADzChwp3bP+3bI317fNKeNEvD9HsuPbBWdUYMYJfGtxp/GFmN/MtwO3HFi+4CTbZXho4HPMdGOB7PVqBaaywXK5d5GFJwf2i7Ezi7dvjstiDuQEhgZ6XJN0a23ThTF08buShL0fLdDoAJge495azOk+EhAPDDN49pyCbQnvxjHZztxJL3Cx4m4jFodeFxwTa3/0C2uajHbTMXzHZAKciPcWSXZvjzuHA4Ct16TYaSxgomhH/BNFPSB2ac32PWve3oljLK/QpTF+mBWYqme50xeEbt/90dt/MNkeocGjbdMNxoovVrJr8/I0AMDYAYuWTu5mUjzDb/KkgoRv4pJxAGC6jI6NHXufMSQDejO9q7i4uKWlxdbW1sbGxtzc3MzMjEqlDhgw4CGNUXP8g88ksxPefQ6N1e0MSZJ6vV6n06nVarlcLpVKLSwsuNxedVAWFxebmZm5ubkxGIw+cCuqrC3L00d+vf4lVl8yMJ6zdUHS0K++mtaHFpXQaDTV1dU6ne6/cXTNseUbJW/9vNQPFcY+6SDZuU/jrgX/vCaUiYz5NEb7gxrkcdPH6pH+F6J9g3/peyf43z+/v/THy00A0CK4kCt1fwbNHf7H0ev1BoOhl+s4PF5VWHgssXJUxLi+IAolf8W//dGvlTgA3MlML2V6efUhUUiSpMFg6DBz/99wNF6489247VmNAKDip+fIPLhoNmWfclDl0eULPv9LogfARelZlS7DvZnImE9jtD+cQfpPPdJPQrQPQntQqz3cZbDnZrz9/I/71sUeAjMzTsDCdyayAPEP21mtVuM4zmAwHr4p9x9AlBwfn1TvMundlX594vWJHTp3ZtmOzQvOA0a19Z66dObwvuVoHMfVajWdTv/XHI35zYwN2r5nzdsHADPjBC5aGIoKY59ykMfU2Mk79ny8IBGoZmy/OUuncpAxn8pofziDPG76Rj3Sj0L0CdaFJheIehArsJ6L/nhbNKpoHsDCD6oOFQpFS0uLhYUFhfIffvaaE7Hh54i+ZFjMfdLSryf1TY/r9Xq1Wt3c3PxAj6FHdjTLb/b6H2ejMtdXHWTFjfxoayQy5lMd7Q9tkMdN36hH+lWI9jl6dRtUKpVKpRpbSh9CryAeQh0aDAaj2Xt5IpVKVavVUqm0paUFx/F+2xHwpHjZ2FvR0tIilUo1Gg1yNHIQMmY/MeajGORx0z+jF4VoF1P0qr3QwsICAPRtGAwGg8EwYMAAY3thP2xt/sc90a4IDQZDu52ZTKbR8r30kY2NTU1NzYABA2xtbc3NzTEMo1AoyDt9s+DhOG58BtXU1FhbWyNHIwchY/YHYz6iQR43/TB6UYjea4pe6UJbW1utVqvVanU6nXEyMgAY7xzVRv+UP9pfWQiC0Ol0OI5bWFjY2tr2MgVbW1u1Ws3j8ZRKpZ2dnbW1NYPBoNFoyEF90NfG3gqFQtHY2NjY2Dh+/HjkaOQgZMz+YMxHNMjjph9GLwrRe00xoJdtnkKhUKPR4DjOZDKNt21cqgbVRv+gLtTr9QRBaDQalUqFYRiDwXBxcel9IkKhUCqVpqammpubMxgMDMP6TvcEoiN6vR7HcY1Go1arw8PDbW1tkaORg5Ax+4kxH9Egj5t+GL0oRLuYYkDv+8KFQqFaraZSqRQKxagLjaMskTR8dFEIAMYeZIIgjD/Mzc0f4mEhFAqVSqVIJCorK1MoFMg1fdbj1tbW3t7eHA7H0tISORo5CBmz/xjz0Q3yL0jDfhW9KES7mGLAA42RVCgUxvGVej365NxjgUqlGruPra2tHy4F5CPkaARyEDLm022Qx01/i14Uoh1NMQBNZkQgEAgEAoFAwL/2vRMEAoFAIBAIBNKFCAQCgUAgEAikCxEIBAKBQCAQSBciEAgEAoFAIJAuRCAQCAQCgUAgXYhAIBAIBAKBQLoQgUAgEAgEAvGEQkMmQCD6PmiR5I484iK0yJhPjSsRCMQ/DlrXGoHo6xi/Tm5nZ2dlZfV0f8O+N5AkSRBEc3NzU1PTg35DHBnzaXIlAoFAuhCB6I+iUK/XDxo0CMMwZI0ukqK2tpZKpfZeTyBjPjWuRCAQjwk0vhCB6LsoFAq1Ws1isahUKrJGpzfaAQOoVCqLxVKr1QqFAhmzX7kSgUAgXYhA9EekUimNRsMwDHV3mtQTGIbRaDSpVIqM2a9ciUAgkC5EIPojxrkRFAoFSRmTYoJCoej1+paWFmTMfuVKBAKBdCEC0R/R6/UkSSId04OeIEmyl9OKkTGfGlciEAikCxEIBAKBQCAQjxe0fiECgUC0IhQKf/jhB4FAUFRUJBaLR44c6ePjExQUFBMTg4yDQCCQLkQgEH2RCxcuxMfHd9yycuXKqVOntv957ty5zZs3dzxgw4YNEyZMQKbrgRMnTixZsqShoaF9y5UrV65cubJ79+4//vjjjz/+QCZCIBBIFyIQiD7HxYsXL1y40HFLlwYtjUbT5YAJEyYgXdgDv/zyy9tvv93d3lOnThkHwCFDIRCIpxs0vhCBeOLZuHHjnDlzOm6ZNm3axo0bkWV6SXl5ebsonDNnTmZmplAoVCqVubm5Hc3YpY0WgUAgnj5QeyECgejvLF261PgjKirqwIED7dv9/f39/f19fHxmzJhh1N/Dhg2bNWsWshgCgXhaQe2FCMQTjLE1a+PGjV2asuLj49t3/asZaixOvya5/2GipI/e+janb6xJUlZWdvbsWQDw9fU9fvz4vQdERUVFR0cbf6elpfUZ5+OVl7P4mn8yRdX5T2d9/pfsgU65mZ5T85DnIhAIpAsRCMQ/gI+Pj1Hzbdiw4V5p2FEUth9gPOVxoypKTsrvhS7kRKz/aVFg3/gcXVlZmfHHs88+290xUVFRxh83btzoK0Ggr8z6Lb1S9R9rU37asaxqHACY41b+vDyUhQonAvGEg/qREYgnj6ioqPY5EBs2bDBKwPamwY6i0HiA8Ue3Yu78pwtyvaZDVopu0ucbIswKjyUcSq/UmJmZsf1mLIoNYgMuSt+dkFQsA4MOWNyIhYsnuWOgEaXvS0gqkgDFjDlsUuyCCK9bBz8+UCjRVy5vivhgTQTHmHpz1ualiR6fbp3pCgCAF+2MS4Clq9kHP6mM3LcykKri/7lzz5kyFZgBixs5PzbUtfLg8u3w3o9zPAEakz9+9xhz8c9rxjEBL9wed8zl068inf5hY968edP4w8XFpbtj2qfslJSU3E8p5exctqcABwDANTIVK+LzrXO8NJV/7d6ZzFcBAOYc+NbiOX72AKAqTtx5ML1SRQVgeITOXRT5DFOVsXnBZY+3nCpzbomEKk7EO5PxjOQCkUQG3DkfLQq0b7+M5K8tW1JEKrP1y4UxX8cOF5pK/26eKv/cvvNMmQpAR2WPen3ponFsgHss7451DApTe1X8kzsTzhXLNBjrmcmLF0Zi5+K3Z8t0Rcs/Fi5d43BsQXbgTx9PYqlM3GzrfXEqcyplkkadR+QHK1/koIKMQPRFSAQC0Vfh8Xh8Pl+j0dz3yC79xRs3buz9VZQXN0XPWXXgupIkSVJ6flNMXEK+lCRJXfWpdTHrTtWRupxt8z48WkGQJElKs3ZvOcbTkWTZL3HzNp4SqkmSlBbsiJu/o0BHkhUH4+bv5HVJPvObeat+E5IkSZI63s75cXt5pDBx1ZwtVwlSmb9t/qIt5+tIkiTF6ZvmLztQQegKdsxf94eYJEnlxS2r1q5atrOAJEmSf2DZitY8tKPRaPh8Po/HexRj7tmzx2i0RYsWdXfu1atXjcd4eXn11qxq3u5l8+JPC0lSx/tf3Pwvz4sJkiSVvL3L5m06LyVJ5ZUt85YkXJWSJElKr2ybP39bgZrUXdwUPSf+lJAkSV3BjvnRi7ZkSkmSVJ7fNG9VkrCLXTfNWZfSQHaX/l2k5+PnxKc0kCRJ6oQpCd+dqjBteVKZFh/9WYqU7GZvzrb57yUUKEiSkGZ+M3/+Tp6OFJ9aG70lS0eS7eeazozu4qbo6HWJ5TqSJHUFCfPnJ/AewZUIBOLxgfqREYingfb+4o4thb3EDADs/YKfYQKAqiin2D40YjQLADDX0NBhlTmFMszaltlYnH6pWNQMrLGxK9/gYvrKnGsq7pTJHAYAsPxeCjQryikzPV6Q6TeWK8nJEQEAXpz1t1lgMLd9Hz+30CwgItQJAIAdPJmrKsipwbxGektK+SrA+TeEHpNC2VVllXqQlJbhI7gej6Hr2dvb2/jj1q1b3R2TkpJi/DF69Ojepaoq3Lczx2nOolc4oK8sLFJxJ4awqQDA5E4MZPELyzTAv1bMHBMayAIAYAWEjoLiAuP1Xf0COQCAsZ1swT0wkAUATBcnpkrWTZ9xN+nfhcFkMYQ5aVn8ehXGmbRoeYQH1aTloUe/AP9aodnoUD8rACor+P2tW+dysQfKDGdU4FAMADAXDlsjleGo1CIQfRHUj4xAPA20jymEtn7kB5KGYMVkUgEAVM0qXJQcv7hVBoHOzHaIFIbPXL8kr+4zOAAAIABJREFUOencwfgDQhgUMj1mziR3mUqlKtgVt2Bf64G4zluGA9O0MAz225eUI4qMkOQUWASvGQJQ33qSSqGT5G5ZkNuWCG4WrADmM1yXI8WVGnZxJdtrNlf21x6+TIWVSrzCvB+H6dp1YWpqanx8/L12u3HjRrttX3rppd6kKbu8M6HIK3ZzKBsAQCVVMZnWbSKKyWTqVDJchTXrmM7tBmMymSqJUfiZmZkBAABGxcAMaz2NAmDoVoOaSh+A0a4LAxd/gif+kZ6wPkHG8A5+PfatcWyTlm/DpF9wlULHZLdlGGMysQfJDAAwsNaTKWYAAOhLyAgE0oUIBOKxisL2/z6ENDRqEaYVE3OP/PyLCHbnvezRkYtGR4Jexv99y+YdyV6bA5nWrJC3fl7k1+mwSpNJM0aFjNxzLLfSo77A9oUNHdr8MKY1k/Pimq2zPTqfwOWy0osLi8sY3ElWHNkwaXJRIVbtPWo49jis5+DgsH37duNSNRs3bnR2dl6wYEH73tOnT0dERBh/T5gwYd68efdP8U56wv7KUYu/CmydhcG0ZaqkChwAAwBQqFRmTBaDaWZlplK0NwHKVCpbFhPgYeYXm0y/0xGYa/DMd4NnAi4rPLZ5a0L6M5+zTVledb4nvxRe7pBhjUwkwzhOD5MZBALRl0H9yAjEk8eJEycGDBhgnIDcZfbxvTOU4+PjBwwYcOLEiV5JjJGB3Pqsv26oAACa+Uk/7kwXgejs5o/3Fcr0AFQWZxAbMwBQPQJHMwvOpUtwAMAll/Z8+2uxCgCoGN6iuqeHEOOOHaXKT0opYgeP7TTbgBvAVeUm5zQCAOBVf+3cllyJAwDHb4Su8HSOaqg3G8BjuEtlWkqlM5fLfFz2fO+999pnlixcuJDD4UybNi0uLo7L5baLQqMuNK5o0xN6UfIPByVjl8b6tWWX6uHnxyzMyJToAUBVnJEjeyaQi4HXaD9dfkqODABAdjW9gModNfRBMk0FAFzV0m36dxEkffz5MeM8EJYbm4mBztCd5XvyS2uGGwH0spxdq+JP8o1nqFQdOrjvmxkEAtG3Qe2FCMSTh3FWbJc2wvbWwS4zlI3/vf9EWiOs0MXvShL2frRAowNgeox7azEHWNYRo3Yd/Hhxgo4KZlbek9+J8KACvP7BzH0Jny49BgAwcFTkfG8mgMvIUexz2xesnLzy6zlcakdhGMz9+dPMgbGxnVuYsNGxH9Tv2bN+wUEAnZlLyIxFHhgAgMdIb+mfOdxIDwDAvLisij34jMWPdQ2UjIyMMWPGXLt2DQBqa2tra2vvPcZoyePHj7cvW2MCQcpfApWqfkuccaYKNir220WBb66cuWvnp0uTAIDpFrxyYTATAIJil9buPLju3YNUAKZXxIo5fgx4gEF3DK/AkdI9698te3P9GpPpt+MZOt19e8IHC1QAgLG5b8ROHgjYQBOWV/Xsl4DYpTXb96x5eyeOsbxCl8b4YQDcQI+kQ8vfvbVog1ebq01lBg0mRCCeFNAXPxGIvktxcTGdTndzc6PT6R23dxxNCN1MNOnNMU86Wq22urpaq9VyudyHNmZHfv75519++SU7O7vjxgULFuzatWvAgAHtW+4jDRGP2ZUIBOLxgfqREQgE4q4EvHLlilgsPn369HfffZeRkSGRSHbt2mXUgu2HzZgxo5f98ggEAoF0IQKB+McwLijV8zEbN248ePBgxy2nTp36t7+A11eN8xDHs9nsV155Zfny5RMmTBg4cKBxY1RUFJKGfceVCATiMYHGFyIQfRq9Xm8wGEiS7NiPOX78+PZ5EkZsbW07/slgMLocMH78+KdPSRgMBoIgHtGYvccoDWfMmGH8s9N8C8S/60oEAvGYQOMLEYi+S3FxsU6nGzp0qJWVFYWCWvc7YTAYmpuby8vL6XR6L8cX/iPGPHHixKpVq+bNm/f0jdd8UlyJQCAeH6i9EIHo0ygUipaWFgsLC6QLO0KSpF6vV6vVzc3NPcwjeRzGjIqKQpNO/nNXIhCIxwSqaRCIvguVSlWr1VKptKWlBcdxYx8okhHGPseWlhapVKrRaKhUKjJmv3IlAoF4fKD2QgSi72JhYWFjY1NTUzNgwABbW1tzc3MMwygUysMNj3tqlASO40YlUVNTY21tbWFhgYzZr1yJQCCQLkQg+iO2trZqtZrH4ymVSjs7O2trawaDQaPR+rMuNPY5KhSKxsbGxsbG8ePHd5lzg4z51LsSgUA8PtC8EwSiTyMUCqVSaWpqqrm5OYPBwDCsn/e16fV6HMc1Go1arQ4PD7e1tXVxcUHG7G+uRCAQSBciEP1XGiqVSpFIVFZWplAo+nn7FkmS1tbW3t7eHA7H0tLyQZUEMuZT40oEAoF0IQLRT1EoFMYJE3q9HlmDSqVaWFjY2tpaW1sjY/ZnVyIQiP9GF+ItaszCHBnrsfI4jEwaDAPQ4iZ90ox6nY5qZoZs+1gNguL/CS0dCATiP6TbeSfV2VdrrubWFl4XF99QiiU6pRIZ67FiZmlp6ch25D4zyO9Z1+cD3IKef7h0pFW3G8tvyW7XqCQSpeQOaTAg2z7qyxOFYskeyGSzWYNd7YcNtXUf/HDpNN2qbKqslNcIFaJaraKZ0GqRbe8+ieh0urWVNWeQjauLnYeH3VAPFP/9qnQgEIi+UqjvbS+8kfR76ak/y1PTdEr0laf/SiMyh4WHjZj2yjORr/b2rZ0k668X1V3n1V/nGVDv2GODQqU6Pevr/Kyv07Mjez80rbbw7/rrPEnJTaQFe6kR2T7DnZ71HeT3HIr/p750IBCIPgV148aN7X9IbpRe/PKbjM82S0pK9Tr8v8mR/aw3y74fmHagSvLvVkVTti67vIDYd7xW/ThuKmZO1cHBN/bwy3tVY+l1+J2bZWV/nlWKxTYuLkz2wJ6PV4rFgrPnSk/92VxX37cHjNIcolZPCKeIcm7j/2EuKGzvDz/xtRdUlckf9FSSJJvr6uv+LsKVKgsHOzNLy56Pb66t4589V/ZnSnNd/QPrlYfM5xNvZINe31wvri8q1jYrLGxt6VZWT0L82w1ZvsHbLEd4W/fEPP7pAQFfLXJuzKytM/wjTnzQ0oFAIPpiPd3+qyL9QvYPO26lXwCge/7095uzoXRh6Ilj7erMLSjlsl/2yzviebTZR1b9FNahB1qrqeVXHvsu9Ys/ZQQAzTc883yQTzd7AVhT1oSunO7u42bJBEJe3ZCbdmX9huKS1nYU2gvBzo15VwV0z5+uvTmb3Z4K0Vhdn3E4Y+3WSjGA25KYvOWyhdyk341n2bisOhr9Lr1wbmRqhhyA7RG3JnheuKsbm0bTahpv16Xszfhkr1D+35lZnpYxT0DkPlhbkYEg8vf8Iq2sCnpvyZDQCd0dJim9WZF+sYEvAKCxo9eNcb58aWua0vict/Pzi3vDVpiUeyhX+W9qBOZg98lhrlx3K5Y5Ra9uqSuvv5QmyBM9ShYsnwuzlV2oqSJ6XU2PH/tJhG3bwCeDtrmlurTqdHJV1aMIfyv2hJGGgssNCqjKuqKU3BkSOp49Ynh3R9+5ya/IuHDnJt/4pwV3snf4KAdnOzodDOqm5srSilPJojoCGbkbIxtuZ2W3NDQOmThh4HCvXsQ/UAJjJ0eP0GTvyTxW2m4H22kfBnnknt92UUvh+KxaPsS5w8ladUs1r6I1wzR29LqAwLsa1KBqkt/MLfs9rUEBAADmHNepk9257lbW5hQ9oZWLGq6eLUktby3VzGEOjmKpoNmYB0r3l+ihhFIc/YZPneA01NGCSQOtukVcLkpNLitqeuLqld6UDgQC0ad1YUX6hfPxn9f9XXRXh8npnuviR6QuLm00dR6RnzFhWanxiUizHhgeN3HtzhnEyz9/wTPulx1afGQbr3XvxNiJ63bOgJd/jueB7/IZe2Lg2MaTS1PviIHhE+6/YWPkYVAFr65UAQDdNcQfCjbUaMADAHg7DsYcaQYAoFv5hD3/2YqoPdq9r+5o6PzO6xS3d8a79MLYN1Mz5ADAiv0+ap1befyyvWeLZFqWQ8j0iZu+nGEj3zE3UfNfmZmoFp6tfrhTb6VfaGlqAgCT0rCBL+CfPSe7bSpxlu/IRW841Cdn/9uicAT3/blu9Krq88dLqxV6CzvbkcFDoxfZsnZmp4ofujGGPT6Mfe1yLyULBQMDAIBacuKHEgEAAGbv7jolkjtHLf8yWfrQ3YzmI9wnB8jLLhuFQgNfQGi1FCrVwcvTpCi8efqMvEbY+jcnbPRbYyEvufBYabMCsEEj3KdG+L0D2q9PNmiRkbs18p2bfJ2qBQBMSkMT8a9VM8ZM9bwmKBGYvouWnMO550XG31SWO2dyBDfWHP9yv8g4akZ08er+HA0AAMZwHjHk/8JGv4Vf3nFRaTB3inrH10MoSNx5rapJb2Zn6xfmM2mun3br1UtNAEDx9LRRVVU0ALgBGG6XbfnVKPipLA4nfBo31hz/Zr9I0WMJxYb5LHjDWXqhZPfhBrGaynJhT5zq89Zc2L61rPrJq1p6Lh0IBKJP60LJjdLsH3Z0FIUAQGTsLRy6JHxDYuXSNBNyilBrqvkNbS1wDSWLYGRxVHiYw1e8BgAALagkMj6faN3Lg1FhUeFTnb7gyQKCHSDr1CeHK1UAAMrMw2cXyBqmMNRGgUob7B5gU7cvy3giQcibK/gNhPEpw6uzD16x6UUP+466kO4Quy/6I8fSuMjUVGPTJt35BX9aweZzu9KUAAAS4W+bTzaKfTm3751iYzll42ubZrkOYmgq0rJP3L1Lmu+s8M3LfUc50qgaZeHp7DWr8wq1YBMzh79Etv4w481Zrm6ONPHp1CVHGMvW+I3ytGSKy9fHJB3iAwAjZHnEZ7EeI9gMkMvyEtNXrC7mA9jHzClZIZs3Ojl1cEja+RGXVpcOjvEd5Whpo6k7tPrk2jQlACti45S1r3t4sWmEvCE78dKK1cUVrfmp+7so+4cdlo6O7GdGdGqFFIrKU9NNi0LmCJ8FMxwbz+b+ctkoCinPzQqfAYI/WtjjR1ixzEFRLjh4uEpEAIDFcxHcyaMcHKyAaG4uu1x6PK2BNXnC8hGib7YKxADYMO7qRe7KlPStaS0AFM/XJsx3rPgyCXt7hZMgqd5+LMfNmm6Oy3NOFp4s1QLNYfJr7pZVxdt2VrXqk9vSEp5UOsvbnmNBuStZKIGxk18jrn+yX4QDAM1h+qoAt9wL29Ja6IPdp08bwuVY0AFXiCWXkooz1O7vr/B2p4H7hpdHp136Ia1loO/wVydzhtpjFFxTxROcTKoREWA99vn141vO8qwmjKXf2H/hHIAecGWTUkwAAIglSrtRbq+yLSnQSbJgbM6rkZ5+7pZMmkEhklxIvn6+HAegOAf4TA/juNthVEIrFlSfOl52e2TAhtfYdGCv/NL5csKlk7cNALLb1eWp6ZiFhY0Lp6P5m2vrKjIu3BWFAJjHMCsov34q16gCtYLc4oNqJZeGUwAoHJ9V79kX/ZB5RgQAYD72+c8maw/EFxYbI9rFe/4Md29Hqq6pIet44ZlyvJ8ZWV4jrMi4wLC2shrkfP/4b+bdujVs6GthdVtTpCZehwjQNreIJa39pmKJXGZtv3o825Mm+hsAwKBXa+5IjI15SrFIbjks/NURDpYXlWqOw2Dz5mspgiKjphTVpx7WKsbayFqfGXaeg6Eyucl4RT2ON0mU6vZL2NuvHu/sSRNd66mEgp27rY1CfDxNVEEAAKhKq35V4HXuepwG0EHjUtiey1c4CZIkzuM5LtYMkFQnJklcJnuPdLGwBmVeUn4iTwsA5q0uZtBA31QlSk0qyZMYAMDRjxs9zY1jrleJ61JL29LsMQLbBLvthEif8cNtrDBQiSU5KbwzpVqTTixpbm0d6KZ0IBCIvgwFAPL37LuVfuGeXfzMTw4Tr28MCaH3rklMCzRGtzs1rU0iBF+gpPv7LQtjMdv2VfyZ91NivVFisoNdvATCzG56fLVaAKB1+DwBa/bO6A1ugqWRZ5Pb+7u1d8qqYeSskFe92nOjzNibfSi/64Rqm1de2hZrdWXZjsGuO2LTnKOmMozKkRESfuDLEbIdB3xdN3lFZopCwg986ckEILQEOHpGMPKnj/nOL5rHmD7l1zWWu9/c4cs9cgiGf7TYgwHACAvfscb51oa9Xq6b/GJ4jFkvb5rVeYiNBgi6w8xI2s7IHb7c7XGZtgs3BvkBMF8J3RZrfnredg57k19MITH1pQ3TGZ1bDfP37OtyBzXZOcbus3taXIZ5L4jmtKTl/nJR3l41GsBg7us2tKpo66bUDT9UqUd4T/bFjO1Y0QGUwsPn13yQsiVJ6hg2eqYfXVLe0OxoO8TcWF3Z0Jpa7AbbmwMAWAxxZ4jLGxQEGGhW/qMoF3deiI9PP1JuMW7qUDcAzN3Jx05bdLG6U6MVIf1r/9VjucpezA21HBfpM7SpbGv86VXxl09W2YRHDnGRCH7cX60gGhLjz2xLU1IHD397lpP6Yu6G1Wc++aGsabBvTIQDBoDjBrB2HGlevfOLzD8EXS5FsR7s/hwHF9xs7KwVLMZGPjsaq9v3xZkPPrl0WmI9dYbnEBqAldu0SGftxasbPji9+uvrxRbuUWEOusu5Oy4qcZHg29UXTt42dGgXqcnO6XIXVZevtHcfG9GLxRrM3fXFERbt5amBV3WhUH6fHleahV+ARdGRC5/EZ6eIbMJnjPCh9UMj37nJr8q60qv4p+CNZ5LrmBN8JvROi+jBANDtR09wHAAoFABcrJSAFXesq5v5XYPnXKwqawIAoDjae5jLb5UbuknEANj9S6hCrFTbOQSPdWC1vcPiItH5y/VdRxoQYKBZ+fnip7emf/L19Qo79+i57tqUy5vi0w+V0oPC3DkAYO40fZ6Pm7hsW/yZVfG5V3DnN+Z6ugOAnfv0SDdKQe6nH//1dZLSc5RDr7/2QvefMeYlu4YTW1M++Pj8ER4tOPrZYDvTTsQ6tRreWzoQCESfbi+8kfR7wf5DpsVcxubUk+ejNq8oDdss7KkLls6KWBM0xaZhT2oDce/SN3RW+Irnp9g0HEttIIDI3Jy01ublj44sXSpp4BXV52bxk3+7mS0xPvkY40Kcb+dmmGr/Yni9MnFRCPC+E0gABgEAMEO/f+uNVxipyzN+7zRFpWH74rMu30/cleX3XXVDQV5NbtbN336rrOjaV0cbN9Xdhpf37Z8yDUDJ4fRjs7jrAQBoIZEj3PiFs/bWNwIAr/CLw355sb6hdEE6AEDdiR2VjQCQW3ND6+9wOi9TDgD1eTxioZsDHSrlmamTxtDk1UoVgDyTd4YX9LbvQAZ0kaRE9pHMbDkAaNKz7mhfZ3nToYJFZ2hwpUKjAaI2M3smN/ueTrCC/YcGB7/QPkO57u/rNbn5JpQ+5uj+znh3N0XFtstybZeXAHHdxcIWHAAkkspGTx9HCwqAn5+NquBqerkWB2jglV0UuL02ik3b31CJ+3q4U7JLMc/BFsLcassAWw9aTQlm6+7YUpFkFB/6ihxBhRoA8DKBEh9l4UgDsZ2FDTTXCh96dRCMTgMDjqvVgIPy75MXigAM0LFWpQwJdHKoqtiZK1cDgER05orrx2GDPJMbbgFQaS3FaTWiZgAAcwCqOWf2587RAAAUOg2vyy3efbnFYHwbaqUle/+Fv0EjUxsAlAVF0v/ztR6EQQVGsQCQteBqAEOT5PQPf53uKc81ufn2nkOdn3vW+Gdt4d/VV7rWhQZBSuFJC+7k2NDQZqVIKK8ql1wvqKtovr+hbueW5Ii0ANqsC6Lg95xGuFNu9UcjV2fn2HsObZ+h3F38A2Cg4pWcKR33WsSQop0VPXeqWw92jwiwVZcXCkw8uTBHX+/xniBKkygAoLnqxGGLmRG+Kz/zaRLJq6ukgpuia6WtjYKsYQ4OkjqBKY3P5Li+PNZGK+Ddar1EtyVUzSs5lOI7Pez5DVO04ipptaippEBUJNKacrO+MrdKRAA0N1Q2wYiWuiyRAcAgqFKCr8VAGjQNdxlp3nT6rKhODQDSy2mikPec/QaXiR3Z7ljDybQGBQFwuyKD5zYyoHchY8UJHKEv3C0oaTIAaMsulBcGBDznS8/i3deJXUoHAoHo67qw9NSfBqK74URywaebb174/qUlp/d+17kNjxEyhV8T3poGnaaVCH9bffyr/LtaMPbIqrlte0Fe/9uGpC/yCQAAuXDX4p/3rHYICfN4wd89KPrl2DUvZW4+PneHUEV3DfEnCg7Xt2WH5rdmgWiFMUEaQ6vMO3xqyVZjtzLQbDwmD87+9rDnso2vxRUd/Yl39x40/MKlLxd+4uYyMczjBX+XaWve/Ghj/faYI/GZHcUtbRCboRdLa9vaFCtuawg2ANCGuDG01Xdutx1XW92ssmG62RiT1ja1pqHXawiZuFXwaTQEtFYrrNAl4YvCnN1sgABg2NAay+5t9tSIJe1tFQQBNBqA/LfM7yNnrM1aMS+/MjOz6uThwozqLl4xEETpqT/bdWFtwXW9ztTMR2dfh78vCG4GDo2ObPrxeH3HIU16tbZ9CDtBAGAANMuB1obGpua2Rgt9U5OG4m5hR1QIqijjh1lRBOZDXFqqkhtZASOGOILAzsFF3ZQpArAGIHBF893GSAPcXd32EZa5lV5JE/pEBnw8Ql5V3lhWIrpaKO+8XBLV0c4CG8aN38LtoLQlNu032PGG1ZJTO0sEOABQLR3t/cO478diP+6putOx5cad81qY6xA2hgEYMCqT1kShATSJUi87R8+a8HlYk6C8saSguuC2tvsxmnqdrrbgenvNV3+dZ2rZPLX00uHMrCRLz+EOQ90dhgRwx07xEZzN/+WitKfRn4SmQdy63yBpkREMllX/NDJpMNRf57Xrwm7j31jG8pIFo5d7Twuo/19u1/bX4HcmB7W/RNHwutKy/UntI/8obpPHfR1mPJKCEdqqnOtH2uaINPFKdvBusgY7eLs7DB3GfnGu51Rx1bHdxX83Y57DLJuqGtsLFzaM+9mXPm2XMDSVVx06XiO7fwnVlqXlb7pA53g6eA62H+rpPnP88IhC3s+Ha7qqWwJvVrQ9FnCDulnb+rDADQagUgFYjuYUtVzcplNxSUsjYWFnR2HZ0SkKeVOblcXill4OA8UcLexpFp6LXg7u+ApubYHd34ldSgcCgejrurA8Na2n/eLE9C+mx2zaGHR6eefnUn7m1I9KNQDA8liXMNHp8LlVhxs6yC7Zb8uO/8gHANDLlberu66ESMgbMhIbMhLzABhBG9/6fU3Ia4ePHvN0D6DXfJt3Vw+V7D2x4HAzAOi1GvFtWWPHl2t56drXUn/TFsod3/p035Tql5OTOy9sI68W/r5X+PteALrD+0di1q7xP5iZWdHhzrvcac/9KUTvNvqvifx2evNXMTt2ZCo1wFpxZsnbvXSEVvj19O2HfD0jpg4LCQs5tsRvV/Te9ZldrlCemladfdUt6PnG8lvi4humUxJdKNyfIje/jb0399m3xOpdHTqqHgRcUK58bYS9nbvF4BZ5VlOTrYgRNMzC1dqGWiW41f28BIO4RQ7OLu4U4HVWRjQKhejVGsMNhUVf3qzw9nX28bR/4Q33cSN5P+yv6fhWYgCDlnf9k/2iLk3AdKNe71gjAa4QK1u74STyKoXF6veGBA+uPtnermPlGhXtac+7vmO3qE4NmK/f+lnGbl5tcfLl+Mu2XF+29zDO/703xD/56o6LPcxoFxffaCy/ZT9saNOtSknJze7to1aWFSrLCqsAsCERzy+Z4vlcbm5ejwYx4MjIRiQlN5tuVdoN9egp/lvz31R1Mo3z/hQf//Jbnfe0XPv1WoYEAGBggN/skfLU44Ky5ru76y7nH8zVAoABxxVNLaquoW6Q3Zbk3JbkXASKnevb7z378gRR0Vm6pwtedeVu26/htuDHpHocAHC9urmlSW14gBJKaEWlIlGp6EIKWI8Y+X7s8PAi0aEujoYHbiqmABjufZfAKA+QFKFM/eHCaVHXzSadaDBdOlCNi0D0fSj3Xbxadmx1ZsHIkE3TGR2fkIRayefV83j1vMzsVZsr3Za8vHZMx5VrQC5p4PHqebz6ko6i0MZz3b6oVSEdNZmmiCfV0s3tbWBIiAenqOqSvMMDUiwtNSbC7ywKAQjQG+ej7FqcfFjjuy0hxI8OAMAcE7RrX3iETUfJJSsSaGjWDJtOCWjEEoLuaDuo9U+Wl5dxfCHBr9ZQ3QYOaTvOzc2WLpdV92qRG8tRvixtVv6OTKUGAGxcnvWk9dYRdEs3NtTySndtTp794t5NPIeoSI97hmvqlKqaq7kAIK263d1ieAY9oQcAVWnJ/mT5oCmjo3zpPT/r7yjA3s6qrQ8RG2jHMChamgCayhuaOHZ+w2zNahtEhKGyqtnR3Wm4O/12eU/zZ3GRqFhMHzlhqFvHW6fZTFr84qqIjgOPwEAAhdZeUdGtzVt/mlvRzdXKslzBycNXv94vhBFu3E7L1+nvNGkwtk37DASKlaXjA3w/kIpZdGwFsRmENRddMHa3gQPH0rI12xSWFYY3Sa9dLDuy59LPF7XuAU4uPeoQvV5adRsAmiorTS1ebc5+ee6YScMonUwlVBM0zNIcAPQA1HaD2Vlhd99SaAw7u9a/KGwLFk0ja+63Ria02qbKyp7jv6PCK76kYL88xQHr9OQCdXOzSCQXieR/JxdfanF+NdLVrqMIb26pE8lFInmdpJMo5ASMjH2t45FgaFLUKcDcHKNzHDxoCkGH0ZZ6XCsWyUUiuUii7CIKuy+hFqMjxkSPtekYIgqhQkpg5g/+ecwmsZowt2h3GcaxtIWWxiaDrFkL1gy71hChOLMtqO3yvrsINAaruKUR6M6c9uDCHNh0rLdObC8dCATiCdCFvXhLrM5bu6PhhSX+I7sRGNWHz8ZnshZ+P/H+M1TkUqW1x8qtURtmefi6sdzcHEKmh+ytmqJgAAAgAElEQVRa4wn5panVliHBDhX5lQ+8nLVcsHZxRsnIkL3fjxgEoJJomP5B3x6dEhvm4uXGcvNyiVgy5bPplvy00tLOt5WZVin39V053cGGbukfM/E1N2N3OpF9mFft5fdRjJMNgI2v37pZDrWnizN6tZSIplaiYXq6B9kAg+0S96XvUDlh43h3hk0PzbZB8TFXk6a87sugAdh4ufiwQVwtNdUqV1t4HQAUQtF90zTUXS48UmAYNWNMOKcHN8uvFcqZo4ZNGIxRgOLo6x3siRfn1qsBDOLGW2rr50dZCKukWgBZlULl7j6arSwv7dEWhPTc6aomjveixSNf9HNw59h6+3lGv/f8ZDv5lZwGvGObV1ML5mjvaQ4A2JAw1yFYa9vSW6vGvRXmYEcDoNHdBlvR1S0yNQAOBhpjIIfONIeKnHqxvevUMAcWDeh2Tv/3zth3I51MGpkKmKWdpSPb0pFt6TbCddo0jl2TuLiqQ/2t0CrAwtXTEgPM0ddnmidVCQyWNYXu++zKVQFTR1iaA2DmNu5sjGjSygBwHKjWFo52dHMTgt/olI5zkDugbtGa24fPGDM1wIFjZ2FnZ+np5zl7Chtu15U0gaGppRG38BhmiQFgdpzxvlYd26KHBnv62FGAZuk/wWlgk6S4ytCPjWw0b2/iH4CQn0+q0voOGW3X3QENf52sUo3wiRprcd8HYVMzuIz1eWfGkJGDLe3sLBw57ODXuMGclhs8KWuErZWoQfDA61B2KaEaKZiPivCbG8bx5FjY2VlyhrlOneXprpYUlT5w66D2prBIbRc8heNAA4q57bgwZyux6NptUJc2VIHDC2FsOxrFbtjQF0cw2jRuTxEIANAsyisF7/Ej/NkUAMxt7LNxKwLCOdCdE7spHQgEou/Tu/askh1nfpoas8q32zbF/atTp5yfsj2+asJqQY/tjw3bYo4o14S8vTxqyVYGo3Vd69Q3NueV0LkfjVRe+V72EKv8anjZscscUnZGHOA3/9/WwoVv4h+tCHg3we9rGxpNq6m9XZe+9egXO7pOnWlMTF3hH/nZ90sqvtfw07J3n3be5E2jAzTmZ8xdRvt6zVul8TTQKAsSz87aUKkB6IW8I85uzTiWMPFYsZ9KXH9665mYLOKPL6dkbdW8yLvPidmbk7748qUNSSt22dAIuSzv9Nn3djSYMoWx+6y5rr5XtUNxUuFZu+enzH226Yfr3fUm16UVHjLnvjwvfJI5EAp5cXJ+Ig8HACCaBLexYL+WXIEWAAyiJiFtyGiFSHC/VXZVpcU/JMgnh7kHR7pMM6do1S2imxX79t8qauoUb9UXbl5y95m9Nlyt0Ah5VXliO0+gQHNN4nGr6ZP9Vk+mY4RBIZZcOl7yNwEgqv1b5Dz2nQmel69tTb6571eYHjZ6bRhGAW0dT3AgqV7V2sXZtZUualXr2ui4Wiupqjny681iNVDa2sYMkqozF+xnRozbHIE3CKpOHi72njt63KIg9c78o5d9p84YO87KuPqG6NjJKgWAulR0K9Bz9irbgsMXjnTt2jM6RSGqNWkV5fn9udrJni+EjZ4wA8Na17Uu+Tmlqg4A1KK/0hyjw8bGT8AV4oaLuRJuGFAAAAMK0ZxXoA+JfXGePUY0NqQcLysj+rORjebtZfyD9rbgZI7TorFYtweU30y8zF44eWSwwLgMYbeoS4t/2q99eYJb1OLh1jSKgdDeETVk7b+eWkoJGm8lLm94qA/IdyyhhdeSc/+n8H4xwCc2jG7etq71r7tv5jU/eMLq+pO/lEyf5v3B58/SAG8QiI4cF4gAoKkqMckmesqYT8aDQlSXernOYwqV0kMEdshqzvFrlpEjXn5vcrQ5qMVN134tTBUBLio5yjHhxHvorcsQCMR/zYB464HICk8QZpaWH9WUp34cr1Ohr1f3MdcwmS9uXJf6cTz6CPJjfJGl0yd9+RmK/yexdLy0KR7ZAYHo+1CQCZ4sdErlAAoFVYp90TUqFdXMDInCxwqh1aL4f0JLBzICAoF0IQKBQCAQCATiiQH1IyMQCAQCgUAgAFB7IQKBQCAQCATCCA2ZAIFAIBAIBOLJ4uVvvxrzTuvHM4S5+XvDX+7liUz2QCfuM44jua6BAQqhSHStQMy7Ib5RgnQhAoFAIBAIxBOJw3Cv9t8uAWN6edbkrzcFLHyn4xZ/iAUAUX7B5e+330w+g3QhAoFAIBAIxFMOZ/So6MSj5ra2pveOGTXj0C9FR4//++ML6S6bstbLJUs+HdP5dy+x8f9dsl4uiHq9x2+rMF6JrJCsb0z0t/93buTJh+YWkiZZLy+OmEJHhQeBQCAQiKeM2PSUdlFYkXExZ8eukwuWJMUuuvjlN+0rz498c4ap9kKa18QLWSHtHzfRyJUVRVWnj1z6PrGh5yWoaL4TM8/7l7z9Xeyf3X+1RKvMTswGG2V29RNu4b58I3TP7dfeDDm9N2h116+8dOcvQi48sSM7V1t3Cy2/h0AgEAjEU0XgkoXtv6uvXD02czahuVvdX9t3YPJXX/i8Og16Hl+oLEyrqweag5uzbwh3VcjwKf4n/m+1oLH7E7ymenoBlNwnc7LkranJrfLlibZyhxvpYzAChk1kw32/KNjJX/LKXRsrUdFBIBAIBOLpwsmXO2nzZ+1/Ji9dYRSFw8JfJNSaqqzLynrxb3Pf+bCqzNzWtod+ZHnNj28fnRl9MCz4u5DFxRVA842Zsi6EBgBg47Jwa0yhYG2jZC0/680NYZY0oM0+sjZ7uRMNGK/vW2vswGV4jdh0ZAm/Zn2jZC3/fNSqEEuAHrtfTSQLAEDz4n53ZmmtZG1tfsx3Uy27y++gsIm/568S16zln4+c60XtuMt+TNBPZ5ZW1KxvrFlVev7NTdMdGAAAtFf3rZJL1h6KGfFp4tJaydrq/DffH8OauObNQsFacc3S35a72Bhl1n1vhO7xXf56uWTO+yH+u86vqJWsrc56c1UIw2QmD51fUV2zvrFmVd6R8FfdjDc48YJkfeP5iRGzpqTkrxVL1vISwyPY99nV3X0NWR4jSvR3AxgSEyMWRL1ON5n/rv5id+5HprE9V+2L4QnWNkrWVucv2L/G0814xZg5jZL1vK3cVzfOKRSsbaxZkbaV64UKHQKBQCAQjx0zS0v34LHGf112tW93fu7ZrrvGBXf8c0zMXAB4ff/u6N+OvvXnSe7rkcbtTbcqoZfrFxL8xDNf/KkBYIVHujLAcvb30V/PctKkZa5anV3A8Fixb0acF5G7N+M3PgAQeYdT1+6tVIHT0oTX4sIsa39LXbtZoPIdsS7hpVdteriKyWQBwCHu+2mxY1jKfN5Ph+vcFvsHmTyb7fd1QshENxCczt6dSZ0T69l+KZpX0OGj4bPH0Ep+y/xuT6XMzTMuIfrbVxgAoNcAAO2FJUFePN5JHmHj5rl2Z/RnY5S/J9Y00VnhK16K9QLo1Y3gGgAA50WbfWlpeb+kKZlenh9tDvLrcpSb//aEkAgvTep3Z784LeOEBe340n8QAABBANDc/D6Nscw9nJ3CB7eQoK/XeDJ63NXdfYnTcr9LkwGAODN77ea/C7Qm89/VXy0d80l3WZ8Ute4VJyKv8LuthVfA4dXlUb9udGEAaLQEALDDQz/waji692apxtJ/1svrpzNQYUUgEAgE4jEz89eDb/150vivizRs3z7/YmqXs7rMVg5csnC9XGLsNW6qqNQpla1tTZ5Doffr1GgKihqIV1zYjiymm8u8VxggKd60OjtdA2fBadyXnjOnO/20ufDK4vDXvYjbaXm7/iSA7sBPzFibKLu0p5SndXKaPmKFl8sLnrTfeaYvQHPzM53sYc+IMTTQVn47L3mXBJg8Wv4Rv0H3nG4TPjzUBghe3oLFGSUAqdolacsdjAmHLA4KsoHqw8lvLBeoAI7KY7LXuLwe4/vpn4WtsjcvO3ZjqT7MMvSI3yDH5qMvJ/8kcVD7L1nn6/CsLw1uE726EQ0A0G7tTYrdKwO2xufalImDXUbZQKG8wz2C7OzW1AxxzbFEYSObFjrdKcTfdTQ976xxDKCN8rdlJ77gAZNvG7KPyx7p5AaCim53VXK6u6/peSd5L6wIA5WgdM9eoaY7R6R18hfNrYMxpwbN86IR/MyY6IxCAFoqkX0myGdWwOTNQmOwMTSCT94+m6GlZdu4nI5hPePvzEis1KACi0AgEAjEYyRv527XAH+qmVl3B+h1uqSYhT3rwnZ+m/tOye+njL+5r0cybGweQBcCre1Q0ovlBgBs7iEBt33vYC8HOsg6naBVisH53ZiQdWui6G3jCGnm3affTbLWg1kcABA3lMgBAFR59WUA9+pCNzdbOoCcX18BAAClRfVycLABALAc6W0JQJTl1xgnzdTm10nAxW2wg09brqr5dSoAWrVSDDCo9UKyWjEBvjQ644FuRFZUpAQAkMtEcgA2xug8gJIQN2vdnl+0JGT99wwa3WhQ6t1D5A1FfAAArbi5EcCGTmP2tKun+xI/giMAwMt3IBNAzqsvNWabV1eiBS8bh2cGg1EXavj1uVoAIG5XKwlgMehouSMEAoFAIB43pcl/Hp/9duSenXQrq3v3apubk2IXCf7q2l44YICJzuGLX37TLgpDN6wLXvF+m9zrHZYB/iwaQDX/jh5cAACqi1esLqxon8wiu9NlGisjZOLPG7lu8sovFmVkiK3e/D4qtjfD0O5N1tHjoWxHpfUgcTtDtF6O6PS/h7oRosfJHr4rpn0b46TPz47bXHoLPL9JDPHv5FC89WTtPan0sKv7+3okRyAQCAQCgehzCP5KPT5rXuSeXcyBDh23q+40JMUurLyYee8ptQV/e78yubsEX9+/29inbKRX4wtpQ6a/9FEYA6Ah+XS9ii+rBgBHOpFXmZFZmS0GG2tQyjVEZ3li5+s8CIDIK971pzBPQLV3vM81iG6S1fJlIgBwdPCxAQBgBjt5mzq9tlqqBbDxcvIEAKD5+g9sa2xTlpQpAWjeY1yNW9zGDBwEoOLXl/RuQZYHvZEezPiMrwMDgJ9a+HumkA+Wjo8UGfe/Lxpgvcn/vXKSz7ujArDxdRphVJa+ziPpAJKGotuoQCIQCAQC8d9SeTHzxJy35UJh+xa5UHhiztsmRSEA1BYU3rtx/OoP18sl7QMNexAF7di4vrvvzdcBLB2d/X0tGUDwdpz9Np8ggHcwLcg/zHP13in25zWjooMivJSHon/OqyZUCgKAERQXvo5188htmRxc7P39PophwCt+I+UasLEMiPQNqrpjWhdWd5NsWumZ/BD/MR4rf4lwSCX8po+wAYB75jk0pt68IvcM9/VPSIBTYodpr1sSADQAGhAZe/PyXp/o//qUw1qnKxqn12JdaNqGPQk8ce/ML3/AG+kBUbUSgOU1NWihXBkU4woSALbzlFiP66cfIix6ui+6nACAQWHPr1/OTKnsJv9lvI7+2tchmOSn8w8t94zzCvp5H+1EES1glt8QIAoPX0nVAhWVRwQCgUAg/lV8Xp02cETnVjESTsyOidyz027okKZbFUnvLGa5uY5f82HHQxSi2sIDh7vThY3lt/ZNmjo0dOJr/9vRS10Iln5hngCg0Spr80t/35P5fWK9HABAtn/xEcsvX1oU5rcuBOTVNXuWp36SpgGA1MN5ef7+fmP85soajkZfWn/YYf3rLrFrLLMPp77x/+ydfVyT9f7/32M3DAcyQcZ0ypzglorc6GnoL8Ajp1C+BoUJWoblIVK/iRyPmCFkB0NJhfyqdNSUY4k3GGjFLAWLEvAkK8WQsKE0WQ7GuNtkg4vdsN8fk4kGKoq06fv56JHjuq5d12fvz+f9/rw+t1c6+99HgvznzwgXfdXP4/q7LfHvtScF/zfrxb9MWcr6/WB6KfHBc+F0yp3KUFnx9jvsf6f6P/3SDNefLn2Qfjlxm/9oBzoDoPFS6YJXDJuSnn5u0awgIOprLm9JP7251HCfg+jarwb6Q/pVcqUfnv7I57nX/+Kf/L/X87cdf8V51rGkCc//r//XRU0PUEwM/f4ukJ0Q574yciGf9/qirgt/6yf9xy9l9sqvz3o3Mrqk61/J06bOWhj49Nq5oJYpcv/13fp/KwgABrongiAIggwp8z/d1+fxz2KWTIx4/vKXopF8fp/XmHVhbfH3pRnbghJX9T71VUJiR3PLpc/yXTx5M9+5JShJqcPd0OIIgiAIgiDWyXq1ss/jF3MOV+bmTX7pxWl/f63PCzY4s/q7yYVPDpxISBzl6/M/H27h/GUq6kIEQRAEQRAb1oV30N6gcBrF7v2hty4cI/zL6ycL7Ci3xkpVst+d3N3J9rd2vblccMIOzY0gCIIgCGLrbHvK58wHW898sHXbUz5/PHtd/FP6qHG9d7Fheoy1iEKdRvPte+/nxfwd+wsRBEEQBEGsl5WXzjM9xt7zsrv3F1rgzwl19hg7YhzXdYJXZ2tby9ValUzWVP2r4lIV4DgygiAIgiAIYgbHkREEQRAEQRDUhQiCIAiCIEgPJJPJhFZAEARBEARBsL8QQRAEQRAEQV2IIAiCIAiCoC5EEARBEARBUBciCIIgCIIgd0JBEyDII4IgCJVK1d7e3tnZaTAYBrrGi0QiUSgUBwcHJycnJpNJp9PRpAiCYGzE2PhIwfXICPJIol5DQ0Nra+sg3tPFxWXUqFEYAREEwdiIsfHRgePIg4pWWvxp+tq3lix6OTr65UVvrkzJPFIu19/rW8aq3W9Grz0mH+LEVu17M3p1bh9P1UtFm1cseTl60eYy7eOfZ/qyjEXRaYWqwbtjc3NzdXX14AY+AGhtba2urm5ubkY/Q2w+Hhprst+KXnVEanO/qd+w2ZtruatefjP7l4d5jjx3dfSb+6oe+e8ZhKRibHzcwHHkwcMoF21OyWkShM9fGTuOSe3WyisLc49npipXb0sIYDzC51Zlr8xlvZsWzh6syFd4/KLOe3HaPH8Ow0qSZDsoFAq5/LZaw8HBYfjw4QwGg06nm1u0BEEQBKHVam/cuNHZ2Xn/NzeZTHV1dQaDgc1mo8MhGA+Rh8U14KUlY1gcjI0I6sJHwe+lxVdogauSYoRU8wHeBG8ePT2jrKpGG+D/6AJhk1Sq0rMG8YaEVgdjvGfwecwhTJIRgGzzRaC5ubl34COTyW5ubm5ubjQa7Y5o6ODgMGLECJ1O19TU1NTUZDQaB9CTIJdTKJSRI0eizyG2Gg9xxM9KcOIFhvIwNiKoCx8Ner3erG96wZmbtG3urSvkZ3MPHC+tUqiAzhHMCI99NYTzx/ioqhIdzC08L1XqaEwP7zkvx87zuSnQtFdE2Z8UVlxT6ugswYyFsa8Fci7vfjOtWAVQszI6d9rKT9YGUo3Kivyc3O+rrqt0NDdeQNjimDD+TVHaUpH78YHCKrmOzvEOXRzUl7tJj6xa+7kcALLfjM72WbY/JYTRb3r00m8P5JwolyhUejsGZ2LgS0sWB3KoUHl7khIZu95Il0dmbY64KRQrdi1Jl4VvS5/HuZa7Krk8ICFceTC7nP7Sli3zOP2bSFV5PPtIcZVMqQUGy8M7JDp2nn8fulX7qyj7cGFFrVILDBY/IPyVmNkTGACgKtrwVj5r5Rpe+X9EFTKljsELiFy2PIxHvfXNsswVO5TPb9v8Uk/bWV+1+60NVcGbs169r7hJEIRMJrP8OWzYMHd3dxcXl7t8hUajcTgcBweHxsbGjo6O+y9rMpnM0dER59MgthoPbx5XVRxNP1BUJSdoLH5IzIqYANebkbL86IHcs1VKFdCYY/jB82KjA1j1x9e+fYqf8nHsZAAA7dnMN7eXC5Z8vD6MCQDw+/G17xR7/ysrZkJvbZq76p3ygH8u1J/MKb6s1DF4Qa+ujuFUZO87Vi7T0ly9w/935bynGHdEM6CzeH4hC1+b5828a9g0VuzoL7LdEZRqC3MOisprlFoykzM5aOFrMQF9dWlpfz2+e++pC/VampsgZMFsau9zLRW5B3LLKq8rCWCOFgS8ELs4mEPtCWvLV7BK94uqFDra6KkL45d5y3J2HS2XtupGPDUnNiHGv+dXHD+QW1x5XUnoqUze1NCYZZHeDAC4lrsqqdg75ePYyfryba/vMMamCaXZ+WXSJh2N7R3+xsp5kxkAAIrynP25pZflKj2V4cbzn704di7//vs6MDbaFji/cPAY6+/voi3bn5r9bZW8vY/zqh92pWYV6/8Sm/Z/WVsSQhgVu1P3lN85gc8oPb45PbeGFZ64JStz/eKnlKLN6cevAQCAojDz/VzpmHmrN2x+b2kIiHek7qvQTo7dkhDIIPPmpe//OCGQCvqqAxvSv1LyX07atmNL0gtjJAfTM4uUAACgLNyVcfz6mIXvbtu2cWUQIco938fsQd78tI+X+lPJ/JjM/fsTQxj9p0f/y4HMfWUQuDwtI2vbxpVBUL4r45jUCHBnkvqHTKN1a8u/LB+xICktPoR1FxO1l+3adkzpuTBpS1bWlqSFfOWxbTuKW/7YWhSlb8qtcQ1fvSUr64PV4cOrsjdlFjcBAFDJANoLufnKoIRt+w/sf28WlB/MPqXo9V1GQMg0prSsVNoT9/WXyy6080Jm3m9juqGhwbKKi0Kh3DPwWXBxcXF3d6dQBtBIM5lMDQ0N6HOI7cZDAND+kCsigpb/a8vmhNmsa6LdRyr0AADain2pmd/pA5akbcvatn6xt7Yoc8OBGv1ob28XbU3NzT4naZWE4cqU/ioxz1dU1VRdp3t7j7ujfqPRulXFx8s5r23e/0nW8sltxfs2bPhMGfTPjw5lb5nnWpX7n0Lz7VTfZWzYV06dtXzLjo+3rJ03RnYsffNxufF+w+bdUBRmpmVfoM9e+UFW1oblAfriHZuyq4g/XNZevntrrmTEnMSMbZv/Gc4oyS22zMHT1+SkZYga+AvXbfl4R9ry/wflu1J3ibWWsHbsW+pLG/Yf2pUY2F1+YGtK9i/eyzP3f7ItlicXZX9eY/59hVkZx2S8eWu3ZG3b9t7LvOv5mTtK7vghVLADfc3xnMuC5en7D+1Lm+dak7vnuNQIAErRzh3FnQGxG7KydmxZ/TxLejgjWzwAO2BsRF34pEL3XvzOshBXeeGeDatiFy1ZlZK5X1RWa3EeZemJMu1TC1e+HMBzY3F8wpe9EqAXi8yq5VYb+6JIdG1EyNLlsydzWGxe4KsrZ7Olp05W6AFqCkVVjJDYN0K8PXl84bxlr84WgFIJVOYwAAAGg8GgA7SXir5T8l5YGRvMZ7lx+H+LjZ1FrTpZLDUCNJWX/gLeL8TOfsp855hARl8rYqgM5jAaAI3mxGDQ75YeKn9h2o5tq1/y53FYnHH+88K8aYqqqiYA8u1JukfpU+knLox5xps3lkm9i4mUUjkxgh8YyOewWBx+4OKktHUxU//QXK0pKqyhB8Uune3NYbHGes9+c6G/saqwRN7Tf0GbGhnjz6YCmcF/NpDXLa2R9rYA1f/ZAJairOy3m39LxBe04wMDx95vg7j3ZGoWi3Wfgc8S/lisgQ28t7a2EgSBbofYZjwEANAyA5e9Fsgfy+EJF4ZPY2hlUiUAqMpFZSr+C8sWCnksVxZvRkxsKEdZcuqCnuc9kXb9V4kWAIzSqhrw/msAQ1olNQKAXlIlhYne/D6aoVpWwMKQsQygsgJneDMILeevC/3dqEDnBM0QgFx6XQ8A8uKTFTqfhSsj/DluTM5TIbGvBjGunTp15b7DZv9IvxFV2QXErgj3H8tijfNfuHyhoKVY9AdRpa0ovtDBm/PaPH8OizXOf94bIawe59ZXnCpWjJizNDZwAofpxvN/aVn4eFV5UZl5qZy+mzY1IpzvBMD0D/Jj6VUjAl4O5NCByg4KnEhVyqQqAABmSMJHH22IDXmKw2Jz+MHzQjy0NZU1fSTXyJ/9WiCHAcDgzQnmU5ukNe0ARrlcoWf5BwWMY7HcON6hy5M2JL50392FGBtRFz7RUMeGLEvfvz9z/cpX5/iz9JLvcnYkvblqX4UKAPTSmmswxtvbMvbJeMqb1y2tuXpblFFelWqp/Fvhjczx5jNVVyVKUEmvKcGDZxn4ZAXHrl4+m3fHnDyZVKpn8SdbxjGogokCqqKmph3gulwOI3iWOYPkMbxx1Hv+ov7TA0DVXy87kL5yyaKXo6Ojo6M3l2lBq9cP2GY8/pie+Ne/iTj+/m7K4p0bsj8vrrim0pOZvKd4zDtFp0oqVYIHn285zuAJ2HBd2qP+qByOReTRGTQA3R2pnRASOFpZfqYKAMBYVX5eK5gZdJ8BSaW6taCZwWAMNJCZwyWDMbBZqL0fiiC2FA8BAGCEp8DiJwwnBhBanRFAVnO9m8Xj3/KgMZ48KiGVKqh8Hz5Ia2qMAKqamiaed4g3T1tT1QRglNbU6gQ+3n35D4M1tudWdBqVzBwz5mY0Y9CpVNDpjQCEVCqHMU8JLF+nevHHgEouVT1Y2OztozW1SuD530oZk89n66U1dy7EVsqVejqHN9qihgS8Hu10vVaqpfL5HrdChcCLpZdJr5tHNuw4vJ5RaSqdCsM5HKebf9HoNNDpdDf7Iy8c2/72m4sXRUdHR0evyKkFnV7XR3rZPB7d0kXAANDp9ABkvr8PU/p5evqnorJKudZIZXnyOcwHCVMYG20CnF84+DDGegeO9Q6MACDkZZ9m7CradWzGx7EeWm03SPNXRef3bpyBt+r2BjShB6Isc3HZbXd00rYZtVoCqAwG7R5NM63WqCxMjS687Sinrd28moRKpffqGKTf29P6Tw9QT2Wkf6YKeCMp8Rk+kw5QsXvJFsnArUVjUKm3Et+fiejesRvSeF+Kir/JLjyym+rKD4peHjuLc3uE1moJoA7vbSIGgw56QmeJfzTyXRtEZF7ITL7oRFnFa97+NeUVhPfCGfcb/Nrbbw2VOTs7k8kDXkRDJpOdnZ212gGMzrS3t+PiO8Qm4+FTZuVC7Qxdod0AACAASURBVDuIAbX3UAOVTmOAXksAY/JUnvaU5HfwlldJOYJYF4Geo7xwWQsgkbSMmTq5b2+l3fHXHb5vBOjWarvhtnhIpzHsQEloHyxs3hGUoHb3kpd3934idZRWD9D7x+sJLVAZvY5QLYFMT2iBzmDY9TYIFQjdrUhBvq2rp486gqjI3rS73G3eyvRwbw6DCirR+jdz+w5Dt3295zMjYMWW9aeOic6Idn2Vo6ezvENjlr0cwCLfb5jC2Ii68EnFqFW2Asutd3DhBC6YU/x9tlymAj6DQQVe6PqVs0bcFjSZTIDrt/50ZAAjYNmGhYLewYvMYJFBTgc9odXdHk3uhM5gkFlTVyaFe9zWbmeyAZoZNNDrb3Wu67Ud93az/tOjKv6pBiYvi/3bzeEEfUeb7n4N1X/i+zURAJMf8trqkNdAq6gq+zLnwMfpjDG3zzG/qQJ7m+iWUrzPtLGCQwT5ueVVWsbFCq1fjL/T/WZ+7y0VBtq0feAvDmgfBwSxonj41F2DGOi1xG2aSWvuvXL19mYfqKlRSWQSBj+cQ2bq+Mxjv9aoyFVSV+/YB5YBVMZNFQhMS+TQdgODwQD6QMKmsS+fpgNMjtn8xtTb5BqddUcYp1JpoNfq7xCUN1Ugw9xmtug/PaEdWLCouXBBxQpMWOhvHkkytmnbAUYMSJoxvefGes+NhXZ5RUlu9uEdmYwtmyM5Aw1TGBttAhxHHiz0FR+vWPHO7rLbe6/1CqUSGExXBlB5/LFUZYuWxemBzaTSmMzbSztrPI9BKFV2los4TDqV4cqkApM3jgXSqpqeYKEq2b12fU5VTyC5+a+HgEdtU3Ywbn1/OJU6nMUgA4zisKBNKu1Jn1FadfXeg779p0en0wHc6r9UlX5Xo79dfuktQZcKultNPblU1k9g7d9EekVV+fmbw8EMtvfsv88LoLZJpXfch8nzZIGsxmIiaJdIFDDGkzeAgR9mwGx//YWzouKfdAHBU+8/FBkMBvMHEon0wEvhBvpFy0MRxMbi4V3w4I+xU0prlJYD0hqpfhhPwAYAzlTvEdJfiisu63lP8QBgzEQeXK0q/UXKmOzPe+CNrug8ngdcr5FYAoq+ViIFFo/HvGvYvJ/IxuR7skCp1LMtQY3FIDNYrnfGJBaHQyXk0vqevxU1NT3PHOPJY+hram4t51VKalRUD94Afq9eqzcLa/NfV4rLFAOxj1ZecbZKbla9Thz/ucvmTYTr165jbERdiNyjyekfsdC7u3zX+szcovKqX2tqfq0o+yo79UNR29jZ4f5UAFbQ8wFUcc6Oggp5k0r5e0Vh1tpVydl3LEim+swOH3tdlJVddkWpalHWnM1Jf3tV+gk5APCfnc3Xl2fvElXUSmvEx3cdKW5jefOoAA4MKigl52ukcpXeKSB81gjJ0R25YqmyRSX/tXj3+6vWZhWrAIAdEDgBqr7MLqyUy3+vKt53oKL73rKn//SwBF4sfVXhqV+VKkVN8Z6MMld/DqjkV5Va/e1JIo/heVDlP5VVtQMYtTUFueXt/em0/k3UUJb9YeaOryqkCqVSIa04UVxlZPH/MPGZ/+xsPlF6YH9xjUKlkleJ9hyvoAaEzxrQdBbG1L8GwNnjpRAQ4kN9gHJgMpnu2JHr/nngLyKIrcXDu7XNwoNZNV/uPl4hV6mU0rPZ2UVtnGfDvakAALzJfLh8qlTBM096pvK9xzSVFlbqBT6Ch0gtJyQsgHbx+O6vquQqlfLX4l0Hy3VPzZ494a5h8/4iG+/ZcO+O4l27CqvkKpVCWn4s4+3VKbm/3tkmZ/gHedOlok+PV1yTy6+U5ewrbRtmMeWc2aPbTu3LKb+mVLXIK47uPn6NFTRnIHuDjxPw7OTlX5fLW1Ty88czDmu9J1P1DdIa1f3NB9dLTu1Lz/i4uOp3papJXvPD8eJaMOtyjI2PJTiOPHhwZielM0X5haWf7xaptHo7KpPFEwSvjI0MNHdYMWcsf0+fe+DLXW8fUempTM7EgOXvLg5g3D76QObNW5dE/TQ3d9MqJQEMF57/80mLzd31nPCktZB9uHDH+hwdjSV4Ztl7r/ozAMAzJHxyee7h1PTKxWlJs70Xr08clpO7P0Wk0sMwjkC4OOnVECYAACs8fqXq3zm5m1fp6BzvZxfHPnMg4zzo7r6hdP/p4c9fNk+++3jqilwnztTZsStfHFHaUpW7LyWbtm2l8LYkBS2JrcnKTX/zFDBZU5+NXfjM9YzKfmqE/kzkH5v09wM5J3alHFTpgcoc6x20ImnhuD9mQXjSOsg+fDx99W4tMDkTA5b9a3HgAHfnpnoHeA8rlgaG8AfS/UChUPQ9i24MBsOANlZ44Dbugz0FQf78eHi3vYoZ/n9fv5qRnbvr7dx2YLjw/COTFkfe7PWnTvTma8sqWCF8s187CbzZqly597yJ1IdJLDN45Xr9gZwTmW8f1MIwFu8vi99bPJt1j7DJvK/Ixp69OgVyDooy387WdlOZY6eGJKxf+NQfUssMXL7q+q79ooykYzQ3QeCC2PDC9OPmkELlL1yXSDuQm73+lEoPzLHeIavWxwzoTQmus2PfkO44smNVCY3lGTAvbnmAkiHZLkrfDOvj7sc6ISvXarMPH898Z7e2m8pw4Xk/nxgbysLY+LhCsuwqhCAIAGjP71714fXwzIG9xO/KlSs3btwwf/by8nJ2dn6AR6vV6qtXr97/9cOHD58wYQJmGYIgVgvGRpsDx5ERpEcRtsil54/v2FNMm7VwzgDnsDs53VqiMqDd+Xsz0C/2fiiCIIgVgrERdSGC2KosrNj39toPT6l8liW95j3QQSkm89Zw9Y0bN/QD38hRr9dbWtUP8FAEQRArBGOjzYHjyAgyOEilUsu2/qNHjx41atSAvt7Q0FBfX3//17u4uPB4PDQ7giAYGzE2DiLYX4ggg8OoUaNIJJL5c3Nzc+9XP92T1tbW5ubmAbTnSKSBxlYEQRCMjQjqQgQZIuh0uofHzf3EdTqdQqG4z/DX2tqqUCh0Ot39P8vDw+OBdwJDEATB2Ij0q61xHBlBBhGFQiGXy82fqVTqyJEjXVxc+otT5jfKNzc3D2jODYfDwVc8IQiCsRFjI+pCBLEBmpubZTKZxbPs7e2ZTKajo6ODg4O9vT0AdHV1dXZ2ajQalUrV1dU1AHclkTw8PEaOHIlGRhAEYyPGRtSFCGIbEATR0NAwoGk098TFxWXUqFE4RIIgCMZGjI2oCxHEJiOgSqVqb2/v7Ow0GAwD9TUSiUShUBwcHJycnJhMJkY9BEEwNmJsRF2IIAiCIAiCDAW4HhlBEARBEARBXYggCIIgCIKgLkQQBEEQBEFQFyIIgiAIgiB3QkETDDFarbatrc2yDqvPa0wmE5VKpdPpTk5OI0aMcHR0RLshCIIgCIK68DFBKpXW1tZev37dYDA4OTnR6XQqlUoikSxvjbxDF3Z3dxsMBoIg2tvbKRQKh8Px9PQcP348WhJBEARBkEcE7lPzaNHr9RcuXPjll18YDIabm5uLiwuDwRjoTbRarfmNQDdu3PD29vb39zdvDY8gCIIgCIK60Da4dOnSuXPn2Gw2h8NxcnJ6+BtqNBq5XC6Xy6dPn+7r64sWRhAEQRAEdaG1o9fri4qKNBqNp6ens7Pz4N68vb29traWTqeHhoZixyGCIAiCIKgLrReNRiMSiZhMppeX16N7ym+//dbc3BweHj58+HC0OYIgCIIgDw/uUzPIGAyGEydOuLm5PVJRCADjx49ns9kikairqwvNjiAIgiAI6sIh5ciRIwRB3P2ab775Zvjw4VwudwjS4+Hh4erq+u2331qSJ5fLMZsQBEEQBEFd+MhRKpV3v6C2tra5uXnChAlDliRPT0+1Wi2RSADAaDRiHiEIgiAIgrrQKrhw4cK4ceP+eLzr9OpnJvL5/ClxnzUN6IZdJ1dP4ffFcx9U9IhALpd74cIFND6CIAiCIA/JYO5rrfk6Od24emO4y/1crKvdv3xV9fzDW8Mc735ZQeaHh8S/a2C4V9Drq//5rIfllOKLNctP+2//6JWeQ63i/2TuKZbpAFymRMWvjPByAABN9WeZmccuthodPZ5ZkrQyhE1+VKZsbm7WarXu7u5/OHPjzMkzTTB8+LAb504WNUUvcrvve9qPmhrxIhAA0FRddLa2y21S6DOe9gDgNHl4zw9xc3Orra1tbGzE0owgCIIgyMMwmP2FMqlMd1+SUCM7ezh1Y4HinsOexquHNh7SzNl6tOCrnHcmXfloZ4G5u02juHgsNflgde/Hab7bmXneK2lvTs7B7S/oDqUfvAoAuvP7079yWrrr888Pb/xb4570LxSPzpRyudzV1bWPEzfOFJy9Ye+3KHbm8K6fCossMwDb8uKm8Ke8vOvMF6kLgqdMeebFFTnVNy7nrZ73zBS/Z15Myqs1Avgt2rglM3NLZuaKmW5ksPeMeMf857vhnr2e4OLicv36dSzNCIIgCIIMtS7U/V784aqYBQsWRL6a8GHhTS0o3hGz5mvFxb2xkfMjF/x9z0Wz5tPJCt6PXfBKTOyqDws+XRP5fhkAiHcnpIoUASuXCO/ZdWekTZgbv/R/PGgAjhMDJjFaG9oAjFf3r0vef3Xy0mV/693VqJDJaAJ/LwcAcPHz81DIZTqA6rNix+fmC10AaB5zXvRTlJU9OmHY0tIybNiwPmRhceG5NvtJf4uYP2v68K6KgqIeAWdPtydDlyxv2yn72S/NdLtRXZS5enF6kVv4/JluN6qPbf73yRv3+WgGg9Ha2oqlGUEQBEGQh2Hg48jGq/kb97RHbj86m627lr9mVXq+YNcr40C4MidJHfmlX/bWXuPImu/27Ff8bfsnr3h0ineuStV5vQAAwpXZQgAwllXc81k0j8CXPAAAjJqrX38pdhAmjQMgey3ZkQ0AcP7D3td6+PrBR6VitZ/QUVEuVkwSTqKBpqG+lT2FffNmbK5LY4PCCA88lGwwGLZv334XcTZlypQ/HG4qPHXmhr3nX0M83UbM9B9WdO5kUe2Sv3sCANkeAODGmKh/vbOIfR3On/ng3PXhz+19J2bMdUrFmffPVUtq4Xn/+8pFCuWXX37R6/VYoBEEQRAEGUJdWC8ubfZbMosNALRx87fmRND6nyB4tfoqW7jUgwZAE4YFsosfrLPu/M4FyQWtzn5L3l00ida/hvRbEj8lIfWVSEeaDgRLNs5mA7Tqu2g0GlzctmCNNCrnHRpNp9E9jLEolLfeeotOp/d59rvvvjMYDHceVXxfdK4LJswOHQ8Afw2dbn/mbEFRzd+X83suGOnp6QYAbmNGAJDdPCeMAQC3kW4A0KW7340JDQYDn8/HKYYIgiAIgjwMAx9HVrdoGC6OPV1uNEfaXa7VaHQ0x5uy0cXF5QHTOC3+6KmvclZPKt+UnH+t36sUotSd9WHb8z8/mn80ady3qTvEGqBRh+l0Op2LX0hEoBdN166j3zW5D8eIESM6OjruONhULDrXAVC1LYzP5/OfSS7ugq7qwtPVvcRmz5vsyAAA9lQAAPsByvWOjo4RI0ZgaUYQBEEQZGh1obOro7a1tWfJiKZe1trZ77U0B5quU2P+/CAT4FovFhwTKwAAaGzhohc8r5Zf7O8muupz1exn5ng5AJAd/Wb6waUKmdGRO9pFIWv1mLU0PtrPUSZTjOJ6PLL1yGPGjGlpabn92PWiUxVdZDf/56OioqOioqOiXpo+hgzVJwurB3Wrwebm5rFjx2JpRhAEQRBkaHXhaKFwxMWT3ygAQPd7furKzOK2HhVIg1a5QgcAnRqNEQDAS+ChEJfJjABq8ckfFAMew6Vpfvls5/4S87O+La1x9Bjb36A1jT3ORSYuVRgBQHdVfFEzyoNNBq+ZQk3xobImgM6r+Z9XewUHujwyU44cOZLBYNw2mFtXVFDRBdzwd7Zu3Ji2cWPaxo3pm171s4faosLLg/bcpqYmKpXa1/44CIIgCIIgA2Dg8wvJXouSX8/6cM2CgzqgsgPfSpo/+uYZv7kRLpvWRIpotJGTlqRtjBgLLs8uWXQuPeGVk2xeYNiMSTQFAED13tjkr1sBdJpOnTgm8mOy15KPtkb0qWocA+OTZJkfJURmaMDBw+/FpCXTaACy/FUJh64BGHUaHSRE5sHoiK07lkx6+b1FOzLXxBwG0NE8AlevCnMBAO+lSRHpmSsi03WOXs/GJ/2PyyO15rRp0/773/9aJFrtqcLqLvB8LsL/ViflmNBw/23nzxV9XbEqYXAeWldXN23aNCzKCIIgCII8JCSTyTQ0T1J8lpAgW3Q0UWi7xjpy5EhkZGR/607MnDp1qru7e8hehVdbW2s0GufOnWtOXnBwMIfDwWKNIAiCIIj16cKmk6lrxcLN74W5KPLfWV4efNsuNre4dnJn/uU7N1mhTYx4K8yLbGMGNRgM+fn5I0eO5HK5j/pZMplMoVDMnz/fvmftCoIgCIIgiLXqQtBUH0nPFF3VAM3F+5WkxDAP2uNvU41GIxKJmEyml5fXo3vKb7/91tzcHB4ePnz4cCzHCIIgCIJYvy58QtHr9UVFRRqNxtPT09nZeXBv3t7eXltbS6fTQ0NDsacQQRAEQRDUhTZAZWVleXk5m83mcDhOTk4Pf0ONRiOXy+VyeUBAgJ+fH1oYQRAEQRDUhTaDXq+vqKioqqpiMBiurq7mvWwGehOtVtva2trc3Hzjxg1vb29/f3/sJkQQBEEQBHWhrSKVSmtra69fv24wGJycnOh0OpVKtbPrd//I7u5uvV5PEER7ezuZTOZwOF5eXuPHj0dLIgiCIAiCuvAxQavVtrW1tbe3d3Z29vE+5R4oFAqdTndychoxYoSjoyPaDUEQBEEQ1IUIgiAIgiDIUGCHJkAQBEEQBEFQFyIIgiAIgiCoCxEEQRAEQRDUhQiCIAiCIMgdUNAED0ZlZeWZM2daW1vRFH8ubDb7ueee63MHn2+//fb8+fOdnZ1opSFj7NixYWFho0aN+uOpr7/++ueff9bpdGglBABcXV1nzpw5ZcqUO45XVVV9//33LS0taKLBgkQieXp6RkRE/PH1ClqttqCg4MqVK7gCddBhsVghISECgeCPp3788cezZ8+q1eqhT9V777137wKDpWGgdHR0JCcnT548OTg42NHRkUQioU2GEnOJNRqNer2+s7NTqVSeO3dOpVJt3rzZck15efnBgwfDwsImT55MpVIxjx5pXphMpu7ubp1O19HRoVAoSkpK7OzsUlNTLZcVFhZ+9dVXL7zwwoQJEygUCmbHE+65BoOBIIimpqaKiopr165t2rTJwcEBAAiCSEpKmjRp0l//+lcGg4Hl5OEd02g06nQ6rVZbX19fXFzM4XD+8Y9/WC7buXNnXV3dwoULR40aRSKR0OCDWDcRBKFUKs+fP9/Q0JCRkWG5pr6+/oMPPpg+ffr06dPpdPrQ27zPRjvqwodlxYoVb7/9toODw112pUYeNd3d3ebapb29vbm5uaGh4aefftq2bRsAVFRUHD58ODExkUwmY6Qbyuzo7Oy8ceNGU1NTfX19dXW1WamfPn36hx9+WLZsmZ2dHWYH0t3dbTQaCYLQaDQtLS0NDQ1nz57duXOnObSuWbNm2LBhGFoHC7MK7+zsVKvVSqWyrq6uubk5OTkZALZs2fLUU09Nnz6dTCajoR5FCTfXTfX19eXl5Tt27ACA9vb2devWpaSk/Il1k6ur6z2vwXHkgbFhw4bly5cPGzYMNcefi1lkmEwmnU5Hp9NpNJqXl9enn3762muv7d+/Pzk5mUKhoBAZyuwAAHt7ezqd7uDgYG9v7+7ufurUqTlz5hQUFLz77rvmbkLMDsTslTQazb6HyZMnp6Wl2dnZvfnmmwwGA0PrIGJ2OqPRSKfT6XQ6g8Gor6+vqqqi0WgGg2HGjBlkMhlV+KMr4WazT5o0KSsra8WKFe+///7q1autv25CXTgwWltbR44cac5UDF5/uvvZ2dlRKBQqlUqlUg0Gw48//jht2rRp06aZT2EeDXF2kMlkMplszhEAKCwspFAozz//vCUvMDsQS1GxeK7RaGxqajKZTO7u7ui2g25qk8nU29rDhw8/evQomUxesmSJJU6ioR5pCdfr9VeuXDGfMneHW3khx4bCAGhpaeFyuVjDWVVr2OxjZj+kUqlVVVU+Pj6YR39Wz4RdD2Qy2WAwXLp0ic/nY3YgfywqFre1s7NjMpljxozBQvJIg6S52WYymdRqdWtrq729PVp7CEq4GRqNVl1dPW3aNLPNrdzyqAsHgF6vR1+yNt+Dnn57MzqdDhea/FnZ0Vsdmg/qdDqcvYTcs/o0vw4eDfKoQ6X5Q3d3N9pkiEMihULp7Oyk0Wg2kXLUhQ+S0wjmC3LPaIhZg9yPz2IJGWIVjqZAm6MuRJ4YyA5oA2uKLjS0AYIgCFAcURciyJ8B1QltYD10kzE7EMTq0JMc0QhDDInKQF34eFJYWIiTpay6NNsPt+HU12SFsgVrvnuMdCHlSah+iLzX2cwe2Byub1BE3Pq9JfUE+uMAak0c3BxKXWiHDbahhmxvSzZHXTgA8K131l67UBg2lmJDyZqpEVm/Pab5QXliuiUmxu0VFRSICj77JCsxUqA+8W7ErIi00n5fctX4abQgoQgd1oL5fSfIEEUd1IV/gjC0pRKO+xcOMHPJw56wEGJTZYRsD6Azmag2k+D6SkkjwX1cc4TqCKA2mR7/riC6o7tPUPDN16A+Fx6zNCZjYXja0kTf0r3hfbxcgPj5ws+Pg7sNHo6OjkYjFZAhoZsyHIxohqHFjgoAdna20XMxmP2Fmq+Tk0X326Omq90fG7HmpOaelxWkv7UgMmJu5KsJH34j631K8cWayLcO9zrUKv5PcuyrMTGvxiRsLrjaaTm4Jmb+3LkRC2LfPXzxod9STaO52VhxlInSXg329WQz2WzBjIj4PeIeGxCSL1JiZvlyOWzupODodXmSmwNfhOgNNvuNnJItEb4cbtw3tvRbTSQqAHR320gveOka36kpJVpxylQm+/U8AgCADlrx3mWhAg6b7ekbsTqvzgAAAJcygjnBGady4mZw2WEZEpvJDvvubngSX7TJ8EncEu/TKtqbX/eHc417I8dFf9rY+Gk0c2Rw2qU/uFtFWgA7OO2EKCUqQMBhswUB0RuKGg2PucGoVKqDg7v1NdtKMpaFBgjY7JFs7tTQuB0lPcFTLc6Oj5ghYLOZbE/f4NfTROZ6yEbyzkiid3dbZZchUSfaEBM6lcseyWYLAiISciq1d6/IiLzX2ezXc0r2xIX6cNlsru+c+L0V1jiFwwQUgxHINjLlejBrUJlUprsvSaiRnT2curFAcc8mi/HqoY2HNHO2Hi34KuedSVc+2lnQZFagiovHUpMPVvd+nOa7nZnnvZL25uQc3P6C7lD6wasAoPlmZ+YPHvEff/VV/vb58GXmweqHtZedbY131O19Ky5HG7H1i3KJ+MzeFdyfN8SknCIAQH0iPnpZnjpsq+iH8qI9Mc7fxEevFqnN0oQC8EvO3rrwnV+IUmbYWKOsrc1gM1OVZrxftC/KnS5M+a5O8lEUHQBAVbI9o2ZGSt53RZ+97VP3aWJKvhoAwB7oRnXBR0XctXlFH8VwbSY3KK2tT+rMsQmhoRMI8Q/iP9RR7jGfFKVMpzsv3CupFSVO+YO7Uej2UJez8TP220US+bXy7cGKPXFxn9Y95p0pdnZksrV1pTTmJMRk/OKbePBM+YUzeet8JZvjVuSrAYD4Li0uWcxdkXNGLCnP3xqhzYl7M0sCNpN33SQqgDV2cEj+HROX3SjcIDpzofzMvhXuP6yJWV9C3LUio1OAKM3IqInY+0OdQiJawSx6N/bdEq01lvEOHdjKcMCDpFL3e3HWh/vL63U6KjsoZvWK2R40APGOmNRChY4cG/kp0IbPSdq71I8MoJMVbE49dFnn6O7/gl/DftkLn78bKN6dsKd+8gsrl9DWl95LF9ImzI3/2/940ABoEwMmMcQNbQAuV/evS7/ICVu6zCnz81vXKmQymuAFLwcAcPHz88g8L9OBl26k8PWEIKELALADhB5ZYoUOJj3w5hkGAwDYVC1nqKupAe5bUaFTuADgvmhrzqQYwoMOUJezR9QYtLXo7VB3APCIy1gnFr6197O14XEeYE+2J+rdI07FBTvbWO1iAju12kgi2Uh/IYXu7kwHALqzs/PNOlFtPytl62s+AADj10R9cjqvUgILhQB0gLquGTkpL/rYVHaQNRqSjbnMoGUul8uhQ4uqEeAOHU93dqZTAeyd3Z2dAf7gbhQAg9o9cs2Kp50BgDsnJW5Wzpoviupi47iPr7VMJrC+ye7uUbvFoeDs7koHAK7Hiuh9OTtLy2F+aGONpNFZGP6SUEAH8AhN3F0QLKNzbSfvTEDu7rbGXcQFS/N+Xkh3H+0MAOARE/98VujJkhpDsA/0V5GZm13CmPXhXAYA+MStjtoXnicSbw2eZW3BkKRQdg63t43N2wfuisar+Rv3tM/ZevTo0aNpQXW70/OvAQAIV+YkTXf0i8v+PP/zo/9Z6kc29+Ht2a/429ZPcrL/FVh3plpHNl+Znf3BPyOmuNz7WTSPwJcCPcgARs3Vr78UOwiDxgGQvZbsyN6+dr5wxG3Xevj6waVSsRrAqCgXKyZNm0QDcPELC/N2BABdozjvlMIv0O9hdlTT6bpt7BXjFN/nnnUXZ0bHrN+bVypRG+hcf6HAFYCo/LkSfIKElpEb5xlCgfFnceXN3g0639fH1kQhAJBIpKamNpvRhX1VRb5P9yg/ijPTGYguS3+Ts89Uvo1JIwrV8LgPgPYPAUYACtABQEuozWj7HuG6090ozr4+lrx2FoznQm1N3WNuSZI1hlZlyc63Qn09zevNfVPOEequLgDgBof6EHnxUfEZh4oqZQS4CoT+XLrt5B2dTmcwrHJA01BXkBkTPInLfztABQAAIABJREFUHslkMpnBH0qILoK4S0Vm/jkTfIUW9+H78kEt+a3R+uom+OGH87ayn8nAXbFeXNrsFzaLDQC0cfO35mx/ZVy/116tvsoWBnrQAJyFYYHsB9Rk53cumBu5/KAmLGHRXfr6aH5L4qdcTH0lcsH82E/0Lyydze4501qwZu7cV1PFvCXxz7o8jLFoNDtbe4OQc+j2ooJ1z8EPWYmRAVxBQPQGUZ0BoEul7iLEm2ayLfi+W0J0qVt65s84OjNtstfB5OY2wmSy4bc80fvtwacz7W3sRWEGg57yxC5sM9RJ6gj70VxnqMtaOI5rxrOfted3uhuTzriV13RHezDXjo8zJqsLrdqSdxfF53VFbD0tUahUKpVk66yeTJm4Iu/UzjiPxrwNi4N9xgnmxO+tUNtQ3hEE0dFhhUOtjXmrY9497Ry9p+SaQqVSqUre9qHfvSIz4+R8y+L2dDoZCK3VuYvJBDNmTDMabWO9z8DDtrpFw3Bx7FG9NMe7iT2NRkfzuLlXhYuLCygeKI3T4o+eWqoQH0rflEzbtH1+PzJUIUrdWR+2PX++F01zce+a1B0euxKFjgAALhFbv4pQXz35UeqabY49Bx+s/wMAbG0WPcU9eGla8NI0aJEU5We8uyEubmR50d+ZzvZ04dLPds53v015uLuDLUOCbmdnsk3rwseqC8hkdHQ02Z7LDErVW1Fw+jfn4H8G0ME5akuB0CwbyM7c0ffzbVVvKUFo1MB4zF8eTCIBgJW57QVRUT03ak9i6Hiz0G9sbCagJ0A6T4xK/CgqEYjGH0V7N6WsWQTcH3eG2kjekcAIoLE+nxEXnVb7rE5ZEXRz1F3V0kjcvSL7X3cAgHb1rcu0KrURektzqynhJjbLQauyjbpp4P2Fzq6O2tbWHtWrqZe1dvZ7Lc2Bpuu8Wf4eZPO/1osFx8QKAAAaW7joBc+r5Rf7u4mu+lw1+5k5Xg4AZEe/mX5wqUJmBNl3h0/W6AAAnL3C5ofQLpRffTi93t3daUvhVi0p+aLkZrvKVRC6NGNFEEgqJUD3EfpAnZzg8gUC83/j2XS6u7sNjh3fkT8jRlCexAWwVqoLDS4upicxO9TijHX76sbHxIU7A4D7RKFwulA4XSh8WuBuqbDuMrZoUP9cUWnpRJFcbgRPvuCx7nnt7u42GjusTKYQBNgzHS1C/zPR5Z4sqRAV3ewgpLs/HZWyLkqgllTKbSbv7Ex6EqnF6gpBF0EYgGnpOlcX5Z1uBAMQd6nIzFlz5edKS3dttUQC7gK+9XVwmLqH0QBsZH+ggevC0ULhiIsnv1EAgO73/NSVmcVtPSqQBq1yhQ4AOjUaIwCAl8BDIS6TGQHU4pM/KHQDfRZN88tnO/eXmJ/1bWmNo8fY/jr7aOxxLjJxqcIIALqr4ouaUR5sMoC89ONd+Vc1AEbNxTPiVg7X4+HG93W6JpvqtajcuzYmZm1OyeW6xvq6yhM78360931aAMCNXhpO/+Ld+D0lkvrGussle1eEBjy/pkgNNg3JpAcAEsl29uZycKZDXfl3YklN42M4UNjdZWcHT8J6ZELTWFlaUlJaUvKdKG/HmuhZERm/CRM/Sgnue4kt05kOXdUlRZckdX16HMVZLUpLO1HZ2Fgn/jQlq9Q+eH6E+2NtQJ1O19mpsK40+Qh97WsKPhFJGhslp7PiNqmDn3WG2p/FjUTjya2LX4vLOFVZV99Yd7kkJ/t0nbuv0MNm8o7c3Wln1251hcDZx3cSlB/ZW/JbY+MlUdrSffRZwfSWGskVNaHtryIDAAB78d51OeLfGhtritK25DR6hEc9bX11ExgoZDAabaOKHXhDhuy1KPn1rA/XLDioAyo78K2k+T0jI35zI1w2rYkU0WgjJy1J2xgxFlyeXbLoXHrCKyfZvMCwGZNoCgCA6r2xyV+3Aug0nTpxTOTHZK8lH23t23UcA+OTZJkfJURmaMDBw+/FpCXTaACy/FUJh64BGHUaHSRE5sHoiK07lkx6+b1FOzLXxBwG0NE8AlevCnMBcIlOim/NTH39UKuO5uIZEv/PCJeHs5fVNWrvjntU1qeqlM1ZcXPWNGrBfbww+K2ctNe4AOD8/M7PtqelfRQf+l5dlz2XHxS+Mz8l1Nb7C41dACQ7O9uZou8XHfdXUdr6qMpZKQXrH7va3qAFABLpCegwvLw3LnwvAACF7jyaHzAr5bPVb4R69DeY5RwaG7P3rX2L559+Y3d5cF/CMXz1G/TcFcFLa9SO3OdW5mQserxlIXR0dFAoOutKk3vM+5vF8ZviZh605wqjEzdvDa1zLl+WFfMaPe9Yzl5Dys514RkyNTC4/BnhOw+lBNNtJu/sujVWWQoEK7a8L/lnRvT/y3KeEByTvPV9H7Hqh8R3X4qDE5/1U5ERAECfHJcoFKfNTxHXg7tfxNZPU4RWOOuiWw8A3d22oR9IQzbMo/gsIUG26Gii0HaD16effkoQxLx58ygUio0tTH7sMJlMJpNJr9drtdq2tja5XC6TyaRNJJ/xjlOnTh01ahSZTMaXrg5xduh0Oq1W29LSUl9ff+3atV/l+nGuxpdffpnBYGB23LfEzAielRP8xc9p0x9zz+3o6FCpVAqF4tq1a83NzcOHD1+4cCGVSiWRSLZaVKwv70wmU3d3t16vb29vb25ulsvl165d+0VGOJoa161bR6PR7OzsbNkxCdEb4+LUWyV5Mc5WWcJbW1sbGhrq6urkN2jznvOXyWSBgYF/rn5wdr63qR7xxIemk6lrxcLN74W5KMp+lHkEe/V92bWTO/Mv6+84SJsY8VaYlzUt6549e/bx48dNOH/NmtwPALq7u82fu3XtAI6W48gQZ4clU8xrS+0MGgB87y1yDxdGhx2yUGn+QO1uB2yjDXFI7GoHAFuR4I9YF7oFRT1Xlpmw4BOguXi/mTS7n1HccWHxiWE2F8iw/8NKWsPm/xuNRtC3984jG/LDx6bu6e7BaDSSDDcAHDA7kP6iqLmcmFsRGFcfdZA0Go1ma1NNGiDZmQ+ifR51CTdj0mssXRjmC6y5nD/qhVKOk17emP3yY5Xl5mzG4GUNwa67u9tgMOh7MBk6LBnU3d2NY/1DnB3miseSI+ZlQAaDAfNiADy1+kzD6p6+hse5qFjKicFgMP9ao9Fo2/MNrC/vLI00i7V1upvzOM0akUQi2bJv2j+/t6EBrMtd+i7heo3F7GQy2cpt/sRuO/vgWd7V1UUikUwmE1Z1f268MxgMXV1dXV1dBEF0dnYSBGGuUSyxD+e0DX12WPLCUv3odDrzZxufyYQMWlExGo06nc7ivARBmKt1nU5nZ2eHoXUQMasTnU5H9NDbMclksslkspWXcNhiCTfHw87OTkt26PV6Ozs7K6+bUBcOACqVas5mk8lEoVDM7oRV3dBLc4uDdXZ2ajSa9vZ2jUbT0dHR3d1No9G0Wm1HR4fRaLRM78U8eqR5YW4f63S6jo4Oc3aYcwQAaDRae3s7mUw2GAyYHVhaLEqFIAhLUdFqtd3d3ebqE0Pr4DqmWaB0dHRYvFKr1ZrdUKvVmkwmGo1m0Sho8EGsmywlXKPRdHZ26vV6BweHzs5Oc91EpVKtORiiLhwArq6u169fb21tHTZsmNmd0Jf+LN8zN4I7Ojra2tpaW1vb2tra29tNJpO3t3dZWZmDgwOdTrdy33vMqp+uri6tVqtSqVpbW1UqlUajoVKpU6ZMkUql48aNc3BwQF2IpcVca5o998aNG2bPVavVJpOpvb0dQ+ugO6a5F1+j0bS1tbW0tKhUKp1Ox2QyyWRyS0uLTqezt7enUCioCx9F3aRWq3uX8EmTJn3yyScTJkxwcHCgUql/ViEfNWoU6sJBxsXFpaGhwdHR0Ry8cGjsT/E986ileVcUlUrV3Nzc2trKYrE8PDy8vb0//vjjUaNGWXzPhre9sJE4aN4IQ6fTaTQalUrV1NTU3Nzs7u4uFAqfffbZlStXOjg4mHUhZgd6rkUXqtXq5ubmlpYWR0dHBwcHOzu7+vp6JycnDK2DKMHNurC9vb2trc1sbScnpwULFtBotCNHjkybNo1Op2MH7aCX8K6uLvM2TC0tLS0tLa6urq6uruYLFAqFufFjZ2f3pxRygUBwz2tIuCJpoMTHx/v7+5sjFwavP9f3Ojs7b9y40dbW5uDg0NHR8X//938AUFFRcejQoYkTJ6IQGQIsSx0JgjB3ArW1tY0YMaKzs3Pz5s0AcPr06TNnzvB4PHP3LWbHE+65likHZrFiMBiMRmNWVhaG1kF3THOcJAhCq9WaHZPFYtnZ2SUnJwPAli1bzIrcYnA02iC2fCx1E5lM7urq2rFjBwC0t7cnJyf7+Pj8iX0Wr7zyCurCwaejoyM5Odnd3Z1KpVrmkyJD7H5m3yMIYtiwYebhErMKMVNeXn7w4MHx48d3dXUZDAa02KPODnP3bVdXF4PBMGdKamqq5YLCwsITJ054enqa54CixZ7witPsuTQazd7eXq1Wb9q0ycHBAQAIgkhKSmKxWPb29h0dHWiuQXFM8/oeJpPZ1tY2bty4f/zjH5YLdu7cKZVKuVyuRqNBJTCIdZN57ru5F7yzszMjI8NyQX19/QcffODh4WEu8EOfwpSUFNSFj4rKysozZ860traiKf5c2Gz2c889N378+D+e+vbbb8+fP4/afSgZO3ZsWFhYn1NYvv76659//tmyHBJ5wnF1dZ05c+aUKVPuOF5VVfX999+3tLSgiQYLEonk6ekZERHh5OR0xymtVltQUHDlyhVUAoMOi8UKCQnpc9z2xx9/PHv2rFr9J7wu+b333kNdiCAIgiAIgtwXOKUAQRAEQRAEAcD1yA+MyWQ6duzYr7/+ajQa0RqDxahRo5599lkcFB7q1qGdHZ/Pf/HFF+3t7e841dbWduLECalUigMLSJ9QqVRvb++IiAg0BYI8HuA48oNw4MCBioqK6OjosWPH4rq5h5TX0GuTaqVSee7cObVa/cEHH1iuMS8iCQsLmzx5MpVKRWsPltkty3c0Go1cLi8uLubz+UuXLrVctnXr1paWlujoaDabDbiNBXJ74TEvNmpvb6+rqztz5szMmTMjIyPRPgiCuvCJIzs7m0KhhIWFoSIcLMz7ERIE0d7e3tzc3NDQ8NNPP23btg0AKioqDh8+nJiYiC+1exSYdzgzbyanVCp/++03g8GQkJAAAO+9915QUJCPjw++JgvpUx2a960079OmUCgqKysnTpw4b948NA6C2DQ4jjwwVCrV5cuX3377bfMe8ahUBgWzwjaZTDqdjk6n02g0Ly+vAwcOLF68eP/+/cnJyeZXZaC1B79dSCIBgL29PZ1Op9PpTk5OVVVVMplMqVSyWCxfX1/rf8U78mfpQnPBMG83Q6fTR40a9f3336MuRBDUhU8Wubm5r732mmVHSlQqgygN7ezsKBQKlUqlUqkGg+HHH3+cOnXqtGnTLJvcorUfhdnJPVCpVBqNNmrUqCNHjqhUqpUrV+L2wsg9y4/FZykUiqen57Fjx1566SW0DILYsF+jCQZEbW3tyJEjAQBlyqBDIpHMKsQsVigUSlVVlY+PD0rwR212EolkeeeBXq9vaGjQaDRoc+SexcaCuWnR3t5+6dIlNA6CoC58gjCvPsb68hFVM9AzpmxGp9PhQpOhMX7vLDC/2g7NjgxUHVoiJIIgqAufuEoUQQs/rnU8mgJ5mHYFgiCoCxHkEUAehjZAEARBENSFCAJAdUQb/CnogY5GQBAEQV2I3IMjR47gXm5DB8WW+wsvZwSzfVPO2WTau8DpcS9bRN7rbGYPbA7XNygibv3eknoC3e4hsbe3/+9//4t2QBAbrnvRBPePUqlEIwxdk4XmhEb4k3Qh44kYwp8Yt3dLuDsAEOq6SyWig+9GHM1L3JeXEuSMZQBBENSFCGJlkOkA+u5uKlpiiNGDw5PwM+mO7j5BwQLzH8+FxyyNyVgYnrY00bd0b7grloIHbc7hLugIYutePIj30nydnCxqvc+LdbX7YyPWnNTc87KC9LcWREbMjXw14cNvZL1PKb5YE/nW4V6HWsX/SY59NSbm1ZiEzQVXO2+7j+zg8rlzU8seegsFnc76ZApRJ9oQEzqVyx7JZgsCIhJyKrWWny1KezXY15PNZLMFMyLi94jVAOZBNPbrOSV74kJ9uGw213dO/N4K6xtBs6MCgMlk3dVMY1Haq8ECDpvrExr375KSTcHsoLRKQ6/MKV3jyw64bUD5UkYw23fNd9Y7ZGkkMUikJ08ZMXwSt8T7tIr25tf1fUF9Scay0AABmz2SzZ0aGrejRH3zhFqcHR8xQ8BmM9mevsGvp4nMUelyRjAnOKO0JOuNYF8um+3pG7E6r87wuLfmcKYNgqAuvKW9pDLdfWkrjezs4dSNBYp7qjTj1UMbD2nmbD1a8FXOO5OufLSzoMmsQBUXj6UmH6zu/TjNdzszz3sl7c3JObj9Bd2h9INXewX0gp1nNI6DEa86O62uK0Xy75i47EbhBtGZC+Vn9q1w/2FNzPoSAgCgbu9bcTnaiK1flEvEZ/au4P68ISblFAEAdAoQpRkZNRF7f6hTSEQrmEXvxr5borWu32UCclubwbo3vqjLWRGXVSNIOVZekp8ivJC25os6oNDte/XC02fERPHqRJ+XWGSg5GRBzejwqCDrXdthJNHI5JFPYjicEBo6gRD/IO5LszfmJMRk/OKbePBM+YUzeet8JZvjVuSrAYD4Li0uWcxdkXNGLCnP3xqhzYl7M0sCAGQ63ViXsyEH3sgrr1P8vDtcdSgxJV+NuhBBkMdNF+p+L/5wVcyCBQsiX034sPCmFhTviFnzteLi3tjI+ZEL/r7nolnz6WQF78cueCUmdtWHBZ+uiXy/DADEuxNSRYqAlUuE9wwgRtqEufFL/8eDBuA4MWASo7WhDcB4df+65P1XJy9d9rfeC1YVMhlN4O/lAAAufn4eCrlFpLae/Phbr9df8BiMeGUwWN0iWcHSvJ9/yEt73kfgwRUExcQ/z238b0mNAcBQV1MD3FlRoVO47h6C4EVbc07krHjaIkeEMevDuQwAZ5+41VHc+gKR2OoKp1ptJJGsuL9QVpRX2hWckBEzncvlB8dtTxRq/lDrU3yiXvZpFOXdlN0GiehkDXd+tNCKZ3B0A4VEeiIXg1O4XA4dWlSNfZxzj9ot/vmL96OeFnA9BML5K6KnqMWl5QDQWCNpdBaGvyQUeLhz/UMTdxcUpIdzb36ryz08ZcV0dzqA+6zoUF5XZaXk8TYhlYoTPxDkSdOFxqv5G/e0z9l69OjRo2lBdbvT868BAAhX5iRNd/SLy/48//Oj/1nqRwYA0Hy3Z7/ib1s/ycn+V2DdmWod2XxldvYH/4yY4nLvZ9E8Al8K9CADGDVXv/5S7CAMGgdA9lqyI3v72vnCEbdd6+HrB5dKxWoAo6JcrJg0bRINAAA0JXtOuSxZNJExGKLQQKczrC4PDXUFmTHBk7jskUwmkxn8oYToIggAoPg+96y7ODM6Zv3evFKJ2kDn+gsFPcOD9Am+Qsv0er4vH9SS3xqt6meRSKSmpjar1oW1NRLg+/j02JERHPr/+ugFFMyPEqqL8swDx1dEBTU+UfN9rDkoDGM4Ojgw4EmEACMABegAoCXUZrQ9vYfKkp1vhfp6mhcy+6acI9RdXQDADQ71IfLio+IzDhVVyghwFQj9uT3lwFkwsUciUpyZzkB0PeZLnnF+IYI8ebqwXlza7Bc2iw0AtHHzt+Zsf2Vcv9derb7KFgZ60ACchWGBbNqDpfH8zgVzI5cf1IQlLJrU/y1ofkvip1xMfSVywfzYT/QvLJ3NBgDQiD/+3D7qNb9BGUSmUCgEccPKcrAxb3XMu6edo/eUXFOoVCpVyds+ljopdHtRwbrn4IesxMgAriAgeoPo1vQmJ+dbEsaeTicDobWuGstkMrm5jTCZuq3Xe7QqAujMWwqK7uzc11LW0dExzxFF+SI1gORkUd3UqCi+VQeFDq2ms1MDTyCGOkkdYT+a6wx1WQvHcc14RmT9BqAteXdRfF5XxNbTEoVKpVJJts7qcaCJK/JO7YzzaMzbsDjYZ5xgTvzeilvdxvQnbGkfvgcPQZ48Xahu0TBcLDKL5ng3safR6GiONwekXFxcHjCN0+KPnvoqZ/Wk8k3J5r7JPlGIUnfWh23P//xo/tGkcd+m7hBrQFd95FBXxOuBg7fvBJVqZc19Qlx0Wu3zRsqKIK65BlK1NN5KIsU9eGlazumf6yTln73tU7cnLu7jnjn17Wqil75RG4HOsLYZb93OzmSr1oUMOh0I4ta8TEKt7rN4OIcvjKCXFhS1SEQnJQELI7jWHRTIYADofAKjIVFRcPo35+CgADpwo7YUFJ0qKjpVVCTaGTUa4IKoqJ4btS4xdLwzHQAMjY3Nt/LaeWJU4keflUuuSU7vjHEoWrMopUgLTyaoCxHkydOFzq6O2tbWHt/X1Mta+69BaA40XU/HQ2tr64Cf1Xqx4JhYAQBAYwsXveB5tfxifzfRVZ+rZj8zx8sBgOzoN9MPLlXIdFdLf5CJP4qNnB8ZGZt1USNOfyX5ZOtD2YtO77CuDOwiCAMwnZk9qr0o73QjGIAAALWk5IuSmx2EroLQpRkrgkDSM72JuPJzpaVTo1oiAXcB392qfhkJjCNGUEwmK/YeroALdT9LeuyoLSkS972qgP7XqCjnkoI9OUWy4Kg57tYeFExdBsOTt1WnWpyxbl/d+Ji4cGcAcJ8oFE4XCqcLhU8L3OkABEGAPdPRoiA/E12++bmxQlR0s4OQ7v50VMq6KIFaUil/QmsUg8EACII8WbpwtFA44uLJbxQAoPv9/7d3/3FN1X3/wN9s42zgbDg0hubwB0IsQ7LvNa+6ER+aaWROd4USKiWZF3UZ8jXlLgLryy3KZYhdil5lZFaopOKtQYp5pd4hZs6vhl6FoviD+YMhujE4Y9thZ7v/GJIlpigoP17PP3zI2eEceJ+znRefz/l8Tn7a3Ky9puspkCHjJQNHRFaW5YmIAoOVBl2Jnicy64oOGrjW7othf9mcva7Yva89+09Jlf1vdTs8oxgg1+v2G3gi4ip0pay/UsGo4j/bti1/27b8bdvWvhkmVSdvXBwpv6d6MUxjxzqAstBhKjqUl1N8trr634Xp8Z9KRkdIrp0qP222WY7nvB0b+3Zu8YnK6suVx7/J3nJYPOxPTfO1kViX826u7mx19and6R/kVisnTvlTBzs3nY1EJBB04PbCQc9qwuz/WpG+5afK6rO6nPmrjvW4RdO0JGJqVMC/Vn5aOTa248+NJ3Q1uFzXuvxnn42tPr6/uHh/cfG+wi0rk6aO1iw7q16wOjWixVsrQ9XDxKcKPi8sr64u/9eq2UvMEWNldOaYrtpWXZT58iuzl+06Xnm5uvJEce7af1X6DVMru+kVBe2FAJ1d629+EQZOT5m5anlS9HqOPBXhc5Kj+ja9EjZBI1+SpC1kmN6quPTFmv4kHxs3/ceMxGlFioHhkU+pGAMRUVnOrJSdRiKOtXK6WO0nwsC41ZmaFttQpOEJyfqs1YnaZSx5KcMmJ8c9yRDp8+clbjhPxHMsR4naLdRXk7kyThXz/vSVWUmxG4k4Rhk+f949JsDOIvjNDxaVv7Vs6tOrZEMiYlMyF4Xqag8uWPjibPpm86ovalOXrpr9XFK1hfwGqSPm5Ka/EkBkIyLJY7MXqHXpUam6y+QXpsn8IlXd0bqRHTYioYdHY4cu/j+zK+enL4jMpb7qqfPTU2WxLx9tedXQyHEBK80RL0V0/GcPe3aTTuQTObMn5hARiSSyvkEjRqdunv/aOOUtjo9f7KKluoQls0etFweopy5YmjmuUnbo9VWxr0i2bM3NcaRmvztxmd5MPQKCnpqYvSE1ors+YtrpdBIAdGYervvVUWfYnJion75pgbrzFisvL+/o0aNvvfWWWCwWCAQeHXtuvT9oKCl8bcBsc2b5ltgO8sAvl8vlcrkaGxstFovJZLp06ZJerz9T7QwLlA0fPtzf318oFHbQatvMZl4ma2phMm+ZEZxA2eXrp9xUWNvx/xo37l/jdu9LDe1IAxFcLpfT6eQ4rr6+/urVqxcvXjx37tzJi3ZvZ/XChQs9PT0783kO9+PksdvtdXV1NTU1er3+7NmzRDRmzJinn34a9QHopNr5GlVTlPa2Tr30/Ui5oeSwXhkR2PJq54uy80/8vl2ICdHMiQzsSJOkxsTEHD582P2BiFOnPaKhu72h6f8OC5GseXmHVJkTE7Gwdmp2xmvqvlT5r2XLvpNN/Hjcb0OhrfrsqfJ92UlrqieuTggVddDi33gIxMTiJIc7f9s2IyK73Y5QCIBceGt9Rk55tiQrMfpzYuRD/5o8/hZduwMiExZEdqKPwuZ/0ZTS5s0P7n95nqdG9sYLT4esdsDs1bnm99LTp4+qtJDfQLVm6ZbUyb+NhQ7dshem5vJBE9/LXTZZ1jHL7nK5eJ53Op3uynuS1eXh0bETOXSsRMjzPM/zOGEAkAtvS6qKWbw2pkuVzOFwiESizpwIxS/kVFVRB2oRcmdBp9PpcDgaryO+gYic13XQ+XL9R87P+Xb+zX83NBOO/OCXqg9afKkDcAdBt8bGRo7jmseTupOih4cHZiqGW+XCG9+z7v+gMgDIhd0Ox3HuZ4Di1qs2TCcOh8Nut9vtdpvNZrVabbamyeHcYYWIOu4thp0Zz/PuyttsNpvNZrfb3dUmIrvdLhAIXC4XnngLt/pbzv32vPH8YRgGxQFALuxGhEIhy7Iul0ssFjcnFeSVe7m6uNNJY2Oj1WplWba+vp5l2YaGBpfLxTCMxWJpaGjgeV4kErkbrlDttiq7u/uP4ziLxVJfX19XV1dfX2+xWAQCAc/zFovFfQhwnkOLJ4/D4eA4zv2edb9trVarl5cXSgSAXNiNDB482GAw+Pr6isXFybNWAAAgAElEQVRiT09PXC/b5BrjvsA0NDSYTCaj0Wgymerr64lo6NChJSUlXl5eEonEPTYW1W7zS7vdbq+vr3dX3mw2i0QiX19fk8lkMpk4jhOLxc13TaDy0HzyuNv4bTYby7Lu96zZbO7Tp49KpUKJAJALu5GXXnopPT191KhREolEJBKJRCJcL+/xGuO+wLhbrWpra69evWo0Gh9++OGAgIChQ4d+8skn/v7+Xl5enp6e7oYrVLutLu3uTmT3pd1kMrkrzzBMTEzMlStX/ud//ickJMSdC91dyag80A0Dldwnj/uPipqaGpPJJBQKFy5ciBIBIBd2Iz4+PiEhIadPn/bx8XH3bCKp3Hsu5Hnebrdbrda6ujqTyeTl5WU0Gt0XmLi4uA0bNoSEhLjTCardVpoH+tjtdpZl6+rqjEajQqF46KGHlEqlUqksLCy8ePGiux9ZIBBg9AncmAvdNxfabDaLxWI2m00mk1wuHz58OOoD0Nl5YGaBu/Dll18eOXJk4MCB7nuwUJB7vMy473Kz2Wze3t7uzs2lS5c2r3Do0KH169cPGjTIbrfj6attW/nm4T4+Pj5Go1GlUsXHxzevkJmZWV1d/cgjj+A8h5v/rnCfPI2Njb169aqpqRk9erRWq0VlAJALu+81devWrSdPnsTzQNuQv7//2LFjBw0adPNLe/bsOXLkiNVqRZXanEAgCAoKmjx5slgs/t1LJpPpm2++OXfuHD4ooEWenp5Dhw7VaDQoBQByIQAAAAB0oZYClAAAAAAACONO7hr6kdubj4/PyJEjW7yT/fDhwwcOHDCbzahSZ+Tt7a1Wq0eNGoVSAAB0NOhHvhtffvnlTz/9NHXq1P79++OpJ20YtYmoeZyjyWQ6duxYeXn5woULfX193etUVVVlZGSMGDHiz3/+s5eXFyrfuY6se2YTs9l86tQpnU43e/bs0NBQ1AcAALmwE1u7dq1IJIqMjEQibKcM4Z62pr6+3mg0Xr58uaSk5MMPPxSJRBaLJTk5OSUlBc/E67xH1j1RpdFoNBgM+/fvf+ONN4KCglAcAADkwk7pyJFze/f+/1deGeV+CATSSXukB6fT2Zweqqqqqqqq9Hr9kiVL3nnnnfj4+IceegiJvPMeWYfD4X6wjcFgqKysPHHixMqVK1EcAIAOAvcXts727d9NmTKmeYJlpJP2IBAIhEKhUCgUiUSenp4ul6uhoYGIHA5Hjx49MJd4pz6y7oPrflYQwzB9+vTR6/VKpRLFAQDoEB/UKEGrXLli7tPHm4gQTdpJc1UF1wmFQj8/v7179z755JN4UG9nP7LuN07zke3Zs+fPP/+M4gAAIBd2UlLkkvuTIZoDhPvfhoYGhmFQma4UDYnI5XJxHIfKAAAgF3Y+LpfL6RQjFN7/GEEeOFG77PEFAADkwk6poaGR5z1RhweQyD3EKAIAAAByYQditTpcLlTsQeRCAXqQAQAAkAs7kq1btzud7V4x29nC9Jnjhg1WKBQBw0bHpuaX2x78r24rfE2hmJL7wB4wIkR7YXeRl5dnt9tRBwAA5MKOrqbG6HS28z7Mu5OiZuca1As+LijYnvNmaGXu61MX7rN199J7dNEJlU4sG/dUus7RjY/sTdOnVldX46MGAOBBwfyFreB0UnvPAm7bX7jbrF6wPT1WSUSk/j8+lQc1W3bpMkdHdOfKu0hoa/QQCaVd7PcyHztWzge38IKju7w1hU78aQoA0IG05YcyuzMlpdB4hytzZ9bN0iQVsbddrSBjTrRWM0E7I3H5d/obXzJsT9LO2XjDIqPus5RZM2JjZ8QmLi2osBIRkW659rkJ2uuSthvuORe2b4Oh5IXs8jMFs3+d5VciEZJEKGkpOhSnhio0a4q3vK0ZNlihGDxM897u6mvFq2ZGBAcoFKqI2V80d0Dbyrenxo4eFtBPEaCKmPrullv3TNuOf5GgGR6g6BcwQpta+O8tsf0Usfm/XduxOyFYMe6flc0LiucHK55bVdm+udCj3u4hFPbsSu+98g8iAl4vNJ9aNq63QrOmkv69LKJfxLJdubOfClBELit3FCcEKzQrd+fO1wwbrFD0C46Yuaz4WteL/BiSDADQRXOh/pz+jiYi41j9gY1piwsM/O3W5Cs2LN7APpe5qWBH7juq06uzC2rcCdRQujUtZX3Zjbtj92VnHQlMzsnNXb9iErchY30FEXG2evrT/E3bmmROVtzTJczl4Wz3juTrAc1iM18+XrgkNfeKenaMusUMSSIqX7vq2MjsQ+Xnv383uPyfCZrpObbXC8vPlBfMkBS+u3BLNRGR+ZuEqa9vMUdmFh48tHtNrOy7hKnzC1u8U9C2P3322wU0OWf3weKcVyhn7rLjdpJIJA/8NPXwcFk5QRdrQwueW1jwt2BJ0JsF5eWbXwkgMUl4c8Hq3QFvb9m9OjaASCK2Hfs4vXh4enG54fy+9ODjy2a/XWjucp9BtiorPogBADpxLuQu7F0+LzY6Olo7I3H5t01ZULcyNmmnoTRnljZKG/3qmlJ35uP0BYtmRU+LnTVvecEXSdpFJUSk+zgxrdAwYm6cWnjbXMgMmZAQ/7ySIZKGjFD1MFaZiPiKde+mrKt4LP71Z27sVjTo9UzwE4FeRCQPC1MaLuk5Io5lyavNZkN2uYjovuRCR2FCkCJAFTF7uyzhq9w3H7/lJdWmmpL0QoBEJAmOmjhMVG0bnrDgzzISydTacUF8efkpIqrMXVNYPTI15z/HhSoDgkfOXvbuRNv2nM36Fjan276lUhmb+u64UGVA6OT0bK2sumPc+uZBZKx1dLXp7iQyHwkRSSS+MomEiCRElfanklInq0OD/Nxh3B4cmz49VCYiSdCU1NdCzUWbd3etYCgQeNivYJQJAEBH0foGGL4if/Gaeu2KTeMV3Pn8pHkZ+cEfTRtA6rm5yWbt12FrMyfKm9dl961ZZ3hmxefTlFZd9rw0LnASEannrlUTEV/y0233xSjDX1QSEfFsxc6vdV7q5AFEwsC4lWuJiI4sv3Fd5bAwWr1fZw5TSw2HdAaVWsUQGVmOzn2d9Gp2RR0phk1JmBeluodb1HieJ7ov0UQUsWD77thrlbrt2ZkvTan9fEvqSBlZbGaHnYhIJJb1cMcGiWJQsMz9LWIfmVASHBzQtIUeMh+ymR1EtuPHjlPofLXf9W3LnlIH8+m647bZSonNYrY7iIjEIrGkh7n8lJlUw0KvnxQBo8cFiY53iFwo8Dh35uLwwL5d/f0oCx0edGNyDHh8WPOBCxgSLOaPleuJHu9Cv7GHx4WzF5YuXdq8QCgUEgAAdJpceFm3/2pY3GgFETEDojJzNcytk1ZFWYVCHa9kiBh1ZLhi793d3XckOzqlwCgLi1s4XXXrpj8mLC7h8cS0aVopw1Fw3OLxCiJiFCp1mP+kmOdUjL5gaUraauXat9V3nQyFQuH9arKSBf9JHUzqiOci/F5SJy3Ojd01sfClEan7bUREEnX6D7vfVLrz3G+PpOimPl97rdlu0y0ZpVjy6zKbjcZdM5OlcHbQ7EILEREFLdj9wxSzjcQ9ZL9uwlfm0zF6bl1O18CBjzidfFd/P0p8xL85gmIf2Q0vSiRkt3Wtsekul6v/oP6vvD2zeck//vEPfC4DAHSeXGi+xvaQS6//Sc9I/6iTlmU5RtkUw+RyOd1dLnwyYdOueINuQ8aSFGbJiqgBLa9lKEzLvhy5Ij8qkGFLc5LSVio/WqCWR8QnNw3kDdRMG7Nl8SE9r1bdbXuEh0e7jzsx/3v37krFuBdCr8cBv2EqBX1VWekImPJBgdrdhyiUBdx5w5nYRyaWqOM3Z0f5/SZ/+PlRj3Gp23cnuLNWD79QER2TkN1utxE1ZROzuZbI73Z7sLV/VHERyX1ErvYeDd7x2Gt/7Ta2WWw2Evt0rTHZLqdL/DAmpwQA6Ly5UOYrtVQaeSIhERF7Wc/1Usq9Wl6X8WI4K0skJyKj0djqfRlLC/Zx6hfVCmIU6umTBucXlRqjBshbWpUr+7FM8R/vB3oRkTRsVBj9/Sc9r1ac0RmkapU7RfEcCe/pVkMPD5dA0L4NaLX7liUs9ck8vDm2KfmZj50ykJ+fn4j8QtS/iWh3eOefJFQdSsWXbAFBwU1pz2GuvCz2k5G7VfLGgBegFNPxY6ccE91dyZX7ik/Z6KZpVCQSMdnY5rxSfuqUndq568/l8vDydBJ1yfbCP0jVtsp/H6umpuNeWXbMLg4OVna131/i74UPYgCADqL14076qtW9Sou+MxARdyE/bW7WXtP1FMiQ8ZKBIyIry/JERIHBSoOuRM8TmXVFBw1ca/fFsL9szl5X7N7Xnv2npMr+t2otYRQD5HrdfgNPRFyFrpT1VyqEZCxZk/LhxgqWyKov2FRCT44IvIcEIxCQh0f7TrcWED17omx36qtJObt0uh93574Xm76LImZOCb6HTU6NnyjZvjBhTXH55erKE8U5b44b8UJSS8MXJCMmamQnctNXFpdfrj7+TXpSQa3fzTFYNCxUJT5VtLn4GpHDrPvnsoJr7d7e40GunhIXz3e1wbhiqYyqjxcfLC+/3HI6lJ3ZsmBlcfnl6sr9qxZ+elz2wpSIHl2qAi6PbtcGDADQkbW+9UsYOD1l5qrlSdHrOfJUhM9Jjrrepxk2QSNfkqQtZJjeqrj0xZr+JB8bN/3HjMRpRYqB4ZFPqRgDEVFZzqyUnUYijrVyuljtJ8LAuNWZmhZ7K6XhCcn6rNWJ2mUseSnDJifHPckQ6fPnJW44T8RzLEeJ2i3UV5O5Mk4V8/70lVlJsRuJOEYZPn9epJxIHpMctzIrZdoGlpEH/nnm+7PD7qXBUCCgdr+90G9K9nZatiRn1ZzcSovYb8gITVZh6isB97JJ2QvZm1ekp69OGPd+pV0cEDRyYnZ+6jhZS2s+l577Xu2Cj6eOypIFjZ6dmhG7KjL9pnNENuW/lunmpsc+9ik9HDRuZnpqVPnUfe3bl+xBTomny263dLG3X/Dk2IlfpS6bodmduGX3Cy0k9YAZCzSGVS+PLq5kZUGR6blLWjxunZhT4CQAAOgwPO7bPVuGzYmJ+umbFqg7b7HWrNn4ww+Cv/99lFgsFggEXW3aFCIisl0zk+/1oSc/pY+ILJxYdCj1ifubFZxOh8NhtVpNJlN1dXVlZeU1i2hoYB+73R4RESESiQSCbvCQDEdx0vCpx2Z+v/ut4C7zO7lcLofDYbPZzGZzdXW1Xq83mUwDBw6cPHly8zp5eXl/+ctfxGLcdAgA8AC083DTmqK0t3Xqpe9Hyg0lh/XKiMCWVztflJ1/ovF3C5kQzZzIwI40Z8WLL07+8cft7stblzwbbPuSRsTsDv7PzNTJwTLz8dz3cipDEjQPYlYU13VOp9PlcpETU9x1kVzYfHBvNUV8TEwMCgUA0EVzYZ+RU54tyUqM/pwY+dC/Jo+Xt7zagMiEBZEdv1heXiKBwNl8bSOiLtZkKBm9KDeL0lcljPugmnoEhI6c/eXqBaH3d6qa5sztvI7neRfP/S5YdMnG2m4VCt1H9r49QAgAADpALiSpKmbx2q7y97+3t6dAwDkcDpFI1EVzifjxaR9smvZBSznt/qUHd2Lged7hcDQ2NjocDuJt7pd4nhcKhd2iH1k48oNjVdSFGqdvjIMOh8PhcHAch1wIANCtcmGX4uHhIRDYOY5zP5Khq95i+MDTA8/zjY2NdrvdbrdbrVar1epy8kTkdDobGxsFAsF9nGAc2vjIchxnt9ttNpvNZuM4jud5VAYAALmw80ZDC8uyLpdLLBY3pxNklLbKDc3hz2azsSxbX1/PsmxDQ4NAIPD29r527VpDQwPP856enu4mQ1S+cx1Z96ATlmXdB7e+vl4gEDBt9gBzAABALry/+vSRVVUZe/duFIvFnp6eyIVtnh7cTUpWq7Wuru7atWsmk6muro7n+TFjxiQlJQUFBXl5eXl6erqbbFH5Tpf4rVZrfX290Wisra2tq6uTSCRDhw5FiQAAkAs7pcmTx+7Y8e0TT/STSCQikUgkEiGdtGF6cN981tjYaLFY3Lnw2rVrQqFQIpEQkUAgMBgM3t7eDMMIBAL043eiI9t8e4DVajWbzSaT6erVq7W1tWKxWKlUokQAAB2ERzd85uw9Wrt2rdls9vHxcU+k5+HhgXTS5umhoaGhrq6utra2vr5eJBKtWLFCJBJZLJZ333338ccfd7cXovKd7si6p6Wsr6+vra2tra2VSCRz5swJCgpCiQAAkAs7sS+//PLIkSMDBw60WCwoYNsGCKfT6R6awDCMl5fX1atX33vvPV9fX/cKVVVVGRkZ/fv3JyK7HZMadrIj686FRNSrV6+qqqq//vWvoaGhKA4AAHJhV7jObd269eTJkxhQ2U58fHxGjhw5fPjwm186fPjwgQMHzGYzqtQZeXt7q9XqUaNGoRQAAMiFAAAAANARCVACAAAAAEAuBAAAAADkQgAAAABALgQAAACA38G81vcJ7+J/rv/5rOWswW4wNZpuNdxHKpI+zDwc4B2g6qny8fRB3QAAAOC+wXjk9lVhqdhatXVnzc4jxiP9pP3k3nIJIxGJRC1OyOwil5N32jm72Wq+zF7u59XvmT7PvKh4MVwejkoCAAAAcmFntadmz7Jzy47VHhvqN7Rv777KXkqRoHWts1V1VRevXTxTc8bT5fn6gNffCHgDVQUAAADkws7kjOXMWyfeOsmeDFWGPt738XvfYKWxsuxCGWtj//7o3yf4TUCFAQAAALmwE/j84ueJxxPHDh47LGBY2275dM3pH07/MFEx8R+qf6DOAAAAgFzYoWVUZHx64dNnVc/2lfVtj+07nI59v+zrI+jz30/+N6oNAAAAyIUd1IfnPlyjXzMxbGJPcc923VHxiWK5S755+GbUHAAAANoQ5i9shby8PJvN1uJLB40Hl5QvGT90fHuHQiKKCImo5CoXVSw6derUtm3bcFwAAAAAufB+u3Llyq1emn9i/tjgsb49fO/PTxL+aHjWqaxKrhIHBQAAANoK5rVuAwWGggZqCPEPueUa146uD/z6tGz4jIpJQ0RERLYfitdP3XOBBj7z3zMi1CK6dO6HJd8f31NVc8lGUmmvYYNC542PGC+91fZkEtnIASPX1a6bQlNQfwAAAGgTbdleyO5MSSk03uHK3Jl1szRJRextVyvImBOt1UzQzkhc/p3++p7K8hfNitZMmBAVm/SZzti8dHParGitNio28cO9Br7V+7pr6y6tG+I/5M7Xdxz94atpey5Q/4jNL0WoReSoKp66/tvPLtgCVeqEp4eP62U9cHzPjPXFx/9oIyH9QnaZd+EMBgAAgI6YC/Xn9NwdRUJWf2Bj2uKCG6Nby/iKDYs3sM9lbirYkfuO6vTq7IIaIqKyLzK2cFGZ+Tt2fBLv/33WmgMcEXFH1mXs6Bn/0bZtGxc/U70mY7uhdfu6BweuHhjUe9CdhsJfdF/95dtz9v5Pb5jxzNMSIqJLF86WOeixp6O3Txq/ZPyEL2bOWDo8RNNfZLL9wXakYqnCW3HS4yROYgAAAHhguZC7sHf5vNjo6GjtjMTl3zZlQd3K2KSdhtKcWdoobfSra0rdOYzTFyyaFT0tdta85QVfJGkXlRCR7uPEtELDiLlxauFtcyEzZEJC/PNKhkgaMkLVw1hlIiKOUU1KmBWpZIjk4epgznDJSERlB3TSZ6PUciJG+dzkMENJiaFV+7pbVbYqT4FnD6bHHYXC8qP5L+44bfF/ev2M8aMkTUt9JBIJUeXpo5svsDYiEvn/bdJLayc83bzCLfj28DV4GHASAwAAQJto/f2FfEX+4jX12hWbxiu48/lJ8zLygz+aNoDUc3OTzdqvw9ZmTpQ3r8vuW7PO8MyKz6cprbrseWlc4CQiUs9dqyYivuSn2+6LUYa/qCQi4tmKnV/rvNTJA4iICRwdFdi0A52uTBqoURCxVZeNiscVTd+nCJBXVxn41uzrTlKdw7FixYrfLbwmviZ49M7iteXcnheP11SSaFSo+sbMJ1M9s7js6tsndLM+1c2R9Ant339UkGr68CHBtzk6AqGg3lGPkxgAAAAeUC68rNt/NSxutIKImAFRmbka5pajI6iirEKhjlcyRIw6Mlyx9+7ato5kR6cUGGVhcQunq5gblnP6oqVZP4UlfDSUiLhGO8MwVPphdNK5KbnvMAzHcm1eLJFozpw5EslvmvGqbFUb9m+4o+9nTaaAkBD1uRPf79maOXBmsv/16ov6vPrSmxOqTn977uwh/YUD545mnj760dGnv5o5/pk/ajLknXxPUU+cxAAAANAmWt+PbL7G9pBLr3fLMlLmj4IQyzHSptgol8vv8md8MmHTrh2581WHlqTkn7++0FqRn5aykZmZOS9cSkTEeHpzHMfJw8ZowgMZrp6T/OFP1nb8Jf6NzkYLZ7n9qj4hk7596aUvJ4T0c1z4YOu33/729kE//yEvPz1+9UuvlSa9uWSghK3SfVRm+8PtmViTwqXASQwAAAAPKBfKfKUWo/H6MA72st5oveW6jBfDWZuGARuNxlbvy1hasFVnICJiFOrpkwZXHCo1EhHx+oL0tKLe8SsWRiqaEqo0oK/coDcqR8cnTA2T6vUG/wCl8D4VMbx3+JmrZ26/ntjLS0YUEDp5tbqPo0YXv/1oJRGRaePWjx/NWJV4+noKFPVS9fISEdnI8QeZ285WNVQ96noUJzEAAAA8oFzYV63uVVr0nYGIuAv5aXOz9pqup0CGjJcMHBFZWZYnIgoMVhp0JXqeyKwrOmhodccuw/6yOXtdsXtfe/afkir7S4moIi9jA01bPC/8xhbIwFFqdu+Gkhoia0X+trLAiHD5/Sriy/1erqiquPP1JePHT0ryF1Wf+PbV4iob9fqPgVKbreaTrz5+5quvE3d8/crnH888aiLJwL8MvHUXPZ28dHK8bDzOYAAAAGgrd/N8ZO580arlGw9d5chTET4zOWF0U1cm9/O6lCX5ZWaG6a2KS1+s6U9kLctPz9hQQYqB4ZFBFesMk7a9G16WMytlp5GIc/cyM8LAuNWZGr+W98WWbsxa/XVpNUteyrDJ8fNjwqR8WfYriQV10ua+bOnY93PnhBFxZVszsjaXGjhp4Nj45NfDFUJq1b5ua8WKFfHx8b+7v9Dt6QNP9+/b/zH/x1r+zpvmtSZHjW7ypzv2OPr8bcZrWQNF5Se+X3LoxIEqU7WNpNJeqv5DXhk16mX/W91daLaZ1/6wdotyC3ua1Wq1OI8BAADgweTCu2PYnJion75pgbrzFisvL0+r1baYCw8aD2p0mml/mnZ/HoW3o3TH872fj3HG/PLLL8iFAAAA0BlyYU1R2ts69dL3I+WG/HfeOBTxm1lsfnW+KDv/ROPvFjIhmjmRgcJOU8oV51Z8pP9oYtjEnuL2HSP8/Ynve7t6bxq+CacvAAAAdJ5cSGxZXkZWYQVLjHzotOQFkUqmK1dzccXizy589qzq2b6yvu2xfYfTse+Xfb0Fvbc9uQ3nLgAAAHSuXNjtfHnxy4TjCaMHjx4eMLxtt3y65vQPp3/QKDQfqj5EnQEAAAC5sBM4Yznz1om3TrInn1A+oeqruvcNVhorT1w4UW+rX/Lokol+E1FhAAAAQC7sTPbU7Mk6l1VaW/qY32P9evdT9lKKBK17ukxVXZX+mv5szVnGxfxt4N/ilfGoKgAAACAXdlYVlootVVt21ew6YjzST9rP19tXwkg8RZ4uj5bL7uJdNs5mtpovsZf6efUb02dMlCIqXB6OSgIAAAByYRfBu/if638+azlrsBvqGuscrhYeZSIgQQ9Rjz5MnwDvAFVPlY+nD+oGAAAAyIUAAAAAcF8JUAIAAAAAQC4EAAAAAORCAAAAAEAuBAAAAADkQgAAAABALgQAAAAA5EIAAAAA+AMilOAuFB02+T4kOnelMXqkHNUAAAAA5MJu6shp9v+uOT9mbEBR0Xllb8+nQnqiJgAAANAFoB+51baUmPz69vT38x6m6lVw0ISCAAAAAHJhd9Rgd373U234U/5ENPxP/jsOm2pZB8oCAAAAyIXdzi+VDfpqm0QiJCIPDzLWO36ubEBZAAAAALmw2zl10TpYKW3+UvlIj1MXrSgLAAAAIBd2O2erbH5+3s1f+vbx/llvQ1kAAAAAubB7ycvLO3XJ+lAvSfOSh/t4VVbbiejixYt5eXkoEQAAACAXdgtXrly5bGyU+4ibl/jKJVUmzv1/p9OJEgEAAAByYXdxrc4hk/2aC6U9PI11jkaHC5UBAAAA5MJfsTtTUgqNd7gyd2bdLE1SEXvb1Qoy5kRrNRO0MxKXf6e/vqey/EWzojUTJkTFJn2mMzYv3Zw2K1qrjYpN/HCvgXcvNOo+S4mNmjBBGz3r/20sY+/1d6xrcAiFHr9ZYnGwNh5nEgAAACAX/kp/Ts/dUSRk9Qc2pi0uMNw2TfEVGxZvYJ/L3FSwI/cd1enV2QU1RERlX2Rs4aIy83fs+CTe//usNQc4IuKOrMvY0TP+o23bNi5+pnpNxnYDEbHFa7K+943/aMeOTSui+K8z1pfd4+/YYPt9Z7HVzlvt6EEGAACAbpkLuQt7l8+LjY6O1s5IXP5tUxbUrYxN2mkozZmljdJGv7qm1J35OH3BolnR02JnzVte8EWSdlEJEek+TkwrNIyYG6cW3jYXMkMmJMQ/r2SIpCEjVD2MVSYi4hjVpIRZkUqGSB6uDuYMl4xEVHZAJ302Si0nYpTPTQ4zlJQYiEgeNn3OtPA+RIxi5FNK4wUDd2/1urnLuNHhQj8yAAAAdAGtfz4yX5G/eE29dsWm8QrufH7SvIz84I+mDSD13Nxks/brsLWZE+XN67L71qwzPLPi82lKqy57XhoXOImI1HPXqomIL/nptvtilOEvKomIeLZi59c6L3XyACJiAkdHBTbtQKcrkwZqFERs1WWj4nFF04Va+7MAAAQESURBVPcpAuTVVQaewoZGapq2ZdQd1CuHBjL3UCyHw+Hgf9806OFBH338cS+JrXfv3jifAAAAoPNqfXvhZd3+q2GRoxVExAyIysxdMW3ALdetKKtQqMOVDJFMHRmuuMtMdiQ7eoL2jfVsZOJ01Y2b4PRFS7N+CouPG0pEXKOdYRgq/TD62bn5BoZhOPaGpkGuIi9tTc2YhMnKewrRIpFI+PuKuVz0xuuvT58+XSKR4HwCAACA7pQLzdfYHnLp9S5gRvpHYY9lOUba9HQQuVx+lz/jkwmbdu3Ina86tCQl//z1hdaK/LSUjczMzHnhUiIixtOb4zhOHjZGEx7IcPWcpPknY8u+SErZG5iwKF7lda/18hR53Lzk5oUAAAAA3SAXynylFqPx+pAR9rLeeOvnwDFeDGdtGgNsNBpbvS9jacFWnYGIiFGop08aXHGo1EhExOsL0tOKesevWBipaEqo0oC+coPeqBwdnzA1TKrXG/wDlEIi4irWp6QdCUtelhDepw3q5S35fcW8xEIvMab7AQAAgG6YC/uq1b1Ki74zEBF3IT9tbtZe0/UUyJDxkoEjIivL8kREgcFKg65EzxOZdUUHWz/mg2F/2Zy9rti9rz37T0mV/aVEVJGXsYGmLZ4XfmMLZOAoNbt3Q0kNkbUif1tZYES4nIg7siZtlyJhUVyYrG3q9ZC3iOd/M8rkoR4iqUSIMwkAAAA6u9aPOxEGTk+ZuWp5UvR6jjwV4XOSo/o2vRI2QSNfkqQtZJjeqrj0xZr+JB8bN/3HjMRpRYqB4ZFPqRgDEVFZzqyUnUYijrVyuljtJ8LAuNWZGr+W9iUNT0jWZ61O1C5jyUsZNjk57kmG+LKiXRXGuk/e0H7StNbY93PnhDFD45M1GVlvajM4aeDYhOTn5USk+3aX4SplzdRmNYXaKZkrpwXeQ4rzfUhkNtvl8qZbCVlLo7ynCP3IAAAA0AV4uFz3aY4Vw+bERP30TQvUnbdYeXl5RRefdPWSDRnc1PxYeaG+Vm/amhp08eLF/fv3x8TE4JQCAACATkrUvpuvKUp7W6de+n6k3FByWK+MCGx5tfNF2fknGn+3kAnRzIkM7Eg9tDExMRUbLhypshE15cIrNdYhfmIieuSRRxAKAQAAALnw1vqMnPJsSVZi9OfEyIf+NXn8LYYkD4hMWBDZKeo1yF+ys/Rq85dXrzRoh/bCaQQAAADIhbclVcUsXtuF2tGCHvE6o//1KcsXLlmCHumL0wgAAAC6AEyw0jqPBXgr/SQ2G09ELhfJe4qGBnijLAAAAIBc2O14iwVjn/A5cLCKiI4ernr+Tz4+UhHKAgAAAMiF3dGU8F6Gy/VVhoZjZaZJT8lREAAAAOga/hf8/iib3x/ABQAAAABJRU5ErkJggg==;" vertex="1" parent="1">
          <mxGeometry x="23.64" y="300" width="556.36" height="347" as="geometry" />
        </mxCell>
        <mxCell id="6Ph3FFAFWkGROpy7kaW0-8" value="" style="shape=image;verticalLabelPosition=bottom;labelBackgroundColor=default;verticalAlign=top;aspect=fixed;imageAspect=0;image=data:image/png,iVBORw0KGgoAAAANSUhEUgAAAvwAAAFNCAIAAADzRCyVAAAAA3NCSVQICAjb4U/gAAAAEHRFWHRTb2Z0d2FyZQBTaHV0dGVyY4LQCQAAIABJREFUeNrs3Xd8FHX+P/DPtJ2Z7SWb3htJSCChhBqahBakS7PgIcepJ3Dq17Nc8U6936l34nkoeiooglhQekCa9EDoECCF9N6319mZ+f2xIcRyHmqyi8n7+eDBg2yW7GZmduY170/DBEFAAAAAAAC9HQ6bAAAAAAAQegAAAAAAIPQAAAAAAEDoAQAAAACA0AMAAAAAAKEHAAAAAABCDwAAAAAAhB4AAAAAAAg9AAAAAIDQAwAAAAAAoQcAAAAAAEIPAAAAAACEHgAAAAAACD0AAAAAABB6AAAAAAAg9AAAAAAAQOgBAAAAAIDQAwAAAAAIPQAAAAAAEHoAAAAAACD0AAAAAABA6AEAAAAAgNADAAAAAAChBwAAAAAAQg8AAAAAAIQeAAAAAIDvQcImAAAA4F/Oowfcl88rHnkCoyQIIU9NpX3nF8y4bEn/gYLZ5Phqh/PYIcHYTuiD2Ckz2OzpCIc7dgChBwAAwC+QyPMi50biza8FEXFuJAiC1WL96D+izaZc9SwZGe0pv2F5fw3f3CS/bxnCMNhu4MeCsAwAAOAOxV29JNrt0nn3UglJGM1QyWnKR550nT/N19fCxgE/AVR6AAAA+J9os3pKixBJIYT4xjrR5UQI8c2NeIAeV2tu3akHhRABgVxVGREWARsNQOgBAADwy8O3NNn3bPd21hFtVtHpQAghQcAIAsOJW8/DMIyiEMfBFgMQegAAAPwyr0YRMYpfr7zVkXnPVoQQrtZ4aqsEmwXXaL1PE60W3mgggkJgi4GfAPr0AAAAuAMQOMZKMakUk0oxhsUwHCFExvcTPR5X/km+pUn0cHxzo+PAbkIfSEbGIISQKMJmAz8uW8MmAAAAcIdeokLC2bHZrrN5tk8/9LZ8YTQjm71Q5Djn4X24Ui0ZkOEtDgFwOzBBEGArAAAA8CO+tUU0G8nouI4+PQ4731iPBwTiCqXo8QjNjXxrs8i5MZohgkIIfZDosLtOH3eeOiZJH8KMmYjLFbANAYQeAAAAvZIo2u3uwgLnob24Ui2dvZAIDIaZewCEHgAAAL0Uz/PNjabtnzdVlAUv+Y06JRWD3AMg9AAAAOitRJ6v/GrX0Q/e77fw/hHzFsAGARB6AAAA9GaNJSXv/PXPWHDIb556Wq/XEwQB2wRA6AEAANA7Oez21//5z+KysuXLlw8cOFAul8M2ARB6AAAA9E48z+/duzc3N3fo0KGTJ08ODg6Gkg+A0AMAAKDX5p7i4uItW7ZIJJLs7OzU1FSGYWCzAAg9AAAAeiFRFJubm/fu3VtRUZGenj5u3DiNRgObBUDoAQAA0DvZbLazZ8+eOHFCoVDMnDkzMjISx2HlJQg9EHoAAAD0RjzPl5eXHzx4sLS0dMKECTk5ObBN+jiIvQAAAHongiASEhIWLFggCMLZs2dhgwAIPQAAAHozrVYrk8kiIyNhUwAIPQAAAHq5tra24OBg2A4AQg8AAIBerrGxUa/Xw3YAEHoAAAD0Zlar1e12Q+gBEHoAAAD0cu3t7QRBwKoUAEIPAACA3h96tFotrEcBIPQAAADo/aFHrVbDzIQAQg8AAIA+EXqg0gMg9AAAAOgToQcqPQBCDwAAgN4felQqFYQeAKEHAABA7w890LwFIPQAAADo5URRNBgM0LwFIPQAAADo5axWq9PpDAgIgEoPgNADAACgNzMYDDRN0zQNmwJA6AEAANCbmUwmmUxGURRsCgChBwAAQG9mNBoh9AAIPQAAAHo/qPQACD0AAAD6BG+lhyRJ2BQAQg8AAIDeDCo9AEIPAACAPgH69AAIPQAAAHo/nuctFotCoYDQAyD0AAAA6M2sVqvD4VAoFDAzIYDQAwAAoDezWCw0TbMsi2EYbA0AoQcAAEBvDj0URTEMA5sCQOgBAADQC4mi6HK5amtrt2/ffvjw4aqqKqfT6Yf3IQii0ylYzYLFLNqsooeDXeN3mCAIsBUAAAD0AoIgmEymurq6Y8eOnT59Wi6XMwxTXV2dk5MzderU4OBg370Vj4crK3YeO8SVFoluDldr6CHD2fGTMakMdhOEHgAAAOCn4ziusbGxsrLy9OnTN27ciIyMzMnJSU1NJUny5MmTGzZs0Ov1CxcuTE5O9s1ILk9FmW3bJ0RQCHvXVFyl4cpLrB+spYePkc27F3YWhB4AAADgp3A4HJWVldeuXSssLGxqaurfv//48eMTExNx/Fb/jbq6ug8++KCkpGTu3LlZWVlarbZn35MgOA7mcsXXZfPuI0LCvI+5Cy6a17yqe/09TCaHveYvMDM3AACAXySz1V5UVnH5woXaqjJRENLS0n71q1+Fh4d/95lhYWFPPfXU7t27Dxw4UFpampOT069fv+4f0iWKgtEg2CxEYIhgMOAqNa4N6PwmlTJA5Fx8SyMpi4d9B6EHAAAAuI1ogZDR7r5Q3ny58Ia5uU4n4ceMGZM+cKBWq/2BHEPT9Ny5cxMSEnbv3r1+/fpJkyaNGjWKZdnuelee+hruygVPZQWV3J8ICkE4dvPN3oJ1/gUg9AAAAAA/rM3OH6uyXam3EA5TXKBufFp0XHigQia9zbJNWlpaUFDQ4cOHc3NzKyoqZs6cGRgY+LMSGM9zFaXuc3meqgoyIJBK7k8lpWIkhWt0XGO90NZChEZ4n8ldv4JohggMhp3oR8Tzzz8PWwEAAIAPrNhTPziElUtwhJDVLewsNrc7hEjVrZ7FLl585kCTRxQTdDRCyOkRPy0wSUgsQEpWm7gvC82fXDXyIsoMk41L0A6OC44M0tESye03VGEYJpfLY2NjdTrd2bNn8/Pzw8LCfrhE9N9wLldDweXyzze5zp6SqTXs6HGSwcMlSam4QokwDCNJrvAK39hABAVjBOW5UWjd8A47YYokLQMOAz+CSg8AAAAfOVvncHg6Wnw4Xqw2cvg304YgiPl1dgxDaUFMhJLiBbHc6E4MoBFCWwvNooiWZWjCVRIVjVPET28nkkqlmZmZERER27Zte/nllx988MFRo0bd/qguu91+8Uz+md07FS7H0FGjgu6eIw0MwuUK1OV3IUMj2KmznccOmt74u+hyExotO3EakzURjgEIPQAAAEAHhQRPDqB3FpkfGfqNMVbLBmlIHKOJ7ul/TJJkeHj48uXLjxw5smbNmuvXry9fvpwk/8c10eVy7dmz54svvsB4fvE994wYPVqp0RAUdSvu8DxXWuQ8eoCMTWTGT5JHxogeDokihuOIZjASrrkQegAAAPQZgijyoogQ4sVv9vK9iaXw4RHSLddM5xucyQF05+PeRrFuhGEYwzBTpkxJTU199tln8/PzV69e/b1NXYIg2O32LVu2bNq0SavVPvTQQ+PHj6fpW+8NiSISRffVi7atn/C1Ney0mfTg4RhBIoLEECyCAaEHAABAn/T0gSYKR97QY3EJywZLHB7RI4iCKColHWuhhyvJjBDmaKUtVOGLi1R4ePj69evffvvtJUuWPPXUU0OHDpVKpQghnucdDkd9ff2+fftyc3NjY2NffPHFESNG3EpFosi53W6b1XT5gvD1XqnZyE6ZwTw1EWbigdADAAAAoOfH6SOUEoSQ0cl/UmBEIjpZbas1c9VGbtVwnYTAEEISAs8IZisM3OkaB++TCXQpilq5cuXQoUPfeeed69evz5gxQyqVFhYWnjhx4vLly0lJSatXr05JSel8viAINputpbGx6vLFlvyTQSTRP3uKJmscRklgF0PoAQAAABBCSC4hVAyOEBJEUUJgIhIHBDEZwez2IrObFyU3uyeHKan+gXR+raPe7Lt1OocPHx4WFrZhw4b33nsvKCioqKgoMTHxhRdeiI6OJgiiM+4YDIbS0tIrV66UX78WoVaNuXt2v8zhFKzlDqEHAAAA+AEYhpE4VtLqitVItCzh5jv6+eAYyghhi1td9VaPL99MZGTkypUr9+7de+7cuf79+0+dOjU8PLyzPauuru7atWvXrl1rbGwMCAiYtWDhgAEDWKkU9uMvBczTAwAAwEd4EQ0JZRkSRwghDBEYFqIgL9Q7Sw3uIDmpYQmGwhFCaUEMjmFSCldICL2USA1ilDThszfJMExCQoJWqz106BDP8wkJCQRBlJWVHThwYN++fVVVVQEBAdOmTZs2bVp0dLRvli8F3ZZrYcFRAAAAfotBgnip0cmLSEJgsRqJksbvkDfm8Xhee+01mUyWmZl5/vz5iooKpVKZnJw8YMAAyDq/XNC8BQAAwG8IHBscyt6Bb8zlcjmdzoaGhubmZo1GM23atISEhNDQ0O5fphRA6AEAAAD8yGq1CoKQkZExatQojUbz05aqABB6AAAAgDud3W7HcTwiIiI+Pt6Pb6O4uFir1QYEBEDk6hY4bAIAAADgW2w2G4ZhUn+PzPr0009PnDjh8Xhgj0DoAQAAAHpz6GlubqZpGso8EHoAAACAng09LOvPTtZOp9Nms+l0OhyHizWEHgAAAKDHQg+O4/6t9BiNRkEQlEolhB4IPQAAAEAPhh6/N2+ZTCaZTAZzAkHoAQAAAHoKz/NWm51mWL9XeiD0QOgBAAAAepDT5XbwuFIXKJH4c9V0qPR0O5inBwAAAPhm6HFzPKOUB2j8O2wKKj3dDio9AAAAwDdDj0cUWI1Cq/fv24BKD4QeAAAAoIdDj4CJMp1CrfXv24BKD4QeAAAAoGe5ECnItHK50u+hRy6XQ+iB0AMAAAD0WOjhcYFgZKw/04bdbrfb7TqdDkIPhB4AAACgpzg9AicIMsqfl0iLxYJhGKxBAaEHAAAA6EEOjyAISC7xc+iRSCQ0TcPugNADAAAA9AheEDkeKRlC6tdKj9lslkgkDMPAHulGME8P6DYmJ19t4iJUlJohvI+cqLanBtKdX3qfU9zm1rFElJoicQwhdLXZqaKJCBUlchzfVM/X14ouJ8awRGgEGRyKCAIhxHFcWVlZTU2N2+1WKBRxcXHBwcEEQcA2BwD0hCg1pZMSEsKf7UpQ6YHQ80tiNpuvXr1aWVnJcZxWqx08eHBoaChCSHS5PFXlnqpy0enApDIqLpGMjEY4gRASbVZ34VWhuVEUBEKrIxNTCJ0OYTh3o1AwGekhIzruQhrq+JZGMjoeV6ruqF+51uLZXmSelaTsTDlv5rf9YYy+a+ips3Cbrhh1LLF8sDZEQSKEdhRZ+gfS4TLEFRa48o4ihBBFiTyPzp5ix0+ikvoLIsrLy9u7dy/LshKJxOVynTp1au7cuXFxcdDUDQDodgSOJQX4P2pA6IHQ88upeZhMO3bsKCkp0ev1Uqm0oKDgxIkTq1atCtHp3BfPuM6ewtUajJUKxnb3lQtsdo4kNV10Oux7tvENdURQKMJxd0G1u/i6dNpMIijEXXDRU1HWGXo81RXuy+dwtfZOCz23KVROVpm4S40OLSunyY7UIhiNzqMHcF0Amz0dV2kEk8Gxb6d91xfK2ESzw7F+/fqsrKwZM2ao1eq6urq9e/eaTCZBEKDYAwD4sYxO/nStvb+eiVB1jIraWmjOCGaiNZJt180iQrOTlTiGEEIXGhwYQv0DGb+UfCD0QOj5xbh06dKlS5eys7NHjx7NsmxDQ8OWLVusVqsg8s68o1RcIjM2G5PLRYvZsX+3fesnkv4DuaJr7gv58nt/TcYlIoLgG2ptWza6zp1mJ07rZRtHxRDDFOTZekeyno5SSxBCSBSFtha+sV46cwGhD0IIEfogdvIMw5+f4JsbShqaW1tb582bp1arEUIxMTELFiyQSCQ4Dj3SAAA/Pky4hZPVdh1LdoaeQ+VWvYyIUksOlFvtnBCtpgaHsgihwhYXhqHEANqPoQf69EDoudPxPF9UVKTT6YYOHapQKBBCERERv/rVrxia5kuuixYTPWw0rtYghDCNjs2ebv9qp6exzl1wgYiMpVLSEI4jhMjIGKr/QO5GETNq/C/od682cW+fbVcxHXGkyeb5vmeJA4JYBycerbQtSKUQQqIoClYLwnEiMKjzSURAIEYzQktTQ0NjQECAN/F46XQ6OMwAAN1/RcTRwGBmR7ElUUcraH/eVomiaLVa1Wo1VHog9NzpOI6zWCwajcabeLw0Gg3ieafNikgK1966ZuMaLU4zQmuzYGgnI6JQZ/UCw4iAIPfFsyLvQQi5L501PLfS+x3BbCLCI+/M3z1ASmSGSWM1HesSF7W4EUJGJ7/xslEhweN1tJbFEUIMgc9MUv79eEtmmBshhGEYzjCI50WXC2PYjs88z4tuF8awLMtaLBY4rgAAPQ3HUGogc7XJebDcOjvZn9MxOxwOm80WERHh32XeIfSA/42iKJqmbTab2+3+RkjHMZxlRQ8nOh2YhO68tAtOOy5TYFKZYP3GpV102DGJBMNwhBDVr7/iwUe8j7uunPdUlt+Zv7uUwuO0krTAjnqst8sOL6DpiQoXL56rd2jZjm+FyMmJsbINlwwqhkQYhqk0GMNwJdfpoSM7suO1yxhBkFExA7SBBoPh4sWLGRkZ3m8dOnRIJpNlZGTAPRAA4CeoNXMvHm1mbvYpbLR6FqZ2dJFUM8S4GNnWQvOgEH+2K9lsNlEUpVIpDNfo5lwLm6DbEQQRERFRV1dXXV0tiiJCSBTFL7744uix47hGh5EUV3wdiSJCCImi+/xpTCojY+Kofv3dVy8KNmvHT+F5d+EVIiQcYxiEEMZKifDIjj86PUbeRgdeUXSdPt7+3IrmBZNblswy//tlvr7WB78+hhCGdfzx0kkJnZS83uwcGHTrJIJh6O5EhckpnKmzI4SIAL1k4GDbtk9cF/IFk8F95bx103vSyTMxRqrT6XJycl566aW8vLyWlpYdO3asX7/e7XY7HA6XywXHGwDgxwqRU78bHvD29DDvn6QAGmG3ij3xWjpeS+8rtXoEf4YeDMOkUinsLKj0/AKMHDny/Pnz69atmz17dmhoaF5e3ieffLJmzRoiOESSlu74aofo8ZBhkXxtlX3H5/L5SxCG0xlDnSePWNe9yU6egdG068xJoamRzZ6OsT/poBdFx6G9zkN7pNPm0EOGC1ar46sd5jdfVT72FBEa0UO/NYUjJU1QXXr86aQERWA2t7C5wDg8XJqgo6tNbrkE92Y2HMdWDtc9tb+RJTGMYdmJOZhMYd/6Cd/eSuj00pw59IixiCAognjkkUeCgoLeeOMNo9EYFxf36KOPZmZmfvTRR/v373/22WeTk5Oh5AMA+BG3pjhS0LhO2nH3SH2zn7KSxjPD2J3F5mabe2go6xFEq1uQUjjuw5oLhB4IPb8kgYGBjz32WG5u7ocffuhwOBISEtasWRMXF4cQYu6ahinVzmMHBZOR0AZI5y6WDBqGEMLkCsXyVY59O62b1yHeQ0bHye9fTkbFIAzD1Voi2H6rRiKT4/qgzgay7yVYza4zJ5mJOfTwLIyiCFYqnXmP1WJyHv9atmBJD/3WiTo6UfeNd/VWTihC6GKD0+DgrzW7LC5hdJS063OS9fTue6M6fy924rTvHa0mk8nuv//++++/v+uD9957r81me+aZZxYuXDh16tTAwECoAwMAukWcVhKnkeRVG9ODmAaL50CZNStKlqynaZ8M4xJF0WAwuFwuuJ3rdpggCLAVeh+urMT2yQeyBUuohKSOT5Hb5Ti4hyu8qnrij6gXhYPjx49/8MEHwcHB8+fPT0pKguGdAIAf1mr3fHXDOixcmqDr6CP89tn2MdHSlADmvQvt42PkCVoJQqjKyO0qNifo6BER0gNl1rxqW1a0bHi4NFjeg8UCURTNZnNFRcWuXbsuXbr0xBNPjBo1CnZZNyKef/552Ao9pLKysqqqSqPRkKSvK2pie6u7sEDSfyChDeh4iBf4qgq+sZ4ZObY3hZ6oqKhBgwYVFhYePXqU53nvbJBw7AEA/hsphQ8IZjrbthBCQ8PYQBmJYWhwKKtjOx5XM0RmuDReK6FJLEVPB8upwxW2G61OlhACZD3S1tXc3Hz27NlDhw6dOnWK4zhRFFmWjY+Ph3oPhJ5fhr179166dGnAgAF+KD+IyHX2FBkUTIaGeYfBiw67+2weLpNJ0of2su2sUqkGDhzodrtPnDhRVVWl1+vVajU0dQEAulGwnEwPZqqNrpNFtVazMUglZWmqe87WolhZWfn111/v3bu3rKxMKpVOmDBh7ty5ERERx48f12g0oaGhMBcrhJ5fgOPHj9M0PXDgQN/ndIym+ZYm99VLhFqLqzWi3e4+d8pdcJG9ayoRGNz7NjXDMPHx8YGBgZcvXz59+rRMJgsKCvJ9gQ0A0IuxFJ6spwmRP1NQfL2wSKeUatWqn3N/xXFcYWHh9u3bDxw4YDQaExISJk6cmJ2dHR0dTdO0Xq9vbW09c+ZMcnJy11nfAISeO9T+/fuDgoL69+9PUZSvXxvHiaAQwWRwXzzjOnnUff60aDYxI8ZQaRlYL12viiTJkJCQ+Pj4tra2r776ymQyxcXFQVlYMLTZPv+IjE3AaAYhJBjbbds/I4KCcZkcIeQ6m+fI3eo8coC7fgV5eEKrwygKISRynOvEYfvebc5jhzxFV5GI8IBA75FTX1//xRdffPLJJ/v27SstLfXW1eDDDvoIEscjdLIQjay8vOzwoQMSHIWEhPyE+yuHw3Hx4sVNmzYdP36cZdlRo0bdddddI0eODAwM7PxpJEmGhYWdPHmyra0tJSUF7uIg9NzpduzYkZiY2K9fP7+si+m5UURFx1HJaVRcIpWcRqVlkOER3ktdb4XjuFqtTkxMVKvVubm5Z8+eHTBggFwu78sHoWBst2/7lB4xxrvrBaPBsWerJDUDV2sd+3Y59u+WpA+V9B+IkaTrzEnR4SAjojCCsH+2wX3xDJ05UpIyQESi6/Qx0eWkYuLq6hv+/e9/u1yusWPHDhw4sKamZteuXWlpaSqVCj7voI/AcVynVCREhbmdjp07tre0tMTFxd1+HwaHw3H06NH33nsvPz8/ISFhypQpY8eOTUlJ+d5GealUGhwc/NFHHyUkJISEhMDG74bYCpughzidTrvdHhAQ4K947jx2UDJoGDNsNCJJ0e02v/mqfMESpNL0+i2vUqnGjRsXHx//5ptvLlu27I9//OPw4cPhgPwW0WqxbnpfueL3kvQhGEmJHIfRjPviGTK+HxIFZ/4J1cpnichojCSpfik4K3Wdz6cSkvcfPooQWrRoUVRUFEEQiYmJeXl50H0K9L3cgwXotDOm58TFRK9fv76wsPDxxx+PiIj44c8Cx3G7du3avn07hmHTpk0bNmyYXq9nWfaH++skJSXdfffdq1evXr9+PSxJ0Q37DjZBDzGZTAghlmX9ckkQnU7BbMIZtmMxL87NFV3FZH2l5kFRVHR09N///vd58+atWLHirbfe8ng8cEx25S65jnCcHjICk9AIxzGapvqliB6P0NbCFV8nI2OIiCiMohCGYQxLRsdhDOuoKi8qKkpLSwsLCyNJEsMwnU43bdq08PBw2J6gD2IYZtCgQS+++KJcLl+2bFl+fv5/e6bZbF63bt3EiRO/+OKLxYsXr127dt68edHR0TKZ7H/2UCYI4p577mFZ9rXXXoNt/vNBpaenmM1mhmH8FcxFmwUJAiaVeUMP39KECAJX9aG+FxiGSSSSBx98MDMz86mnnioqKnrqqafCwsKIXtql6Qd4qioMT/8WeX9xnhdcDoSQaLUSWh3qcsLFWCnCcdHtEm02XKXqOq8BJqExknSZTS6XS61Wd+2j1ge3JwBdzzNarfaFF17Ytm3bqlWrFixY8PDDD3vvdUVR5Diuvr5+x44d27ZtS05Ofu2114YMGfITXoUgiJdeeiknJ2dSdvbgn/QTfHHRuUkQBAzDCIK4M2vAEHp6islk8mPoEawWxDBI0nFx4ttacbUW9clmiJSUlHXr1r322muPP/74448/Pnr06L62BYjwSNWqZ3GtHiHEtzRY1q9FCBEBer61WXS7sZuHqGC1IFHAGBbXarnKUsTz6Ga4EZwOkXNLdQEymaypqcnlcnknQxJF0W63kyQJHcZBH48+c+bMGTBgwJ/+9KfCwsKVK1cGBgbW1NTs37//woULKSkpa9euTUpK+jnDzoOCgv7yl7+89erLq9e+rQ7Q+yvW8Dd5PJ7Ov73/MBgMBoPBZDJVVlZKJJJ58+YFBgZC6IFKj4/wVosgoRHZ8ep8eyuu1fXZfREcHLx8+fI1a9aYzWb/vAOeF8xGvr0NcRyiKFytJdQa5KsaCUYQmFyBq1QIIdFh865WS8YmYqzMeewgM2IMxrCi08Fdv4wxLKEPIoJC7V/t5IquUkn9MQkt2G2e0iIkCJKomAEDBuTl5Q0aNMg7lqS+vn7Pnj3Dhg1LT0+Hjzzo4+Lj49999901a9b8/ve/DwgIkEgkAwYMeOWVV6Kjo7ulIDp9+vT6C+e+/nDd3b9dSbE9NQWrIAgcx7ndbu/fnf/gOM7pdBoMBrPZbL3JYrF4/2Gz2WiaDggI8P7ipaWl+/btmzdvHsuyEHr6UKWHZVl/hR6L2WwkKClJem/VLS3NSKXt43tELpcHB/tjjiKB91RXOI8e5FubkCAggsQ1WmbsRComAflvwjGMYeQPPuw8mCtaLbhGKxgNnqpySfoQIjQCoyh23GR77lZJfQ0uVwptLZ6aSnrwcDIkfMKECTdu3Pjiiy/S0tLkcnlRUZHZbA4ICCgrK0MIRUVFwaha0JcpFIpHH33Ubre3trY+99xz/7Nr848176Flh197uf7kscgJk7BuPXsUFxc3NTVxHGe3200mk9lsdjgcLpfL6XS6bnK73SzLKpVKrVar0WjCw8M1Go1Wq/V+KZPJOgtCp0+fzs3NPX/+/PDhw++0cwKcoXpnpafNaDIRVMjN5onapiZlSFhQH94dbrfb6XT6ZWS1YLM5DuwReU624EEiMIhvb3PkbnXs3kYue8wHXcsxqZweNR6/eV+ISWX0sNG4UoUQYkaOJZQq9/UrXFkJLlcyE6ZQCUl4W8rqAAAgAElEQVTe1i7ptFlESChXUsg31OEqNZudQyUkIxzX6/W/+c1vTp48WVJSIghCbGzs+PHjWZb1Tj4+efLkIUOGwDIgoC8jCCI8PDwsLCwyMrLbf7g6KHjY3TPNRw9ysXGS2ITu+rGiKL7xxhtWq1WpVOI4LpPJ5HK5UqnU6/UqlUqtVnv/ViqVSqXyf4YYDMMGDRpUWVl5+PDhsLCw6OjoO6pzD4SeHgw9fqz0NBmNTkIidhR6UGl9Q1pyWl/eHS6Xy+FwKJVKP4QeYztXVqxYtoKMiEIIkSFh0pw5xlf+zDc3kTE9HnpwlVo2Z9GtL5Uqac7czi+p1HQqNf17z9z0kBH0kBHf/Y5er581a9a3zpgjR440m827du2qqqqaNm2aVquFceygb+J53mKx9NCQRpwkQwYPldZUuA7vI3X67hqbUlFRUV5e/oc//CE0NFShUMjl8p857pim6YkTJ1ZWVn711VeLFy++o+bxgiHrPUIURYvFIpVK/RV6atqNFpLCqI5Xv1Zbj/XhPj2CIFgsFgzD/BB6RFG0mJHAk2ERtxJFUAgmofmWht6xeTEMCwsLmz9//tSpU69fv7527dqysjJRFOE8APogj8djsVg0mp6aEY1QqJSjxgpmk+tsnsh3z0wc27ZtGz9+fFZWVlxcXGBgoFQq/W+Jxzt2oampqampyeFw/MDHXK/Xz549u7i4+OTJkxzH3Tk7CCo9PcLhcFitVoVC4YcFKBASRbHWaIpSq8mbketsde3SzuXW++S9l8lkUigU/smgFIUEUfRwWJc9hHgPRlK9aSMrFIoxY8ZERETs2bPn1Vdfveeee7Kzs+FUAPrg2aZHQw/CMCIihk4f4rqQT0ZEU/1SfubPq6ury8/Pf+WVV37gOWVlZRcvXrxy5UpbW5vdbvdGIlEUZTJZSEhIamrqoEGDIiIivvW/EhMTZ8yYsXnz5qSkpNjYWAg9vZnFYhEE4XYmnuoJdrvdYLGkKFXea7zFYmmw2jR6341yLGhynql3TI1XhCpIhBDHi++cax8WLs0M809Pfo/HYzab/bP0OobhSjUmlXIlhZ2tRVxpsSgIRHhkLzvsSZJMSEh44IEHTp8+vW7dugsXLqxYsQK6+IA+xXu26cHQgxAmkUgGD/PU13KlRWR0HPbzJozYt2+fd8bR7717P3LkyO7du1taWhITE5OSkgIDA719lkVRtFqtBoOhvr4+Ly/v/fffj4uLmzVr1rhx4zr/O47jo0aNKiwsfP31119//fU7pEczhJ4eYbVaSZL012g9i8WCEOosUTY1NUloxpctOzZOaLB43Lzg/VJAqNbMpbh4P56GLBaLVuuf8Wu4Sk0PHmbf8Tkmocm4BL6u1vbZBmbYaLyXLgmi0WgmTpyYmpr6yiuv/Pa3v/3jH/8YFxcH5wTQR3Ac17OVHu9ZRaGSzrwHQxj286rXZrP56NGjK1as+FajhCAI58+ff/fddzmOy8nJGTVqlEwmYxiGIIjOWQe90/ZwHOdyuaxW69GjR995550dO3Y88MADGRkZ3p9D0/SDDz64YsWKtWvXrly5EkJPbw49BEHc/hJ0PRq5Ghsbg4KC+nLHUm/BOSoqyi+vjjEskz0d0Yxl3Zt8SxOh07OTprMTpniXPe+VKIqKiIhYvXr1Rx99tHLlyscee2zKlCnQtRn0eqIoGo1GHMd1uh7uQ4lhuFwpcpzj632Ovdv5mipMLqdHjpUtfBCXyd3XLjuPHpROnk7G9fM+vXX5AtWzf6Ni4r/1Yw4ePBgVFRUTE9P142kwGD766KMjR45MmzZtzpw5/21cAoZhJEl6rzVqtXrx4sXTp09fv379X/7yl7lz5y5YsMA7Z6lMJvvb3/42derUkSNHDrkDppOG0NODscO/oafz1RsbG32/PC8viBa3YHbxCCEXL3oEf+4O/1Z6RIfdU3SVGT1BOnWWN4KJHg/WBxYO9C4DkpKS8vbbb5eWli5atEir1eJ43x084Tx20HXutPI3v/NOVcA31Fk/Wc+Mn0IPHOypKnfs2+W6fB65nHhwmHTKDHrkGIykkMBzpSWOr7a7rxcgj4eIiJbdPU+SPgThuMPhOHbs2ObNmysrK1mWHTVq1JIlS7p9YhjwY0NPe3u7SqXyxXHO847dX7ovnpHdc79kQIZgNFg/Xmd69c/qZ15CoohE4RudjHkBfafTsd1uP3bs2LRp0zpHV4miWFtb++6779bU1LzwwgtpaT9izC+GYSqV6vHHH8/Ozn7rrbeam5sXL14cHByM43hISMjq1auff/759957LzQ01L/7CEZvdf9Bb7fb6+rqnE6nv5owvXWmzkpPQ0OD7yflqzZxr55ofeKrxie+anxmf1NFu9vvoUet9s/SY6LL6Tx9grt22ful++ol+84tgtHQFz4OJEmOGDHihRdeaG5ufuONNwoKClwuF5wlvn18VlfYtmzCpDLNn1/RvvmRbO5i25aNzkN7kShyZTfsWzcT+mDNi69rV7/Pjs02v/uG+9plj8dz8uTJdevWzZ07d9euXe+//74oilu2bPE2bQM/nv/b2tp8c3/lqa3mSovYKTPpoSMwVkqEhCkf/T+R87jyT9zmTzh16pRMJktISPBeqkRRrK6ufv31161W65/+9KcflXi6Sk1N/d3vfldTU/PWW29VV1d7R3hNmDBhzJgx//jHP/x+iELo6c7D3Ww2FxQUbN269dChQ8XFxZcvXzaZTL4fu/vdSo/vQ0+Uinp6tH71lJDVU0JemRQcq/VnYaPHx1P8r5cX7VbvfIDeK5zIe1CfWacTw7CYmJgnn3wyLi5u06ZNBw4cMBgMMKC9y4lDcF+7jMlk7KTpREgYLpXSg4fJ733IvneHYDFzNwoRK2WnzSb0QbhSyYzLZidMtn36ocPhOHDgwNixY2fMmKFUKsPDwx955JGpU6fCImh3QqUnIMAXQ2X5tmaMleL6oFsTu0soSVJ/rqIUISTarJ7yEve1y94/Iuf+bpnn3LlzSUlJQUEd09a2tbWtX7+eIIjnnnvuZ/bD69ev3+9+9zuO43bt2mU0Gr0PLl26lOO4LVu2OJ1Of96JwWHaLVpaWoqLi69evVpeXi6VSqdPn2632y9evGg0Gu+6665vtZj6vtLj+5ZUHMfkEkxJ4wghFy8Sfk3XbrfbZrP5K/SIPC/abJiiI/QIFjMuk2F9bLkGtVp977335uXl7du3r7q6etiwYYMHD+6DJwrBZHDmn8AYFiEkGNpFqxVxnNDWSugCu66OR6VmiI61nuoKob2NDArtOgedZOAQ2+cbEcc1Njbm5OR0Pq7X6/V6PQL+3b+C0NbW5qMWHFFEONF1MQoMYYikkNuFEOKN7a4zp3Dl9Y7nfidnXL161WQyZWdne8dXchy3efPmmpqaP/7xj91yIMXExNx///0ffvjh4cOHp0+fLpFItFqt95HY2NgxY8b4q6UbQs/PzfU1NTWXL1++cuWKzWYLDAycO3duWlqaVCoVRXHgwIG5ubkbN24cN27c6NGjCV/d3Fsslq7dqP1S6bmj9pHJZPLPzITeN8C5Raejs9IjWs2YTo/63hpVFEWNHTs2IiLiww8//Ne//rVx48a+eDTabZ6yEu+soYLVIrpuXopwDHW5L8IwDMMwJAgIwxD+zfslgkCigERRFMW+3EHqTq70/OSGoR93Y6lSi24nbzKQooAw3Ht/xddWUylpCCEyJIydMJW8uVSF+9LZrv/X4XBcuHAhKCioc/qc/Pz8EydO/OEPf+jGCXXS0tLmzJmzfv36xMTE1NRUgiDS0tKysrJ2794dEhLSr18/CD2/JDzPl5eXnzp16saNGziOx8fHp6enJyUldQ78wzDMWzk8ePDgzp07S0pK5syZ0+Nd+hHyeDxWq5VhGG/oEUWxpaXFx6EnSkVNjJVp2I6QR2IoJ1ERpZb46zTU2tqqUqn8MlEkEkWP2eQQRbVMjhASOY632Si5opfNTHj7YmNjJ0yYsHr1ar+9A4/HXXCRKy0SHXZcoSQTU6h+KT7bHURQqGzuYkwqRwjxTfW2LzYhisI1Wr6+VjAaCH1HQwNXXoIkNBkW4amu9FSVi1YLJld0fKvoGhmTQEokgYGBhYWFo0eP9j5uMplKSkpSU1MZhoG+zP4NPT44zyOEyJBwQqt3ncnD1VoyIlp02FynjglmoyRjqGBoRziBaAbrXIz9m4dEVVVVQ0NDVlaWtwuz2Wx+6623Zs2aNXDgwO59k8OHDz9+/PjWrVtTU1MRQlKp9K677qqpqdm1a5dOp/NNO+C3wyIcpj8Wx3HXrl178803//Of/9TX1w8fPnzJkiX33ntvWlrady+rGo1m9uzZixYtamho+Mc//nHp0iUffOqUSqVEIvn888/ffffd6upql8vV2WrrGyEKani4VEV3hB4Cx8ZEyaJUlB9PQ375dHlf3dze3sbIve1ZHpvV6OY4Ror68D26zWb73pnQfLM/HAdzHft3YTRDhEWKguA4kOs6eQQJvhpeiOMYzWAMgzEMJqERhiEMp/r1F6wW54nDfFuL6HJyJdftX37MjM3GtQFUbIJotTiOHhAM7aLd5r541nn0gGz2QoZhxowZc+zYsYMHD5rN5sbGxo8//jgvL8/tdn/22WctLS1wou71ZxtMJmfGT8YVSvvOLZY3X7V+sJYrK5HNXkSGRvzPS9jVq1cJghgwYIA3Hx88eJAgiGnTpnV/yieIe++99+rVq+fOnfM+otfrp06d2tLScvToUb8Ma4BKz48rohQUFOzatau+vr5///6zZ8+Oi4vT6/U/3G5FkuSQIUNCQkIOHTr0zjvvZGdn5+Tk9NBodm9Vo7W19cyZM3q9XhCEoqKiyZMn+3iaxMIW17Yi88RY+aAQhsQxjyB+ed2coJMMCvHDbI2CIPjs3ut790hLe7vhZoceh9XSJCAZRSn68OeopaXFXxnUU1PpPHpQOmuhZEAGRjOCzeo6fdx19hQZE09Gxvhrg5DRceyEKc4zJyxvvybyAi6VSTIymfGTEYaRsQnMhMmuMyfNF84gQcDkCnZSjmTICIyisrKyrFbr9u3bP/nkE4lEEhkZOX36dJlMZjQan3nmmV//+tfDhw+Hk7aPecdM+Gx2DDI8UjptFt/aLDqdGEHgai0RHIowjIyOk6o0hO5W1xzVk38iQzruNBobG0tKSpKTk70fQ47jPvvss2XLlvXQ+NaIiIixY8du3rzZ27UUx/GkpKSRI0d+/fXXMTExGRkZPi5MQui53UvXiRMnvvzyy+bm5nHjxs2bNy8sLEwul99+N52wsLC5c+fGxMR89uW2svqWJYvmBwVou/cdNjQ0bN269dSpU2FhYcuWLUtOTiYI4sCBAx9//PHBgwd9uRCSycVXGt2brxjjNIE6KSGIqMroDpAS/tp37e3t310XxmevXtvSJig6ziYWs6UFERGkpC9/mlpbW/3V5Za7UYhptFRKmrfsjyuUVL8Urvi6p7rCB6GHHjycShnY2eKA6wPlDzyMy+WYREKlpZPRsYLdhgQBoyS4WuPt7IwxjCR9CBWbKDjsSBQxmsbVGkxCI4TUavWsWbPGjBnjcrlwHFcqlWq1miCIhQsXRkZG/vvf/y4oKLj//vv9NVtY39Tc3IzjuO/GTGAYrtHhmm/f0eFyBS7/xo0VlTKg8yawvLy8paVlyZIl3j5h165dE0UxMzOz597m1KlTZ82aZbFYFAoFQkgikdx1112lpaVbt24NCQnx8TRyEHr+d3Xn0KFDH3zwgcViWbhw4eTJk1UqlUQi+QnhVCaTjRw5MjwqZuPur1/6YOfyeZP6R4fg3RFya2tr169ff+zYsWHDhj3++OPJycne+cIRQgsXLhwwYMDzzz9/7ty5VatW+WwhpLRA5nqL60S1bXqin4sa3tDTOS267+tMFS2t4VEdy2wZzOY2jOAlfTr0tLS0dHvXgds9GCxmQqPtOnQOY1iMYUSb1RdXKJmckMlvfUlSRIC+89/Y9129EEIYJcF0Afj3XO8wqVT63U+0Wq2eNGlSbGzsv//97+Li4lWrVvkr8fdBDQ0NOp2OuIMnpDAajWfPnk1MTOwcYnbmzJm0tLQebQ2Ijo6OiYk5ffp05723XC5ftGjRX//61wMHDsyfP9+X0Rz69PzXK6XVat22bdusWbPWrl27cOHCnTt33n///YGBgTRN/+RyHEEQMZHh/7d04ZBB6f8v99r+602unzpXsSiKgiBcvHhx5cqVOTk5BEF88MEHf/vb34YMGSKTyTo/dRKJJD09fdOmTW1tbQ8//PCNGzd8M0UKgaPFA9RbC81GJ+/3XdnW1uav5i1BFG80txA3l9lqMpmNOIEoiQ9/fSR02eEi+saX/qr0BAYG+uWlMZlcsFq69uARObfIuTGa7U2nL5Ikk5KSXnrppcDAwP/7v/87efKkIAgI+KTSc4dPHNDY2HjlypXx48d3XsXOnTs3aNCgHp1KF8fxiRMnHj16tOuDoaGhS5Ys+fLLL69fv+7Libug0vPtC6TL5Wpqajp58uSuXbtkMtmqVavGjBnTvVN+SRnJAxPS42MMGwqsJVbDgv4qvYzEby9HiQhxHsHicF0uKtu+e2910eUp40e/9NJLPzweW6FQvPjii1u3bv3rX/86f/78CRMmyGSynm1JFVGchhoTJXv/gmHlMJ1/96l/OzJ3ffV2s5knKcpXM8gJIvq6wranxLJ6Ssfwvbwa+8Ey67LBmjCFf/qVeycy8dfuoBKS7ft2emqqyPh+GEGIHo6vrREsZiIyuvedzbRa7YoVK3Jzc9euXVtaWpqTk9PHlwHxgaamJn8F+tvhdDoPHz4cGxvbOVzcZrMZDAYfzCSXlJTU2Ze508iRIxMSEl544YVPP/3UZ8UeCD3f4HK59u7d++GHH8bFxf32t78dMmRID+0JDEOjYjWROvn7Fwx/P97yYIamXwDNktgPxx27W2i0eq7VGU9cKra3N4wdOTz7yYfVyttqP2JZdv78+dHR0Zs3by4vL7/77rsjIyO7fRS3KCLU5ZdYkKpakdtwvsGB/DeG1u12m81mfy289a1u1BaLhaKovjxtrtFo9Hg8/robJqNimWFjrJ9+yE6cRgToPfW17vOn6dQMKrp3rgPPsuzcuXOjo6M3bNhQWVk5d+7cfv36+Wfuhr7BLwsd3r7W1ta8vLzf/e53nRHHZDKRJCmXy3s69AQFBX13UKHFYjEYDPfdd58vj0kIPd/gcDjKysqysrJWrFjhgytThIp6ZnTAluvmt860PzZMG6+RXGtxRaqoYDmJEPIIYmGrK0FLMyTW5uCrjO7CFldRq4sSuclDEodGDVNKf1wrCUVRI0eODAoK+uyzz9avX5+dnT106FCZTNYdZR1kdwvVJs7Fi3GaW+9KLsGXDlJ/dMkYoqC8T0Oir/NPc3MzwzD+mpnQ5XLZbDZv6BFF0WKxsCzbl0NPe3s7y7L+6l0r8h5pzhwiONR98YxoteAaHTNuEp0+tBfPIIBh2JAhQ0JDQzdt2rR27dqcnJysrCx/fRz6QqXHX/3Vbsfhw4c1Gk16enrnIyaT6UeNyPk5ocd7w9O1He348eM0TY8aNcqXvaAg9HwDz/M4joeFhfnsssRS+AMD1f10tIom6izcn75umpeiXDxALaNwGye8fab9D2P0YUpqW6G5zsypGeLufsrUQFpK/cRzNIZh8fHxjzzyyJ49e7Zv315dXZ2dnf0zb02MTr6o1VXc6q4zc8FyMkT+jYNqVKT0SKXtSpNzVKS0xsS12j3JeuaHa1rdfhoKCAjwV1W/paWFpmnvNcblclmt1oCAAF+GHhGhZpvnq9KORf5K2tw2zp/dO7xrUPurp6fQ3sZdv0KPGMtkTUCiKFgtgqEd9YHKR2hoqLepa8eOHSUlJdOmTUtMTIQ5DLvxwlFVVdXW1tbU1HTH9umx2Wy5ubnLly/vWlbxeDwEQfjgSKBpWhRFjuM6Q4/FYjl+/PjIkSN9vBQ0hJ5v4DjOZrP5fjnuYeEsQqikzUUTWLuDv9LoHB7xjUEZASwxMkKaoJNQeDccnVqtdsGCBVFRUXv37i0rK7v77rsHDx78Y497URTr2iwFdeZCM+FCpJYl7oqVpegZBY27eRELRXIJgRDCMWxJuubrCmu0mmq2enJvWCoM3NhomW9GsJvN5iNHjoii6Ha7Jf4YM9XY2KjT6bzb1mazcRznm/uqrqnHwQmVBs77VbPV4+H92ZO5vb1drVb7K4MKbS3OE19LBg/HaBoJPFd01VNWQkY+2BdObizLzps3Ly4u7ssvv3z77benTp06ZswYH8/g1fu43e4bN26cO3euvLw8NDT0Tu7Ts2/fPoIgvjV7k0qlslqtPN/jw02amprkcnnX4+3y5ct2u33QoEE+rvtC6LkjQk+nEAWZqKMvNDhiNRKGupVCZiV3czmaoqisrKzw8PC9e/f+5z//GT9+/IwZM+Ry+e38X4/HU1Fdm3flRnm7i9WFxMVEpQTL47U0fbN+E6GiIrrMvxypoh5M1yCErG7B4hbyauy1Zi4nURGjkRA9doPR0NCQn5+fn59fXV1tMBg2bNgwc+ZM35+Pup4EbTabd5ixL98AhqFwFfVgRsfwsdO19iOVtr4besxGXK7yrtEo8jxfVyN6uD51isvIyIiKitq5c+eXX35ZXl4+c+ZMH62O2es4HI7r16+fOHGiqalJrVYPGTIkPj7+rbfe8i7scAd69913O5cX7Rp63G633W73we1f1xqY0+nMz89PSkoKCwuDyQn9HHqsVqsfQw9NYBkhTI2JO9/gGBbe41fHmJiYBx54IDExcdu2bSUlJUuWLImJ+aEp2lwuV2Fh4cGDB+taDGHxKaPT0xOiwiMClMTt1Z/kEnx0lDRcRR0ss67Lb5iWIBsRoyW7dQV2QRCqqqq+/vrrixcvqlSq9PT0efPmtbS07Nu3r6KiYvHixf379/flZ6y5ubkz9Njtdt+HHoQQgWHMzTxKEX5u0vCGHr81b5mMmELR0YNHEASLuesC5n2Et9AbHR2dm5v7z3/+c8GCBUOGDLmTp5a503gv2EeOHDGZTAkJCd62woCAgPb2dpIk33///aVLl96B3ZknTZp07ty59vb2rqM65HK5XC6vq6tLSEjo0VuRsrKyrvG6uLi4ubn57rvv9k5XCKHHn6HHYrH4MfQghILk5IBg5kKD41udY3qIXC6fMGFCRETE9u3b//a3vy1evHjMmDHfnbPB7XafOXNmz549LS0tGRkZi+4ZHx0do9OoiR8ZWSgci9dKdKwqv4L/5MiVwiL6V5OHUVQ3/KY8z5eWlu7atevq1asREREzZ85MSEgIDQ2VSCQejycmJiY3N/df//rX3LlzJ0yY4LNeNY2NjXFxcV0rPX28QaG9vT0mJsZvlR6TEVcoO0OPaDXjvXGw+v/Esuzo0aPDwsI+//zz3bt3R0VF+XhN4l8oj8dz4MCBvXv3chw3YsSIQYMGhYeHK5VK7/GsVqvffPPNjRs3Pv/88w899FBmZuYd1WvqoYceKi8vf/fdd5966qnOjEsQRP/+/QsKCrKysnr0U3n8+PEpU6Z0bsZz585pNJp+/fr5/lQAoecW74SEGIb5tz5JYNjQULagyXmhwenwSZ9THMcTExOXLVu2f//+d95558aNGwsXLuzcCDzP79+//4svvrDb7VOmTFm6dGlwcLBUKv3JByuGkJYl7krUxakHvv3J7t8c+/qlx5eHhvz0JVF5nr969eqnn3567dq19PT0hx9+ODExUalUdkY3kiQTExODgoIOHTr08ccfV1RULFq0yDdTxTc1NXU2ovu+eQvH0MgINj34VpP54BA2OYBW0n4brOSdHdtfocduNEpCwxGGI4TEvlrp6fxQxMXFJSQkFBQU+CuI8031jgO57svnEccREdHS6XOpxGR0R3avdjvsp77a+/Gnn3JS+d133z18+HCNRtN1QXur1bp79+4vv/wyNDQ0OTn5lVdemTt37pw5c+6cmxyVSrVixYo///nPubm5M2bM6Hw8MzPz/fff53m+58aNNzc35+fnv/zyy94vKysrKyoqMjMz/TJnLISeLneBgmAwGORyud9Xq5FJ8Akxsg2XjPUWj29eEcMwnU53zz33xMbGvvnmm0VFRatWrQoICNi1a9eHH34ok8keeOCBu+66i2XZ7urqLyHxhBDd31csXr/pswceuP+Zp38/ceLEn/BzTpw4sX79+qKioqlTp7766quxsbEkSX73mophmHetosTExDfeeOP69etPP/10eHh4T9+KxcTEeDye3//+9wqFwjtexscnQSmFS7ucyhgSY0jCjx8xs9nsx+at+tbWoIQkJY4jhASebzAYIhXqPrsmiMfjsdlsSqXS900MCCG+oc726YeIopSP/h8mlbnO5plWv6h++gUyNuHO2komU+XBvSe++MyhC1r228cGZA6jKKrrAWwwGLZt2/bxxx/b7fYFCxYsXLhQrVbHxsa+/fbbZWVly5cvv3OqaHFxcUuXLv3oo4/69+/fWYEeOnToCy+8cOPGjbS0tB563ZMnT2ZkZHgb+kVRLCoq4jhu4MCBfrn5gdDzjYKBwWDw1yx2CCEcw2iy4yDoH8ik6Olyg9uXtz0kSQ4bNiwsLGzNmjXz58/3eDzp6enPPffc2LFjeyZpIUZCPbr0vsH9E/7+979fuXJl2bJlCoXih4OIKIo8z9vt9sOHD2/YsKGmpmbRokUvv/zy7XRSJggiLS3tn//855o1ax599NFnn30uMzOT7IEQIAgCx3FlZWVtbW2vvPLKoEGDysrK8vPz58+f7+M6Ii+InIAoAvP2GRdE5BFECvdP3b29vd3lcul0Ov9UekSxsrVdI+to3uJ4vqylPVKp7qsnPOR0Ou12u0wm88Pu4D3cjULBblMsX0XogxBC0ulzBUO79dMP1c/9zf+bRhRFnhdamx3HDkIM72kAACAASURBVJqOHOSDQqf/4a+65P7YzawjiqLH42lsbNyxY8fWrVslEsl99923cOHCzluaSZMmRUREvP76688+++wTTzyRkpJyJ/Sa8p7hr1y5sm7duueee847coVhmFmzZq1bt2716tU9cSR4PJ6NGzcuXbrUe9JpbGy8ePFiv379oqKi/LIRiOeffx7ijhfHcWfOnCFJ8luD+nxGyxKT4uSdnYLTQ9j5qSoF7euPilKpTE1NLSgoeOyxxx5//PHY2NiefsWwsLDRo0cfPXr02LFjISEhKpXqexeCEQTBZrPV1tbm5uauXr363LlzOTk5//jHP8aNG/ejplhkGCYrK0sul6/5z3s2noiOimRpqrtSgMvlMhgM+fn577zzzubNm4cNG/biiy/ec889WVlZjY2N3pbs4ODgn7Zm7Y/OXiI6VGF79mBTsJyIVkswDF1tdn50yRirlShpP5yC6+vrz549m5WV5ZeyttVkOvLV3uSx41V6PULI0NR06sD+YQsW4321D6/ZbL548aJGo/H9fHqiw+6+kI/RLDN6/K27IJq2f/mJbPZCP7dweTyemkrHnu32nZ9jGKG+b1ngzHukwSHeQX+CIJhNppIbNzZu3PjOO+8YDIYlS5Y888wzw4YN+1bzkF6vHzVqVF1d3ccffyyVSoOCg++EFe8ZhgkMDMzLyzMajcnJyd4oFhsb+9prryUmJnZ7EBFF8eOPPzYYDE888YR36125ciU/P3/27Nl+m5Ydsk7XSo/JZPLjLAsOTqizeKJUFEVgCCGXR6wxc5EqqgcHdv8XbrdboVBERET06Cp0XUo+WERExNNPP71169b3339/4sSJo0aNUqvVnbGA5/m2trbKyspTp06dPXuWpunZs2dPmTLlJ3c5x3F85syZqQMzVn+0rfyTfffljEsI0XSW2X7aZ9tutzc0NBQUFJw8edJkMo0dO/bPf/5zZ10nNDT0ySef3LVr1+bNmysqKqZNmxYZGemDO2zvom4nquwpeiZI7ufPu8lkkslk/loGwWA0tpIS4eYh3dTU3EpLiT68JoPL5fJ+0v1RSRGQKGLfHE+AsTKRcyNBQD6MoaLdxre3ijYrQgiTyojAYNFicezbhSQS5a9XkTFxCO94MwLvsbS0VFdW7N1/4Py16+Hh4Y8//nhmZuYP3HFptdpVq1bFxsZu/uTT4qqGeXNmRYUG4v7utBQXFzdjxoydO3fGxsaOGDGCIIiAgIDHHntsw4YNycnJ3ZtFqqurDxw48NBDD3Xm7HPnzkVFRXUu/gWhx58EQTAajUlJSf56AzVm7rW81hcnBAXKSIRQk83zyvGWv4wPDFP6+rxsNpsZhvHxbH5qtfq+++7Ly8vbt29fbW1tdnZ2dHS092NTXFx8+vTpyspKvV6/aNGikSNHdks35LjoyH8+/eimry9tOFk2dmD88ChlgPRHfyJEUTTb7KXlFVcvX75+9QqGYVlZWWPHjv1uIJPL5d45IT/77LPq6uqZM2cOHTq0p2MljqFYjSRYQR6ptM1O9vPiA0aj0Y+hp81odNAsIjo2eG1zs0ul8eUbKGt3EziKUHXcxVjdQkmbK0XPMKR/roLe0OOXJSkwSoIplHx5qeh0YExHk5CnppIIDPZl4hHMRtfp41zRVdHpRAhDFCXp158ZP0mxbEXXtyG6Xa76utbS4qtnz16vrpFHxz355JPp6em3c4akKGrOnDmJSckbtn316kc7F8+YNCg+TEb788qL43hmZmZZWdnBgwfDw8OjoqIwDJs1a1ZeXt5//vOfRx99tLv6eDQ2Nm7cuHHQoEGZmZneU2VdXV1JScnSpUv92NgHoefbocePfXruHCaTiWVZ309hLJFIxo4dGxgY+Pnnn2/atCk9Pd1sNp8/f95gMCQmJi5dujQjI6N7b0xZmvrVpCGnKo1Ha1x1NvO4GFmcRkLe9rTX7Xb31YqGq4UlDZUlMuSePHnyoEGDfqD+hOP4yJEjw8LCtmzZ8u6771ZUVEyZMqWnDzk1gw8OZQ+W2260ufty6DEajaxUSt589YaWFqnWp61sX5VaWBJfPIAiSAwhVG/h3jtv+Mu4QMZPFTin0+lyufxS6cEkNBUV575ywXXuFJ0+FEkkfEO96/ghdsIUH57xefeFM+7L55nREyQDBokI8xRftW5ah6s19MiOXoyizfb/2fvuuKiu9P3b5k7vDFOAAQYGGHpVAVFExYaowdhrTNEkmuyaTXZ/m81ukk1MvptsTLIaW4xGE5VgQyWKXRRsiKKAUqXX6b3e3x8XCTHNKDOXXXg++eQDqHMu995zznOe932f19FUb6+uNDTUK/V6gSx07lNzJPIQ8HdqtJHhijf9pLlnS/cU19YbkfFh3r4sIiVGBoMxefLkrVu3FhYWzp07l81mU6nUNWvWrFu3bt++fYsWLXryt0KpVObm5tpstuXLl+Mlq7jvCZvNdl/G9DDp+X1wOp0ajYaQbIPBBkKUnt7VEAQhCPLz87Pb7Xv37qXT6SAIxsTEvPjii26KiCMwmCLj+vJsp+qNB6t0KX60RAn1N7ubteodZe3miqYeu7bDG0VnTBqvCJLSH60c3d/ff9WqVSdPnjx27Fh1dXVOTk5kZOSAp/jYnBjO3kAQDOGT7/XYrraagvlE9jolnPT0H727u3vQtknypNJDCOkBQBAOkJETk223Sh219wAIxswmWCShjMv0HOcxGOx11YhMjsaPAMkUEADQ+JHk+3XmM8fJKWMxi9leXWW7ed2p7IboDEZUbJgimizxeezh2Ez6iulpRdVdZxqtLTc1U+SMaCEFgQgLdfn5+U2fPn3Xrl2BgYHp6ekkEikoKOjZZ5/duXMnBEEzZ84UCh/fRqS9vf3AgQP3799fsGBB3+doNJoLFy4sW7aM2I7Lw6TnBzgcDr1eT6zS06ZzbLuhpiEgAAB6m6vb5CDkMohSenDU1dV1dHQsXLgwPDzcy8srPz8fRVG35gDCIBDIRWeHw5dbTNVKm5RNqlHaalW25XFcPPTQrndcbTVlBDLoKNSosZW0mKqVNgYJChEywsLDZAIm+Xf6K9Lp9BkzZshksiNHjmzYsGHq1KmZmZkD9Ts2ae0lzSYMA+ZE9mYUMVAoUUI9fFdndVpcGAAAAIZhnq/g0mq1bDZ7kJCenp4euVwODGEQqPQAAABRqOT4EYiv1NnVCbicIItNCgqBPBhwxEwGzGaD+QKQ/MO8I8kVltPfAy6XU9ltKy8FUZSSlkGSySEOD3jiDDwIBNNChH7ethO1hj23ta16x1h/OoGmWbGxsU1NTUeOHJHJZDKZDIKgxMREm812+PDh7du3L1iw4DHymjEMa2pqys3N1el0s2fPjoyM7IvgX7x4kUwmJyYmEvvaD5OeH62JAAAQa8dMQ6EwLzILhQAAUJqdFV3Woab04FsjhUKh0WhjxowBAGDr1q1SqdQD43KpcEYgo9vk4FDgA1W6S00mHyYpO4wJAIDG4rzRbkn2ozVobN/X6KkINC6ALuOiEhby2H0dQBCMjo4WiUSnT58+ePDg/fv3582b9yR59C4Mq1fbzzQYbnVYGCiUGfSjTmoBHJKcj55tMOJLd2GdwY9NChdQPDzFJBKJZ7Ljf/a9YrFYxCo9F5tM9WobbmOus7qcLsKav7pcLrwvCiE5PQAA2O/X2W5dp2XlkBRRAADY66oxkwnwZJYVBIMggP241yZmtwMwAoAgzOFR0jMhNhdiMAewmgwCgUAOOjeSXdxkunDf6HRiEhZyss74lIIV5kUGQUBvc52qM4R6kRkodK3VHC2iyHm96/CW66poEWXUwLUnIpFImZmZdXV1X3311d/+9jcymYyiaEpKCpvNzs/P//zzz8ePHz969OhHp8Vms/n777+/ePGiVCpdunSpv79/33RzOBy5ubmLFi36XZW2w6THveju7uZwOCRCqznYZCjZlyagwwAANGvtJ+sMRG0P3t7eRJEenU7XX2fyZONiMgL2xdozZIy9dzQpflQv+g/TxIdJejqCzSbDHAo8IE3DvL29Z86ciWc3r1u3bsWKFY/RHczhdNW0a45W9lTqEF8e/SkFK4RPFtB/NLtJMDhaSi9rt3QYHAAAMMnwvy71TJUzZylYntHY29vbOzo64uPjicph1Gg0YrG4v9Lj5eXl4WsI5qHpAXQ8k7lFZz9eayBqqXE4HPjpgphNCMNcqh7H/ToA6xUeTfu/pU6ZAYt9PHYJEJsDMljOliaXQQ8xevd1240rJLkCAEGQzkDoDHeMC4IAjwpPCGLI+SiVBFUrrfeU1p03Ne9keKMwaHdi9WqbNx0BAKxObfXn/LAfVXRbvQc6/YvJZC5btuyNN9747rvvFi1aBAAAiqLR0dESiaSkpOTAgQNnzpzJzs5OTk7+9bOKxWK5dOnSwYMHQRDMzMxMSUnh8Xj917GzZ89aLJaMjAzCN/ph0vMj0uP5RfCn8wGGesuMYYJKG202m8FgCAoKIlDp6U+5Ojo6CPERCOCQYJC+uVT91zE/6AE8GsyjDbCFAJVKHTlypK+v7zfffPP2228/++yz48aNe8Sb73S6Kqprd58orlY6Y2OiXhwRGuLNoKNQH49J9qUliKl9F782xcuBYSwy5E1DRAzvzy4rK7utq5J43nTErTPryJEjBQUFjY2N9fX1ZDJ54sSJHtZ7bDabXq/vC65hGKZUKj0/34UMJFZMoSAQAABMMnSijjDSg/cZ7Osb5WnO43C4tBqQhOKhJcxkdHZ3QGyOJx16QDIFjY4zHsq1FB6ljMsEIMhy4bT1ykXOmx94YHQKAobwyQAA1Kqs8SJqRbflQqNxgozh+Wfh7e39+uuvr1q1KiEhQaFQAAAAw7BQKJw6deqIESNOnDjx2WefrVu3LiUlJTU11d/fXyAQMJlM3F29u7u7pqamuLj4woULvr6+2dnZkyZNotPpP12+NmzYMGfOHMJlnmHS8yP09PQM8cRGHEajEU9vJCQMYbPZjEYjk8nEpw2GYUQ9FwgAlsZynjnUeqPdTH1g4eOmJRmGYalUunbt2v3793/00Ud3795dsWIF7pf6KygpKdm0eXNVY0f27LkfPT9N5isEf6IRkRGQ/KAiGgQA5oMEAhgGZFz0vQnCbddVr3/f9FIiNylg4CML3d3du3btKigoCAoKeu2116Kjo0+cOIG7b7/22muelHz0er3L5WIwGPge39nZCQCA50kPCAAQCOKMlFi7FrvdbjKZPNOB7ueEJjtmNoFMFn4XXHotiJBA1NP5rWhUPEhCTfnfGQ/uBTCMFB7FeetDxC/AY0fc3m0YBp6J5350qSfVj0bI01AoFK+88sof/vCHgwcP9plKoygqkUiWLVu2ZMmS27dvnz59+uOPP+7o6NDr9WQyGYIgs9nMYrFkMllaWtrmzZtDQkIg6Oe93q9evdrc3Pz0008Phg1umPT8aIEmlvSE8Mmbp/+g7krZpK0zfDx/GQaDAUEQosxDDQaD2Wzuo1wdHR0gCD5JHcETrYkw+PJI/pc31MvjPLE3oCg6f/78kJCQf/3rX7dv337rrbd8fHweYgb4XlVUVLRnz56mpqY5c+b834dzHvv+0EnQyiTeKZplw5GSCQrvrJEKNoP2hAnOTqfTarW2trbu3bv3/PnzCQkJH3/8cVRUFM42Zs2aFRUV9eabb86fP//DDz/0mAGmXq8nkUh9ZSNtbW3e3t4eTuWmIlD/ch0YAhkoYU51drvdYDD4+voSMjrmcLjMJojRm07k0mlBOh3wfNwTBEmKKLaCyApqAAAADFB4kUdLaVtK1Qujf0gqbdba3z7b1Wfj1GV0jgt0l1Iya9asS5cuvf/++2+99Vb/HA8QBGEYjo2NjY2NXbt2LYZhRqNRqVQCACAQCB6lfbLL5dq5c+czzzxDVOhgmPT8GukJDw8fvg8GgwGGYaKaAxsMBhRF+0bv6OggrFUTAAAAkCShFjUaj1brPVZbmpCQsGHDhvXr17/00ksvv/zyqFGj2Gw27vjc2dl59erVwsJCq9U6derUmTNnPrlcTEagKVE+Eqpr56HCprvlsyaODpYFPl5mG96Co7q6+tSpU2VlZWPHjt22bRvuMNkfwcHB27dv/+yzz/74xz8+88wzaWlpbDbb3fzDaDRSKBQEQbq7u1ksVnt7u+fbQD4T/yPqHMRF/5VJWCtKh8NhMpmIqttwORxmk4kskvQSZZ0WozGAodoPBMeKeN6LR9tiRT+cNn2YpNnh7BhR72L411Mdbr2AN998849//OORI0dmzJjxSyosCIIMBuM3RWi8Q6LD4bDb7ffu3ausrHzvvfcGyX0eJj2DSOkZJNDr9TAME6j09B+9o6OD2B7FJBicGcZ660xXIMdzGe58Pv8f//jHd999t3nz5tu3b0+ePNlisdy6dau0tJRCoTz11FPp6em/ue48OiAIjAuRei3O2rsvb/OmzVMmZyYnJz96UQ9++Gttba2oqLh27ZpKpRo1atTq1at/ZTbRaLQ///nPhYWFe/fuvXfvHp7K7dYaAhiGGQxGWVnZjh07Ro8erVKpiOp3OEhgt9uNRiNRpMdut7fr9AJZr9SjVatNZBoDGtKsh0WGFsdw9t7R9lnwQxBARyEOpffIh7i5HxGbzX7xxRe3bdsWHBwcHR39KP/E6XTabDbrT2CxWLRarVKp1Gq1hYWFMpmM2LLoYdLz8+jq6iI8kXmQKD0IghCo9PQfvaOjQywWe/4yFF5kCZMEAiAIAP5s0oIots7qoiCeE5xgGJ43b55Cofjqq6/effddgUAgFArnzp2bkJAwgHSnP/zEohefW/7999/n5+c3NDRkZmb+Zq9ZDMM0Gg1+kqupqYEgaOTIkWlpaQ8VbvwSJkyYEBgY+O23327bti1z8uSkxESmG341o9HY0NBw584do9HY1tbG4XCOHDlCJpNTU1NdLpcnRcRqpbXT4EjyoeEBC4PNVaO0KQSoJ9+rQUJ6rHZ7i1bPfRDe6lKpHWSqz9BWegAAGBtAO3/fWNNjHRdAQMIvCIIRERFjxozJy8vz8vKSSCQ/PC+r1Ww2m0ymvv/jXxgMBq1Wa7FYzGZz3/8tFovdbseXcSaTGRwcXFdXZ7VaifUkHCY9P5mEVqtWqx1Wen6qtXgYZqOBgiA06gOlh4gwBAAAU+Q/WFNQSdBMgrpWRUdHv/HGG4WFhaGhoXFxce5eNeh0ek5Ojr+//8GDBzdu3Dh16tS0tLRfEmDa29tv3rxZUVGh0WjYbHZmZmZcXNzv2kQhCJLL5S+//HLB998fP1PUrDRljkkWeXEGKtSl1+vLy8tv377d2tpKJpNjYmKSk5O9vb3v3Lmzb9++69eve3t7jxkzxmMVJSfrDOfuG9eMBNL86QAAdBsduRXaV0fxKQxiSA+B4S2zzXZfq49m9k6rlh4lg83GhiTpkbJRMgzh1QZkGFoSy7ncYvJhIVQESvKh9W8SnBFID+K5Ny2GSqWOHz++paXlq6++SkpKcjgcBoPBaDSaTCaHw+F0Ou12u9PpxENXTqcTgiAajcZkMoVCIfMBWCwW/gWdTkcQRKvVLlu27MqVK7jv2jDpGRTAMOzkyZM41R2+G8QmMmMmI59Moj/oQWjq7opKTPL8ZVxoNNJIULyYiqfytOkd11tNGTIGA/Xo/gSCoFgsXrp0qSdHTEpK8vX1PXr06O7du+vr67Ozs/tbBrhcrvr6+suXL9+5c4dCofj5+WVkZISGhj42deDz+Tk5ObI7986U3dt5uix7dEyohAc/WQqVUqm8fPnyjRs3bDabt7f3hAkTIiIi+Hw+PsGjo6P9/PyOHTt29OjRurq67Oxsz7hfAgAQLqB8V6GLFlLYFCI3eAzD9Ho9hmFEVW8ZbbYajRZ9QHrqe5ShIgkID8X9KJiHBvNQiwO7r7EFcNAwL3KYV+/ZRvhjV54ZYZ44egkEgvj4+PXr12u1Wl9fXzyRmUaj0el0Op3e90Xft1Qq9dflUjabPWPGjC1btowePZrA7Mxh0vMDmpubDx48WFRURKPRtmzZsmLFiqHcfgvDMGLDW6jZLCST6Q9Gp6h6ZD4EhLeut5n5VCRWRMGra7qNjrP3jaP8aB4mPURBLBYvXrw4ODj46NGjNTU18+bNi42NdTgcVVVVZ8+ebWxs9PLySk1NDQsL8/f3f/KiDBqVmpwQLfH1PVvZtru0c4wJmShnP14CQ1Nb54WLl65ePM/hsENDQyMiImQy2U/zk7hc7pw5cwICAgoLCzds2JCTkxMfH++BOrJoEflut+27Ct2zCVwCn6/T6VSpVHQ6nZCzDYZhKq1O68RYXC5+MQ0qdSiD6bGUHoPNVdxs4lDgET6968yJWgOVBKZK6TBBx94WnX3Pbc3fxnoTPvchCCKTyUFBQdnZ2cHBwVQqlUKhPKHGnJWV9dVXX12/fh1vtz5MeoiUNI4fP15QUODj47N27VqHw7Fjx45PP/101apVhOSRDAbgzoRsNpsopYdmNZOoKPlBeIuj7ZGIxMAwPA4KhTJ27FiRSLRv377PPvssJCREq9VqNJrw8PDZs2cHBgYKhcIBPLdBEBQo9uKxWbc6TEdrTXeV9hUJPOYjU0wXhtV1aAuvVVTcuePLAKdnTw8OCpJIJL+yWKMompyc7Ovre/z48W3btk2ZMiUzM9PdoS4UAhdGs/96unO0P40ME6Yru1wujUbD4XAI0bZxykWh0fBFRq/Xa01mBpvtMd8mqxO712MVMUl9pOduj5VFhlL8aES5J7Xr7Z0Gx2CY+C6XS6vVcjichISEgTr6enl5zZo1a+fOnUlJSYSHU4Yo6XE6nTdu3NixY4fdbp87d25cXJxAIMDF3q1bt3788ccvv/zyT0tthwJMJpPNZqPT6YT0CnDZrCyrCWGzSRQqAABOi8XXbuERZNIzDAAAdDpdV1dXZmbmoUOHRowY4XA4EhMTR40a5SaZmk1DUwJIAXz6vjvaP53o+EMyP9TrN46YDhd2r8eWX6W639oZzqY8N3uynxeby2Y+ygsMw7C/v//ChQtlMlleXl5NTc3y5cvdmtiHAYCESZobydlWqn4hkbDexjjpIUrSxkfva+2s1Wpxl4qhnF3QY3IK6INiOzYajV1dXd7e3gN77l28ePGcOXMqKioiIyOHSY/HOXV7+44dO4qLi6dNmzZjxgxvb298fQRBUKFQvPrqq1u2bPnoo49effXV4ODgIUh6XC4XYWbhFgsfcyEMBghBAAC4tKpgConCISYQkFepPVat6z0aOjAphzTUXgYMwzo6Omg02uzZs7OyspRK5YYNG2AYdmtgHoFAKZv08kj+hfvGfxf3/DHFa3+VDgHBFxK5eB7M7lsaMgI+HcF2urCyDkvuHW2b3j4ukD5vSpiYgaDI72vfAoIgk8nMyMgIDg7esGHD66+//pe//EUulw/IBowBQLveXlCtl/HQjMAfCtOmyBkXm4yFdZ4zf/rpqU+j0RDS3aVv9L50ImLbGw8SdBsdAtqgyOM2GAwqlSokJGRgOSifz58wYcL+/fsJJz1EJihgGJafn3/w4EG1Wu1yuTDM7Q2HzWbzkSNHVqxY0dbW9q9//WvlypVisRiGYdxdG8MwCIICAgJeffVVLpf73nvvVVVVeeCqBhXMZrPL5XoUn023vBIWMwRgcN/oKqVIJCZKcM4KYf5nquSLLJ8vsnxeSxUg0JA7hmIYplKpvLy8SCQSk8m0Wq39TY3dCioCTgpmfDpVzKHALgy72WEubjb1EmMnZnViAAAU1BjeL+pOkFA3ZPmsiOcFcikUEvJ4DscIgshksnXr1o0aNeqFF144deqUy+V6IjEDw1r1jo8v9bx0rL1N7/Bjof3XERIELo/jHr6rtzowldlZWGeo6LZ6cqHBtRaisph/qvT0bzDsGajNzi+uKqfuvo//d6BSZ3UQudQrzYNF6dHr9SqVys/Pb8A/ed68eVevXm1qahqiSo/ZbD5+/Ph3331nMpk2bdoUFxeXlpaWkJCA59YNuE0Z7tWxadOm9vb21atXT5gwof8QXl5eS5cuXbduXXR0NIIg3t7er7766qZNmz788MM1a9bgPxw6Sg+GYUQpPZjFAmAYSO0lPU6VEuIT5pxEQSAeDca5DosMAUMPOOnpC4Lo9XoURT1ptkFBIC3g8qYjTi+gstuqEJADOGh/vWRiEKPPpP/JgaLoCy+8kJCQ8I9//OPatWvPP/88j8f7XbKWw+k0WWzNSmN+lbpMS072o388SSTj9l4zA4WoD7hzIAfNDmM2aewIDDRobHtva2dHsNKkdAbZveTa6XQajcZ79+7dvHkzPj7e4XB4fnHDSQ/e2xJXejxPetgUeFkcd3pIrzPF1lIVGSHyVNPZ1jJK6DsYZr1Op1Or1e4gPQKBICkp6ejRo6tWrSIwlEnAXo5hmFarPXbs2MWLF1944YXU1NTu7u7i4uLjx49/8803kZGRMTExcrmcy+Wy2ewnnwm4V+zhw4cvXbo0YcKEd955p++E0YelS5d6eXl98MEHzz33XGpqKo1G4/P5q1ev/vLLLz/55JOVK1eOGDHCrXaxw6SnT+kBMAx8kD2HqZUwf9g5iWDSExgY2Lcaepj0PLgOIFZEadU7rreZ+xfxIhDoDle/xMTEnTt3/utf/3rrrbeWLVsWGRn5KMKnxWLpUSqr77cUVTTVaIH0kbGfp4qFjB8tGktjuf34HPjyiF42KWWjviw0/56uSWufHESXctzSkctqtSqVypqamjNnzty6dYvH450/f14kEsXFxbnJ7vJXiJdWq+0j04SQHggEqCSIS+2NKJERgk81XU11gmTiSY/NZmtra2Oz2e7I96JSqeMnTtz5zb7OHqVIQNhp1tOkB8Ow7u7uw4cPV1RULF68GM+IFIvFOTk5OTk5TU1NJSUlRUVFhYWFUqk0KCjI399fJBIJBILHOI7YbLampqZLly5dunRJIBB8+OGH5hSeKQAAIABJREFUoaGhv/SXp02bRqfTd+/erVarMzMzORwOi8VatWrVrl27Nm7cqNfrx40bN0gMJd1NeojM6bHbQDIFYrB/UHp4xMwNGRdlonDfcYRFhsIFZALLbQiBy+XCw1tEKT194FBgPzbpVJ2hVmlzYZjbut33gs/nv/vuu/v379+5c+eYMWPGjBkjEol+9myKt+Bobm6+c+dO2a1yg4uUnDp6zfxRXObvCBCTYXCanCFlI7l3tJsvNmaHMOICvSnogC3O+BVWVFTcvHmzs7MzOTn5xRdfZLPZZ8+ePXz48P3798eNG4cH+j2p9PQPbz15UfR/NaxWm6a5WsCYOAiuxNrS0iKTydyhxMAwLJeHSoIjzpdWzJk0hiixx6OkB8Ow1tbWvLy85ubmRYsWJSQkPPRrS6VSqVQ6a9asxsbGsrKy8vLyGzducDgcsVgcEBCAE6BHUZtdLldHR8eVK1euXLkCAMCcOXPS09N/kzalpaWhKJqXl2cwGKZNmyYUCikUyvLly9ls9s6dO9Vq9fTp0z18JPI842lqarJYLEQlFUI8LzQ2EfbuLdeCRWKQRMyVzPyxD1ggF30ugQcMMfw0vOWxnJ6fItKbUt5pvdZqNthcNJLbz+UkEmn27NlyufzIkSMtLS0TJ04MCwvrPy9wf7/Kyso7d+40NDQgCDJqRNLo0aO5XO7jreZR3hTJKPjAdf3W41fHBfMmJoWLvL2e8PHp9fp79+7dvn27vr4eAICEhISxY8f2sY3MzExfX9/8/PxvvvkmIyMjOjraMw8Xb/DeX+nx8vLy5JpDgcFwbzKbDPd7u8gUBCJqG+5RqWFdO5NKPO2zWCytra3jxo1z0+dzOeyExKSrNa3j9RYvFjFWcB4lPU1NTXiV+LJly6Kion7pr6EoKpfL5XK52Wy+f/9+VVVVfX19fX09DMNeXl4hISFyufxXPEJ0Ot3Vq1dLSkqMRmNcXNy4ceMEAsGjvM0wDCclJaEoevDgwW+//TYnJ0cqlSII8vTTT3M4nNzcXLVaPW/evJ9Gx/436E7ZA5hMptLSUg6H43mGB4t9YLHPD2tT2gTMoAOGQZzS07+wmbDwFr4swOD4QPr2MnWX0eFF88TChSBIfHy8UCgsKCg4cOBAUlLSmDFjmEwmAAAajebq1avl5eV4OvCECRNiY2OfPC+YTyMtT5VJqfaCU+fr7tzIGj86Li7u8QQYtVp948aN8vJypVLJ4XDS09MTEhIeMuaBYTgqKsrLy6uwsPDw4cMNDQ2TJ09+9Eazjw2NRgOCIIIgDQ0NPB5Pr9cHBgZ6kvTQUWh84I8Wt/EyIk+zPd1dbMA8GAr2zWZzW1vbbzbde2yQUVK4PLC001bWopkY/r9OeqqqqjZt2uTj47N06dJHtMChUqkKhUKhUODsp76+vqmp6eLFi6dPn/by8oqKioqMjOyfaeh0OisqKo4dO9bT0xMWFpaWlhYUFPS7cnFIJFJsbCyFQvnuu+927NiBG3iAIJiZmcnj8XJzc7dt27ZkyRJi+34PLHQ6XXFx8eXLl202m0QimTlzpl6vLysr6+rqmj59ulAo9NzpB8Ocne22smvOzjYAhGAfP3JSCiQYNukhDBqNxul04nu5w+HQ6/UikYgo10oAAHxZpJE+1K031A6XhwptQBD09fWdN2/elStXiouL79+/Hx8f39TUdOPGDTKZHBAQkJ6eHhISMoBEAYGhSUmKAD7tyNGj27ZtmzBhwqRJk3Cm9ag7aE/PhQsXSktLIQiSSqWpqamhoaFsNvuX/r5YLJ49e/a1a9cKCwvr6urmz5/vbosyJpOpUCh27NhRU1OTlJSEu6EOnWKRn0LZ081lUiGiWQ9uUeFyufq3Gh1w+PCZYUEBd1RYksXJIaIZC/z3v//dA8NcunTp008/jY2NXbhwoY+Pz8+qaj09Pa2tra2trRaLBecffWyGRCIJBIKQkJDw8HA/Pz8ej2c2m8vLy0+ePFlVVWW32728vAwGw86dO/Pz80UiUXZ2dnp6ukQieYxDEgRBfD7fz8+voqKipKTE398f16vFYrFUKr19+/a1a9cCAgKIatQ3gOjq6iooKPjqq6/a29sVCkVGRsbYsWOjo6NDQ0O9vb0rKyvPnTuHJ1R5hvc425pNh3NdRgPiL4OYLHt1pe32DTQyFiSRgGEQgerq6uvXry9YsAAAAIPBcOnSJV9f34iICE9GARAIFNARXxaJjkIgCIiYpGAeGiWkcD24XJLJZKlUKpFIzpw5U1BQAABAUlJSRkZGWlqaVCp1h/TF57DDQoIhEDx9+nRtba2vr++jLDiNjY0HDx7cvXu3wWCIiYkZP3786NGjAwMDf5OnoigqlUr9/PwaGxsPHDhApTMDA/zd8ZTtdvulS5dyc3N7enokEklUVFRDQ0NPT09qaqpEIvHYe6W3ufLv6so6LDIuisIgAADn7xsbNXY/NkqIMcX169f1ev2YMWNgQluuOp3OoqIip9M5caIbs4tIMOQAkDs9Dh4V9mERsLa7nVxjGHbs2LFdu3bl5ORMmTKl/5HFbrfX1dVdvXr12rVrnZ2dAAAwGAwymazX6y0WC4PBCA0NHTFixIgRI/r+FZ1ODwkJCQ4ONhqNSqWyvb393r17R44c2bRpk8ViCQ0NXbp0qUKheOywei8ThOGgoKBnnnnm66+/xl0KFQoFCIIhISGLFy/Oy8v74osvli9fHhYW9l+6mbW2th4/fvzSpUsikWjq1KlhYWFisbhvZURRNDIyUigUnjt37uOPP542bVpOTo671yPMYraWXcMsZvrMuZDAG8AANDxa+58PrVcuUtIzh/kHIVB1dfk+8K8zGo0YhtFoNA/nPVAQsK/kGwAABgol+xFgIkUikcLCwqKioiwWy+LFiwMDA92qTIAgyOfxsrKy8I73H3744dKlSxMSEn52UAzDamtrjx49euvWLZlMNnfu3KCgIKFQ+LsCRhAE4aedK1ev7jpwrLJVveypySz6gAUg9Hr9uXPnjh49imFYSkrK3LlzxWIxg8Ho6OgoKCj45ptv7HZ7UlKSZ4pkbU6sRmmtVtp8mKRxgXQAABo1dgAEUjGMEFewnp4eHo9HuCG1y+WqqakJCQlx90DBfJRHhe90WSK9yVSSp+vm3Kv0OJ3Offv27d27d/ny5ZMnT+6rCTKZTOfPn//ggw+OHTsGw3BKSsrMmTOzs7MnTJiQnp4+fvz49PT04OBgnU5XWFi4c+fOtra2kJCQvsJREATJZDKHw/Hx8QkNDU1KSqJQKAcPHty6dWtwcDCdTn/ytwcEQRaLFRUV1djYuGPHjqioKG9vbxAE2Wx2cHBwU1PT999/7+vrK/yv6pDgcrmam5u3b9/+5ZdfAgAwb968adOm4d2nH1pMQRCk0+lBQUFyufzrr78uLi4eMWKEW+MamE5ruVyEBASR40eAMAzCMMRkOXu67XcrKCljh/kHIai6UoI6HYljxuIE6H5VRbBc7uvvP2RvSGlpKYVCGT9+vGcSmxAEEYlEERERXV1de/bsQVE0ICCgPy1wOp3V1dUbN27ct28fn89fvHhxZmZmSEgIh8N5PM2ASqX6BwTERkVcuHO/8HZLsK+Qz3jSWd/T03PgwIGPPvqotbU1Ozt7wYIF8fHxPj4+VCoVhmEWi6VQKBAE2bFjh16vj4qK8kAjbrMDa1DbnRigszn9OSQmGb7VYQFAIEpIISTGdOLECbFY7Jnf/dd1uJ07d2ZlZbk1vAUAAAqDJrurstvqwyJ5Jj/PQ0qPzWbbtWvXkSNH/vCHP6SkpOBz1el0VlVVbdy4saWlZfHixenp6Ww2Gze2f4ipyGSy5OTkZ555pra29ptvvsnKynruueeWLl3af3uGIIhGo9FotBkzZrz11lsWi2Vgs4w5HM4rr7zCZDJXrFjx+eef483SvL29ly9fvmPHjo8++mjt2rXR0dGDv2UMhmE43cHpy5tvvhkSEtI/gPjzh2wKJTo6esOGDR999NGSJUv+8Y9/xMfHu+sKHU7AZofY3P4nLUQgst0qHSYfRAFS9QSLe9PXXGaTNwnhedzLoMvoyKvUBnDQqfJeuXf9ZaWQDs+PIiC+rFQquVyuJ3cmGIYlEsnKlSuDgoI2bNhQXl6+du1aJpPpcrmqqqq+/PLLioqKiRMnvv/++3jVxZOvRSQEkfn7/XnZjEOlTe8UNixOkWXIWI/hYoMBQEdX93d5B44fyw/w93/llVeio6NxovPQ+YrBYEyaNEmhULzzzjuXL19et26dB4pFIAiIEVE6DY4rLebsUILTiZRKZWxsLOH7iF6vb2tr80AEAwSAeDGltM3crHME8z3tBIK47/bt3r373Llzf/rTn5KTk/FlwmKxHDhw4Ouvv87Ozv773//+6zIJBEEQBJFIpMjIyHXr1l29enXz5s1FRUV4Z5yH1h0ymRwZGXn79u0Bp6gkEumFF17g8/kvvvji22+/nZmZiSAIk8lcuXIlhUL54IMP3njjjaioKGJjsb8i7djt9vr6erzX2KRJkzZt2vS7MvNxyefNN988duzYW2+9NWfOnNmzZ7ujNSCIwCCZ7NL/qFbLqVbC7P/63Kn/XtA1KpEsqHf3tZiFKMLyeH8SDAPsTsDRryeE3YnZXcTcENyq0fPHcRRFp02bFhAQ8M9//nPZsmXPPffc4cOH79y5M2/evDfeeGPA9WYQANg0yoJUeaCfaedNTZ3a8XQEi09FHmXSYxhgd2HtKn3u6avni4oUIsa6Dz6MDFf8+goJw3BgYOCWLVs+++yznJycf/7znx7wg+VTYSmbdLHJWKsiuFa8q6uLz+cTK/MAAHDr1i2pVOoZkzYmCq8eyQcAoC+JyuHCXBhAgkCHCwNBoK/tj82JQf2+HYCDxICHtzAM6+rq2r1799WrV19++eWUlBT8WarV6q1bt+bn5//1r3/Nycn5veXQPj4+U6dObWlp2blzJ5/Pl0gkD0Vk6uvru7q6UlNT3fGEwsPDg4KC1q9f73Q6g4ODyWQyDMNxcXE2m23Lli0ikWiwtWS32WxqtfratWtbtmzZtWtXfHz8O++8M3Xq1MerqoUgSC6XR0ZGHjx4sLy8XCKRsFisAeZ5IOjs6rDX3iWFKCCUDGCYS6c1HfiWnDqWJJMP8w9iTn5H8kQjkqk+fgAAmBtqwe4uQUQ02bM01Ghz3emycqlwX7v14mYTA4ViRJ4uIsMwbN++fQkJCUFBQYTsT59//vnYsWNtNtuBAwfS0tLCwsLmzJnjvkpSGASlHFThRSlqMl5tNfuwSVwq0mlw2FwY7pOEAYDR5rI4MLyBg92Jaa2uez3WXWXK3UV3fTjkV+ZkzpueKRJ6P+LtwlMd8JVWpVIFBARQKJQBvNUuDNDbXBAIWJ1YVbeVS4GTfWmV3VaV2am3uVAYJCS8ZTAYDh48OHPmTMLNUA4ePCgQCFJSUjzB80yOD4t6LjYZwwUUBgoBAFBQY8i/p5PzyV/d1PSYnH3z/d8lygaNfQDn+wArPS6Xq6mpad++fXV1dS+99NLIkSP75Lv/+7//U6lUH3300WOrZyQS6fnnn+fz+V999ZXRaJw0aVL/yHpCQsLOnTvd95DGjRuHougXX3yh0WgWLFjg7e0NQdCCBQuuXbv27bffpqenD4ZdCsMwk8nU0dFx+/bt4uJilUo1ZsyY//f//t+T15pBEBQTE/O3v/3tm2++2bhx47Rp00aOHMlkMgdK8gEpVDQ20V5XYzq0D42KBwDMduMqzPeipIwDhkEQBDo1w6u3DQjVahGgCIVGgLWG3YW16e0VXZbexcTs8KYTIKwaDAar1UrUiRzDMKVSyefz33vvPRiGlUrlqlWrZs6c6dZBQQAI8UL/mOy1v0p3o80iYZCezW8J4ZP/OV5IJ0F2J1ZQo9dbXcvjuO16+50uy7VWc7PWniqlPzM/Sch6TN+d0aNH+/r6fvHFF5988klOTk54ePiT9z+2OTGlydmstV1pNU+VMzk/dJ8AMwLp++5oDXZXhIAMAIDW4mR7to5arVaTyeTB0OaovLx8/vz5HhuOSYbK2s3lHWZeIAP1YIhrgEnPvXv39uzZo9fr16xZ09dBXqPRbNu2Ta1Wr1u3rs/S/vFApVKfeuopFEVPnDjB4/FGjhzZ967ExMQ0NjYaDAY3WepBEJScnIwn3H399ddLliwRCoVdXV2dnZ1r1qwZDHRHp9NVV1dXVVVVVlZiGJacnJyenv6QHdkTwsfHZ9WqVSdOnMjPz29oaJg0aZKfn99A7QGIrz/96UXWy0XW4nMACCKBQZS0CX19uIbh6TfKYYe0auRBw1fUaoZgCKYQ8DjMdldVl7VNZ8e/rVXaQvkExCO0Wi0e7SUk98JsNhuNRg6H05cqYDKZPKMN8Gnw8jgODIIQCAAACALAiVrDrH6W5XYXdr7RVKO0xompq0d6sSlPtCCAIBgYGPjGG2/s379/9+7dKSkpY8eOxetIHuPTTDZnq85erbLf7bF26B0R3mTmj5sHh/DJoV7k/ZXaYC5qcWDfVWhH+dHCvMiIp4rXu7u7KRQK4QkSZrO5uro6IiLCYyPSSNDYAHpJiznEi+zP8Zw15UCSnitXruzatYvD4axZs6avSaHdbj98+HBVVdXrr7/+hIyn907RaBMnTtRoNIWFhSKRKDg4GP+5t7c3n8+vrq52X7ItgiC4ZfOVK1eUSqVQKDx58qRYLPbki/KLRxmb7ejRo5cuXfLx8Rk/fnxiYuKT+8P+PD1nMmfNmuXr63v48OEvv/xy0qRJo0aNGpgZC4KIjx+Ss2CYcAwGuDRqAEEgFgcAAMDhcJlMIEoGiXAmZJKhKSHMKcG9h5lPLythIpIfNBoNi8UiqkOLRqOBIIjBYOB7f3d3N5VK/V2mhU8CUh8DwLDlcdzN11XxYoqE2XvgJMPgBBl9RhiTRhowpsDn8xctWnTp0qXCwsKmpqYpU6bgtRePfgjUG833WrqqOk2tNgpIZoR7UxfHcLzpCAAARrsrQkDh02CcxI2XMcwOVxAXdbgwkwPbdVOTHkhPkdLZZPe+Z2azuaGh4cSJE62trdXV1Y/YZMlNqK2tpVKpP+ui57aDOhAnppa1m880GBfH/PBkLQ7XrQ4zAPQakDaobYIBVXYHhvS4XK6TJ09u3749MTFx0aJFYrG4748qKiouX768bNmyAcwJ53K506dP37FjR1FRkVAo7Jv5ERERVVVV7iM9OO+JjY3Fayzx5vBZWVk0Gg0gGjabrbS0VKFQLFu2zN1LIQzDo0aNkkgkx44d2717d3V19axZs/4H3BqH8aNJ3dMNcXh4MR1mtWAWM0SngwgBIjwIgCgM0tEHVqUw6O6Go79EO2g0GlFhCK1Wy2Qy+0bv7u4mytkliIeO8qXtr9Q9l/DDsQonEwOsBNBoGRkZEomkoKBg586dY8eOnTBhwm+aBWAYplarr98ou9PQpgdoXj7S5CCvaD8et18iNp0EpUp/WLS9aPCy2N7f5bkE3uk6w+UWU7PWPjGIHsAlu+MWG43G27dvl5aWdnR0kMnkuLi4ffv2dXR0zJw5kyjH87KyMrxm3mAwtLe3+/n5eeBKEAjMDmOtL1FWdlv7fujEAL3V1W109lJDuwsYUAP2gXlT9+/fv2fPnsmTJ8+ZM6f/5mc0Gg8fPqxQKBISEgaWw4rF4tTU1Pz8/KSkpL44mkKhqKysdPdzgmEYZzlXrlyhUqmRkZGDwUAdwzAQBCMiIjx2+JNKpUuWLCkuLj506FB1dfXChQv7HsQw/hdIj7ILCeq1KcOsVsDpAKn0oXxDtFotnU4narJrNBo6nd5Henp6egQCAVG3YkIQ44trqiutZg8sthEREQKB4Pz58wUFBdXV1UuXLv2VoF57e/v58+dv3LhBoTOCFFHpUdFBUgn791gsUhFwspwh5ZDO12l2FXdMlHMSZEIUGTClAXc2v3z5slarxduYREZGQhB08eLFAwcO1NbWLl261M/PjxDSExcXBwCASqXavXs3n8+fNm2aB2oV/Vik8TL61zc1fTSURgLDvGjTHlhUdBsdA3sJAzOBm5ubhULhokWLHtI8bt68qdFosrOz3VEFFx8ff/ny5eLiYqlUive+iYiIOHLkiMPh8MDCZDAYLl++nJCQQODS0x9Op1Or1Xo4/59Op48fP97f3//IkSMff/xxdnb21KlTiWpIOYwB3m+kgQxpb5AapNJIIeEgjQDSw6HA2aHM/m3Vn1Kw8HIhz9MOBoNBlNLzU9IzINkCjwcvGpwRSD9Ra/BlkTzwLLy9vadPny6Tyfbu3fv666+vXLkyMTHxoSNfTU1NYWFhWVmZv78/Xtrm4+NLe6y8ewQCI70pQhrvfIV+/9lr9xv4U1Pj2IwnffnVanVhYeH58+chCIqLi5s+fTrezghnFVlZWQEBAbm5uW+//faiRYvGjh3rSRkPw7Bbt24tW7YMAAAvL6+JEyeeP3/+k08+GTNmzKRJk36lcduAID2AfrHReLbB6MtCAAAAARCBwL73CoYGWNkdGHIQExNTWVn5EONxuVwlJSVyudxNFZ4MBiMtLW3v3r0qlQonPXg8sqWlxQMF5GVlZTabLTIyksD+iw/dbY1G4/miRwiCQkJCli9ffuHChby8vPr6+iVLlgwSIjiMJ1oaJH7Ag1QtkEJBYxMJcegnI2Ag90dpNEE8wrJqCAxvPUR6uru7Q0NDCXs3IDDSm3Krw1LUZJzgkf7kFAolPj5eIpEcP378nXfeeeqpp+bPn08mkx0OR0VFxaFDh2pqaqKiop5//nl/f38+n/+EjwkCASETzYoL8GeA+48U1Ny8+uzieWKx+PGISFNT07Fjx06ePCkQCMaPH5+UlCQQCB7KiCeRSHFxcWKx+Pvvv9+4cWN1dfX8+fM9Jtvfu3dPo9HgKSg0Gi05OTk0NPTGjRsFBQWXLl1aunRpTEzMQKVa25xYq86usTj7fkIjQSvieS8fa8dJj9vf3gH5lMjIyOrqapfL1Z/ctLS0qFSqhIQE9z25mJiYrVu31tXV+fn5wTBMoVD8/Pxqa2vdTXqsVuvly5f9/f0DAwMHiR2z2WwecEPqRwePx5s6daq/v//58+ebmpqGSc//AOy194yH9jru14EoBY2Op07KQnz9h/IN0Wg0UqmUwJweGo3Wp2HjTToJvBs8KpzmTytuNnlsRLzr8/z580NCQv7973/funUrPT39zJkzbW1tY8aM+fvf/y4Wi2k02gAesGlkUqJCJhXM27ljx2uvvfbnP/85Ojr6d8knNTU1ubm5RUVFMplszZo10dHRDAbjV3LhRSLRvHnzgoKCNm/eXF9fv2rVKn83d31RqVRHjx7dtWuXwWD4+OOPcSdeGIYFAkFGRkZ8fPyJEyfeeeedpKSk1atX4+LCE22dDuxUveFknWFeFPvZBG5fpXogF92V40uGQRoKrYjnwv0S4lcm8Qa2nn1g3g+hUEin06uqqvr/sL6+nkwmPzY7fqSXkkaLjo6uqKiw2Ww4Wfb396+pqXH39Kuqquru7o6KivIYE/9NdHZ2IgjipnL9RwGKorGxsWvWrHFrIvkwPANbRbnmn38mR8bx3v+M/cbbAAgYvt7iaKwfsjfE5XLp9Xpiw1v9R+/u7ibkaJG/MAAPNYIgECumfjPbb3kc15MXQKFQUlJS1q9fbzabP/3009jY2I0bN7700ktyuZzBYAx4SAGGIbHQ+/U/vTZv3ryXX355165dj/KvHA7HnTt31q5du3Tp0ra2tvfff//TTz8dO3Ysj8f7zeo/KpWalpb23nvv2Wy2P/3pTyUlJU6n0x13sqOjY+PGjbNnz7548eIHH3xw9uzZlpaWmTNn5uXl2e12fD8VCAQLFy7csmWLxWKZMGFCXl6ey/X4buh2J/Z9jX7fHe2CaM5IXxoDhfpIDwQCXjSYSYZgEGCgELVfzJSJQrQBbUo6YGpSbGxsaWlp/+LtxsZGGo3m/aBLs5sQGxu7b98+m81GpVIRBAkICDh37hye1eumER0OZ/nt23QGY1B1We/p6elfNEcIQBAc/G3IhvEoR1Rj3i7a9NnUabMAAIC4AG3608bvdtluXEP8AgCizfIJgcFgMJvNXC6XkERmDMMseh37AenBMExFUE5P/zM3+ONvPbnOCASCtLQ0oVC4fPlyD4wIQVB2dnZMTMzrr79eVlb2+uuvCwSCn4Z7HA6HyWS6devWnj17KisrR4wYsXnz5oiIiN8bGAJBMCAg4O233/7222/ff//9BQsWTJkyhc1mP/nqimGYxWJpbW3Nz88/f/58cHDw+vXrw8PD8bf6P//5z4ULFz7//POTJ0+uWLEiOjqaTCbj7SbffffduXPnfvDBB8ePH3/xxRfDw8PxP3r0oS125/5K3cl641/SBAoBkXmfAzaBY2JiiouLlyxZgn/rdDp1Oh2DwXC39iAWi7VaLc6FEQTx9/dXqVRardZ9FdSNrR3VbeqkpFHu5nO/C0Sd/IbxP6hqmIzO1mbK8hd/2Or4Xoiv1NnR6jLoIRZ7CN4TnU6HIAiFQiGE1luMRq7TLuFzcdJjMho4TpuACNLTqLGLmQh+QHdhgNbiBACAS/W0sZ7dbjeZTG6yIvsl+Pv77969+z//+c+bb765dOnSuLg4fHfDffBVKtWVK1cKCgra29tHjx69evXqsLCwJ3lbmEzms88+K5PJvvrqq3v37i1evDggIOCxE2ucTqdarW5ubj5x4sStW7fCwsLef//9sLCw/h8IQVB6enpUVFRubu769esTExOnTJmCNwMBQTAyMvLLL7/Mz8//z3/+ExcXhzvTUh/NPLZHa9h+sbbWSPn7RNlDKXr/xaQnOjp648aNTqcTv4lms9lkMvn4+Ljby4vL5RoMBlyOA0GQxWLxeLyGhga8+m7gZR6n615rD0bnx8XGDqpFmdgS1mH8T8HhADAMoNJ+dPYkkQAMA9yjtA/oJ4//AAAgAElEQVR+6PV6FEWJqky0GfQ+VDLnwQaj6+wM57KpRNiDvXi09bOpEjyX3Gh37a/UgSCwIp7r4cvASY/nvcFIJNLq1avPnTuXl5dXV1eXkZFBoVBaW1svX7585coVi8WSlpaGt4YdkOFgGJ44cSLeivXdd99dtmxZYmLi79URrFZre3t7TU3N5cuX6+vrY2Nj33nnHbn8Fxsa8vn8559/Pi0tLTc39/PPPx8zZsyIESP8/f1hGCaTybNnz05OTj5w4MDWrVtHjhyZmJjo4+PzKzFfDMPqm9u2HSs2IKx354wRslHC5/KAkZ6goCCdTtfZ2Yn3ObdYLBiGUd3fQ4DNZuMdGPBWw3hArbGx0U2kR2mwVHRZwhThvqLBxTC6u7uHbXKGMSCA6HSIxXbUV8OC3vbdmMXs1KhBGmPIdgXR6XQoihJVqokZDT40CpPaO7qtqzPKz3cov6J2u91gMEilUgK2TARJTU21WCwFBQWNjY0AANy9e9fhcGRlZU2ZMsUd8n9wcPDf/va3PXv2bN68+e7du5MmTQoICHgUDcloNDY0NFRUVNy9e1elUsXHx69YsQLfoH+TbEVGRgYGBhYVFZ08efLmzZtpaWkjRowQCAQgCPr6+q5cubK8vPzkyZM1NTWxsbFJSUl8Pv+nl+RwOMpv3/764PcsofSd+WlcxqBYPQaM9JDJ5IiICLwFN87v8POhhxYFrNeyESc99+/fd8coLgxo1Dp6AOasSB9okCWvDIe3hjFwqwKJnJpuPnEUEogQXyngcNjKbzg72igpY0DKECU9er2eRCIRpfQgZpOYRqWRe0kPrOyS+4iH8htqt9vxTmSEjG4wGO7du5eUlIRhWHNzc0REBJ1OnzFjhvuuh8lkPvfcc2FhYYcOHWpoaJg+ffqIESN+JYqi1+srKipu3rzZ2tqKl5ikpqb+3iQwOp0+efLk6OjoM2fOnDx5srS0dPTo0SNGjMAL0BITE+VyeXFx8c2bN/HuTyNGjOg/QWw2W0lJSW7ud0GKiGULp3MZtMGyvA3gZyUkJJSXl0+ePBkAACqVCkGQ0Wh0a04x8KAlTZ97EpVKFYlE9+7dM5vNA64zGe2uG512f7EgQMAabKvAcHhrGAMI6rhJLq3GfPwwSKEAGAg47Gh4NCk8ZsjeEGLDW4jJyKGQ0Qej01TdviIRUbdif6WOS4UAALA5scpua7yYAB5MLOmxWq09PT0JCQkJCQkAAOTn5zc3N/cdvN0EEATHjBkTEBBw8ODBXbt2NTc3Z2Zm8vn8h/6aTqe7cuXKjRs3dDqdSCTKyMiIiYnhcrmPvQtLJJKFCxcmJCScP38+Pz//+vXrEydOjIqKQhCEzWZPmTIlKiqqpKSkuLj4+vXrs2bNwkN7JpPp7NmzBQUFMTExs2fP5nEGUSLgAJOeTZs29ZEPGo1mMBhsNptbVwq1Wt2/khM3GAAAoLOzc2DdejAA6DI4KrqtqxL5HmvA+6jXhmHd3d0EOrQO438MEJdPf2qB436tS68DIBjmCxBfKUhnDNkbgoe3CHMbNxkQEgo9ONkjPV0UOWGlo3waLKAhAABYHC46yU6g0uNup+DfpFy4ZYlGo2EymZ4p6/Pz81u2bNm5c+fOnDlTX1//9NNPy+VynNBoNJpTp05dvnyZTCbL5fKJEycGBQWxWKwnFx1AEFQoFEFBQTdv3rx06dKXX34ZFRU1depUvF2Gr6/vU089VVtbW1ZW1t3dHRAQYDAYCgoKTp8+nZaWlpWVNdjaMg7kc4qNjW1tbdVqtWw2G4ZhLpfb1tam1+vdulI0Nzd7eXn1T0Fns9kMBqO1tXVgSY/ThV1qNokYiJyPAoMMGo3GbrcPk55hDCTvYXPQmMTh+4BDq9UiCEIU6XEZDQCJBKK9ozuVXejI0UTditFSmoyLAgBgsLnUFmIS2+12u9VqJWo3fYhyqdVqf39/z5AeEATZbPbkyZOlUunhw4f//e9/L1iwwN/f/8yZM+fOnfP19R07dmxYWJhEIhnw1k8oiiYlJQUHB5eXl586dWrdunVTpkwZN24cg8GAYTg0NDQgIMBms+l0ugMHDly8eDErK2v8+PGDx8rOLaSHxWIJhcLa2lpc9PPz86upqenq6nLrZlxeXh4SEtI/uslisXDSM7ADme3YqTrD6pF8EjzorGg6Ojo4HM5w06thDMN9m5xYLCYukdkIklDwwSrn7OqE+ITFshEIxNdABAZhIlIbXS6XUqkkkUhEKT02m81ms/VRLpVKFRkZOVBdGh4FZDI5OjpaIpEcOXLk008/NZlMiYmJzz//fHBwMI/Hc59/JgiCPB5v9OjRYWFhJSUlBw4cOHfu3PLlyxUKBV7bZbPZvvzyy7KyshUrVowcOXKQ9GhyI+nBRbDKykqc9MhksmPHjnV2doaHh7vp6nU6XXl5+YoVK/rv92w2m8Vitba2PtQW4wlBJYHPJXDjxYPxKba3tw8q06BhDON/CSaTyWw2E2bH7HRiJgPsJexVejDMpeyG+UNX1nU6nSqVisvlepJn9B+9p6cHRVGccuHmLDwez8OulTAMC4XCJUuWyOVyb29vPz+/gW3B8WukAUFEIlFWVtbIkSO/++67tWvXZmZmrly5Eobh9957r6am5s0334yOjibk6Xia9AAAoFAoysvL8a99fX1FIlFlZWV8fLybKPmdO3e4XK6/v3//h02hUAQCQXNzs0qlwvO8Hi+oiWGACwAgsLfBKwKBqVI6NCgNh9va2vCK/WEMYxgDrLJgWGdnp1qtJpFI7i7L+PkLcLnosxeBZAqAb6suF3XiNJhHDOk5tiig72smCj2bwPX8NeDNlT3sTNh/dLVa3dcdXafTOZ1Od3TAeBSgKDp27FhC7gOJRJJIJK+88srkyZPXrVs3depUHo9nt9s/++wzmUw2mGf0AJOesLCwvLw8h8OB096UlJQ9e/Y0NjZGRUUN+GJhs9nOnj2rUCge6rLpcDhcLtetW7e2b98eGRnJ5XL5fD6LxYIfAIIgGIah3m9g6BeITF6l9kCl7g/JXok+VAgELA5sTUHb39K9/VikwfYU29vbh0nPMIYxsLBYLCqV6vr164cOHbp7967JZBKLxTExMR6OI4MIgjkRl9EAOJ0ABIFkMnPV2qH8XJxOp1arJaq5ssvl6j+6Vqul0+nu9uAdzAgNDd2+fXteXt7XX3+9bds2EXF1hcSQHtwtqrGxMSgoCACApKSks2fPnjp1KiAg4MkbtD50/CoqKtJqtbNmzeqfKmWz2a5fv37s2DEGg2G1WktKSrq7u5VKpdPpZDKZbDabyWSyWCwWm8P2ErEFYg5fwOFyyBQqAkMkCERgEIVAGgqRYRAAAAYZKqjRB3BJ3nRkMD/Ftra24TafwxjGQK0tWq22s7OzpKSkpKQEgqCnn35aoVAcPXp0/fr1M2fOHDdunOfsITDM2dFmuXjWXnnLZTSAFCriL6NNewoWSYbsA8KVntDQUKIol0aj6U96KBTKUCY9AABAEDRnzpw5c+b8V1ztAO/lJBJJJpPV1NTgpAeCoGnTpm3evLmiomLkyJEDKAB2dnYWFxeHhobiVXN9jOf8+fN79+4NDw9fvHhxX5oLbtmsVCrVarVSqVQqlWqtrqG5VdOoNKEcF0tE9fKlUMhUBKQgIJ+GpPjRwrzIAACM8qNVdVuvtZonywd1se6w0jOMYTw5HA5HV1dXQ0NDaWlpVVUVj8dbtGhRn+XaypUr5XJ5Xl5eTU3NzJkzFQqFByIaLr3WfOa4q6uTPm854i9zqXtMh/bpNn7E+ct7Q9YdGyc9P7Wo8ZzSo9EoHiSq6nQ6KpU6XETyX4SBJz3+/v61tbV9P4mKikpLS9u9ezeLxerfg/1JoNFovv/+exiGMzIy+mQeu91eUFCwf//+0aNHz507t381I17m97N5RVa7U2dx6O2AxurSWV1ai9OFAX02PFQEnBHGPFyljxZSBINJ7HE6nTabDUVRPFlsOKdnGMN4Elit1qampjt37lRXV3d2dvr7+7/wwgtRUVH9kzERBJk0aZJMJvv2228/+eSTp556Ki0tzd0Vuc72VmdnG2XMRFJoOAAAsNiXvvBZ5Zrl9tq7aFTc0HxYD2ktHgbmctn0OgG/d3SDTsegUoe40jPUSU9AQMDp06f7V05lZWW1trauX7/+L3/5y5OnOBmNxpMnT967d2/u3LmBgYH4D81m8969ewsLC2fMmJGdnU175FZ8ZBIsIMG/IlVHeVPu9thyK7QrE3mD4YHZ7fbGxsZr165BEDR+/HgvLy+Hw9HT0zP4I6nDGMYghNlsrqqqunHjRktLCwiCcrk8JycnKCjol3IQ5XL52rVr8/Pzjx07VldXN23aNLembbqMBgAEYe8fZjfEYiPSQMf92qFMegjM6QFcLpbJIHmgM2EGvYBOpQyTniFLemAY9vX11Wg0SqWyL+xNp9MXL17873//+8MPP3z++efxgvbHZjwHDhwoLS3NzMzs0410Ot327dtLSkqeeeaZjIyMgS0rhUBgZhjz7bNdV1vNxPbbstvtd+/evXjxYnNzM4vFiomJwY8XarUawzDCloBhDOO/EyaT6erVq1evXlWpVEKhcNSoUVFRUSKR6DdLbRkMxvz58+Vy+YkTJzZv3pyVlTVq1Cg3VbODIAiCIABgD6kNAAgN2QdnNBqtVitR4S3I5eJZjF4PRiebjGIGY5j0DF3SA4Igh8Nhs9n379/vn+snEAhWr16dl5e3detWtVo9YcKEx/hwjUazY8eO1tbWmTNnJiUl4Vt+V1fX5s2bm5qaXnvttYSEBHdE2QU0ZF4Ue1uphihXQpfLdf369ZMnT7a3t8vl8gkTJoSGhgqFQrxErqOjg8/nE+MgMoxh/BdCp9OdOXOmqKgItxZLT08PCgricrmPvnqAIJiYmCiRSE6dOpWbm9vU1DRt2jR3GASDDBYGAM72VkTaq2q7tGrH/XrGwhVD9vF1d3dTqVQGg5g8S8xk9AUxJpcHAACAYUyriSXgk4ZJz5AlPQAA0Gg0oVDY2NiYlJTU/+cSiWTp0qVFRUW5ublXrlzJyckJC3vU9jFOp/Po0aO5ublyufyll17y8fHB9/iWlpbPP//c5XL98Y9/VCgU7rtNI3xoZxuMZe0WT6s7NlvRxYuHDh3S6/UpKSnTp0/38fHpvzpjGHb16lWinEmHMYz/LrS3t584ceLUqVMikWj06NFRUVFCofChvBy1Wn3z5s2enh6VSqXVap1OJ4/H4/F4IpEoKiqqj9mAICiRSHJycgICAo4cOdLQ0LB48WKpVDqw3hyIxBeRSC0XToEMJikoxKnsMeXtJoVHITL5kH2IPT09fD6fEF8cAABAjTqQSSfRaAAAOC1mnt3C43DgYdIzxEmPt7f3/fv3f/pHbDY7MzMzODg4Pz//vffei4+Pnzp1qkwm+xWVQqVSlZaWfvvttzAMz507N+3/t3fvYVGc9x7A35nZ+4XlsgssLCyXRZAFBQSVqAioWBov9ZLY3LSJqU3iSZ7kPG2ep3matMdTz5OkT5qaf2rradKjeIwhx4ARFXUTgyBCUImJikGUFYK4y33vl5k5f6zZEJMmmoDI+v08/iEDOD7v7sx+5zfv/N5584I9qTo6Ot544w21Wr127drAo/JjqzxNyRMiF9KEEBFDPTMryunjNfLb1GXS53Scrz+2993KL/xc0aKy+fPnq1QqmUwWPKX6fL7Gxsa33367vb193rx5eCsD/Murc56/fPlyVVVVQ0NDWlraU089lZaWplKpRs8/7e/vb25urqurO3nyZGJiYkxMTERERGRkJE3Tg4ODXV1dNTU1fX19mZmZc+fOXbZsWSD3KBSKOXPm6PX63bt3b9q06cknn8zNzR3DXrSUTC5dUO6u/8Cx65/c8AAlU4iychTrngiuw3V3VnomcJ1BZnggWqOmApHL6YgR0DK5nKIoHGWTBcVx3Nj+iyzLHj58eOfOnb/73e+mTJnyzXcDz/N+v7+trW337t11dXVqtbq4uHjq1KkxMTHR0dEKhcJisVgsls7OzqampubmZp1Ot3z58uXLl0skkuDZ5Ny5c6+//npqaur69evVanUovec4u83WcLRt7x6LQKxftipl5iypTD76NOpwOOrq6nbs2OF2u1esWLFkyZK7vDsWwHecji5evLh9+/aTJ08WFBQ88MADKSkpIpFodJ3A5XLV1dX9/e9/F4vFpaWlxcXF8fHxDMN8OZ+G8DzP8zzHcWaz+fjx4x9++KHFYtm4cePSpUuD5zSv17t3797t27evXbt25cqVY9yDn/XzfpbwHKEowggogeBufk1ff/11iqKeffbZCdm7a98ev/mScuOvCSH+LrNzb6Vkbolo+gwca3dv6CGEfPbZZy+//HJPT49Op1u8eHFxcXFg0sk3TwQjIyMtLS0mk6mjo8NisfT19RFCpFJpdHS0TqfLz89fsGBBQkLC6F8MdFvesmVLVlbW448/Pn4L7VaeHbY42DVZKrWMIYS4fNzDe7r/Uq4dr47Mfj83Muw+ZnIfPUSUKsmy+yTZufSo9g9+v39oaMhkMr377rsMwzz00EOlpaVjvpQuQCg5ffr0M888U1ZW9sgjjyQlJd14gcFx7e3tr732msViefTRRxcsWHCTM0X27dv3j3/8IzIycsOGDfn5+cETVFtb20svvZScnPzCCy+EhYWhADAeXnjhhczMzIcffnhC9m6v2EZoRvHgY4QQ34Vzrg9rpcWLhBlZeF0mi3G5YsjKyqqoqLDZbC0tLYcOHaqsrExJSSksLMzPzw/coxGLxYHTQVhYWGlpaWlpafCyzOl0fkfrC5/P19LS8re//a2goGDdunUTNZdtLPEc73Cww0Oehg89LScYTbTi0SdFmdOIQBi8iHTa7X19fbWHDx89elSlUj355JOFhYXSu7U1GcAtVXqMRuPGjRu/+Xijy+U6depURUVFdnb2/ffff0udrpYsWbJo0aLt27e/+uqrv/jFLxYuXBg4HjMyMt56660//elPTzzxxHPPPZeVlXXz7TPgJlmt1tvXEfsbuMFBoWHK9ZOz00ExDCWW4EW520NPgFKpLCkpKSkpGRwcPHHiRF1dXXV1dVpamtFoTEtL02g0EREREolk9MUQwzDfkXi8Xm9dXd3OnTvnz5//wAMP3JnL1t9y5vF63CeOuY8eFugSles3CtOmkuAkZb/fNdBv6e5qOn78g49bNAmJzz77bF5enuDuLm4D3OznE8fZbLZvPau43e6qqiqTybR06dJly5b9gJKMWCx+5JFHtFrt/v37nU5neXl5YKUduVz+hz/8Yf/+/Vu3bp0/f35ZWVlMTMxEzboN1dAzgXN6KKGQib++DADP+imJlIjQjhmh5+siIiLKy8vLy8utVuuJEydaW1uPHz8eExOTmJio1+vj4+NjY2O/t4232+0+ePBgVVXVvffeu2LFitvzwX/N7mvqdqrENCHEw/IcPw6HkFgqmTVHPGMWHfFV2wne42avXbVfar9y/ny7+YokOfU3v30hNT0d1XKAmxe4I6xUKm94VILn+dra2r179z711FM/5iEAiUSyePFitVpdXV1NUdRPf/rTYO25vLw8LS2toqLin//8Z3l5eUZGRmhcpE1shO3p6Wlvb+/v75/A0CP76c+YL9sHCOJ0hKJozDFA6PlXNBrN0qVLy8vLr169+sknn5w/f76trU0ul6vV6qSkpJSUFJ1O961pZnh4+L333quvr3/wwQcXLVp02z77rU62tdctFVCEED9HeH6MUg/Ps5Ze/+WL3PAQYRgmOkY4Nfv6d1xOf2eHr72N7el2+7wRekPZ8tUKbRziDsAPCD02m+2bN7aampoqKys3bNjw4x97FAqF+fn5drt93759gdp2INxQFGUwGJ5++umampo9e/YUFBQUFRWhtcQP4/P5Ojs7z5w509bW1t/fv3z58gkLPSzL2ka8pgPE56PDwgRJBlFWLoXSO0LP9+xSIEhISEhISCgrK+vu7r5w4UJHR0dTU1NjY6NSqUxPT586dWrg6YnAz1ssloqKip6enieeeCI/P/92/lenqsUrpoapZQJCiMvPNX3hHJtzsfmS++gh3uOhw1Q8x3k/a/W1t8l/9nPe43E3fuRr+4wOUwmzczUZRiYiiqAwDvCDP6FstmCTi4COjo4333xz1apVJSUlY3VCKyws7Onpqa2tNRgMBoMhcIlCUZRarb7vvvt27Nhx7NixadOmIfTcKrfb/fnnnzc1NXV3d9M0nZGR8fOf/zwlJWViLgJ53nXofe+5T5mYWIoR+rvN3vOfSooWCg0ZeKUQem6KSCRKSUlJSUnxeDzd3d1ms9lsNre2th47diwsLCw7OzsnJ8fj8VRUVBBCfvWrX6Wl3e5+XAxNSYW0VBg4wMbmMOPsNk9zA+92S8uXM1odYf2+z8+PbP2zMN0oNKQz6mimaKFAn0wrVQTVHYAfXekxGAyjN7777rvx8fFLliwZwx3J5fIlS5ZcunSpvr4+Pj5+9ORlmUwWERGhUqnwoOUtcblcra2t9fX1fX19Wq12zpw5RqNRq9VO4Owov/mSo2q38tGNwuwcSiTmrNecB6s9J+oZTQwdjlWAEHpuhVgsTk1NTU1Ndbvdvb29vb29ZrP51KlTNTU1AwMDBQUFq1atSkhICI0R5wb72T6LKHO6IDGZUBQhItG0PGFGlqepXmScLsrORWkHYKxCz8jIyOhKz+nTpy9cuPD888+P+bItkZGRZWVlW7duLSwsTB81/Y7jOIfDIRaL8RjXTfL5fHV1dSaTyW63Z2dnFxUVpaamBrpETux/zNP6MROjFRcUEoYhhDBxOlF2rruxju2zIvQg9PxAEokkKSlJr9dPnz59aGiot7e3p6cnJycnLm4CJrUsTFH4OD5ccv1IEwvoVxfFxsh/7IjxbjfhCR0e/lUhh6KE+lTvuU8IRaG6AzCGoeeG21vV1dW5ubl6vX48dpeXl5eWlnbo0KHU1NRgqHK73TabTSaTYSLz93K5XIcOHaqurhYIBCUlJfn5+YFFQu6QGY2c1SJISCKjmsbRqgjC87zLidcOoedHoShKKpVKpdLAYjeB1qi3/78RIf1aK0WaIqmRY9D1mBIICEXxXs/XDifbCC1D9RtgLLEsO7rSYzabu7u7V69ePU75QyKRlJaW/vWvf92wYcPo0OPz+W5pNdO70NDQUE1NzTvvvKNWq1evXj179my5XP69j/TeZrRc4e/94mtXsF4PRVGYyIzQM5bpJ/R60tDhkZRQ6O+8JMqdRQXOjCzrPv6h/L6H8XYEGEN+v9/hcARDz9mzZ7VabWRk5PhdRM2cOXPTpk0XLlyYPn16MPT4/f7J1UaV93qGX/tPaXGZuLAosMX219eYZIO09CeUSOz99LRj11u+yxcpqUxccI9sySpBwvXKmbv+A2fV2/4rnbRSJS4ski1fw2iiCSEDAwMVFRVVVVX9/f06ne6xxx5btWpV4FesVmtVVdXu3buTkpJ++9vfBtpb35kPqwqNOY5973J2Ox14NXnef6WTMAwdgXtbCD3wHaEnIlKUW+Dc939EJBbPnMN7XK7qSiYiSlK0CIMDMGaf3DxvtVpFIlHgmSme58+dO6fX67+j/ekYfC4KhXPmzKmrqwuGHpfLNelCDyGEcBwZ1aGD5zjC8YQQz8eNI1v+S7n+aVX+LM7hcB2ocvzvm/I1awX6FFfNe64PDsgfeEyUncP2WV01e2zbtih/+YxdJPnzn/9ss9m2bNkyZcqUs2fPbt68mRCyePHimpqaXbt26fX6V199NTs7e8wnWo0t0bRcUfaM4df+Q7HmF3R4hPez096W45LSciZai8MNoQe+izhvFiWVuT84ONLwISUSCbNzlb96DjVSgLENPQMDA1FRUYGygdPpDEwQHO+nqHJycmpqaoJfut1ulmVDYcEcQgjHOSp3yNesk5SUEUJopUp27yrHO//jPfsJrQp31Zvka9aJZ8wiNC3QJcqW3+94Z7u3pbFFpBwZGfnlL3+ZnZ1NCMnLy3vllVd8Pp9AIMjIyNi0aVNmZubkqOhTlOrXLzn3Vtp3/jfvcjLxCbJl94my8OgJQg98L5oWGaeLjNMxEgDj9gHNBUJP4Eu73U4Ikclk4z23Rq1WW63W4JeTtNLD+/3+rk7q7PXlnLnBAZLMcw47e/ULyeyvOjoyag0To2Wt13wXL1CMUJBsCCYAWhnGxMb5r37RI1DGxsaObicYbCIQrIdNFpRQKF/1oHzVgzi+EHoAAO6kj22eH71egc1mE4lEt2Fu7A2hZ7JWenxe76en2Wu9ga/YL7pI3kzCcYTwX1tqiqIII6B4nrAsEQpuuLQjjIBwHMeyNE1jHjcg9AAAjGPoGRwcDBYVvF4vwzC34TaKXC4PVJUCApWecZ1INB4oiVQyr1Q8c871yLjtDUIoWq6gI6J85z8Vf1ns4ew2bmiAVoUL4hOJx8P1WRhNTKDvBu90coP9dGRUlCjs7PnzQ0NDwXXsLRZLX19fZmYm3qVw+yF9A0Bohp7+/v7g7S2xWOz3+/1+/3jv1+FwBOs6gXUwhELhpAs9hKIooYiSygJ/rjenEQikC37i3PuOr+0s73ZxI8Pe5gZuaFCYNpWJixdOmeo6XOO/fJH3+bihQU9LIzc4IMrKyc7O5nn+wIEDZrPZ6/Vevnx527Zt586dw1sUJgQqPQAQmqFn9JwehULh8/k8Hs9477evr0+j0QT+7vV6bTabQqEQiUShMaqS4sWc0+k8WE0ITyialkjFs+YKDRmEEUjLf+Yy7XfurSQ8TyiKksklRQsEyQYdzaxevbq2tnbLli0MwzAMExsbW1hYiLcoIPQAAIwNjuNGz+lRKBQ8zzscDo7jxnV+yQ2hx+Vy3Tk9hW8SJRAqHnyMjowKbpEtv5+SyCiBkFKJZcvuY69+wbudFM1QYQhqwd8AAAmgSURBVOGMJpoSSwghTGyc7N5VrLWXd7kogYAOj6A1sZRQyBAyY8aM+Ph4i8Xi9XqlUqlOpwuGUQCEHgCAH8vpdLrd7mDokclkOp3ObDY7HI5xvdl0+vTpwLPZwdATzECTBk0Lkr+2SqtA99XCHbRcQRvSv/33wiPo8Ihv+ZgRCHQ6nU6nw9sSJv7djSEAgNBjtVpHL/NJUVRmZqbZbLbZbOO3U7fb3dDQUFRUFAw9brc7LCwMLwcAQg8AwHi5du1aTEzM6PtKRqOxq6trZGRk/HZ68uTJmJiYKVOmBEOPy+UKtIQGAIQeAIBx0dvbGx0dPXpLYmJicnLy4cOHXS7XeOzR5/OZTKbA6lHB0INKDwBCDwDA+LJYLDeEHkLIsmXLWlpaenp6xmOPzc3NHR0dS5cuDa4hhUoPAEIPAMC4u3r16jcfEcrNzTUajRUVFWNe7BkaGjpy5EhJSUlsbGxwo9vt9nq9qPQAIPQAAIwjs9nc1dU1NDR0w/aVK1d2dnbu379/DPdlt9vff//94eHhoqKi4NTpQGdChmEQegAQegAAxtHChQuvXLny5ptvtre38zwf3G4wGNavX19VVVVfXz8mO/J6vQ0NDc3NzQsXLoyLiwtuZ1l2cHBQqVSGTGdCgBDA/P73v8coAECImTZtmkaj+fTTT48fPy6VSrVabXDhrcTERKFQuGvXrqioqMTExB+zF4/H09zcfPDgwYKCgkWLFsnl8tHfOn36NMdxc+fOxcsBgNADADBeaJqOj483GAyDg4O1tbU2my0hIUEqlQa+m5yc7PP5amtrPR5PUlLSD1uI1Ol0Hjx4sLq6eubMmeXl5TdMWHa5XE1NTUqlcsaMGXg5ABB6AADGEUVRKpUqPT1doVAcOXLkzJkzKSkpKpWKoiiGYVJTU6Oiompqaj7//HOdTnerz1iNjIzs2LHj4MGDy5YtW7x4cXh4+A0/YLfbTSaTXq83Go14LQAQegAAxj33iMVivV6fkZFx8uTJqqqqhISE2NhYmqaFQqFWq01ISGhsbKyurna73TqdLlgK+m6VlZWbN2+mKGrdunVFRUWj72oFNDU1vfHGGy0tLTk5OdOmTcMLAXCnnBM4jsMoAEBo43ne6XTu2LHj7bfffvTRR9etWxfc7na7W1patm7d6nQ6i4qKSktLs7Ozv3VR0rNnz5pMJpPJJJFIHn/88aKiIqFQOPonWZb96KOPtm3bdu7cueLi4oceeigvL++H3TsDAIQeAIAfpbGx8cUXXzQYDH/84x8jIyODkcXpdLa0tBw5csRkMoWHh8fFxWk0GrVaTdO01Wq1Wq2XL1/meX727NkLFiwoKSkZ/W+yLGu3248ePbpjx46urq7FixevX79er9djtAEQegAAJpLFYnnppZcsFstzzz2Xl5d3w80pv99/6tSpQNDp7+/nOE6tVqvVap1ON2XKlNE/zPO8y+W6du3a8ePHa2pq7Hb7ggUL1qxZc8OaXwCA0AMAMGE4jnvrrbcOHTpUWlq6ZMkSrVb7rfezvsPAwMCVK1eamppOnDhBUVRJSUlZWVl0dDTiDgBCDwDAncXv93/88cc7d+5UqVQrV67MzMy8mVnMHMddvXq1o6PjxIkTFy9eVCqVxcXF99xzzzeXvAAAhB4AgDsFx3GdnZ2VlZW9vb1z5swpLS2NjIz8Vz/s8/nMZvOZM2daW1utVmtiYuLcuXNzc3MVCgVGEgChBwBgEujv7zeZTA0NDQkJCStXrkxKSrrhVpfH42lvbw+UdjiOS09PnzFjhtFoDK6mDgAIPQAAk4Pb7T5z5kx1dbXD4VixYsW8efMCuSewva6urqenR61WG41Go9H4gzs4AwBCDwDAxOM4rru7+8CBA3V1dXPnzl27dm1zc/ORI0cGBwczMzNzcnJSU1M1Gg3iDgBCDwBAKLDZbK2trX/5y19Ylo2IiCguLp45c6ZWqw0LC7vVx7sAAKEHAOCOxrLskSNHNm/evGfPHoVCIRaL8RQ6QMhAqRYA4CsMw7Asm5qaqlarMRoAIQYFWwCAr+nt7Y2NjcU4ACD0AAAg9AAAQg8AQEiEHq1Wi3EAQOgBAAj90BMTE4NxAEDoAQAI/dCD21sACD0AACHO5XKNjIzg9hYAQg8AQIjr6+uTSCRKpRJDAYDQAwAQyiwWi0ajQUNCAIQeAIAQN9JnNcTh3hYAQg8AQKjzDfQb4+MwDgAIPQAAIU44OIBKDwBCDwBA6FOMDCRo8bw6QGjCgqMAAF+Jsg1FaaIxDgAhCZUeAIAv8bzKPixH6AFA6AEACPHM43bzbhcdEYmhAEDoAQAIZdxgPyWWUBIphgIAoQcAIKRDz9AAHR5B0JkQIERRHMdhFAAACCFcv9V/uUOUW0AYBqMBgNADABC6eJ6wLBHgsVaA0IRjGwDueizrbW1xfXDA32WmxBLR9DzZigdpudz/RZfr0PuSuaXCtIzADw6//KL0Z2tEGVkYM4DJCHN6AODuxvPuhg8d7+0SZeeFv/RK2L/9xt/TPfSfz/M+L/H7uKFB4vV8lY76LMTjwZgBIPQAAEw+rKXXe+aUZHaRdNG9jDpaoE8J//cXeafTU2fC4ACEGNzeAoC7Gjc0QAhhdAlfTV4WCMQF93jbPhMY0onfxw7209euXv+Wz4cRA0DoAQCYnFiW0DQRCEdvo2Ry3tpLCGH7LM6qdyiFMrDdb7mKAQNA6AEAmJQouYIQwg0NEp4jFE0IITzvv3JZEBNHCGGitdLiRcIvZy4PvvgcRgxg8sKcHgC4qzHqaDpS7T37id98mff5eKfDe6rZb74kKriHEEJompJIKbki8IfQOGcCTGKo9ADAXY2SKySzi1wfHXYe3EvLFYTnuKEB2U+WCw3p/q5OjA9ASB3vaE4IAHc7nmet1/zmy7xtmDAMEx0rTJtKBALObvN3dgjiE4NLkHqa6gVpGUykGmMGgNADAAAAcIfC/WkAAABA6AEAAABA6AEAAABA6AEAAABA6AEAAABA6AEAAABA6AEAAABA6AEAAABA6AEAAACEHgAAAACEHgAAAACEHgAAAACEHgAAAACEHgAAAACEHgAAAACEHgAAAACEHgAAAACEHgAAAEDoAQAAAEDoAQAAAEDoAQAAAEDoAQAAAEDoAQAAAEDoAQAAAEDoAQAAAEDoAQAAAEDoAQAAAIQeAAAAAIQeAAAAAIQeAAAAAIQeAAAAAIQeAAAAAIQeAAAAAIQeAAAAAIQeAAAAAIQeAAAAQOgBAAAAQOgBAAAAQOgBAAAAQOgBAAAAQOgBAAAAuC3+H90b/aE2D3tIAAAAAElFTkSuQmCC;imageBorder=default;strokeWidth=2;" vertex="1" parent="1">
          <mxGeometry x="79.99999999999999" y="540" width="419.86" height="183" as="geometry" />
        </mxCell>
        <mxCell id="6Ph3FFAFWkGROpy7kaW0-9" value="" style="shape=flexArrow;endArrow=classic;html=1;rounded=0;" edge="1" parent="1">
          <mxGeometry width="50" height="50" relative="1" as="geometry">
            <mxPoint x="510" y="607.0000000000001" as="sourcePoint" />
            <mxPoint x="610" y="607.32" as="targetPoint" />
          </mxGeometry>
        </mxCell>
        <mxCell id="6Ph3FFAFWkGROpy7kaW0-11" value="Compound&lt;br style=&quot;border-color: var(--border-color);&quot;&gt;Database" style="text;html=1;strokeColor=none;fillColor=none;align=center;verticalAlign=middle;whiteSpace=wrap;rounded=0;" vertex="1" parent="1">
          <mxGeometry x="709.23" y="607" width="60" height="60" as="geometry" />
        </mxCell>
        <mxCell id="6Ph3FFAFWkGROpy7kaW0-12" value="" style="shape=image;verticalLabelPosition=bottom;labelBackgroundColor=default;verticalAlign=top;aspect=fixed;imageAspect=0;image=data:image/png,iVBORw0KGgoAAAANSUhEUgAAAXcAAADHCAQAAABIdNu0AAAABGdBTUEAALGPC/xhBQAAACBjSFJNAAB6JgAAgIQAAPoAAACA6AAAdTAAAOpgAAA6mAAAF3CculE8AAAAAmJLR0QA/4ePzL8AAB2hSURBVHja7Z1pYBRV1oafJOwRMIALIqgsskRkFR2NohBFHOMOIwJBwQkuA0FEI4pDxJFl+FTi4BIUlKCo0VEwijIB2XdEkR0hyK6sgQQCSbrP96M7ne6uSnqrXnOf/kHndvWluuqtW+eeOvccUCgUCoVCoVAoFAqFQmEwL5DLh0Q7tQ4hl1Tr+3/wHSM133uW73hKHb6qRLUI+A3xJAK/8qZDa0sS2WV9fy13cVzzvU7cxT4lgapEdMT8kvG0U6dTUTXkLtTifWLUCVVUBblnUciNjFAnVFEV5L6HMcBrxKtTqqgKtvt/WEJNpiuDRlEx1SLml5h5jF+5npFM1v38r/zk1HKlOv1K7uFs0LzIW7zKPLbofNqABup0K7lHEm/zIN3J4gZKNJ99yxinltf4q91f8fSiMXuYz24lCyX38DFoOjOSSZrPTrLRqSXf7v2LjOMgeTzKm/TnSyUMNVUND4NmNPAK13j0rW68yjSacxvNWckHNFTCUHIPF4Mml5rMpLoH37mbaF7CBBQwmfrcoISh5B4eCE9whs4ke/Cd14nnpPV9/Yg8KooIlTvkkQZc5ME3TrHVNpcZyQkWK2EouYcP75Dr1fei+ICuPEOBEoaSezgZNCleSLYGH5PMKLKULBShSyxx1NK0XkAcdWz2eGPqa7a4kMbUs/1Vj0WUMEgdTkXk04h1nOEedSAU4WW1z/TiW3XYyHEf3Y9deY/xmtabeI+xbvfRg346MZ130I/WXuzR/fTjck3rQ/TjUiWUyGC9bcGeJ4xD+JwU26uNF330Q3SWAj6OsM3tPhYhmlAHWIvwjBd7dAThfk1rIUKvqiqPauoKAR4C+tLX9ncK29VBUXKPVG4kyuHvs+qQKLlHLvnqEFQN1ONyhZK7QqGMGUXlNGKOU8sVXswjnL0wl/iwR0maJYrVldwVxlCbe33uoze9Ddyjx9RJUXL3F8cY7NRyO8M87GM5q51aBvjwWGguvzm1pFbl8V3J3UiKyPHZEJnPv5xauvsg95l87dTyZFWWu5qqKpTcFQold4VCyV2hUHJXKJTcFYpgoRyRRvE/buC8pnUumyhyu4/3mMcyTetbNGapF3uUTiybNa0vUYMd6nRFBt4t71Co0V0RJHpzgd1fu/jZJ2P1QYe/N6iEr2p0N4JnEM5zrVPrQwjrPOxpBWL3Svdxv0469NZXje4Ko6jBTLrpJNv2jLUOQQO+2tnLHSoS5qmTpEZ3o0Z3QXjZ59Fd4TeUI9JIzgBj6KAOhJJ7VWAR31ODmdTwqZcenLB7xfq4T8Ps+lqt5K4wDuFxTtKBF33q5QBxtlcJZ3zcp6N2vZ2u6idITVWN5RCjmM5L5Gjq/LnPbrra3hf5vEfz7Ho7qeRuDFEksVnN+4EZPERvZnAdxV72YPLhUtFy2rDemnIP8TQin118z6aqK/cuTOFCWvMuLwfxhnkZ46nPOT7nefYG8Zg+zmau5SUPckM6k0Zz67v5fOXz/kyhtvXdh15b7zH8m2F266AmMYcUjla90awxH2HiPBNYh3CIQU4ZuQJDLUZTgDCX2Zg5yzifp3ie8gzCN9b3jyGU0BVvHZFf2x4LDTNgz3bYeuvhdR8ZCMVkMYS7GcTbnEVYT82qJfXqpHIKIZd4IIpkDiOsJyHA+5HEboTt3AVAN1YhHCQ5oBeevdxhDsIWankp9/5kWl+dDNiz52y9ebvmtSklmLjDruUaChCGViWxJ7ELYYdDMd5Y0inCTLYXGVa8oy3fI5wg1c4wK7vw1vKXIMn9Mk4gvBohj5keQDSxlW8gmoXoEUsbq8jSdHzMTclCOEO6zWb0Fw3IoJQSMrkIqM10u4IEsaRzDjPZNA2C3OFRhBImeSX3BiRaX0Y4ipta+7rR6x7uQzjsZLq0I9VhoItYGpBBCSayuLjCbW5jI8J+PxoU1UnhKMJC2ltbBiNMd9imJdkIhaTrFLMxipsrkDt8i1BiJ/eebqfh6Gi1tY2Z9j9i7W2Z1z004izCD1XveXE1q8h+1MT+VecRh7EommSOICz2y0FKZBPCb/Sxa4tnNA9ptuzJrwj7PKqz6r4h9QPC7RXIvTHHEZvc63OCU4xy64lrQ+tT0DWG7OVN1t7e86GPoZgRhDzepY9PafzCiJ5sQtirK51hOpPUOCZyHhNZhh6gVrYxu6aPl6jvhpSJLOsEUCt3SLaTe9nRc7xEw4fbWWcXSLyGJyP7EWUrF4bBhUzkHEKOUxLO1nyHcJI0Q9xWlv+lXGTlTGY2j9pq7VVsgF1kwF6UGVJr7Oo5PcJ63tRsOZ31zNJceAu4Jiw10JaR/MBZq+R/rsSYDWsusE77sly4siyXxFkmOqzHgUS2IOzgbp/2Ippk/nASWRn1KUQQGns5vfb8HnfAy3lJ+fS6USVbvctudvO4QedvBbvZTXeDeqtFT97jPMKCyJN6mcjcdeol6oqhOqnk2zz03nArv1Qy+Y2iM6OZ71KAjh56b+9xZzQXtDc2/3FSialgi6kIwt8MOofLEMTDO0pjnuZHWgFQh6s0pstdCELbyBL79az2eCTTu9VbJmAZlFJMhk5JX1eutCzMlYrM/b2rYXs01s6re5zWXPMOy4W3tYIqePH0MXBK+Bf60Mdtt3AzRrAcE8J5HgGiOI1wnWa7nYifK9HGMYQJzOJdhjm5k3sy2C70rYxeDKajt//Z5WRh1jFN3L1ll+hMUjuzFOFYJeOaM3VIpwghp5IHV935g4951O2nho3JxOTRhVd2j/vJwCfGNUjlNEIOV4XI4HYFqSzHjFBEDim2ec4KhLc0DoAjCNf7bV8aMZ0iu8lxKRl2s7+5CP/WfGcB4l2kUh3SKPBxJLPYyloPShJ7EDZwi8seoujDXjfCEj62HpLJHuxdF5a7feFZwhIOkeL2Reoul5GJibNMpK7TBZlGqmH/yzWk0b/SLZrbhH6WHJKp5/DpAAQTQ+3uoVG8hrDHb96Z5uxBOEcmydxOMp9jQvjedvwNlHsUffgd4SfbIxRfbtm7EHY6Od/KL6bKxrWurHBTZDF04yUWkeLx79zr8nc2IQszxWQ4ScA4LL/TMcanqUflh13RC+G/FXwWTzrrEYSTZJOseyeP4UsE4Rf+yUD6M4afEEp9dD1Udt/bhLDD4X5+LyUIzxkt9y4s89DccGXJW2xlZ+dbE5upVLfCUc89kTXx4VF7uamkdxerbbssW/jViCi78MrdAdH8wOuG9d+MXIbrCn0bgnCcLJIq9VfVZCLFDik8DpLkt+MxFOEszZxaJyMcte6lIXJvTKaXk0l3+tU63/RjF8ttWndEVo2DnCaHFK8t4LIYH+c5isXo2mZorSRXF55rZ68RxJPOTgThKFkkuVnP4xKSeYMsPuF17rVOfB/SHax8ZTnCFJ0hcBYp1nPks9zLg3n941yy3DWcnW9aN2cSeQjbuNPNfq8j3zrelPjgT7e4Ocs9UJYp9XGHOEv/Y7nw3H9e7CnRJJDBfgRhLxkk+BiCditCluF7eTFml7H5PsrdYmN7749215Lfo+N8q89kzmNiBt1ZjHCUJz0ypGLoQhq5Ouk/8aiX0ZQiLKU7H2DCzDziguAdsVx4RocaxJBABoescS8ZJBgUuvcpwkCDj8B1COLCvpiLsJQXnV673JP7PynkGE8HYCQrn6Q2d2i/mhyExRQzxSORXUon2wjl6943R1jFeZYjbEA8nPgaKc0nOUY+Rx0ScPj2WoggbGSsweELF7KHAlob2uc9iE4uZa3c9V9jK7d8LdfTCTpyIgCn8iyT+JgJDOAO3mMMBdb2nSTxAi/zV3I96m8Uz3KMRSwglz0G7N9iBjOYiZzzcD+MxMS7fMYGNhuQh6DMiOnAe7yhKTrpO/n8jeV8wo1eL0TXUgrEEI3ZxXYrWejUMsBh/ladFtRnszZ1SY7P2Uw8pWySmmJnPT6L0M3Dft7miO26fsKA0X2C9X1iEEd3C6eZZ+CcwLNnEp7xMsL/GdhfZwShgY+2ew/yEIRCXrC/7oPDWm7icWLI1ATNesbTXEwLhvIFBRxBEQxe40dGGuiD300J6AYD3O924MeVfM3vtKYh7zChfHahlfs8ZgbkIJmZztVM9knuyXQkijym0ZeL+UEpLyiYSeY4MyqNRvWEUywFHffvJWSzhQFuKqMuyezkBGn2S3u0cr/G4IlH5Tfs55nm9bfb8RE/c4RsUojnHGeV8oLEQQbRiNk+2wpxvEosMBt4gsucPh1KNQr41q2e3qQrBwAQ+70K5xyRdfmSYzSiD5lsVmmlg8o83uZWRvnQQwxPsJMx9Adm8jMX8I3D/eJuXgJeJ9+t3grYAEB9ptCEdxw9M+HJGvoCzUkkkTtduq4U/mUUCbzGMlZ59e3beJMOHGAQswATg1lMF7byIUs4Rit68TeiWMh4j3qdwaNE8QZzIkHuFvKYxjRqBSi9hqIiztOfdXxMJ4/zJzTlNQZylleYZHO9/kICM+nMMzxjmyFkMtLDyiif8zW9GUFsmdcuUpbXnvODT1nhGVsZwTTe92gNVizPkUZNvmAU+xw+2UxXbiGRlsRymo381yHhbia5VnPFnv8wxyF7w3wghxKGk2kp6BZucr+HDmzgO6fWB2nHGv6nFBdk3uc2+vE9H7m1dRQDmcSlrCeVlTqfC0tYUuFcQY+5dn3H2R6b5jCcjha5h9tU9QHGcZ+m9WHG+TnaR+EeT/E7U2njxpbdWMFMzAzlel2x+8Ycttniri4Hjoe/Z0YReuTzN2qQ7SJrWxOyWE1HJtGGaS6DBbzhKy62+okuZwwHy3ImKLkrjGUt42hvC8bQUoc0tjOQ74jnBVvMlNFkMYOJ/MQPbKUeD5Y9k1FyVxjNeBaSWkGOgiS2MJHf6E6SISF9FSEM4TbmkcdLtC6fvqraTAqjMTOIX/iAjhxyaO9MBgkcZwRTMQVgPxaz2LlJje4K4ykLKihfpNOYTNZyPW/RgoyAiF2XcBzdb+Rtp5ZOSmEhxjymMoznmQDU4EnGUY8FpLI1uLsVjnJv53H+L0XgeY6bGccSGjKF5mynn4Hx+1VK7sv52Kklhc5KXyHGeR5hHf/iNo7zDzIpDYWdCke5byfTqSVRyT0E+Y1lmNhGLrNCQ+xqqqrwH2O5k30UM5ydDAkNpSm5K/zDLYxmM8/SmUHAB6wzIAWjkrsiJIljFufoa82L1oZJxLPUoFThSu6KEONDmpFqS+qazwu051vuZquPhSCU3BUhx9Pcy5dORT9/I4nbySON7QGuZ67krvAj8Uxmv24B+QV0YgSxzGS1Tn0tJXcNb/FA+UJbG5N5wGksUQSLWsymOg9XkJOuhAxa8BZdWBmQXMdhLvcNfG1Zl+LAWr5mk899mzhpS95RwknOKe16wRSuZWylCzZOkEpXljKQXX7LdVwp9knz9rE6SAfKm6R5kYuRSfOiiXO7EJlvPICw2M38zZbU5gEtq6xs96qAmZOGpVetjMuZxkmS3Yx4zKENI7iEbBbSXsk90ERxDzP4iTzW8QUDgnGbNfiencswTesMcnWKRhqjpSwa8JhTRoHKKCaDNkzjVjaQqalnHk0i01nGb2zmU/o43DP+wXQe0rEPprtTQkcZM9DaWpCr/PUHD4e1MVOIUEIXp9ZtiNuVUTwjXbfEjDtcxwqEEw61Um5gq9P5WGOXS8jL6h1qdLfQiZV0YT/DaUEdmtGXNVzCp4wM899Vjek+lPDxhATGsJnRXn13HTfzGOeYYis/2pNFtGUrybQilpakcoRuLDKmnkpVH93rsgsh16FASgwZCCY3qr+G8uhuQkgPwOh+Ib9T6GNVr1jSKWIA0JBjCN84mJNtOYbYnNA+1WYKntwvsbtBBU/uzyPs01QDimIxwoqg7FEvSn2uH1KIMEVj0PhH7p8hDDGgnyuJAsYiHKaO02fDEYqs47thcr8jYONZdVLJZ34IyH03wvM67X9BMAehhHtvzmGuMIOWJ3LvwByEjXYGjT/kPhThCwP724HY19ywjf5PEG8NPzBM7oEika0IO+yqPgRL7s0QhGt1fTUHEAOLtbs7shdxhEJDjJkOXMYJhHF+lHs7zrDPwCqFVyKIZortiJdyD85qpta8wV3k8wJTQiBRdVtAdBcNC5toEuCg1Tv5mgJ6soJoF6e8Ys7bFd08xEg+ZDTfsN4v+1uT2dTgYU4a1uPlAGxxud2DxDu1dHTvP/icRfwzQM/d4sigBBNZXOLQ3pXvWB+U0b0fUmGS/JkInwVU7EUcoT2wk70VFlN09dplN7oDfI2wxZrIzujRfSrCi4YegwcQl5VYfCo0mcFUXmEIz5ON+PFkVmMw/+IiljCCX+zaL2U8gyghw8dSwN5R4uL4nA2g2C0j+ybgDerTiBRi+cjjZN7OF+/TdKcdYxhj+B7fxVMsYZKhfRYAtajmcn3rF5qwwAkOKVhacCt1WcdKrabLirWv8WNgZk9+RdjvFO3s7+L0rrkewVzBvW2Rg93r/5H9T7vH6a04QDH3+2i7WxiEUMJ1Bo/uTTjKUU0NJV9pjyAuCpu5tt1HUMwhtmN2cmjauIB0zmH2S2BmS7IRzpDuJKvAFKevnHoUIfTQtUsLEJ2H1f4T+zWGid1R7vAVwlZq2cl9BstJdTIpPSGaBZgryAXp22zgNMIDOp9M4O/Wi8uV3Lth4j/EAPdh5uWK/qtWZCMUGhqYWXYZZXOF04R1HsIJ0gL03K+y26LwqU77IIT8gMxpjBe7s9wbcxxhvJ3cZ3MOoYT/MdQr0Y/xOmjAFdmIJpcQtEEQqyfPldyfo5C6Nl/U0sqNjk2GBWaWGUnrSahgwnoRwedWBLMmuOhSDiNkBEHsVxsgdme5w0CEEk7bGTN1SCKLAgQTy0m1+kTcoxvF/OqnoSARwaQJZJuJsNc6NLo2ZmJsv/EkX7qaUqZwFGGhrjfaE6t4NcIhUhyi2aqRwhGEH33s3UjeRyhiiN2sojM7EfIM9Ce7L/aDBohdK3eLQSMa2702SWRxCkHYQjpXu9F3ffIodKtKh3d8hXCMnnaaGY8g9HPbdrcMWL1Zwil3cog2IIMSSnQCM93jcrIwU0wG9Rzae/ArYl/JOCSowacIwjbeYBTjWIAJIc+tUx+aYteTu8Wg0Z+q1iKJTP60ib5yx8FshMF+PCoXsRlBWM2/eYFp7EYcBO6e3OcgCNNsZo0L2vC9V9Z1HdI5i5BDC50JayHpLoqZBIdkdjmE/05wulDDS+x6cocBFcq9zARIIIPDVtFPdDJByxhicNCAHnWZSpHd+djLQI88M5YhtyH9Oc1K9yN/k9jtke8kij78rvMNS7ybmWyaEapE0YUhpPEot1A9KDa7cWKHC4nTWUYXR5zL3xZNAhkcQBDyyCDBwXXcktOGBg1UJvleDCONJ7jJ6ZdcRScdB2gLOul4FUchdmaRGzf6Ms+460TTXViucz+IIpnDCOu4EUVgxG4E8aSz0zq2ZpBANFCTDZSE/HnsQHc789njaM3GZGKimAxNmGw5l5GJScfbch0rEQ6SohaThJXYy+jKBKvoD/AWbyFeLuIIJJ9wxpat7DmEWz3vwjJyHyNVd6V5XwoQFtidQLCUFDRzngx3pwtK7CFKe15hLeuYy3/DYNi6FROfcQFR3EU+q73b4zK7fINOTHxbdjt5W2qTxmmEHJorfYe52OuSyh4EYQXfhsUxfpzTlFCAsNiXKIFyr8tVmgmO4xQ3D2ErvZS6w1zsVzGRkwiCmQzmUxgmORoa0ouBXgdROzh4sjBzlokVmCidWIJwvAKzR4k9fMTehSxKbK7ZO6x+jluq3mmzPDE9oMnm2pAMSikhk0ZK22Es9ur0YZWd3/t/VpOgQwBjREOKsniYtfzFdohSydeZsCos9OYcf9itwQlVsdcnlX12Ui8m3WaqRnGYVVX1BJZHOzYlkS0IOwOZ8y/MuJqfNSP7fSG2j63I4IzD+qA9TmsgZlMakIdMIUprvkX4BSGfZ4MezBtKRNGRfvydu2ltawllsSeQg9lpMVw2FzptNRgJuYs04DZpDu9zsVK4ne07nIN2svmJQSEs9poks0mz7rOAFF1HhWjqliuqNHH8iCBs5j+MYzp5CMI8YkNQ7JeQzlGdRc4/VRgPuoMd6hQryohhAcIRu4VtMQyhCCGHKOBq9oSI2K9kJud1pG5mSiXe9alIsGvoKUKHfyCc0kSM34EZoT9AAAOgO/KgToLrrjxIJ+Bi8nXEftRF2uj7DEqRp4iIsX1PBWFUM5FKy7j4g3cQPtHdk2mA5bGR42sRTVz0WZ8S3bW9iipIJwTRTUeRgGB2WqAebLnXYLud1EtJd+tJ+CqOhmN8qwrJNZ4bgP0c0vlkJWeIMiKKw0CKedb2fj89SHer1EwujTQrpZTcqySXAgd1PzFzGFyaCoHmO74HYC6dKk9RYcdC4HYldwXEQoUZlQsgmEXSK2A4pxnB/Rx3+xurKCQx/E5NNaVOw/kTKlzMEgccDrk93kULjnloAi2lB7UDUs9PyT2k2QO0JkbHBq5PM2BvwPfoap52amnt9Pcxj/tcwF3cxAJ1uqs69SmqYHVkP4QTAV4c8U6FqaGn+dRve4SJyphRnOIb+vIKt2F2aK/JaCA7CAUcdtiVBLJwu8/5ljdzOBytd4XxtKUI4W0HR0B1ZiEUBtjr7trv7j2zMIVEhk8PUJ4Zf7CNv2PiKVaQxAVAfR5iDQMoZVAQLHd/sZBoblMnWwFwtzX1nNhCsPYHxVPtv9G9iQF9KNs9QviWlgwiiXhiOcwOPmMuxRH1Cw+yjTuU3BUWzvCOrcpzZLKAYbS0Fj5TtrsiwllAmIUSKLkrvGcRJeHljFTGTKTzDQd1ynd+yU42+Nx3AWvpofv8WKGIQNIRrlfGjKLqWO/q2aqiilCNUyxWh0FRVcjhfAhG8CtjRuEnc6YGNyu5K6oGWwjLZXwKhedcwR6E7epAKCKfZuymlGWYaRweO6yqayi8F/siruAx1nMPpZzhMKIOiiKSR/aBQGNyEYRCvuKpCtOoKhQRIHaAaG5ily2y/zDZpHiRTSeaa/kr99KZeprP6hKns8a3HnGqnoAisGKHOixAmE4siUxkPSYEYTeZ9NGRrh51SecPu+I4c5xylG1EeErzrV0Ig9TpUARD7OVO7YvoQya/IwglrGciiVSvpMeW7EAQNjKD95jPOYRihiu5K0JP7AudxF5Oc1LIttZkLSCXNN38mA3Zi7CNm2wtjfkYQXhcyV0RLmIvI4YupJFrtewPkU2KQ37kTxC2Ud/hO1G8g1Bg207JXREiYv/AzWfz9biXqdb02iY2MIlWwFWUInTXbB3LPoSXldwVwRJ7ng9iL+dS+pDJAYQEIBXhN93tXkPYouSuCGexl5srnagOfI4wS3eLmxHE6tnZiDCOtk6vvUruinAQeznLEF7T/eRKBKGNTe76L4/krtaqKtwR+2Ka8ZhtFK5DDj2YTopTFkxvuICKsuGfArCbwh7mhNMWrdRDJkX4jOwA812M7lcYabureHdF8EZ2gH1os81biAdKdWtcKRRhOLKDpUbrcWrrfPI2YkvUrTwzigCJfYAfxQ41OIbwvKa9KQWI7UJTcldEgNgBhiOcp7dDWxyrELbapqJK7oqIEDtEkY1QwhRaAVCXAeQh5NPeto2Su8KvfEApjwRA7ADVeN0aNHyaw9Z3m7jGbgsld4VfqUXPAIndQjxT2U4JxezmK5KclpVOYyH3aL6TxcJwyzCvCAUuZyzL2c+frGcmtzh8FgixKxQB43nOWh/Jl1r/XWVbc6rErogopiAIn3MLNYmmGaM4jHCUdgCMR8gkSh0mRSTwMEIp/R3amrDR5gasTaoSuyIyqEYewqua9tacQxiiDpAikrgToYgGOp9MQ1ioDpAikpiAsFz3k94IpdSNrJ+r5ttVm9ZgWyDnyGYghqZK7orIoQGQr/vJnwDhkupUyV3hDuehAr+LJUVdgZK7InI4UOEIbsnxeFDJXRE5rANu0h3fE4A/OKwOkSJyaMh5hF6a9ijWIrypDpAisvgQYbfG856KUGINI1AoIoaL2IewlU52k9SxmBDGqoOjiDxak4dgYgmvk85H1jzrb6hIGUVkUo9/k2/Ly2VifqQumlBXsMJCLa6jJdEcZDMH1OFQKBQKRfjw/0EFd8zSxaeNAAAAJXRFWHRkYXRlOmNyZWF0ZQAyMDIzLTA3LTA5VDEyOjI2OjI5KzAwOjAw3T2RMgAAACV0RVh0ZGF0ZTptb2RpZnkAMjAyMy0wNy0wOVQxMjoyNjoyOSswMDowMKxgKY4AAAAASUVORK5CYII=;" vertex="1" parent="1">
          <mxGeometry x="641.72" y="490" width="186.56" height="99" as="geometry" />
        </mxCell>
        <mxCell id="6Ph3FFAFWkGROpy7kaW0-13" value="Predict BGC and product using antiSMASH" style="text;html=1;strokeColor=none;fillColor=none;align=center;verticalAlign=middle;whiteSpace=wrap;rounded=0;" vertex="1" parent="1">
          <mxGeometry x="320" y="260" width="150" height="30" as="geometry" />
        </mxCell>
        <mxCell id="6Ph3FFAFWkGROpy7kaW0-14" value="Screen predicted product" style="text;html=1;strokeColor=none;fillColor=none;align=center;verticalAlign=middle;whiteSpace=wrap;rounded=0;" vertex="1" parent="1">
          <mxGeometry x="520" y="622" width="60" height="30" as="geometry" />
        </mxCell>
      </root>
    </mxGraphModel>
  </diagram>
</mxfile>
